<svg xmlns="http://www.w3.org/2000/svg" viewBox="0 0 2453.487 2759.998">
    <path d="M2428.732 1320.229 1133.247 24.755A84.52 84.52 0 0 0 1073.483 0H84.69C9.39 0-28.318 91.04 24.926 144.283l640.899 640.893-535.053 535.053c-33.006 33.007-33.006 86.521 0 119.528l535.055 535.055-640.903 640.903c-53.243 53.244-15.534 144.283 59.764 144.283h988.794a84.52 84.52 0 0 0 59.765-24.755l1295.485-1295.486c33.007-33.007 33.007-86.521 0-119.528M1053.879 2628.134H198.96l1025.502-1025.501 162.876-162.876v-.001l59.764-59.763-59.763-59.763-.001-.001-50.367-50.366L198.962 131.85h854.917L2302.02 1379.993z" style="fill:#fff;stroke-width:0"/>
</svg>
