<svg xmlns="http://www.w3.org/2000/svg" xmlns:xlink="http://www.w3.org/1999/xlink" id="Layer_1" x="0" y="0" version="1.1" viewBox="0 0 1096.42 1080" xml:space="preserve"><style>.st3{fill:#202020}</style><defs><path id="SVGID_1_" d="M481.102 65.658h134.264v148.819H481.102z"/></defs><clipPath id="SVGID_00000116225158900521564870000006883394199931846295_"><use xlink:href="#SVGID_1_" style="overflow:visible"/></clipPath><path d="m489.68 136.845 30.655-30.655a4.557 4.557 0 0 1 6.444 0l30.655 30.655a4.557 4.557 0 0 1 0 6.445l-30.655 30.654a4.556 4.556 0 0 1-6.444 0L489.68 143.29a4.557 4.557 0 0 1 0-6.445" style="clip-path:url(#SVGID_00000116225158900521564870000006883394199931846295_);fill:#202020"/><path d="m483.972 206.697 63.408-63.407a4.56 4.56 0 0 0 0-6.445l-63.408-63.407c-2.87-2.87-.838-7.78 3.223-7.78h53.315c1.21 0 2.368.48 3.223 1.336l69.852 69.85a4.557 4.557 0 0 1 0 6.446l-69.852 69.853a4.56 4.56 0 0 1-3.223 1.335h-53.316c-4.06 0-6.093-4.91-3.222-7.78" style="clip-path:url(#SVGID_00000116225158900521564870000006883394199931846295_);fill:#202020"/><path d="M504.434 120.944h38.247v38.247h-38.247z" style="clip-path:url(#SVGID_00000116225158900521564870000006883394199931846295_);fill:#1795d2" transform="rotate(-45 523.556 140.067)"/><path d="M539.454 72.768h-46.097l67.3 67.3-67.3 67.3h46.097l67.3-67.3z" style="clip-path:url(#SVGID_00000116225158900521564870000006883394199931846295_);fill:#fff"/><path d="M504.47 235.093h6.6v36h10.86v6h-17.46zm22.56 39.84q-2.58-2.76-2.58-7.8v-22.08q0-5.04 2.58-7.8t7.44-2.76c4.86 0 5.72.92 7.44 2.76q2.58 2.76 2.58 7.8v22.08q0 5.04-2.58 7.8t-7.44 2.76c-4.86 0-5.72-.92-7.44-2.76m10.86-7.38v-22.92q0-4.14-3.42-4.14t-3.42 4.14v22.92q0 4.14 3.42 4.14t3.42-4.14m13.08 7.41q-2.52-2.73-2.52-7.83v-22.08q0-5.1 2.52-7.83t7.32-2.73c4.8 0 5.64.91 7.32 2.73q2.52 2.73 2.52 7.83v3.6h-6.24v-4.02q0-4.14-3.42-4.14t-3.42 4.14v22.98q0 4.08 3.42 4.08t3.42-4.08v-8.22h-3.3v-6h9.54v13.74q0 5.1-2.52 7.83t-7.32 2.73c-4.8 0-5.64-.91-7.32-2.73m23.52-.03q-2.58-2.76-2.58-7.8v-22.08q0-5.04 2.58-7.8t7.44-2.76c4.86 0 5.72.92 7.44 2.76q2.58 2.76 2.58 7.8v22.08q0 5.04-2.58 7.8t-7.44 2.76c-4.86 0-5.721-.92-7.44-2.76m10.86-7.38v-22.92q0-4.14-3.42-4.14t-3.42 4.14v22.92q0 4.14 3.42 4.14t3.42-4.14m251.102 54.107-10.919 51.767-10.918-51.768h-32.747v148.818h32.37l-.52-24.37h23.631l-.519 24.37h32.37V321.66z" class="st3"/><defs><path id="SVGID_00000160896200560079388910000007800439869764479873_" d="M91.488 321.658h913.491v148.819H91.488z"/></defs><clipPath id="SVGID_00000122718163575998705230000009062992377858561941_"><use xlink:href="#SVGID_00000160896200560079388910000007800439869764479873_" style="overflow:visible"/></clipPath><path d="M934.22 470.477V321.659h38.415c20.904 0 32.418 11.712 32.418 32.98v89.232c0 16.908-10.449 26.606-28.667 26.606zm38.617-30.529v-85.122c0-1.479-.196-2.257-.318-2.597a4 4 0 0 0-.633-.042h-5.45v87.761z" style="clip-path:url(#SVGID_00000122718163575998705230000009062992377858561941_);fill:#202020"/><path d="M893.273 470.477c-18.338 0-28.855-10.927-28.855-29.98v-88.67c0-19.172 10.45-30.168 28.669-30.168h17.246c18.219 0 28.668 10.996 28.668 30.168v88.67c0 19.053-10.517 29.98-28.855 29.98zm3.397-30.584c.215.03.514.055.915.055h9.167q.031-.3.033-.764V352.95c0-.3-.016-.531-.036-.708a7 7 0 0 0-.916-.056h-8.435c-.305 0-.544.016-.728.037a6 6 0 0 0-.036.727v86.233c0 .299.015.533.036.709" style="clip-path:url(#SVGID_00000122718163575998705230000009062992377858561941_);fill:#202020"/><path d="m825.534 407.878 16.685-79.11h19.87v134.6h-17.996l1.875-88.11-13.498 63.739h-13.873L805.1 375.259l1.874 88.109h-17.996v-134.6h19.87zm67.739 55.489q-21.747.002-21.745-22.87v-88.671q-.001-23.058 21.56-23.058h17.245q21.557 0 21.558 23.058v88.671q0 22.872-21.746 22.87zm4.312-16.309h9.185q7.123 0 7.124-7.874v-86.233q-.001-7.874-8.06-7.874h-8.436q-7.874 0-7.874 7.874v86.233q-.002 7.875 8.061 7.874m43.745 16.309V328.768h31.306q25.308 0 25.308 25.87v89.233c0 13-7.19 19.496-21.558 19.496zm17.996-16.309h13.497q7.123.001 7.124-5.999v-86.233c0-6.497-2.69-9.749-8.061-9.749h-12.56z" style="clip-path:url(#SVGID_00000122718163575998705230000009062992377858561941_);fill:#1795d2"/><path d="m662.241 392.845 30.654-30.655a4.56 4.56 0 0 1 6.445 0l30.655 30.655a4.56 4.56 0 0 1 0 6.445l-30.655 30.654a4.557 4.557 0 0 1-6.445 0l-30.654-30.654a4.557 4.557 0 0 1 0-6.445" style="clip-path:url(#SVGID_00000122718163575998705230000009062992377858561941_);fill:#202020"/><path d="m656.534 462.697 63.407-63.407a4.557 4.557 0 0 0 0-6.445l-63.407-63.407c-2.871-2.871-.838-7.78 3.222-7.78h53.316c1.209 0 2.368.48 3.222 1.335l69.852 69.852a4.556 4.556 0 0 1 .001 6.445l-69.853 69.852a4.56 4.56 0 0 1-3.222 1.335h-53.316c-4.06 0-6.093-4.909-3.222-7.78" style="clip-path:url(#SVGID_00000122718163575998705230000009062992377858561941_);fill:#202020"/><path d="M676.995 376.943h38.247v38.247h-38.247z" style="clip-path:url(#SVGID_00000122718163575998705230000009062992377858561941_);fill:#1795d2" transform="rotate(-45 696.117 396.065)"/><path d="M712.015 328.767h-46.097l67.3 67.3-67.3 67.3h46.097l67.299-67.3z" style="clip-path:url(#SVGID_00000122718163575998705230000009062992377858561941_);fill:#fff"/><path d="m145.997 321.66-10.918 51.765-10.918-51.766H91.489v148.818h32.294l-.52-24.37h23.63l-.518 24.37h32.369V321.66zm483.549 0-10.92 51.767-10.917-51.768h-32.747v148.818h32.369l-.519-24.37h23.63l-.518 24.37h32.368V321.66z" class="st3"/><defs><path id="SVGID_00000117637022419723982320000012166839019087973761_" d="M91.488 321.658h913.491v148.819H91.488z"/></defs><clipPath id="SVGID_00000014614059236479737190000010470121298018197635_"><use xlink:href="#SVGID_00000117637022419723982320000012166839019087973761_" style="overflow:visible"/></clipPath><path d="M202.819 470.477c-18.34 0-28.856-10.927-28.856-29.98v-88.67c0-19.172 10.449-30.168 28.668-30.168h17.246c18.219 0 28.668 10.996 28.668 30.168v88.67c0 19.053-10.517 29.98-28.855 29.98zm3.397-30.584c.215.03.514.055.914.055h9.167c.019-.201.033-.454.033-.764V352.95c0-.3-.016-.531-.037-.708a7 7 0 0 0-.914-.056h-8.436c-.305 0-.544.016-.727.037a6 6 0 0 0-.037.727v86.233c0 .299.016.533.037.709" style="clip-path:url(#SVGID_00000014614059236479737190000010470121298018197635_);fill:#202020"/><path d="m298.726 470.477.519-24.37h-23.63l.518 24.37h-32.368V321.66h32.747l10.917 51.766 10.918-51.766h32.747v148.818z" style="clip-path:url(#SVGID_00000014614059236479737190000010470121298018197635_);fill:#202020"/><path d="M326.314 470.477V321.66h58.835v30.528h-26.62v26.648h23.62v30.528h-23.62v30.585h26.62v30.53z" style="clip-path:url(#SVGID_00000014614059236479737190000010470121298018197635_);fill:#202020"/><path d="M417.673 470.477v-32.824l-5.089-16.158v48.982h-32.216V321.66h30.412l6.893 23.222V321.66h32.215v148.818zm118.032 0c-10.707 0-28.67-4.26-28.67-32.792V321.66h32.216v116.588c0 .835.08 1.364.154 1.67.149.017.35.031.61.031h7.376c.069-.346.137-.893.137-1.7V321.658h32.215v116.213c0 28.37-18.078 32.605-28.854 32.605z" style="clip-path:url(#SVGID_00000014614059236479737190000010470121298018197635_);fill:#202020"/><path d="M462.355 470.477v-118.29h-17.247V321.66h66.709v30.528H494.57v118.29z" style="clip-path:url(#SVGID_00000014614059236479737190000010470121298018197635_);fill:#202020"/><path d="m135.079 407.878 16.684-79.11h19.872v134.6h-17.997l1.874-88.11-13.497 63.739h-13.873l-13.496-63.738 1.874 88.109H98.523v-134.6h19.872zm67.739 55.489q-21.748.002-21.746-22.87v-88.671q0-23.058 21.559-23.058h17.246q21.556 0 21.558 23.058v88.671q-.001 22.872-21.745 22.87zm4.312-16.309h9.186q7.122 0 7.123-7.874v-86.233c0-5.249-2.69-7.874-8.061-7.874h-8.436q-7.874 0-7.873 7.874v86.233q0 7.875 8.06 7.874m80.301-39.18 16.683-79.11h19.872v134.6h-17.997l1.874-88.11-13.497 63.739h-13.873l-13.496-63.738 1.874 88.109h-17.997v-134.6h19.872zm45.993 55.489V328.768h44.616v16.31h-26.62v40.867h23.62v16.31h-23.62v44.803h26.62v16.31zm91.359-69.549v-65.05h17.997v134.599h-17.997V436.56l-19.308-61.301v88.108h-17.997V328.769h17.997zm62.678-48.74v118.29h-17.996v-118.29h-17.247v-16.31h52.49v16.31zm85.173-16.31v109.104q0 25.496-21.744 25.495h-15.185q-21.56.001-21.559-25.682V328.768h17.996v109.48q0 8.81 7.873 8.81h7.313q7.31 0 7.311-8.81v-109.48zm45.994 79.11 16.685-79.11h19.871v134.6h-17.997l1.875-88.11-13.498 63.739H611.69l-13.497-63.738 1.874 88.109h-17.996v-134.6h19.871z" style="clip-path:url(#SVGID_00000014614059236479737190000010470121298018197635_);fill:#fff"/><path d="M459.862 497.093h-6.9v-6h20.4v6h-6.9v36h-6.6zm16.68-6h6.6v42h-6.6zm16.678 6h-6.899v-6h20.4v6h-6.9v36h-6.6zm16.681-6h6.6v36h10.86v6h-17.46zm20.639 0h18v6h-11.4v11.1h9.06v6h-9.06v12.9h11.4v6h-18zm23.85 39.9q-2.49-2.7-2.49-7.62v-22.56q0-4.92 2.49-7.62t7.23-2.7c4.74 0 5.57.9 7.23 2.7q2.49 2.7 2.49 7.62v4.44h-6.24v-4.86q0-3.9-3.3-3.9t-3.3 3.9v23.46q0 3.84 3.3 3.84t3.3-3.84v-6.42h6.24v5.94q0 4.92-2.49 7.62t-7.23 2.7c-4.74 0-5.57-.9-7.23-2.7m26.01-39.9h8.94l6.839 42h-6.6l-1.2-8.34v.12h-7.5l-1.2 8.22h-6.12zm7.199 28.08-2.94-20.76h-.12l-2.88 20.76zm11.76-28.08h9.78q5.1 0 7.44 2.37t2.34 7.29v2.58q0 6.54-4.32 8.28v.12q2.4.72 3.39 2.94t.99 5.94v7.38q0 1.8.12 2.91t.6 2.19h-6.72q-.36-1.02-.48-1.92t-.12-3.24v-7.68q0-2.88-.93-4.02t-3.21-1.14h-2.28v18h-6.6zm9 18q1.98 0 2.97-1.02t.99-3.42v-3.24q0-2.28-.81-3.3t-2.55-1.02h-3v12zm15.179-18h10.08q4.92 0 7.38 2.64t2.46 7.74v21.24q0 5.1-2.46 7.74t-7.38 2.64h-10.08zm9.96 36q1.62 0 2.49-.96t.87-3.12v-21.84q0-2.16-.87-3.12t-2.49-.96h-3.36v30zm69.672 506.277L656.54 1080H400.95l-46.63-46.63c-9.17-9.17-9.17-24.02 0-33.19l148.54-148.54 9.29-9.29c9.14-9.13 23.93-9.16 33.1-.08l158.08 158.08c9 9.18 8.94 23.91-.16 33.02" class="st3"/><path d="M992.29 1033.37 945.66 1080H604.78l46.63-46.63c9.11-9.11 9.16-23.85.15-33.03L528.75 877.52l-25.89-25.88-177.93-177.93c-14.78-14.78-4.31-40.05 16.59-40.05h274.52c6.22 0 12.19 2.47 16.59 6.87l359.66 359.65c9.16 9.17 9.16 24.03 0 33.19" class="st3"/><path d="m668 1016.78-16.59 16.59-46.63 46.63H452.72l-63.22-63.22 139.25-139.26 122.81 122.82z" style="fill:#1795d2"/><path d="M957.11 1016.78 893.89 1080H656.54l46.63-46.63 16.59-16.59-174.51-174.51-172-172.01h237.34z" style="fill:#fff"/><path d="m29.05 858.89.49-4.76h-3.11l1.04-9.82h-5.31l-1.03 9.82H16.8l1.03-9.82h-5.3l-1.04 9.82H8.44l-.49 4.76H11l-1.15 11.16H6.86l-.49 4.76h2.99L8.08 887h5.3l1.28-12.19h4.33L17.71 887h5.31l1.28-12.19h3.11l.49-4.76h-3.11l1.15-11.16zm-9.57 11.16h-4.33l1.16-11.16h4.33zm31.28-19.64v-6.1H33.02V887h6.7v-18.6h8.66v-6.1h-8.66v-11.89zm20.98 0v-6.1H53.99V887h6.71v-18.6h8.66v-6.1H60.7v-11.89zm20.98 0v-6.1H74.97V887h6.71v-18.6h8.66v-6.1h-8.66v-11.89zm20.97 0v-6.1H95.95V887h6.71v-18.6h8.66v-6.1h-8.66v-11.89zm20.98 0v-6.1h-17.75V887h6.71v-18.6h8.66v-6.1h-8.66v-11.89zm20.98 0v-6.1H137.9V887h6.71v-18.6h8.66v-6.1h-8.66v-11.89zm-126.6 78.98.49-4.76h-3.11l1.04-9.82h-5.31l-1.03 9.82H16.8l1.03-9.82h-5.3l-1.04 9.82H8.44l-.49 4.76H11l-1.15 11.16H6.86l-.49 4.76h2.99L8.08 957.5h5.3l1.28-12.19h4.33l-1.28 12.19h5.31l1.28-12.19h3.11l.49-4.76h-3.11l1.15-11.16zm-9.57 11.16h-4.33l1.16-11.16h4.33zm20.06 9.94c0-1.5.35-2.92 1.04-4.24s2.03-3.04 4.02-5.15c3.05-3.21 5.2-6.06 6.44-8.54q1.86-3.72 1.86-7.62c0-3.46-.86-6.11-2.56-7.96-1.71-1.85-4.19-2.77-7.44-2.77-3.26 0-5.74.92-7.44 2.77-1.71 1.85-2.57 4.5-2.57 7.96v4.14h6.35v-4.57c0-2.81 1.16-4.21 3.47-4.21 1.14 0 2 .36 2.59 1.07s.89 1.98.89 3.81c0 2.04-.48 3.99-1.43 5.86-.96 1.87-2.68 4.12-5.16 6.76-2.52 2.65-4.27 5.06-5.24 7.23-.98 2.18-1.47 4.79-1.47 7.84v4.63h19.4v-6.1H39.54zm35.13-33.48c-1.75-1.87-4.27-2.8-7.57-2.8-3.29 0-5.81.93-7.56 2.8s-2.62 4.51-2.62 7.93v22.44c0 3.41.87 6.06 2.62 7.93s4.27 2.8 7.56 2.8c3.3 0 5.82-.93 7.57-2.8 1.74-1.87 2.62-4.52 2.62-7.93v-22.44c0-3.42-.88-6.06-2.62-7.93m-4.09 30.8q0 4.2-3.48 4.2c-2.31 0-3.47-1.4-3.47-4.2v-23.3c0-2.81 1.16-4.21 3.47-4.21 2.32 0 3.48 1.4 3.48 4.21zm17.75 2.68c0-1.5.34-2.92 1.03-4.24s2.03-3.04 4.03-5.15c3.05-3.21 5.19-6.06 6.43-8.54q1.86-3.72 1.86-7.62c0-3.46-.85-6.11-2.56-7.96s-4.19-2.77-7.44-2.77-5.73.92-7.44 2.77-2.56 4.5-2.56 7.96v4.14h6.34v-4.57c0-2.81 1.16-4.21 3.48-4.21 1.13 0 2 .36 2.59 1.07s.88 1.98.88 3.81c0 2.04-.48 3.99-1.43 5.86-.96 1.87-2.67 4.12-5.15 6.76q-3.78 3.975-5.25 7.23c-.97 2.18-1.46 4.79-1.46 7.84v4.63h19.39v-6.1H88.33zm35.12-33.48c-1.75-1.87-4.27-2.8-7.56-2.8s-5.82.93-7.56 2.8c-1.75 1.87-2.62 4.51-2.62 7.93v22.44c0 3.41.87 6.06 2.62 7.93 1.74 1.87 4.27 2.8 7.56 2.8s5.81-.93 7.56-2.8 2.62-4.52 2.62-7.93v-22.44c0-3.42-.87-6.06-2.62-7.93m-4.09 30.8c0 2.8-1.15 4.2-3.47 4.2s-3.48-1.4-3.48-4.2v-23.3c0-2.81 1.16-4.21 3.48-4.21s3.47 1.4 3.47 4.21zm17.75 2.68c0-1.5.35-2.92 1.04-4.24s2.03-3.04 4.02-5.15c3.05-3.21 5.19-6.06 6.44-8.54 1.23-2.48 1.85-5.02 1.85-7.62 0-3.46-.85-6.11-2.56-7.96-1.7-1.85-4.18-2.77-7.44-2.77-3.25 0-5.73.92-7.44 2.77-1.7 1.85-2.56 4.5-2.56 7.96v4.14h6.35v-4.57c0-2.81 1.15-4.21 3.47-4.21 1.14 0 2 .36 2.59 1.07s.89 1.98.89 3.81c0 2.04-.48 3.99-1.44 5.86-.95 1.87-2.67 4.12-5.15 6.76-2.52 2.65-4.27 5.06-5.24 7.23-.98 2.18-1.47 4.79-1.47 7.84v4.63h19.39v-6.1h-12.74zm35.13-33.48c-1.75-1.87-4.27-2.8-7.57-2.8-3.29 0-5.81.93-7.56 2.8s-2.62 4.51-2.62 7.93v22.44c0 3.41.87 6.06 2.62 7.93s4.27 2.8 7.56 2.8c3.3 0 5.82-.93 7.57-2.8 1.74-1.87 2.62-4.52 2.62-7.93v-22.44c0-3.42-.88-6.06-2.62-7.93m-4.09 30.8q0 4.2-3.48 4.2c-2.31 0-3.47-1.4-3.47-4.2v-23.3c0-2.81 1.16-4.21 3.47-4.21 2.32 0 3.48 1.4 3.48 4.21zm-139.1 52.08.49-4.76h-3.11l1.04-9.82h-5.31l-1.03 9.82H16.8l1.03-9.82h-5.3l-1.04 9.82H8.44l-.49 4.76H11l-1.15 11.16H6.86l-.49 4.76h2.99L8.08 1028h5.3l1.28-12.19h4.33L17.71 1028h5.31l1.28-12.19h3.11l.49-4.76h-3.11l1.15-11.16zm-9.57 11.16h-4.33l1.16-11.16h4.33zm25.12-25.74q-.795 2.145-1.83 3.27c-1.035 1.125-1.61 1.29-2.77 1.61-1.16.33-2.69.49-4.61.49v4.76h7.02V1028h6.71v-42.69zm31.96 23.63c-.7-1.44-1.81-2.57-3.36-3.38v-.12c2.77-1.55 4.15-4.35 4.15-8.42v-1.77c0-3.41-.88-6.02-2.65-7.83s-4.3-2.71-7.6-2.71c-3.29 0-5.82.9-7.59 2.71s-2.65 4.42-2.65 7.83v1.77c0 2.12.34 3.86 1.01 5.22s1.71 2.43 3.14 3.2v.12c-1.55.81-2.67 1.94-3.36 3.38-.69 1.45-1.03 3.23-1.03 5.34v3.78c0 3.42.9 6.03 2.71 7.84s4.4 2.71 7.77 2.71c3.38 0 5.97-.9 7.78-2.71s2.71-4.42 2.71-7.84v-3.78c0-2.11-.34-3.89-1.03-5.34m-12.99-13.87c0-2.84 1.18-4.27 3.53-4.27 2.36 0 3.54 1.43 3.54 4.27v3.36q0 4.26-3.54 4.26c-2.35 0-3.53-1.42-3.53-4.26zm7.32 22.62c0 3.22-1.27 4.82-3.79 4.82s-3.78-1.6-3.78-4.82v-4.08c0-3.21 1.26-4.82 3.78-4.82s3.79 1.61 3.79 4.82zm27.99-30.18c-1.75-1.87-4.27-2.8-7.57-2.8-3.29 0-5.81.93-7.56 2.8s-2.62 4.51-2.62 7.93v7.62q0 4.755 1.89 7.26c1.26 1.66 3.11 2.5 5.55 2.5 2.89 0 4.92-1.24 6.1-3.72h.12v8.17c0 1.95-.3 3.31-.91 4.09-.61.77-1.55 1.15-2.81 1.15q-3.48 0-3.48-4.2v-1.22h-6.34v.79c0 3.45.86 6.11 2.56 7.96 1.71 1.85 4.19 2.77 7.44 2.77 6.83 0 10.25-3.7 10.25-11.1v-22.07c0-3.42-.88-6.06-2.62-7.93m-4.09 15c0 2.81-1.16 4.21-3.48 4.21-2.31 0-3.47-1.4-3.47-4.21v-7.56c0-2.76 1.16-4.15 3.47-4.15 2.32 0 3.48 1.39 3.48 4.15zm29.57.49c-1.26-1.67-3.1-2.5-5.54-2.5-2.89 0-4.92 1.24-6.1 3.72h-.12v-8.17c0-1.95.3-3.32.91-4.09s1.54-1.16 2.81-1.16c2.31 0 3.47 1.4 3.47 4.21v1.22h6.34v-.79c0-3.46-.85-6.11-2.56-7.96s-4.19-2.77-7.44-2.77c-6.83 0-10.24 3.7-10.24 11.09v22.08c0 3.41.87 6.06 2.62 7.93s4.27 2.8 7.56 2.8 5.81-.93 7.56-2.8 2.63-4.52 2.63-7.93v-7.62c0-3.18-.64-5.59-1.9-7.26m-4.81 15.37q0 4.14-3.48 4.14c-3.48 0-3.47-1.38-3.47-4.14v-7.57c0-2.8 1.15-4.2 3.47-4.2s3.48 1.4 3.48 4.2zM148.33 988c-1.67-1.79-4.17-2.69-7.5-2.69h-10.25V1028h10.25c3.33 0 5.83-.89 7.5-2.68s2.5-4.41 2.5-7.87v-21.58c0-3.46-.83-6.08-2.5-7.87m-4.21 29.76c0 1.46-.29 2.52-.88 3.17s-1.43.97-2.53.97h-3.42v-30.49h3.42c1.1 0 1.94.33 2.53.98s.88 1.71.88 3.17zm29.58-9.09c-.77-1.46-2.04-2.52-3.78-3.17v-.12c1.62-.61 2.82-1.62 3.59-3.02.78-1.4 1.16-3.26 1.16-5.58v-1.53c0-3.41-.83-6.02-2.5-7.83-1.66-1.81-4.1-2.71-7.31-2.71-3.18 0-5.61.91-7.29 2.74-1.69 1.83-2.53 4.45-2.53 7.87v2.25h6.34v-2.8c0-2.64 1.08-3.97 3.23-3.97 1.02 0 1.83.35 2.44 1.04s.92 1.77.92 3.23v3.11c0 1.63-.34 2.79-1.01 3.48s-1.68 1.03-3.02 1.03h-2.44v6.1h2.26c1.54 0 2.66.42 3.35 1.25.69.84 1.04 2.23 1.04 4.18v3.47c0 1.8-.3 3.05-.89 3.76s-1.45 1.06-2.59 1.06c-2.31 0-3.47-1.4-3.47-4.2v-3.79h-6.34v3.48c0 3.41.84 6.04 2.53 7.87 1.68 1.83 4.17 2.74 7.47 2.74 3.29 0 5.78-.9 7.47-2.71 1.68-1.81 2.53-4.42 2.53-7.84v-3.78c0-2.28-.39-4.15-1.16-5.61" class="st3"/><path d="M189.63 865.658h430.603m-430.603 70.5h249.603m-249.603 70.5h335.603" style="fill:none;stroke:#4f4f4f;stroke-width:3"/></svg>