<svg xmlns="http://www.w3.org/2000/svg" xmlns:xlink="http://www.w3.org/1999/xlink" xml:space="preserve" id="Layer_1" x="0" y="0" version="1.1" viewBox="0 0 1920 1080"><style>.st1{fill:#202020}.st21{fill:none;stroke:#202020;stroke-dasharray:12.36,12.36}.st22{stroke-dasharray:11.105,11.105}.st22,.st23,.st24,.st25{fill:none;stroke:#202020}.st24,.st25{stroke-dasharray:12.318,12.318}.st25{stroke-dasharray:12.006,12.006}</style><path d="M0 0h1920v1080H0z" style="fill:#fff"/><path d="M589.295 416.293q-2.023-2.192-2.023-6.287V392.28q0-4.095 2.023-6.286 2.024-2.192 5.877-2.192t5.877 2.192 2.023 6.286v2.89h-5.01v-3.227q0-3.324-2.746-3.324c-2.746 0-2.745 1.108-2.745 3.324v18.45q0 3.276 2.745 3.275c2.745 0 2.746-1.09 2.746-3.275v-6.6h-2.65v-4.817h7.66v11.031q0 4.095-2.023 6.287t-5.877 2.192-5.877-2.192M606.492 384.283h5.299v33.72h-5.299zM614.343 384.283h5.347l3.469 26.157h.096l3.468-26.157h4.866l-5.107 33.72h-7.033zM634.142 384.283h14.451v4.817h-9.153v8.912h7.274v4.817h-7.274v10.356h9.153v4.818h-14.451zM663.477 389.1h-5.54v-4.817h16.378v4.817h-5.54v28.903h-5.298zM676.869 384.283h5.298v13.729h5.685v-13.73h5.299v33.72h-5.3V402.83h-5.684v15.174h-5.298zM697.1 384.283h14.452v4.817H702.4v8.912h7.274v4.817H702.4v10.356h9.153v4.818h-14.451zM722.293 384.283h5.3v28.902h8.719v4.818h-14.019zM740.358 416.268q-2.071-2.215-2.071-6.262V392.28q0-4.047 2.07-6.262 2.072-2.216 5.974-2.216t5.974 2.216q2.07 2.215 2.071 6.262v17.727q0 4.048-2.071 6.262-2.072 2.217-5.974 2.217t-5.973-2.217m8.72-5.924v-18.402q0-3.324-2.747-3.324c-2.747 0-2.746 1.108-2.746 3.324v18.402q0 3.323 2.746 3.323c2.746 0 2.746-1.108 2.746-3.323M759.578 416.293q-2.023-2.192-2.023-6.287V392.28q0-4.095 2.023-6.286 2.023-2.192 5.877-2.192t5.877 2.192 2.023 6.286v2.89h-5.01v-3.227q0-3.324-2.746-3.324c-2.746 0-2.745 1.108-2.745 3.324v18.45q0 3.276 2.745 3.275c2.745 0 2.746-1.09 2.746-3.275v-6.6h-2.65v-4.817h7.66v11.031q0 4.095-2.023 6.287-2.025 2.192-5.877 2.192-3.854 0-5.877-2.192M778.46 416.268q-2.07-2.215-2.07-6.262V392.28q0-4.047 2.07-6.262 2.072-2.216 5.974-2.216t5.974 2.216q2.07 2.215 2.071 6.262v17.727q0 4.048-2.071 6.262-2.072 2.217-5.974 2.217t-5.973-2.217m8.72-5.924v-18.402q0-3.324-2.746-3.324c-2.746 0-2.746 1.108-2.746 3.324v18.402q0 3.323 2.746 3.323c2.746 0 2.746-1.108 2.746-3.323M807.845 384.283h7.177l5.492 33.72h-5.299l-.963-6.696v.096h-6.022l-.963 6.6h-4.913zm5.78 22.544-2.36-16.667h-.096l-2.313 16.667zM823.066 384.283h6.648l5.155 20.184h.096v-20.184h4.72v33.72h-5.443l-6.359-24.616h-.096v24.616h-4.72zM843.635 384.283h8.093q3.95 0 5.925 2.12t1.975 6.213v17.053q0 4.096-1.975 6.214-1.976 2.12-5.925 2.12h-8.093zm7.997 28.902q1.3 0 1.999-.77.698-.77.698-2.505v-17.535q0-1.734-.698-2.504-.698-.771-2-.771h-2.697v24.085zM875.042 389.1h-5.54v-4.817h16.379v4.817h-5.54v28.903h-5.299zM888.434 384.283h5.299v33.72h-5.299zM901.825 389.1h-5.54v-4.817h16.379v4.817h-5.54v28.903h-5.3zM915.217 384.283h5.299v28.902h8.719v4.818h-14.018zM931.788 384.283h14.451v4.817h-9.153v8.912h7.274v4.817h-7.274v10.356h9.153v4.818h-14.451zM950.936 416.317q-2-2.169-2-6.118v-18.113q0-3.949 2-6.117 1.998-2.168 5.804-2.168t5.804 2.168q2 2.168 2 6.117v3.565h-5.01v-3.902q0-3.13-2.65-3.13t-2.65 3.13v18.835q0 3.083 2.65 3.083t2.65-3.083v-5.154h5.01v4.77q0 3.948-2 6.117t-5.804 2.168q-3.806 0-5.804-2.168M971.817 384.283h7.178l5.492 33.72h-5.3l-.963-6.696v.096h-6.021l-.964 6.6h-4.913zm5.781 22.544-2.36-16.667h-.097l-2.312 16.667zM987.039 384.283h7.852q4.094 0 5.974 1.902 1.878 1.904 1.878 5.853v2.072q0 5.25-3.468 6.647v.097q1.926.578 2.722 2.36.794 1.783.795 4.77v5.924q-.001 1.445.095 2.337a5.8 5.8 0 0 0 .483 1.758h-5.396q-.288-.819-.386-1.542c-.098-.723-.095-1.348-.095-2.6v-6.167q0-2.312-.747-3.227-.748-.915-2.578-.916h-1.83v14.452h-5.3zm7.226 14.451q1.59.001 2.384-.82.795-.817.795-2.745v-2.6q0-1.831-.65-2.65-.651-.82-2.047-.82h-2.409v9.635zM1006.452 384.283h8.093q3.95 0 5.925 2.12t1.975 6.213v17.053q0 4.096-1.975 6.214-1.976 2.12-5.925 2.12h-8.093zm7.997 28.902q1.3 0 1.999-.77.698-.77.698-2.505v-17.535q0-1.734-.698-2.504-.698-.771-2-.771h-2.697v24.085zM1037.811 384.283h7.178l5.492 33.72h-5.3l-.963-6.696v.096h-6.021l-.964 6.6h-4.913zm5.781 22.544-2.36-16.667h-.097l-2.312 16.667zM1054.96 389.1h-5.54v-4.817h16.378v4.817h-5.539v28.903h-5.299zM1076.058 384.283h5.3v28.902h8.719v4.818h-14.019zM1092.628 384.283h14.453v4.817h-9.153v8.912h7.274v4.817h-7.274v10.356h9.153v4.818h-14.453zM1114.21 384.283h7.177l5.492 33.72h-5.3l-.962-6.696v.096h-6.022l-.964 6.6h-4.913zm5.78 22.544-2.36-16.667h-.096l-2.313 16.667zM1130.347 416.293q-1.975-2.192-1.975-6.287v-1.926h5.01v2.312q0 3.275 2.745 3.275 1.348 0 2.047-.795c.7-.795.7-1.388.7-2.577q0-2.118-.964-3.733-.963-1.613-3.565-3.878-3.276-2.89-4.576-5.227-1.3-2.336-1.3-5.274-.001-3.999 2.023-6.19 2.021-2.192 5.877-2.192 3.804 0 5.756 2.192 1.95 2.192 1.95 6.286v1.397h-5.01v-1.734q0-1.735-.674-2.529-.674-.795-1.974-.795-2.65 0-2.65 3.228 0 1.83.987 3.42.988 1.59 3.59 3.854 3.322 2.89 4.575 5.25t1.253 5.54q0 4.144-2.047 6.358-2.048 2.217-5.95 2.217-3.853 0-5.828-2.192M1151.35 389.1h-5.54v-4.817h16.377v4.817h-5.539v28.903h-5.299zM1174.327 416.293q-2.024-2.192-2.024-6.287v-2.65h5.011v3.036q0 3.275 2.745 3.275 2.746.001 2.746-3.275v-7.563q0-3.324-2.746-3.324t-2.745 3.324v.289h-5.01l.963-18.835h13.97v4.817h-9.25l-.433 8.044h.097q1.492-2.456 4.576-2.456 2.89 0 4.384 1.975 1.493 1.975 1.493 5.732v7.611q0 4.095-2.023 6.287t-5.877 2.192c-3.853 0-4.529-.73-5.877-2.192M1193.403 416.268q-2.071-2.215-2.071-6.262V392.28q0-4.047 2.07-6.262 2.071-2.216 5.974-2.216t5.973 2.216 2.071 6.262v17.727q0 4.048-2.07 6.262-2.073 2.217-5.974 2.217t-5.973-2.217m8.719-5.924v-18.402q0-3.324-2.746-3.324t-2.746 3.324v18.402q0 3.323 2.746 3.323t2.746-3.323M1211.996 401.624q-1.302-1.396-1.301-3.998v-8.43q0-2.6 1.3-3.998 1.302-1.397 3.806-1.397c2.504 0 2.939.466 3.806 1.397q1.3 1.397 1.3 3.998v8.43q0 2.601-1.3 3.998t-3.806 1.397c-2.506 0-2.938-.465-3.805-1.397m5.54-3.757v-8.912q0-2.12-1.735-2.12c-1.735 0-1.734.707-1.734 2.12v8.912q0 2.12 1.734 2.12c1.734 0 1.735-.706 1.735-2.12m10.502-13.584h3.37l-13.053 33.72h-3.372zm-1.253 32.805q-1.302-1.397-1.301-3.999v-8.43q0-2.6 1.3-3.998 1.302-1.397 3.806-1.397t3.806 1.397q1.3 1.398 1.3 3.998v8.43q0 2.603-1.3 3.999-1.302 1.396-3.806 1.397-2.505-.001-3.805-1.397m5.54-3.758v-8.912q0-2.119-1.735-2.12c-1.735 0-1.734.708-1.734 2.12v8.912q0 2.12 1.734 2.12c1.734 0 1.735-.706 1.735-2.12M589.343 462.851q-2.071-2.214-2.071-6.262v-17.727q0-4.047 2.071-6.262 2.07-2.216 5.973-2.216t5.974 2.216 2.071 6.262v17.727q0 4.047-2.071 6.262-2.071 2.217-5.974 2.217-3.9 0-5.973-2.217m8.72-5.924v-18.402q0-3.324-2.747-3.324c-2.747 0-2.745 1.108-2.745 3.324v18.402q0 3.323 2.745 3.323c2.745 0 2.746-1.108 2.746-3.323M606.926 430.866h14.018v4.817h-8.72v9.393h6.84v4.817h-6.84v14.693h-5.298zM635.346 435.683h-5.54v-4.817h16.38v4.817h-5.541v28.903h-5.299zM648.738 430.866h5.299v13.729h5.684v-13.73h5.299v33.72h-5.3v-15.173h-5.683v15.174h-5.3zM668.97 430.866h14.451v4.817h-9.152v8.912h7.273v4.817h-7.273v10.356h9.152v4.818H668.97zM694.163 430.866h5.298v28.902h8.72v4.818h-14.018zM712.227 462.851q-2.071-2.214-2.071-6.262v-17.727q0-4.047 2.071-6.262 2.07-2.216 5.973-2.216t5.974 2.216 2.071 6.262v17.727q0 4.047-2.071 6.262-2.072 2.217-5.974 2.217t-5.973-2.217m8.72-5.924v-18.402q0-3.324-2.747-3.324c-2.747 0-2.745 1.108-2.745 3.324v18.402q0 3.323 2.745 3.323c2.745 0 2.746-1.108 2.746-3.323M731.447 462.876q-2.023-2.192-2.023-6.287v-17.727q0-4.094 2.023-6.286t5.877-2.192q3.855 0 5.877 2.192 2.025 2.193 2.024 6.286v2.89h-5.01v-3.227q0-3.324-2.746-3.324c-2.746 0-2.746 1.108-2.746 3.324v18.45q0 3.275 2.746 3.275c2.746 0 2.746-1.09 2.746-3.275v-6.6h-2.65v-4.817h7.66v11.031q0 4.095-2.024 6.287t-5.877 2.192-5.877-2.192M750.33 462.851q-2.071-2.214-2.071-6.262v-17.727q0-4.047 2.071-6.262 2.07-2.216 5.973-2.216t5.974 2.216 2.071 6.262v17.727q0 4.047-2.071 6.262-2.072 2.217-5.974 2.217-3.901 0-5.973-2.217m8.72-5.924v-18.402q0-3.324-2.747-3.324c-2.747 0-2.745 1.108-2.745 3.324v18.402q0 3.323 2.745 3.323c2.745 0 2.746-1.108 2.746-3.323M769.647 435.972h-1.734v-5.106h5.106v4.576l-2.939 6.31h-2.456zM778.028 462.876q-1.975-2.192-1.975-6.287v-1.926h5.01v2.312q0 3.276 2.746 3.275 1.348 0 2.047-.795.698-.794.698-2.577 0-2.118-.963-3.733-.964-1.614-3.565-3.878-3.277-2.89-4.576-5.227-1.3-2.336-1.3-5.274 0-3.998 2.022-6.19 2.024-2.192 5.877-2.192 3.806 0 5.757 2.192t1.95 6.286v1.397h-5.009v-1.734q0-1.735-.674-2.529-.675-.795-1.975-.795-2.65 0-2.65 3.228 0 1.83.988 3.42t3.588 3.854q3.323 2.89 4.577 5.25 1.253 2.36 1.253 5.54-.001 4.143-2.048 6.358-2.048 2.217-5.95 2.217-3.854 0-5.828-2.192M801.342 430.866h5.106l2.36 25.916h.097l2.505-25.916h5.78l2.506 25.916h.096l2.36-25.916h4.577l-3.42 33.72h-6.6l-2.409-22.737h-.096l-2.409 22.737h-7.033zM829.426 430.866h5.3v33.72h-5.3zM838.674 430.866h8.093q3.95 0 5.925 2.12t1.975 6.213v17.053q0 4.096-1.975 6.214-1.976 2.12-5.925 2.12h-8.093zm7.997 28.902q1.3 0 1.999-.77.698-.77.698-2.505v-17.535q0-1.734-.698-2.504-.698-.771-2-.771h-2.697v24.085zM862.23 435.683h-5.54v-4.817h16.378v4.817h-5.54v28.903h-5.299zM875.622 430.866h5.298v13.729h5.684v-13.73h5.3v33.72h-5.3v-15.173h-5.684v15.174h-5.298zM907.655 430.866h7.178l5.491 33.72h-5.299l-.963-6.696v.096h-6.021l-.964 6.6h-4.913zm5.78 22.544-2.36-16.667h-.096l-2.312 16.667zM922.877 430.866h7.852q4.094 0 5.973 1.902 1.88 1.904 1.879 5.853v2.072q0 5.25-3.469 6.647v.097q1.927.578 2.722 2.36t.795 4.77v5.924q0 1.445.097 2.337.096.891.481 1.758h-5.395a7.7 7.7 0 0 1-.385-1.542q-.097-.722-.097-2.6v-6.167q0-2.312-.747-3.227-.746-.916-2.577-.916h-1.83v14.452h-5.3zm7.226 14.451q1.59 0 2.384-.819.795-.818.795-2.746v-2.6q0-1.83-.65-2.65t-2.048-.82h-2.408v9.635zM943.976 462.851q-2.071-2.214-2.071-6.262v-17.727q0-4.047 2.071-6.262 2.07-2.216 5.973-2.216t5.974 2.216 2.071 6.262v17.727q0 4.047-2.071 6.262-2.072 2.217-5.974 2.217-3.901 0-5.973-2.217m8.72-5.924v-18.402q0-3.324-2.747-3.324c-2.747 0-2.745 1.108-2.745 3.324v18.402q0 3.323 2.745 3.323c2.745 0 2.746-1.108 2.746-3.323M963.39 462.876q-2.024-2.192-2.024-6.287v-25.723h5.299v26.109q0 1.734.698 2.504.7.772 2 .771 1.3 0 1.999-.77.698-.772.698-2.505v-26.11h5.106v25.724q0 4.095-2.023 6.287t-5.877 2.192-5.877-2.192M980.922 430.866h6.649l5.154 20.184h.096v-20.184h4.721v33.72H992.1l-6.36-24.616h-.095v24.616h-4.722zM1001.492 430.866h8.093q3.95 0 5.925 2.12t1.975 6.213v17.053q0 4.096-1.975 6.214-1.976 2.12-5.925 2.12h-8.093zm7.997 28.902q1.3 0 1.999-.77.698-.77.698-2.505v-17.535q0-1.734-.698-2.504-.698-.771-2-.771h-2.697v24.085zM1028.755 430.866h14.453v4.817h-9.153v8.912h7.274v4.817h-7.274v10.356h9.153v4.818h-14.453zM1044.845 430.866h5.347l3.469 26.157h.096l3.468-26.157h4.865l-5.105 33.72h-7.033zM1064.642 430.866h14.452v4.817h-9.152v8.912h7.273v4.817h-7.273v10.356h9.152v4.818h-14.452zM1082.128 430.866h7.853q4.094 0 5.974 1.902 1.878 1.904 1.878 5.853v2.072q0 5.25-3.468 6.647v.097q1.926.578 2.721 2.36t.795 4.77v5.924q0 1.445.096 2.337a5.8 5.8 0 0 0 .482 1.758h-5.395q-.288-.819-.386-1.542c-.098-.723-.095-1.348-.095-2.6v-6.167q0-2.312-.748-3.227-.747-.916-2.577-.916h-1.83v14.452h-5.3zm7.227 14.451q1.59 0 2.384-.819.795-.818.795-2.746v-2.6q0-1.83-.65-2.65-.651-.82-2.048-.82h-2.408v9.635zM1105.637 450.23l-6.407-19.364h5.636l3.613 12.38h.097l3.612-12.38h5.154l-6.406 19.365v14.355h-5.299zM1128.518 462.876q-1.976-2.192-1.976-6.287v-1.926h5.01v2.312q0 3.276 2.746 3.275 1.348 0 2.047-.795c.7-.795.7-1.388.7-2.577q0-2.118-.964-3.733-.963-1.614-3.565-3.878-3.276-2.89-4.576-5.227-1.3-2.336-1.3-5.274-.001-3.998 2.023-6.19 2.021-2.192 5.877-2.192 3.804 0 5.755 2.192t1.952 6.286v1.397h-5.01v-1.734q0-1.735-.675-2.529-.674-.795-1.975-.795-2.649 0-2.649 3.228 0 1.83.987 3.42.988 1.59 3.59 3.854 3.322 2.89 4.575 5.25t1.253 5.54q0 4.143-2.048 6.358-2.047 2.217-5.949 2.217-3.854 0-5.828-2.192M1145.377 430.866h5.3v33.72h-5.3zM1154.625 430.866h8.094q3.95 0 5.925 2.12t1.975 6.213v17.053q0 4.096-1.975 6.214-1.976 2.12-5.925 2.12h-8.094zm7.998 28.902q1.3 0 1.999-.77.697-.77.698-2.505v-17.535q-.001-1.734-.698-2.504-.698-.771-2-.771h-2.697v24.085zM1174.183 430.866h14.452v4.817h-9.152v8.912h7.273v4.817h-7.273v10.356h9.152v4.818h-14.452zM1199.375 430.866h5.3v33.72h-5.3zM1208.624 430.866h6.648l5.154 20.184h.096v-20.184h4.722v33.72h-5.444l-6.36-24.616h-.095v24.616h-4.721zM589.343 509.434q-2.071-2.216-2.071-6.263v-17.727q0-4.047 2.071-6.262 2.07-2.216 5.973-2.216t5.974 2.216 2.071 6.262v17.727q0 4.047-2.071 6.263t-5.974 2.216q-3.9 0-5.973-2.216m8.72-5.925v-18.402q0-3.324-2.747-3.324c-2.747 0-2.745 1.108-2.745 3.324v18.402q0 3.323 2.745 3.323c2.745 0 2.746-1.107 2.746-3.323M606.926 477.448h7.852q4.094 0 5.973 1.902 1.878 1.904 1.879 5.853v2.072q0 5.25-3.469 6.647v.097q1.927.578 2.722 2.36t.795 4.77v5.924q0 1.446.096 2.337t.482 1.758h-5.395a7.7 7.7 0 0 1-.385-1.542q-.097-.723-.097-2.6v-6.167q0-2.312-.747-3.227-.747-.916-2.577-.916h-1.83v14.452h-5.3zm7.225 14.451q1.59 0 2.385-.819.795-.818.795-2.746v-2.6q0-1.83-.65-2.65-.651-.82-2.048-.82h-2.408v9.635zM626.339 477.448h8.093q3.949 0 5.925 2.12t1.975 6.213v17.053q0 4.096-1.975 6.214-1.976 2.12-5.925 2.12h-8.093zm7.996 28.902q1.302 0 2-.77t.698-2.505V485.54q0-1.734-.699-2.504-.697-.771-1.999-.771h-2.697v24.085zM645.896 477.448h14.452v4.817h-9.153v8.912h7.274v4.817h-7.274v10.356h9.153v4.818h-14.452zM663.382 477.448h7.852q4.095 0 5.974 1.902 1.878 1.904 1.878 5.853v2.072q0 5.25-3.468 6.647v.097q1.927.578 2.722 2.36t.794 4.77v5.924q0 1.446.097 2.337.096.891.481 1.758h-5.395a7.7 7.7 0 0 1-.385-1.542q-.097-.723-.097-2.6v-6.167q0-2.312-.746-3.227-.747-.916-2.577-.916h-1.83v14.452h-5.3zm7.226 14.451q1.59 0 2.385-.819.795-.818.795-2.746v-2.6q0-1.83-.65-2.65-.651-.82-2.048-.82h-2.409v9.635zM694.645 482.265h-5.54v-4.817h16.379v4.817h-5.54v28.903h-5.299zM709.578 509.434q-2.071-2.216-2.071-6.263v-17.727q0-4.047 2.071-6.262 2.07-2.216 5.973-2.216t5.974 2.216 2.071 6.262v17.727q0 4.047-2.071 6.263t-5.974 2.216q-3.901 0-5.973-2.216m8.72-5.925v-18.402q0-3.324-2.747-3.324c-2.747 0-2.745 1.108-2.745 3.324v18.402q0 3.323 2.745 3.323c2.745 0 2.746-1.107 2.746-3.323M734.868 477.448h14.451v4.817h-9.152v8.912h7.273v4.817h-7.273v10.356h9.152v4.818h-14.451zM752.354 477.448H759l5.155 20.184h.096v-20.184h4.72v33.72h-5.443l-6.359-24.616h-.096v24.616h-4.72zM773.982 509.458q-1.975-2.192-1.975-6.287v-1.926h5.01v2.312q0 3.276 2.746 3.275 1.348 0 2.047-.794.698-.795.698-2.578 0-2.118-.963-3.733-.963-1.614-3.565-3.878-3.276-2.89-4.576-5.227-1.3-2.336-1.3-5.274 0-3.997 2.022-6.19 2.024-2.192 5.877-2.192 3.805 0 5.757 2.192 1.95 2.193 1.95 6.286v1.397h-5.009v-1.734q0-1.735-.674-2.529-.675-.795-1.975-.795-2.65 0-2.65 3.228 0 1.83.988 3.42.987 1.59 3.589 3.854 3.322 2.89 4.576 5.25t1.253 5.54q-.001 4.144-2.048 6.358-2.048 2.217-5.949 2.217-3.855 0-5.83-2.192M792.672 509.458q-2.023-2.192-2.023-6.287v-25.723h5.299v26.109q0 1.734.698 2.504.698.772 2 .771c1.301 0 1.533-.256 1.999-.77q.698-.772.698-2.505v-26.11h5.106v25.724q0 4.095-2.023 6.287t-5.877 2.192-5.877-2.192M810.207 477.448h7.852q4.094 0 5.973 1.902 1.878 1.904 1.879 5.853v2.072q0 5.25-3.47 6.647v.097q1.928.578 2.723 2.36t.794 4.77v5.924q0 1.446.097 2.337.096.891.482 1.758h-5.395a7.7 7.7 0 0 1-.386-1.542q-.097-.723-.096-2.6v-6.167q0-2.312-.747-3.227-.747-.916-2.577-.916h-1.83v14.452h-5.3zm7.225 14.451q1.59 0 2.385-.819.795-.818.795-2.746v-2.6q0-1.83-.65-2.65-.651-.82-2.048-.82h-2.409v9.635zM829.62 477.448h14.451v4.817h-9.153v8.912h7.274v4.817h-7.274v10.356h9.153v4.818H829.62zM856.45 509.458q-2.023-2.192-2.023-6.287v-17.727q0-4.094 2.023-6.286t5.877-2.192 5.877 2.192q2.025 2.193 2.024 6.286v2.89h-5.01v-3.227q0-3.324-2.746-3.324c-2.746 0-2.746 1.108-2.746 3.324v18.45q0 3.276 2.746 3.275c2.746 0 2.746-1.09 2.746-3.275v-6.6h-2.65v-4.817h7.66v11.031q0 4.095-2.024 6.287t-5.877 2.192-5.877-2.192M875.334 509.434q-2.072-2.216-2.072-6.263v-17.727q0-4.047 2.072-6.262 2.07-2.216 5.973-2.216t5.973 2.216 2.072 6.262v17.727q0 4.047-2.072 6.263t-5.973 2.216q-3.902 0-5.974-2.216m8.719-5.925v-18.402q0-3.324-2.746-3.324c-2.746 0-2.746 1.108-2.746 3.324v18.402q0 3.323 2.746 3.323c2.746 0 2.746-1.107 2.746-3.323M894.602 509.434q-2.071-2.216-2.071-6.263v-17.727q0-4.047 2.071-6.262 2.07-2.216 5.973-2.216t5.974 2.216 2.071 6.262v17.727q0 4.047-2.071 6.263t-5.974 2.216q-3.902 0-5.973-2.216m8.72-5.925v-18.402q0-3.324-2.747-3.324c-2.747 0-2.745 1.108-2.745 3.324v18.402q0 3.323 2.745 3.323c2.745 0 2.746-1.107 2.746-3.323M912.184 477.448h8.093q3.95 0 5.925 2.12t1.975 6.213v17.053q0 4.096-1.975 6.214-1.976 2.12-5.925 2.12h-8.093zm7.997 28.902q1.3 0 1.999-.77.698-.77.698-2.505V485.54q0-1.734-.698-2.504-.698-.771-2-.771h-2.697v24.085zM939.448 477.448h7.852q4.095 0 5.973 1.902 1.88 1.904 1.88 5.853v2.072q0 5.25-3.47 6.647v.097q1.927.578 2.723 2.36.794 1.783.794 4.77v5.924q0 1.446.097 2.337.096.891.481 1.758h-5.395a7.7 7.7 0 0 1-.385-1.542q-.097-.723-.097-2.6v-6.167q0-2.312-.746-3.227-.747-.916-2.577-.916h-1.83v14.452h-5.3zm7.226 14.451q1.59 0 2.385-.819.795-.818.795-2.746v-2.6q0-1.83-.65-2.65-.651-.82-2.048-.82h-2.409v9.635zM958.862 477.448h14.452v4.817h-9.152v8.912h7.273v4.817h-7.273v10.356h9.152v4.818h-14.452zM980.442 477.448h7.178l5.492 33.72h-5.3l-.963-6.696v.096h-6.021l-.964 6.6h-4.913zm5.781 22.544-2.36-16.667h-.097l-2.312 16.667zM995.664 477.448h8.093q3.95 0 5.925 2.12t1.975 6.213v17.053q0 4.096-1.975 6.214-1.976 2.12-5.925 2.12h-8.093zm7.997 28.902q1.3 0 1.999-.77.697-.77.698-2.505V485.54q0-1.734-.698-2.504-.698-.771-2-.771h-2.697v24.085zM1019.22 477.448h7.177l5.492 33.72h-5.3l-.963-6.696v.096h-6.021l-.964 6.6h-4.913zm5.78 22.544-2.36-16.667h-.097l-2.312 16.667zM1034.44 477.448h7.998q4.094 0 5.974 1.902 1.878 1.904 1.878 5.853v1.35q0 2.6-.843 4.238-.844 1.638-2.577 2.36v.097q3.949 1.35 3.95 7.033v2.89q0 3.903-2.047 5.95-2.049 2.047-5.998 2.047h-8.334zm7.372 13.729q1.59 0 2.384-.82.795-.818.795-2.745v-1.879q0-1.83-.65-2.65-.651-.818-2.048-.818h-2.552v8.912zm.963 15.173q1.397 0 2.071-.746.675-.747.675-2.577v-2.939q0-2.312-.795-3.203c-.795-.89-1.405-.891-2.625-.891h-2.36v10.356zM1053.902 477.448h5.3v33.72h-5.3zM1063.15 477.448h5.3v28.902h8.718v4.818h-14.018zM1079.72 477.448h5.3v33.72h-5.3zM1093.113 482.265h-5.54v-4.817h16.378v4.817h-5.54v28.903h-5.298zM1111.562 496.813l-6.407-19.365h5.636l3.613 12.38h.096l3.613-12.38h5.154l-6.406 19.365v14.355h-5.299zM1422.8 689.953l-17.532 83.126-17.532-83.126h-52.583v238.963h51.976l-.835-39.133h37.947l-.834 39.133h51.976V689.953z" class="st1"/><defs><path id="SVGID_1_" d="M226.591 689.953h1466.817v238.963H226.591z"/></defs><clipPath id="SVGID_00000127043786837890513090000000722892956774863237_"><use xlink:href="#SVGID_1_" style="overflow:visible"/></clipPath><path d="M1579.787 928.914v-238.96h61.686c33.566 0 52.055 18.806 52.055 52.955v143.284c0 27.15-16.779 42.721-46.032 42.721zm62.01-49.02V743.21c0-2.375-.314-3.625-.51-4.17a6.6 6.6 0 0 0-1.017-.068h-8.752v140.92z" style="clip-path:url(#SVGID_00000127043786837890513090000000722892956774863237_);fill:#202020"/><path d="M1514.039 928.914c-29.446 0-46.333-17.546-46.333-48.14v-142.38c0-30.784 16.78-48.44 46.034-48.44h27.693c29.254 0 46.033 17.656 46.033 48.44v142.38c0 30.594-16.888 48.14-46.334 48.14zm5.455-49.11c.345.05.825.089 1.469.089h14.72c.032-.323.053-.73.053-1.227V740.2c0-.48-.026-.853-.058-1.137a11 11 0 0 0-1.471-.09h-13.545c-.49 0-.873.025-1.168.06a10 10 0 0 0-.058 1.167v138.466c0 .48.024.856.058 1.139" style="clip-path:url(#SVGID_00000127043786837890513090000000722892956774863237_);fill:#202020"/><path d="m1405.268 828.397 26.792-127.027h31.907v216.129h-28.898l3.01-141.48-21.673 102.347h-22.276l-21.673-102.346 3.01 141.479h-28.898v-216.13h31.908zM1514.04 917.498c-23.282 0-34.917-12.239-34.917-36.723V738.394q-.001-37.025 34.617-37.025h27.693c23.072 0 34.616 12.341 34.616 37.025v142.381q0 36.725-34.918 36.723zm6.923-26.188h14.749q11.438.001 11.439-12.643V740.2q-.001-12.643-12.944-12.643h-13.544q-12.644 0-12.644 12.643v138.467c0 8.43 4.312 12.643 12.944 12.643M1591.205 917.498v-216.13h50.269q40.637.001 40.637 41.54v143.285c0 20.874-11.543 31.305-34.616 31.305zm28.896-26.188h21.673c7.624 0 11.439-3.208 11.439-9.633V743.211c0-10.433-4.318-15.654-12.944-15.654h-20.168z" style="clip-path:url(#SVGID_00000127043786837890513090000000722892956774863237_);fill:#1795d2"/><path d="m1143.065 804.258 49.222-49.222a7.317 7.317 0 0 1 10.349 0l49.223 49.222a7.32 7.32 0 0 1 0 10.35l-49.223 49.223a7.32 7.32 0 0 1-10.35 0l-49.221-49.224a7.317 7.317 0 0 1 0-10.349" style="clip-path:url(#SVGID_00000127043786837890513090000000722892956774863237_);fill:#202020"/><path d="m1133.9 916.422 101.815-101.814a7.317 7.317 0 0 0 0-10.35L1133.9 702.446c-4.61-4.61-1.346-12.493 5.173-12.493h85.611c1.941 0 3.802.77 5.174 2.144l112.163 112.163a7.316 7.316 0 0 1 .002 10.349L1229.859 926.77a7.32 7.32 0 0 1-5.174 2.144h-85.61c-6.52 0-9.785-7.883-5.174-12.493" style="clip-path:url(#SVGID_00000127043786837890513090000000722892956774863237_);fill:#202020"/><path d="M1166.756 778.725h61.415v61.415h-61.415z" style="clip-path:url(#SVGID_00000127043786837890513090000000722892956774863237_);fill:#1795d2" transform="rotate(-45 1197.46 809.429)"/><path d="M1222.988 701.368h-74.02l108.066 108.065-108.065 108.064h74.019l108.064-108.064z" style="clip-path:url(#SVGID_00000127043786837890513090000000722892956774863237_);fill:#fff"/><path d="m314.117 689.953-17.531 83.124-17.532-83.124h-52.462v238.963h51.855l-.833-39.133h37.943l-.833 39.133H366.7V689.953zM1090.565 689.953l-17.533 83.126-17.531-83.126h-52.583v238.963h51.976l-.833-39.133h37.944l-.833 39.133h51.974V689.953z" class="st1"/><defs><path id="SVGID_00000010277728699083043580000015813416276209001911_" d="M226.591 689.953h1466.817v238.963H226.591z"/></defs><clipPath id="SVGID_00000049910064213288304240000001474408689486886276_"><use xlink:href="#SVGID_00000010277728699083043580000015813416276209001911_" style="overflow:visible"/></clipPath><path d="M405.358 928.914c-29.448 0-46.335-17.546-46.335-48.14v-142.38c0-30.784 16.778-48.44 46.033-48.44h27.692c29.255 0 46.033 17.656 46.033 48.44v142.38c0 30.594-16.887 48.14-46.333 48.14zm5.455-49.11c.345.05.825.089 1.467.089H427c.03-.323.053-.73.053-1.227V740.2c0-.48-.026-.853-.06-1.137a11 11 0 0 0-1.467-.09H411.98c-.49 0-.874.025-1.167.06-.034.293-.06.678-.06 1.167v138.466c0 .48.026.856.06 1.139" style="clip-path:url(#SVGID_00000049910064213288304240000001474408689486886276_);fill:#202020"/><path d="m559.358 928.915.833-39.133h-37.943l.832 39.133h-51.975V689.954h52.583l17.53 83.122 17.531-83.122h52.583v238.961z" style="clip-path:url(#SVGID_00000049910064213288304240000001474408689486886276_);fill:#202020"/><path d="M603.657 928.915V689.954h94.473v49.02h-42.743v42.789h37.925v49.02h-37.925v49.11h42.743v49.022z" style="clip-path:url(#SVGID_00000049910064213288304240000001474408689486886276_);fill:#202020"/><path d="M750.355 928.915v-52.706l-8.171-25.946v78.652h-51.73V689.954h48.833l11.068 37.288v-37.288h51.729v238.961zM939.882 928.915c-17.193 0-46.035-6.842-46.035-52.655V689.954h51.729v187.208c0 1.341.13 2.19.247 2.68.24.03.562.052.98.052h11.843c.111-.556.22-1.434.22-2.732V689.954h51.729V876.56c0 45.553-29.028 52.355-46.332 52.355z" style="clip-path:url(#SVGID_00000049910064213288304240000001474408689486886276_);fill:#202020"/><path d="M822.102 928.915V738.974h-27.694v-49.02h107.116v49.02h-27.693v189.941z" style="clip-path:url(#SVGID_00000049910064213288304240000001474408689486886276_);fill:#202020"/><path d="m296.585 828.397 26.79-127.027h31.91v216.129h-28.899l3.01-141.48-21.673 102.347h-22.277l-21.67-102.346 3.009 141.479h-28.899v-216.13h31.91zM405.356 917.498q-34.92.002-34.918-36.723V738.394q0-37.025 34.618-37.025h27.692q34.615 0 34.616 37.025v142.381q-.001 36.725-34.916 36.723zm6.924-26.188h14.75q11.437.001 11.438-12.643V740.2c0-8.428-4.318-12.643-12.944-12.643h-13.546q-12.642 0-12.642 12.643v138.467q-.001 12.644 12.944 12.643M541.219 828.397l26.79-127.027h31.909v216.129h-28.899l3.01-141.48-21.673 102.347H530.08L508.409 776.02l3.01 141.479h-28.9v-216.13h31.91zM615.072 917.498V701.37h71.641v26.188H643.97v65.623h37.927v26.187H643.97v71.943h42.743v26.188zM761.77 805.82V701.37h28.899v216.127H761.77v-43.044l-31.004-98.433v141.477H701.87V701.37h28.898zM862.414 727.557V917.5h-28.896V727.557h-27.694V701.37h84.284v26.187zM999.178 701.369v175.193q-.001 40.937-34.915 40.936H939.88c-23.08 0-34.617-13.743-34.617-41.238V701.369h28.896v175.793q0 14.15 12.642 14.148h11.743q11.739.001 11.74-14.148V701.37zM1073.033 828.397l26.792-127.027h31.907v216.129h-28.898l3.01-141.48-21.674 102.347h-22.276l-21.672-102.346 3.009 141.479h-28.897v-216.13h31.907z" style="clip-path:url(#SVGID_00000049910064213288304240000001474408689486886276_);fill:#fff"/><defs><path id="SVGID_00000163758360182957903410000013236292545202296733_" d="M226.591 689.953h1466.817v238.963H226.591z"/></defs><clipPath id="SVGID_00000170966651772185628150000008734942105810271623_"><use xlink:href="#SVGID_00000163758360182957903410000013236292545202296733_" style="overflow:visible"/></clipPath><defs><path id="SVGID_00000054268173642805164020000004320348523261724050_" d="M227.394 151.889h215.591v238.963H227.394z"/></defs><clipPath id="SVGID_00000007391239374802604820000000486493642347255464_"><use xlink:href="#SVGID_00000054268173642805164020000004320348523261724050_" style="overflow:visible"/></clipPath><path d="m241.168 266.195 49.224-49.224a7.32 7.32 0 0 1 10.349 0l49.222 49.224a7.317 7.317 0 0 1 0 10.349l-49.222 49.222a7.317 7.317 0 0 1-10.349 0l-49.224-49.222a7.317 7.317 0 0 1 0-10.349" style="clip-path:url(#SVGID_00000007391239374802604820000000486493642347255464_);fill:#202020"/><path d="M232.004 378.359 333.82 276.543a7.32 7.32 0 0 0 0-10.349L232.004 164.38c-4.61-4.609-1.346-12.491 5.175-12.491h85.61c1.941 0 3.802.77 5.175 2.142l112.163 112.163a7.317 7.317 0 0 1 0 10.35L327.964 388.707a7.32 7.32 0 0 1-5.175 2.144h-85.611c-6.52 0-9.784-7.883-5.174-12.493" style="clip-path:url(#SVGID_00000007391239374802604820000000486493642347255464_);fill:#202020"/><path d="M264.859 240.662h61.415v61.415h-61.415z" style="clip-path:url(#SVGID_00000007391239374802604820000000486493642347255464_);fill:#1795d2" transform="rotate(-45 295.566 271.368)"/><path d="M321.092 163.304h-74.02l108.066 108.065-108.065 108.066h74.019l108.065-108.066z" style="clip-path:url(#SVGID_00000007391239374802604820000000486493642347255464_);fill:#fff"/><defs><path id="SVGID_00000062159510071408045090000004212337131427567795_" d="M118.796 31.603h1682.401v1016.793H118.796z"/></defs><clipPath id="SVGID_00000145038131277827623750000015353896154233840824_"><use xlink:href="#SVGID_00000062159510071408045090000004212337131427567795_" style="overflow:visible"/></clipPath><g style="clip-path:url(#SVGID_00000145038131277827623750000015353896154233840824_)"><defs><path id="SVGID_00000030488050484654200320000006761979162723329182_" d="M118.796 31.603h1682.409v1016.793H118.796z"/></defs><clipPath id="SVGID_00000168104166636196351220000009840694504915756981_"><use xlink:href="#SVGID_00000030488050484654200320000006761979162723329182_" style="overflow:visible"/></clipPath><g style="opacity:.19;clip-path:url(#SVGID_00000168104166636196351220000009840694504915756981_)"><defs><path id="SVGID_00000085930759772686157820000015681706593816659645_" d="M320.738 21.166h244.494v251.809H320.738z"/></defs><clipPath id="SVGID_00000162347457832732321280000010147064804388107945_"><use xlink:href="#SVGID_00000085930759772686157820000015681706593816659645_" style="overflow:visible"/></clipPath><g style="clip-path:url(#SVGID_00000162347457832732321280000010147064804388107945_)"><defs><path id="SVGID_00000103979773681913592830000012259001762033410488_" d="M335.19 32.408h215.591v238.963H335.19z"/></defs><clipPath id="SVGID_00000065783298267178731810000003074305247857215930_"><use xlink:href="#SVGID_00000103979773681913592830000012259001762033410488_" style="overflow:visible"/></clipPath><path d="m348.964 146.713 49.224-49.223a7.32 7.32 0 0 1 10.349 0l49.222 49.223a7.317 7.317 0 0 1 0 10.35l-49.222 49.221a7.317 7.317 0 0 1-10.35 0l-49.223-49.222a7.317 7.317 0 0 1 0-10.349" style="clip-path:url(#SVGID_00000065783298267178731810000003074305247857215930_);fill:#202020"/><path d="m339.8 258.878 101.816-101.816a7.32 7.32 0 0 0 0-10.35L339.8 44.899c-4.61-4.608-1.346-12.49 5.175-12.49h85.61c1.94 0 3.802.77 5.175 2.142l112.163 112.163a7.317 7.317 0 0 1 0 10.349L435.76 269.227a7.32 7.32 0 0 1-5.176 2.143h-85.61c-6.52 0-9.784-7.882-5.174-12.492" style="clip-path:url(#SVGID_00000065783298267178731810000003074305247857215930_);fill:#202020"/><path d="M372.655 121.18h61.415v61.415h-61.415z" style="clip-path:url(#SVGID_00000065783298267178731810000003074305247857215930_);fill:#1795d2" transform="rotate(-45 403.36 151.887)"/><path d="M428.887 43.823h-74.019l108.066 108.065-108.066 108.065h74.02l108.065-108.065z" style="clip-path:url(#SVGID_00000065783298267178731810000003074305247857215930_);fill:#fff"/></g></g></g><defs><path id="SVGID_00000061467779105730317560000001732187092629985687_" d="M118.796 31.603h1682.409v1016.793H118.796z"/></defs><clipPath id="SVGID_00000176723756423369053010000017606696881868956562_"><use xlink:href="#SVGID_00000061467779105730317560000001732187092629985687_" style="overflow:visible"/></clipPath><path d="M119.599 62.277v428.141" style="clip-path:url(#SVGID_00000176723756423369053010000017606696881868956562_);fill:none;stroke:#202020;stroke-dasharray:12.402,12.402"/><path d="M148.997 510.332h382.184" style="fill:none;stroke:#202020;stroke-dasharray:12.206,12.206"/><path d="M550.781 480.462V52.321" style="fill:none;stroke:#202020;stroke-dasharray:12.402,12.402"/><defs><path id="SVGID_00000165226529124898947210000012678522099229662356_" d="M118.796 31.603h1682.409v1016.793H118.796z"/></defs><clipPath id="SVGID_00000036931773457209500680000012173543995801901727_"><use xlink:href="#SVGID_00000165226529124898947210000012678522099229662356_" style="overflow:visible"/></clipPath><path d="M521.382 32.406H139.198" style="clip-path:url(#SVGID_00000036931773457209500680000012173543995801901727_);fill:none;stroke:#202020;stroke-dasharray:12.206,12.206"/><defs><path id="SVGID_00000018197306834310083900000004290383210332773289_" d="M118.796 31.603h1682.409v1016.793H118.796z"/></defs><clipPath id="SVGID_00000165945173294748105000000006671615760989919644_"><use xlink:href="#SVGID_00000018197306834310083900000004290383210332773289_" style="overflow:visible"/></clipPath><path d="M129.398 32.407h-9.8v9.956m431.183 0v-9.956h-9.8m0 477.926h9.8v-9.958m-431.182 0v9.958h9.8" style="clip-path:url(#SVGID_00000165945173294748105000000006671615760989919644_);fill:none;stroke:#202020"/><path d="M228.197 181.659v188.543" class="st21"/><path d="M254.945 390.049h169.406" class="st22"/><path d="M442.183 360.279V171.736" class="st21"/><path d="M415.434 151.889H246.028" class="st22"/><path d="M237.114 151.889h-8.917v9.923m213.986 0v-9.923h-8.917m0 238.16h8.917v-9.924m-213.986 0v9.924h8.917" class="st23"/><path d="M227.394 720.425v187.907" class="st24"/><path d="M256.313 928.113h1417.012" class="st25"/><path d="M1692.605 898.443V710.536" class="st24"/><path d="M1663.686 690.755H246.674" class="st25"/><path d="M237.033 690.755h-9.639v9.89m1465.212 0v-9.89h-9.641m0 237.357h9.64v-9.89m-1465.21 0v9.89h9.638" class="st23"/><defs><path id="SVGID_00000137824296986580170920000009142738039282044294_" d="M118.796 31.603h1682.409v1016.793H118.796z"/></defs><clipPath id="SVGID_00000081621003164885296770000012616922345501066665_"><use xlink:href="#SVGID_00000137824296986580170920000009142738039282044294_" style="overflow:visible"/></clipPath><path d="M119.599 601.044v426.703" style="clip-path:url(#SVGID_00000081621003164885296770000012616922345501066665_);fill:none;stroke:#202020;stroke-dasharray:12.36,12.36"/><defs><path id="SVGID_00000138568998358260540210000001397284904922711446_" d="M118.796 31.603h1682.409v1016.793H118.796z"/></defs><clipPath id="SVGID_00000183238387188180393660000016819545660874296228_"><use xlink:href="#SVGID_00000138568998358260540210000001397284904922711446_" style="overflow:visible"/></clipPath><path d="M148.249 1047.594H1781.3" style="clip-path:url(#SVGID_00000183238387188180393660000016819545660874296228_);fill:none;stroke:#202020;stroke-dasharray:11.895,11.895"/><defs><path id="SVGID_00000037665457824404979660000018178741131796928683_" d="M118.796 31.603h1682.409v1016.793H118.796z"/></defs><clipPath id="SVGID_00000023973326104214436230000002439791913070524063_"><use xlink:href="#SVGID_00000037665457824404979660000018178741131796928683_" style="overflow:visible"/></clipPath><path d="M1800.401 1017.824V591.12" style="clip-path:url(#SVGID_00000023973326104214436230000002439791913070524063_);fill:none;stroke:#202020;stroke-dasharray:12.36,12.36"/><path d="M1771.751 571.274H138.699" style="fill:none;stroke:#202020;stroke-dasharray:11.895,11.895"/><defs><path id="SVGID_00000013896133386861680030000016983646257974735239_" d="M118.796 31.603h1682.409v1016.793H118.796z"/></defs><clipPath id="SVGID_00000000924415552765004560000014770316541614423217_"><use xlink:href="#SVGID_00000013896133386861680030000016983646257974735239_" style="overflow:visible"/></clipPath><path d="M129.148 571.274h-9.55v9.924m1680.803 0v-9.924h-9.55m0 476.32h9.55v-9.923m-1680.802 0v9.923h9.549" style="clip-path:url(#SVGID_00000000924415552765004560000014770316541614423217_);fill:none;stroke:#202020"/><defs><path id="SVGID_00000083056455651415643400000006381810595574604932_" d="M118.796 31.603h1682.401v1016.793H118.796z"/></defs><clipPath id="SVGID_00000166646607432906907140000001332121015495032987_"><use xlink:href="#SVGID_00000083056455651415643400000006381810595574604932_" style="overflow:visible"/></clipPath><g style="clip-path:url(#SVGID_00000166646607432906907140000001332121015495032987_)"><defs><path id="SVGID_00000037672241042813780950000012369740616110993027_" d="M118.796 31.603h1682.409v1016.793H118.796z"/></defs><clipPath id="SVGID_00000083807992868681985650000010337156217184702356_"><use xlink:href="#SVGID_00000037672241042813780950000012369740616110993027_" style="overflow:visible"/></clipPath><g style="opacity:.19;clip-path:url(#SVGID_00000083807992868681985650000010337156217184702356_)"><defs><path id="SVGID_00000176026078806940346470000014816849438570654596_" d="M1571.161 559.231h244.486V811.04h-244.486z"/></defs><clipPath id="SVGID_00000145060857556709818710000007904903190222936459_"><use xlink:href="#SVGID_00000176026078806940346470000014816849438570654596_" style="overflow:visible"/></clipPath><g style="clip-path:url(#SVGID_00000145060857556709818710000007904903190222936459_)"><defs><path id="SVGID_00000116922975292117394940000008507980901179422638_" d="M1585.613 570.471h215.591v238.963h-215.591z"/></defs><clipPath id="SVGID_00000005243439163788361540000014821677126670659007_"><use xlink:href="#SVGID_00000116922975292117394940000008507980901179422638_" style="overflow:visible"/></clipPath><path d="m1599.387 684.777 49.223-49.223a7.32 7.32 0 0 1 10.348 0l49.223 49.223a7.317 7.317 0 0 1 0 10.35l-49.223 49.221a7.315 7.315 0 0 1-10.348 0l-49.223-49.222a7.317 7.317 0 0 1 0-10.349" style="clip-path:url(#SVGID_00000005243439163788361540000014821677126670659007_);fill:#202020"/><path d="m1590.222 796.942 101.816-101.816a7.32 7.32 0 0 0 0-10.35l-101.816-101.814c-4.61-4.608-1.345-12.49 5.175-12.49h85.61c1.941 0 3.802.77 5.175 2.141l112.163 112.164a7.317 7.317 0 0 1 0 10.349L1686.182 807.29a7.32 7.32 0 0 1-5.175 2.144h-85.611c-6.52 0-9.784-7.882-5.174-12.492" style="clip-path:url(#SVGID_00000005243439163788361540000014821677126670659007_);fill:#202020"/><path d="M1623.077 659.244h61.415v61.415h-61.415z" style="clip-path:url(#SVGID_00000005243439163788361540000014821677126670659007_);fill:#1795d2" transform="rotate(-45 1653.78 689.948)"/><path d="M1679.31 581.887h-74.02l108.066 108.065-108.065 108.065h74.02l108.064-108.065z" style="clip-path:url(#SVGID_00000005243439163788361540000014821677126670659007_);fill:#fff"/></g></g></g><defs><path id="SVGID_00000027592476489408910940000013619749904440476325_" d="M118.796 31.603h1682.401v1016.793H118.796z"/></defs><clipPath id="SVGID_00000129904441416624075880000018377956223802448784_"><use xlink:href="#SVGID_00000027592476489408910940000013619749904440476325_" style="overflow:visible"/></clipPath><g style="clip-path:url(#SVGID_00000129904441416624075880000018377956223802448784_)"><defs><path id="SVGID_00000062908016195856469640000010098697374653745562_" d="M118.796 31.603h1682.409v1016.793H118.796z"/></defs><clipPath id="SVGID_00000054962238422619273620000011830015196035646849_"><use xlink:href="#SVGID_00000062908016195856469640000010098697374653745562_" style="overflow:visible"/></clipPath><g style="opacity:.19;clip-path:url(#SVGID_00000054962238422619273620000011830015196035646849_)"><defs><path id="SVGID_00000120547448062243234980000013520173281140713144_" d="M104.344 798.194h244.494v251.809H104.344z"/></defs><clipPath id="SVGID_00000109732712170164590040000001866341451873475721_"><use xlink:href="#SVGID_00000120547448062243234980000013520173281140713144_" style="overflow:visible"/></clipPath><g style="clip-path:url(#SVGID_00000109732712170164590040000001866341451873475721_)"><defs><path id="SVGID_00000047762015109090765250000000121804962549497495_" d="M118.796 809.434h215.591v238.963H118.796z"/></defs><clipPath id="SVGID_00000096021092609444622320000014840679845857854876_"><use xlink:href="#SVGID_00000047762015109090765250000000121804962549497495_" style="overflow:visible"/></clipPath><path d="m132.57 923.74 49.224-49.223a7.32 7.32 0 0 1 10.349 0l49.221 49.223a7.317 7.317 0 0 1 0 10.35l-49.221 49.221a7.317 7.317 0 0 1-10.35 0L132.57 934.09a7.317 7.317 0 0 1 0-10.349" style="clip-path:url(#SVGID_00000096021092609444622320000014840679845857854876_);fill:#202020"/><path d="M123.406 1035.904 225.22 934.088a7.32 7.32 0 0 0 0-10.348L123.406 821.925c-4.61-4.608-1.346-12.49 5.175-12.49h85.61c1.94 0 3.801.77 5.174 2.141L331.53 923.74a7.317 7.317 0 0 1 0 10.349l-112.164 112.164a7.32 7.32 0 0 1-5.175 2.144h-85.61c-6.52 0-9.785-7.882-5.174-12.493" style="clip-path:url(#SVGID_00000096021092609444622320000014840679845857854876_);fill:#202020"/><path d="M156.261 898.207h61.415v61.415h-61.415z" style="clip-path:url(#SVGID_00000096021092609444622320000014840679845857854876_);fill:#1795d2" transform="rotate(-45 186.967 928.91)"/><path d="M212.493 820.85h-74.019L246.54 928.914 138.474 1036.98h74.02l108.065-108.065z" style="clip-path:url(#SVGID_00000096021092609444622320000014840679845857854876_);fill:#fff"/></g></g></g></svg>