<svg xmlns="http://www.w3.org/2000/svg" viewBox="0 0 476.897 360"><path d="M152.862 126.16c-3.714 2.96-7.404 6.372-11.545 9.098-6.535 4.302-13.303 8.265-20.114 12.123-2.843 1.61-5.08-.067-6.86-2.778-1.229 1.331-2.34 2.508-3.42 3.711-1.765 1.961-3.728 2.505-6.266 1.385-9.762-4.309-19.303-8.857-27.684-15.728-8.172-6.701-16.857-12.782-25.413-19.002-1.279-.93-3.05-1.354-4.659-1.626-6.002-1.016-11.036-3.625-15.59-7.752-3.868-3.504-8.402-6.276-12.664-9.34-2.64-1.897-3.505-3.853-2.014-6.614 1.77-3.275 3.839-6.46 6.244-9.286.884-1.04 3.153-1.43 4.695-1.258 2.449.272 4.841 1.193 7.216 1.967 4.073 1.327 8.185 2.019 12.51 1.978 2.019-.019 4.19.844 6.038 1.8 2.578 1.335 4.897 3.162 7.365 4.719 1.708 1.077 3.37 2.054 3.828 4.336.13.65 1.267 1.217 2.05 1.6 8.91 4.355 18.017 8.348 26.702 13.11 5.272 2.892 9.908 6.946 14.817 10.496 1.007.729 1.954 1.539 3.23 2.549 9.36-15.672 24.634-24.378 39.316-34.14-.39-1.002-.741-1.994-1.157-2.958-1.268-2.941-.488-4.817 1.67-7.082 5.306-5.572 12.686-6.732 19.287-9.53 3.442-1.458 7.037-2.551 10.766-3.882-2.218-3.458-4.203-7.008-6.628-10.228-3.726-4.948-5.156-10.493-6.25-16.522-1.517-8.352-.272-16.262 1.873-24.133.566-2.078 2.455-4.202 4.314-5.437 3.872-2.574 8.152-4.528 12.219-6.818 2.073-1.168 4.04-1.239 6.144-.113 4.19 2.241 8.449 4.353 12.614 6.638 2.642 1.448 4.55 3.481 5.122 6.682.584 3.273 1.994 6.45 2.211 9.723.282 4.256-.233 8.568-.458 12.853-.07 1.327-.477 2.648-.449 3.966.107 5.078-3.116 8.648-5.556 12.567-1.799 2.888-3.7 5.71-5.327 8.209 9.14 1.594 18.23 3.24 27.346 4.73 2.532.413 4.368 1.545 4.79 4.026.828 4.876 3.278 7.78 7.99 9.907 6.343 2.863 12.108 6.998 18.162 10.515 2.77 1.608 2.454 4.016 1.91 6.555.291.088.544.256.755.215 5.035-.977 7.489 1.677 9.126 6.042 1.254 3.342 2.958 6.53 4.63 9.696 2.902 5.497 3.427 11.625 4.757 17.523 2.471 10.962 4.53 22.018 7.102 32.955.924 3.932 2.71 7.685 4.32 11.426 1.356 3.149 1.781 6.34 1.673 9.74-.224 6.999-.261 14.004-.332 21.007-.044 4.306-1.024 5.422-5.369 5.779-2.99.245-5.983.465-8.978.637-2.928.169-4.458-.855-5.517-3.638-.948-2.492-1.967-4.967-2.752-7.512-1.42-4.602-3.61-8.725-6.708-12.434-.834-.998-1.276-2.533-1.405-3.87-.385-3.98-.525-7.984-.76-11.98-.005-.083-.045-.179-.016-.247 2.264-5.318-1.386-9.356-3.114-13.735-2.6-6.589-5.945-12.904-8.225-19.59-1.864-5.467-2.637-11.304-3.888-16.979a55 55 0 0 1-.425-2.206q-.917-5.167-6.554-6.043c-.453 2.922-1.078 5.836-1.333 8.781-.938 10.848-4.217 21.187-6.73 31.692-1.468 6.143-2.933 12.287-4.51 18.403-.995 3.863-1.835 4.454-5.87 4.93-1.894.223-3.783.493-5.286.691.258 2.068.643 4.005.71 5.953.118 3.417.049 6.841.043 10.262-.003 2.149-.116 4.167 1.746 5.943 1.416 1.35 1.1 3.406.206 5.154-3.488 6.819-6.891 13.684-10.526 20.424-4.965 9.204-10.113 18.31-15.279 27.63.579.315 1.026.673 1.533.816 6.497 1.828 12.219 5.21 17.928 8.688 12.53 7.633 25.154 15.113 37.707 22.71 1.509.914 2.81 2.173 4.518 3.516 2.057-.834 4.621-1.806 7.127-2.911 2.352-1.038 4.455-.896 6.566.66 2.279 1.68 4.782 3.064 6.992 4.822.944.752 1.832 2.067 1.99 3.228.66 4.865 1.1 9.764 1.499 14.66 1.12 13.71 2.12 27.43 3.307 41.133.262 3.033-.552 5.38-2.839 7.298-1.646 1.381-3.467 2.033-5.534 1.158-3.068-1.3-6.2-2.512-9.093-4.14-1.256-.707-2.203-2.239-2.91-3.595-2.81-5.392-5.223-11.005-8.267-16.257-2.115-3.647-4.884-6.95-7.615-10.193-2.104-2.499-3.141-5.212-3.197-8.42-.02-1.155-.288-2.306-.504-3.91-3.335 2.731-6.497 1.368-9.76.265-13.194-4.46-26.439-8.77-39.615-13.28-2.399-.822-4.671-2.159-6.816-3.545-5.321-3.439-10.524-7.06-15.804-10.563-.655-.435-1.608-1.008-2.215-.825-2.45.739-4.33-.436-6.38-1.37-6.394-2.917-12.31-6.577-17.948-10.77-2.322-1.727-2.862-3.767-2.374-6.31 1.475-7.68 2.653-15.443 4.653-22.986 1.13-4.262 3.646-8.157 5.545-12.214.522-1.115 1.071-2.218 1.68-3.476-2.93 0-5.634-.013-8.338.003-6.648.038-13.309 1.136-19.947-.406-.728-.169-2.026.59-2.542 1.297-2.503 3.434-5.007 6.89-7.182 10.535-4.608 7.72-10.44 14.434-16.575 20.928a6393 6393 0 0 0-26.56 28.258c-.445.478-.707 1.448-.574 2.09.554 2.69 1.299 5.34 1.958 8.01.547 2.218.2 4.136-1.873 5.473-.418.27-.817.591-1.158.952-4.696 4.981-10.222 6.333-17.113 5.569-15.322-1.7-30.734-2.59-46.109-3.818a25 25 0 0 1-2.482-.305c-3.825-.691-5.6-4.475-3.536-7.755 1.597-2.537 3.284-5.037 5.162-7.368.833-1.034 2.137-1.885 3.4-2.338 2.897-1.039 5.875-1.879 8.863-2.627 7.477-1.872 14.62-4.608 21.37-8.304 2.917-1.597 5.9-2.146 9.143-1.71.703.095 1.43.014 2.531.014-.615-.743-.985-1.251-1.417-1.701-1.881-1.96-2.196-4.08-.8-6.332 8.436-13.6 16.513-27.445 25.518-40.657 3.87-5.68 9.61-10.112 14.632-14.974 3.412-3.304 7.095-6.326 10.551-9.586.617-.582 1.04-1.73 1-2.59-.266-5.691 2.341-8.996 7.797-10.573 4.314-1.246 8.601-2.746 12.68-4.614 7.579-3.474 15.59-3.896 23.692-4.118 6.078-.167 12.152-.47 18.223-.714-2.133-18.48-1.824-37.25-10.354-54.494m39.615-54.656-.286-.734c-4.827 1.033-9.74 1.778-14.46 3.175-5.338 1.58-10.526 3.687-15.738 5.674-4.314 1.645-4.767 2.629-2.805 6.614 1.311 2.665 2.265 5.327 1.99 8.323-.57 6.217-1.246 12.427-1.682 18.653-.159 2.276-.085 4.67.454 6.872.927 3.79 2.258 7.485 3.498 11.194 2.88 8.62 5.364 17.287 5.64 26.495.157 5.203.977 10.386 1.509 15.676 1.05 0 1.873.052 2.688-.008 6.97-.515 13.938-1.054 20.908-1.578 7.712-.58 15.422-1.188 23.14-1.694 1.584-.104 2.293-.68 2.66-2.246 1.542-6.561 3.14-13.11 4.855-19.628 3.045-11.577 5.556-23.242 6.355-35.308-2.091-.492-4.24-.809-6.257-1.507-6.99-2.42-13.936-4.953-20.13-9.16-1.288-.876-2.808-1.416-4.233-2.085-4.219-1.978-8.666-3.693-11.657-7.454-1.019-1.281-1.964-3.428-1.612-4.85 1.377-5.563 1.55-11.54 5.163-16.424m18.048 132.828c-3.125-2.979-5.818-5.713-8.713-8.212-.969-.837-2.449-1.086-3.703-1.584-1.57-.624-3.15-1.228-4.724-1.84-1.994-.776-3.97-1.606-5.999-2.272-.329-.108-1.058.403-1.33.81-6.727 10.105-14.615 19.437-20.072 30.394-1.85 3.716-4.153 7.203-6.145 10.852-2.11 3.865-4.79 7.598-5.977 11.745-1.985 6.933-3.014 14.144-4.347 21.256-.137.733.13 1.983.65 2.328 4.53 3.004 9.162 5.856 14.223 9.043.567-5.286 1.121-9.657 1.475-14.045.215-2.666 1.677-4.063 4.055-4.74 3.67-1.045 7.396-1.913 11.005-3.134 1.287-.435 2.656-1.453 3.372-2.593 2.079-3.309 3.863-6.805 5.732-10.244 6.833-12.573 13.654-25.153 20.498-37.764m34.61 88.092c-13.094-7.855-25.736-15.282-38.204-22.991-5.507-3.405-11.251-6.117-17.418-7.975-.8-.241-1.784-.272-2.58-.042-2.703.783-5.33 1.836-8.042 2.584-4.96 1.367-4.986 1.306-5.518 6.428-.172 1.657-.26 3.321-.424 4.979-.2 2.016.496 3.428 2.286 4.57 4.707 3 9.203 6.339 13.975 9.225 3.096 1.872 6.451 3.39 9.833 4.695 4.265 1.647 8.679 2.91 13.024 4.35 8.275 2.742 16.547 5.492 25.055 8.315zm-132.344-78.381c-6.815 2.672-8.13 1.32-9.297-3.16-.996.85-1.956 1.614-2.854 2.445-9.02 8.354-18.719 15.952-24.854 27.116-5.688 10.35-12.341 20.167-19.063 31.016 1.843 1.547 3.664 3.289 5.7 4.726 1.976 1.396 4.173 2.481 6.395 3.773 13.596-11.485 41.63-45.371 49.449-59.92zm-.949-8.994c1.38.39 3.174.37 4.113 1.257 3.676 3.47 7.684 6.838 10.369 11.015 1.708 2.658 3.35 3.174 5.857 3.089 7.913-.268 15.823-.63 23.738-.843 1.547-.042 2.31-.628 3.085-1.919 3.548-5.91 6.891-11.995 10.996-17.505 2.73-3.664 3.482-7.116 2.052-11.654-1.497 0-3.15-.056-4.798.009-8.327.327-16.655.647-24.979 1.052-3.65.177-7.467-.049-10.895.964-7.015 2.074-13.824 4.85-20.707 7.362-1.947.71-2.191 1.92-.97 3.576.811 1.103 1.414 2.36 2.14 3.597M190.37 58.847q2.837-.01 4.325-2.27c1.73-2.647 3.317-5.4 5.198-7.935 2.596-3.498 4.287-7.24 4.407-11.662.115-4.283.628-8.57.487-12.84-.08-2.438-.964-4.898-1.788-7.241-.394-1.121-1.298-2.32-2.306-2.921-2.998-1.787-6.124-3.376-9.287-4.856-.81-.378-2.105-.397-2.897-.01-3.211 1.573-6.338 3.325-9.435 5.115-.642.37-1.3 1.11-1.49 1.806-2.017 7.39-2.684 14.847-.824 22.392.512 2.076.517 4.414 1.518 6.204 2.27 4.057 5.018 7.847 7.565 11.749 1.118 1.711 2.54 2.823 4.527 2.47m62.47 37.543c-15.455-11.201-33.385-16.694-50.302-23.474-4.224 3.247-5.142 7.623-6.398 11.984-.831 2.888.18 4.144 2.435 5.239 3.587 1.74 7.377 3.177 10.693 5.338 11.075 7.217 23.45 9.917 36.15 11.092.803-1.116 1.335-2.525 2.348-3.134 2.791-1.675 4.007-4.278 5.074-7.045m26.491 67.422c-.222-1.35-.336-2.248-.522-3.13-1.412-6.676-2.84-13.349-4.26-20.023-2.419-11.382-4.15-22.981-10.396-33.156-.476-.776-1.153-1.805-1.902-1.973-3.574-.798-7.557 1.412-8.564 4.983-.508 1.8-.36 3.9-.053 5.791.988 6.074 1.405 12.398 3.479 18.103 3.807 10.477 8.638 20.58 13.222 31.257zm-5.857 186.948c.123-.37.229-.53.217-.678-1.272-16.032-2.69-32.055-3.725-48.102-.23-3.559-1.799-5.479-4.638-6.815-.785-.37-1.927-.55-2.704-.268-3.444 1.25-6.824 2.679-10.209 4.088-2.543 1.06-3.525 2.67-3.256 5.472.389 4.063.756 8.135 1.371 12.167.224 1.464.923 2.968 1.77 4.203 2.82 4.113 6.067 7.953 8.654 12.2 2.506 4.114 4.607 8.513 6.482 12.956 1.194 2.827 3.285 3.94 6.038 4.777m-153.92-211.897c11.556-5.557 21.18-12.824 30.398-20.668.54-.458.878-1.364.968-2.103.382-3.142.654-6.297.932-9.45.31-3.513.583-7.03.88-10.627-.413.094-.593.09-.718.17-1.33.856-2.636 1.751-3.979 2.587-12.328 7.67-23.619 16.472-31.548 28.93-.58.911-1.528 2.254-1.235 2.939 1.217 2.848 2.844 5.521 4.301 8.222m-61.62-29.274c6.497 4.884 12.553 9.422 18.593 13.98 8.76 6.61 17.303 13.563 27.893 17.223 1.179.407 2.204.862 2.982-.51.724-1.28 2.747-1.95 1.322-4.181-1.178-1.844-2.137-4.067-2.355-6.208-.166-1.631-.743-2.526-1.839-3.439-6.788-5.651-13.724-10.974-22.037-14.398-6.657-2.741-13.012-6.215-19.811-9.514zM10.521 298.434l.319.655c1.056.126 2.11.291 3.17.372 13.793 1.051 27.604 1.925 41.372 3.25 3.431.33 6.035-.312 8.25-2.683.594-.636 1.035-1.863.87-2.682-.695-3.423-1.726-6.778-2.464-10.194-.28-1.295-.819-1.792-2.102-1.856-4.079-.206-8.152-.626-12.232-.69-1.66-.025-3.49.332-4.968 1.067-6.806 3.39-13.74 6.381-21.165 8.16-2.67.639-5.33 1.389-7.9 2.343-1.168.433-2.107 1.486-3.15 2.258m275.08-94.67c0-7.575.385-14.918-.167-22.19-.266-3.513-2.296-6.892-3.474-10.184l-11.969 3.152c.124 2.58.164 4.988.388 7.379.104 1.11.24 2.483.919 3.229 3.526 3.875 5.294 8.589 6.904 13.42.6 1.804 1.341 3.56 2.055 5.435zM55.857 95.53c-3.04-1.577-5.895-4.23-8.842-4.336-5.611-.202-10.847-1.487-16.12-2.991-3.873-1.105-4.047-1.049-5.63 2.65 4.029 3.089 8.286 5.917 12.002 9.332 3.436 3.158 7.401 4.649 11.776 5.42.732.13 2.027-.311 2.34-.884 1.547-2.829 2.852-5.791 4.474-9.19m152.627 95.125c0-2.035.073-3.776-.043-5.504-.036-.544-.46-1.206-.908-1.554-3.817-2.958-8.004-4.632-12.952-3.554-.89.194-1.842.1-2.728.302-1.19.271-2.346.702-3.967 1.204 6.99 3.5 14.547 4.059 20.598 9.106m184.5-3.3h-74.707c-5.319 0-6.62-1.311-6.62-6.652q-.002-19.77 0-39.54c.001-4.97 1.375-6.32 6.423-6.321q35.784-.002 71.57 0h3.334v-3.076c0-13.18-.004-26.359.01-39.538 0-.91.037-1.838.222-2.723.792-3.782 3.937-4.862 6.883-2.306 2.202 1.91 4.271 3.975 6.396 5.975 18.212 17.152 36.412 34.316 54.642 51.45 4.675 4.394 9.426 8.71 14.171 13.029 2.009 1.829 2.168 4.985.163 6.869-16.895 15.872-33.815 31.718-50.712 47.587-7.903 7.422-15.813 14.837-23.628 22.35-1.796 1.726-3.652 2.295-5.848 1.328-2.066-.91-2.313-2.84-2.31-4.856.017-13.43.01-26.86.011-40.29zm-73.184-8.013h3.062l71.805.001c5.168 0 6.334 1.161 6.336 6.321.005 11.51-.001 23.018.007 34.527 0 .868.08 1.736.15 3.182l66.09-62.12-66.245-62.208v3.579c0 11.342.006 22.684-.003 34.026-.003 5.007-1.225 6.232-6.171 6.232q-36.028.002-72.056.001H319.8z" style="fill:#fff;stroke-width:0"/></svg>