<svg xmlns="http://www.w3.org/2000/svg" viewBox="0 0 315.41 457.859"><path d="M252.362 203.126c4.38.816 7.93 2.422 11.261 5.204 7.447 6.219 8.694 14.75 9.53 23.407.783 8.12-.7 16.143-2.306 24.088-.334 1.65-.02 2.57 1.44 3.496 13.234 8.392 26.42 16.86 39.613 25.316 3.728 2.39 4.413 4.733 2.404 8.713-3.605 7.14-6.87 14.501-11.072 21.277-3.485 5.619-8.042 10.587-12.248 15.742-26.166 32.071-52.367 64.114-78.558 96.166-7.79 9.533-15.568 19.075-23.379 28.59-3.04 3.704-7.57 3.625-10.515-.119-21.119-26.835-42.242-53.667-63.352-80.51-15.115-19.218-30.358-38.338-45.21-57.757-3.581-4.685-6.05-10.28-8.666-15.633-8.88-18.17-17.596-36.42-26.377-54.64-11.158-23.152-22.331-46.298-33.449-69.47-.717-1.494-1.246-3.162-1.447-4.8-.28-2.275 1.384-4.276 3.963-5.214 15.586-5.666 31.178-11.32 46.767-16.98 5.776-2.098 11.528-4.263 17.336-6.266 1.636-.564 2.1-1.299 2.032-3.066-.56-14.485-1.534-28.984-1.312-43.462.305-19.814 3.277-39.306 10.633-57.886 4.21-10.632 9.927-20.366 19.015-27.588C106.284 5.52 114.952.914 125.193.125c10.753-.827 20.417 2.522 29.636 7.685 17.613 9.862 31.112 24.067 42.501 40.428 2.517 3.615 5.245 5.846 9.766 6.879 21.514 4.911 42.925 10.272 64.373 15.472 5.031 1.22 6.432 3.535 5.42 8.633-6.49 32.7-12.952 65.405-19.423 98.109zm3.296 73.304c.355-1.188.617-1.901.78-2.636 1.611-7.22 3.564-14.389 4.702-21.684 1.085-6.948 1.873-14.04 1.746-21.049-.102-5.596-1.143-11.323-6.39-15.195-3.818-2.817-7.929-4.328-12.428-3.164-7.342 1.9-13.831 5.587-19.568 10.633-8.515 7.49-16.133 15.8-23.186 24.656-1.613 2.025-3.464 3.8-6.406 3.151-2.942-.65-3.735-2.92-4.374-5.542-3.148-12.901-5.984-25.902-9.77-38.618-4.632-15.565-11.792-30.111-20.802-43.618-8.031-12.04-17.521-22.676-31.653-27.904-6.916-2.56-13.876-4.827-21.426-3.075-5.115 1.186-7.812-.914-7.77-6.14.033-4.37.138-8.747.43-13.107.449-6.708.724-13.457 1.722-20.091 1.588-10.55 3.434-21.09 7.428-31.082 2.732-6.835 5.923-13.464 11.533-18.426 2.27-2.007 5.026-3.98 7.883-4.715 9.629-2.479 18.245 1.36 26.108 6.135 10.074 6.117 18.037 14.828 25.673 23.735 3.329 3.883 4.431 4.343 8.213 1.16 4.2-3.532 7.012-8.59 2.66-13.713-2.601-3.063-4.742-6.526-7.42-9.514-5.766-6.435-11.402-13.054-17.75-18.88-4.72-4.33-10.27-7.885-15.835-11.122-4.228-2.458-8.919-4.475-13.661-5.612-7.86-1.884-15.648-1.096-22.876 3.079-5.43 3.137-10.583 6.571-14.515 11.574-5.248 6.678-9.317 14.07-11.67 22.17-2.381 8.204-4.484 16.572-5.688 25.014-1.454 10.202-2.411 20.55-2.53 30.848-.135 11.766.75 23.554 1.46 35.316.435 7.204 1.026 14.436 2.205 21.546.856 5.16 1.902 6.724 6.857 4.233 3.272-1.646 6.233-3.935 9.25-6.056 5.664-3.983 11.869-5.68 18.294-2.762 4.218 1.917 8.17 4.731 11.712 7.762 8.72 7.463 14.61 17.138 19.86 27.184 9.686 18.535 16.553 38.172 21.273 58.464 3.536 15.203 5.868 30.685 8.788 46.033.583 3.065 1.399 6.085 2.247 9.727 1.664-1.47 2.93-2.245 3.73-3.356 3.84-5.336 7.502-10.8 11.323-16.152 13.424-18.8 26.873-37.59 44.336-53.006 1.848-1.632 4.11-2.764 6.732-1.724 2.53 1.004 3.326 3.16 3.49 5.662.034.504.024 1.012.041 1.518.346 10.252-1.095 20.34-2.74 30.415-.131.806-.13 2.081.348 2.464 2.347 1.878 4.876 3.527 7.634 5.464m-32.512-10.066c-.818.976-1.51 1.708-2.097 2.517-8.253 11.392-16.556 22.748-24.699 34.217-3.039 4.281-5.987 8.477-10.777 11.095-3.539 1.933-5.973 1.892-9.394-.213-4.417-2.716-5.89-7.02-6.727-11.619-1.984-10.9-3.72-21.845-5.653-32.755-.752-4.251-1.764-8.456-2.69-12.838l-62.19 42.281 86.47 98.971 87.354-96.905zm42.576-181.938c-1.37.4-2.407.638-3.397 1.001-11.59 4.254-23.174 8.524-34.757 12.796-11.031 4.068-22.049 8.175-33.105 12.174-1.348.487-1.808 1.078-1.827 2.489-.299 22.085-.67 44.168-.982 66.253-.117 8.265-.176 16.532-.152 24.798.005 1.808.309 3.658.764 5.414 1.413 5.451 2.993 10.86 4.45 16.3.766 2.858 1.41 5.75 2.153 8.806 4.372-4.574 8.422-8.97 12.642-13.194 8.377-8.384 17.738-15.22 29.41-18.406.79-.216 1.628-1.556 1.817-2.5 6.765-33.753 13.458-67.522 20.152-101.29.945-4.766 1.847-9.542 2.832-14.64M14.414 174.03c.33.568.414.814.578.98 17.665 17.99 35.345 35.965 52.982 53.982.991 1.012 1.77.948 2.852.343 2.486-1.39 5.005-2.723 7.52-4.062 3.925-2.091 7.872-4.144 11.784-6.26 3.684-1.991 7.31-4.091 11.006-6.056 3.476-1.848 7.03-3.546 10.517-5.375 4.818-2.528 9.6-5.127 14.406-7.68 3.406-1.81 6.832-3.582 10.238-5.394 1.363-.725 1.628-1.596.657-3.005-1.43-2.071-2.521-4.373-3.92-6.467-5.043-7.55-10.623-14.578-18.886-18.935-2.969-1.565-5.775-1.43-8.5.528-2.258 1.621-4.377 3.512-6.819 4.784-3.467 1.806-7.05 3.689-10.81 4.545-3.719.847-8.15.969-10.854-2.35-2.73-3.352-4.678-7.355-4.99-11.92-.184-2.686-.644-5.354-1.011-8.281zm128.359 28.498-68.25 36.294 19.2 51.227c.969-.626 1.742-1.102 2.492-1.613a35101 35101 0 0 0 29.624-20.192c10.359-7.071 20.725-14.13 31.029-21.281.688-.478 1.4-1.834 1.206-2.534-3.954-14.245-8.588-28.252-15.301-41.9m-29.969-117.89c-.56 3.933-1.847 7.67-1.446 11.215.973 8.598 2.733 17.107 4.088 25.13 6.983 2.224 13.805 3.845 20.172 6.54 12.3 5.205 21.648 14.309 29.035 25.145 4.236 6.214 10.76 8.13 16.723 11.959.086-.855.153-1.244.16-1.633.319-16.772.612-33.544.98-50.315.033-1.512-.427-2.15-1.855-2.678-15.824-5.85-31.618-11.783-47.418-17.697-6.745-2.524-13.486-5.058-20.439-7.667m141.898-7.293-.031-.48c-1.2-.234-2.413-.418-3.599-.711-15.2-3.763-30.402-7.518-45.584-11.35-1.684-.425-2.64-.337-3.138 1.563-1.753 6.686-6.014 11.443-12.113 14.372-4.584 2.202-9.56 2.992-13.703-.874-3.921-3.657-7.442-7.752-11.035-11.749-1.235-1.374-2.296-1.94-4.284-1.435-8.483 2.155-17.029 4.06-25.546 6.077-4.756 1.127-9.502 2.295-14.97 3.618 1.167.528 1.588.748 2.03.914 21.237 7.97 42.468 15.953 63.733 23.845 1.056.392 2.52.297 3.604-.095 12.969-4.691 25.9-9.487 38.845-14.244 8.594-3.159 17.194-6.301 25.791-9.45m-147.591 246.84q-.21.18-.416.362c.097.303.182.61.293.908 4.062 10.85 8.053 21.727 12.227 32.534 1.74 4.503 2.93 9.196 6.093 13.167 14.495 18.19 28.795 36.537 43.17 54.824 3.352 4.264 6.724 8.514 10.524 13.325.343-8.468.474-16.203 1.032-23.907.37-5.117-.74-9.098-4.431-13.115-11.384-12.385-22.22-25.276-33.282-37.957a23171 23171 0 0 0-27.734-31.721c-2.473-2.824-4.983-5.615-7.476-8.42M23.63 198.776l-.354.243c1.644 3.453 3.272 6.914 4.933 10.358 13.604 28.214 27.201 56.43 40.831 84.63 2.451 5.073 4.437 10.515 7.697 15.02 7.206 9.962 15.09 19.433 22.679 29.12.368.47.549 1.085.817 1.633l.752-.7c-.168-.547-.308-1.104-.508-1.639-12.086-32.221-24.169-64.443-36.3-96.647-.426-1.131-1.194-2.22-2.047-3.09-12.393-12.642-24.826-25.244-37.256-37.85-.384-.39-.827-.72-1.243-1.078M189.946 438.22c.418-.598.55-.817.711-1.014 18.2-22.265 36.404-44.526 54.595-66.799a7.1 7.1 0 0 0 1.025-1.72q8.104-19.277 16.167-38.571c.223-.534.298-1.13.442-1.697l-.829-.627c-.627.888-1.172 1.851-1.894 2.654-11.04 12.287-22.11 24.548-33.16 36.824-11.785 13.091-23.568 26.183-35.307 39.315-.61.681-1.098 1.728-1.134 2.625-.37 9.265-.636 18.534-.92 27.802-.007.221.107.446.304 1.208m78.26-169.632c-1.239 4.515-2.469 8.782-3.513 13.093-.128.526.59 1.503 1.169 1.915 5.416 3.853 10.877 7.643 16.347 11.42 3.168 2.186 3.973 4.266 2.643 7.993-1.1 3.081-2.452 6.072-3.696 9.101q-1.581 3.846-3.164 7.688l.507.257 24.479-29.215zM154.89 57.834c-5.751-4.556-11.459-7.838-18.055-9.354-4.458-1.025-8.162.067-11.2 3.789-3.453 4.23-5.84 8.947-7.875 14.356zm74.81 200.43 8.497 5.929 1.711-13.523-.557-.296z" style="fill:#fff;stroke-width:0"/></svg>