<svg xmlns="http://www.w3.org/2000/svg" id="Layer_2" viewBox="0 0 469.333 456.778"><defs><style>.cls-1{fill:#fff;stroke-width:0}</style></defs><g id="Layer_1-2"><path d="M362.934 147.702c5.066-15.377 10.772-29.824 18.12-43.554 8.866-16.569 19.761-31.492 35.74-42.012 12.816-8.438 26.88-12.578 42.271-11.855a41 41 0 0 1 6.048.739c3.37.668 4.971 3.013 3.881 6.252-1.605 4.768-3.297 9.555-5.514 14.058-3.664 7.444-7.734 14.692-11.72 21.975-1.838 3.36-4.485 5.29-8.617 4.332-3.807-.882-6.356 1.4-8.692 3.874-4.905 5.198-8.668 11.186-11.919 17.525-7.831 15.275-13.611 31.352-17.98 47.894-5.675 21.483-10.835 43.102-16.285 64.645-1.275 5.04-2.611 10.086-4.353 14.974-.786 2.207-2.343 4.34-4.055 5.979-5.542 5.3-12.916 3.088-17-3.268-3.46-5.383-6.193-11.251-9.03-17.012-7.52-15.26-14.35-30.9-23.819-45.097-4.14-6.209-9.11-11.867-13.756-17.733-.682-.862-1.657-1.491-2.459-2.196-.224.154-.313.185-.356.248-1.092 1.619-2.898 3.176-3.052 4.882-.134 1.486 1.544 3.173 2.511 4.716 6.922 11.04 11.565 23.007 13.596 35.837 3.311 20.907.05 40.866-9.727 59.692-4.007 7.714-9.202 14.586-14.945 21.083-2.325 2.63-5.286 2.53-8.284 2.433-5.37-.172-10.737-.482-16.107-.636-.914-.027-1.971.225-2.741.703-8.835 5.489-18.49 8.709-28.631 10.697-1.27.25-2.583.956-3.583 1.798-4.11 3.462-7.936 7.28-12.194 10.54-3.986 3.05-8.857 3.984-13.707 2.878-6.374-1.455-12.807-2.992-18.885-5.347-20.035-7.763-35.661-20.999-46.681-39.481-9.892-16.592-14.532-34.621-13.461-53.941.942-16.997 6.017-32.758 15.404-47.01 2.168-3.293 4.603-6.477 7.324-9.32 3.17-3.311 7.399-4.633 11.969-4.673 4.645-.041 9.292.047 13.935-.052 1.06-.023 2.257-.353 3.142-.927 8.64-5.605 17.987-9.39 28.086-11.41 1.33-.266 2.726-1.06 3.722-2.002 4.324-4.084 8.398-8.44 12.817-12.414 1.311-1.18 3.53-2.151 5.204-1.978 5.883.608 11.727 1.671 17.55 2.752 1.7.315 2.815.11 4.05-1.182 6.794-7.109 14.263-13.385 23.098-17.849 19.888-10.049 38.874-8.9 56.754 4.788 8.26 6.322 14.497 14.486 20.424 22.91.545.774 1.08 1.554 1.907 2.745m-58.288 18.48c.77-1.1 1.385-2.035 2.06-2.925.734-.972 1.465-1.958 2.301-2.84 2.444-2.575 4.57-3.086 7.272-.82 4.208 3.531 8.449 7.18 11.924 11.4 8.305 10.081 14.658 21.477 20.533 33.097 6.016 11.898 11.686 23.97 17.58 35.93a30.3 30.3 0 0 0 3.512 5.551c2.193 2.729 4.193 2.648 5.936-.35 1.292-2.222 2.42-4.657 3.022-7.143 4.732-19.542 8.92-39.224 14.06-58.656 5.285-19.981 11.159-39.836 20.048-58.607 4.681-9.886 9.958-19.39 18.218-26.886 3.328-3.02 7.081-4.58 11.555-4.157 1.396.133 2.29-.194 2.965-1.46 3.553-6.669 7.239-13.267 10.7-19.982 1.647-3.194 2.898-6.593 4.377-10.01-9.627-1.158-21.89 1.016-30.81 5.392-9.375 4.598-17.476 10.802-24.44 18.656-6.906 7.786-12.697 16.29-17.515 25.453-8.353 15.885-14.858 32.536-19.887 49.762-.551 1.888-1.77 3.204-3.578 3.087-1.344-.087-3.073-.893-3.846-1.953-2.825-3.868-5.168-8.088-7.973-11.973-6.454-8.94-13.48-17.33-23.31-22.863-10.09-5.678-20.723-6.855-31.797-3.815-7.466 2.05-14.068 5.962-20.213 10.558-3.536 2.645-6.71 5.774-10.32 8.924 14.88 6.052 27.309 14.698 37.626 26.63m-65.119-25.355c-.176 2.02-.557 3.419-.372 4.737 1.14 8.113 1.825 16.349 3.74 24.283 6.985 28.947 17.68 56.587 30.612 83.363 4.814 9.965 9.99 19.765 16.76 28.59 1.733 2.26 3.848 4.226 5.81 6.35 26.701-28.751 30.065-68.134 15.066-97.8-14.707-29.088-39.124-44.823-71.616-49.523m25.774 151.57c-3.126-3.453-6.232-6.469-8.854-9.86-8.056-10.414-14.21-21.96-19.706-33.89-7.656-16.62-13.953-33.718-18.406-51.477-2.695-10.75-4.947-21.57-4.617-32.746.054-1.822.318-3.637.505-5.681-8.095 1.956-15.097 5.45-21.631 9.959-5.264 3.633-8.05 8.65-8.777 15.019-1.208 10.592.061 21 2.304 31.287 4.231 19.408 11.312 37.76 21.403 54.885 5.519 9.366 11.69 18.274 20.342 25.105 2.738 2.161 5.592 4.305 9.298 4.464 10.117.434 19.302-2.797 28.139-7.065m-32.632 14.471c-6.216-2.287-10.955-5.932-15.232-10.251-8.63-8.716-15.166-18.919-20.805-29.712-10.315-19.746-17.41-40.585-20.42-62.708-1.1-8.086-1.45-16.251.325-24.315.718-3.259 1.842-6.429 2.81-9.736-2.375 0-4.735-.018-7.094.003-4.668.043-7.833 2.593-9.867 6.477-3.623 6.92-4.806 14.462-4.933 22.187-.198 12.054 1.7 23.828 4.867 35.424 6.085 22.275 15.432 42.952 29.962 61.07 5.65 7.044 12.061 13.223 20.274 17.276 5.295 2.614 10.438 3.096 15.227-1.07 1.59-1.383 3.06-2.902 4.886-4.645m-2.017-157.003c-1.897 1.889-3.983 3.943-6.042 6.025-1.804 1.823-2.495 4.05-2.711 6.602-.787 9.293.793 18.34 2.828 27.305 5.284 23.27 13.767 45.377 24.768 66.513 4.628 8.893 9.717 17.526 16.48 25.026 2.873 3.185 5.94 6.11 10.606 6.226 2.499.062 5 .01 7.05.01-26.237-42.395-43.886-88.356-52.98-137.707m-42.744 153.326c-23.287-29.676-35.988-63.053-38.687-99.976-11.763 32.464 1.567 78.654 38.687 99.976" class="cls-1"/><path d="M228.215 448.426c83.592-.195 159.735-47.367 196.766-122.322 4.499-9.106 7.839-18.786 11.715-28.2.465-1.127.786-2.341 1.416-3.365 1.046-1.699 2.678-2.42 4.63-1.8 1.937.615 2.88 2.092 2.783 4.116-.042.88-.25 1.782-.546 2.616-26.927 76.003-78.853 125.879-156.096 148.924-25.877 7.72-52.527 9.816-79.39 7.48-52.93-4.603-98.99-25.067-137.702-61.503C39 363.508 16.95 326.057 6.68 282.168-7.776 220.4 1.082 161.83 34.708 107.978 69.548 52.184 119.826 17.25 184.394 4.56c60.527-11.896 117.074-.395 169.036 33.07.955.615 1.929 1.258 2.719 2.06 1.4 1.425 1.736 3.155.685 4.925-1.053 1.773-2.752 2.33-4.647 1.724-1.215-.388-2.354-1.1-3.434-1.81-23.723-15.558-49.403-26.566-77.297-31.67-71.065-13-134.477 3.686-189.012 51.276C45.694 96.206 22.542 136.786 13 184.66 2.752 236.081 9.652 285.384 34.385 331.734c24.332 45.6 60.59 78.561 107.978 99.09 23.238 10.066 47.599 15.68 72.911 17.015 4.312.228 8.627.393 12.94.587" class="cls-1"/><path d="M17.828 228.127c3.22-80.18 37.987-141.946 107.71-182.854 27.87-16.352 58.387-24.709 90.659-26.4 45.896-2.408 88.112 9.018 126.664 34.042 3.438 2.231 4.427 4.65 2.88 6.95-1.489 2.214-4.03 2.28-7.34.106-23.975-15.752-50.074-26.167-78.425-30.489-51.429-7.839-99.25 2.048-142.856 30.626-33.253 21.794-57.853 51.162-73.832 87.595-14.326 32.667-19.481 66.858-15.602 102.312 5.237 47.863 25.17 88.759 59.423 122.461 29.154 28.684 63.95 47.394 104.31 54.004 74.41 12.186 137.437-9.95 188.21-65.845 17.804-19.6 30.41-42.479 38.932-67.578.418-1.232.8-2.497 1.398-3.644 1.084-2.082 3.2-2.959 5.13-2.148 2.103.882 2.984 2.636 2.417 4.77a88 88 0 0 1-2.867 8.825c-20.991 54.932-58.178 94.786-111.555 119.3-23.185 10.648-47.69 16.421-73.188 17.75-50.4 2.628-96.192-10.73-136.717-40.812-41.31-30.664-67.807-71.396-79.722-121.521-3.692-15.534-5.364-31.325-5.629-47.45" class="cls-1"/><path d="M228.59 391.927c67.487.091 129.778-44.126 152.477-109.49.482-1.386.914-2.797 1.508-4.134 1.025-2.307 3.067-3.348 5.1-2.73 2.138.65 3.423 2.805 2.602 5.322-1.64 5.03-3.289 10.095-5.456 14.91-23.42 52.019-62.456 86.303-117.958 99.461-58.143 13.784-110.444-.011-155.222-39.733-29.084-25.8-46.678-58.499-53.714-96.773-14.003-76.167 26.07-153.484 96.28-186.066 25.548-11.856 52.392-17.249 80.474-15.962 31.46 1.442 60.428 10.886 86.769 28.244.676.445 1.368.922 1.9 1.521 1.401 1.582 1.659 3.38.432 5.155-1.17 1.692-2.905 2.063-4.774 1.399-.982-.35-1.892-.949-2.774-1.526-20.303-13.276-42.447-21.853-66.475-24.967-46.706-6.052-88.862 5.302-125.625 34.911-29.18 23.502-48.003 53.852-56.41 90.413-15.56 67.667 13.217 137.41 71.818 174.622 26.635 16.913 55.806 25.142 89.047 25.423" class="cls-1"/></g></svg>