<svg xmlns="http://www.w3.org/2000/svg" id="Layer_2" viewBox="0 0 485.333 372.748"><defs><style>.cls-1{fill:#fff;stroke-width:0}</style></defs><g id="Layer_1-2"><path d="M69.817 63.327c-1.067-6.063-2.052-11.82-3.1-17.564-.913-5.002.74-7.133 5.815-7.322 29.258-1.084 58.517-2.156 87.775-3.242 13.774-.511 27.545-1.353 41.321-1.43 6.51-.036 13.037 1.295 19.537 2.156 5.527.733 11.028 1.673 16.538 2.536 4.632.726 5.663 1.906 5.643 6.56-.184 43.792-.377 87.584-.566 131.375-.006 1.249 0 2.497 0 3.961 6.184 1.015 12.201 2.02 18.224 2.986 19.287 3.096 38.577 6.173 57.864 9.269 3.006.482 4.646 2.638 4.31 5.786-2.55 23.909-5.128 47.815-7.692 71.722-.518 4.835-1.234 9.663-1.47 14.513-.477 9.746-3.258 18.93-6.29 28.083-1.132 3.417-2.146 6.873-3.252 10.3-1.041 3.226-3.123 4.405-6.413 3.566-1.735-.442-3.424-1.07-4.746-1.491-5.048 14.367-10.021 28.606-15.06 42.822-1.779 5.016-3.663 5.797-8.623 3.86-23.982-9.363-47.963-18.729-71.947-28.086-46.46-18.126-92.92-36.253-139.392-54.352-2.298-.895-3.626-2.351-4.236-4.786C36.792 215.706 19.485 146.873 2.182 78.04 1.612 75.77 1 73.512.432 71.243c-1.309-5.237.296-7.342 5.599-7.38q30.814-.216 61.63-.44c.62-.005 1.241-.054 2.156-.096m115.687 218.564c-2.413 3.085-4.704 4.03-7.805 3.044a46070 46070 0 0 0-91.686-29.023c-2.215-.7-3.377-2.074-3.832-4.349-2.994-14.96-6.213-29.877-9.002-44.875-.932-5.013-3.43-9.916-1.875-15.274.084-.29-.37-.722-.543-1.102-.656-1.452-1.592-2.85-1.903-4.376-4.521-22.166-8.96-44.35-13.412-66.53-.548-2.727.684-4.878 3.335-5.584 1.643-.438 3.337-.73 5.027-.932 7.701-.924 15.203-3.727 23.14-2.48.505.08 1.045-.064 1.866-.126l-6.145-37.88H9.667c.2.99.299 1.6.448 2.197 17.09 68.045 34.194 136.087 51.234 204.145.51 2.037 1.37 3.139 3.383 3.922 59.709 23.236 119.389 46.547 179.075 69.84 8.95 3.493 17.909 6.962 26.98 10.487.258-.544.482-.925.626-1.335 3.95-11.202 7.91-22.402 11.809-33.622.405-1.167.54-2.453.64-3.697.87-10.764 1.597-21.54 2.588-32.292.505-5.48.66-5.535-4.659-6.747-.14-.032-.311.064-.468.1l.681.221c-1.086 3.647-1.936 7.387-3.32 10.918-1.7 4.341-3.851 8.505-5.796 12.751-1.617 3.529-3.862 4.531-7.65 3.333-24.784-7.836-49.548-15.734-74.366-23.462-3.467-1.08-5.572-2.736-5.368-7.272M78.49 63.387c2.583 0 4.831-.052 7.076.012 3.208.092 4.703 1.21 5.264 4.312 1.182 6.53 2.201 13.088 3.286 19.635 1.23 7.43 2.414 14.869 3.762 22.278.132.725 1.22 1.748 1.946 1.821 6.8.683 13.618 1.182 20.43 1.745 9.503.787 19.007 1.565 28.508 2.381 11.468.986 22.927 2.07 34.401 2.984 4.918.392 6.686 1.81 6.97 6.68.666 11.409 1.196 22.824 1.836 34.234.424 7.542.972 15.076 1.41 22.617.293 5.032.819 10.082.604 15.097-.117 2.734-1.504 5.405 1.125 7.778 5.922-4.837 12.158.318 18.504-.032 0-2.175-.259-4.283.08-6.29.281-1.672.836-3.708 2.01-4.747 5.45-4.822 11.09-9.442 16.833-13.915 1.153-.898 1.608-1.574 1.613-2.952.159-42.712.353-85.423.536-128.135.003-.709-.07-1.418-.115-2.256-3.011-.459-5.932-.956-8.868-1.34-10.06-1.32-19.996-3.725-30.29-2.902-6.73.538-13.495.661-20.247.905-31.962 1.154-63.924 2.284-95.885 3.431-1.135.04-2.266.176-3.647.287zM64.958 121.7c4.022 20.026 7.968 39.561 11.834 59.113.341 1.726.99 2.657 2.787 2.961 2.919.494 5.802 1.203 8.7 1.816 25.018 5.286 50.046 10.522 75.047 15.88 10.55 2.261 10.436 2.258 19.188-4.083 2.207-1.6 2.598-3.24 2.45-5.606-.76-12.218-1.441-24.44-2.15-36.662-.402-6.919-.78-13.84-1.219-20.756-.14-2.227.338-5.205-.884-6.453-1.22-1.247-4.208-.826-6.431-1.023-13.54-1.194-27.081-2.356-40.622-3.528-12.017-1.04-24.025-2.213-36.055-3.068-6.868-.488-13.779-.732-20.656-.556-3.966.102-7.904 1.26-11.989 1.965m210.876 105.614c-.376-.351-.432-.45-.504-.464-24.1-4.857-48.196-9.725-72.311-14.503-.981-.194-2.329.187-3.167.78a104 104 0 0 0-8.065 6.307c-.74.641-1.377 1.91-1.337 2.859.269 6.38.708 12.754 1.14 19.127.835 12.295 1.785 24.582 2.473 36.884.12 2.137.874 2.885 2.716 3.46 16.398 5.115 32.772 10.309 49.156 15.469 6.572 2.07 13.153 4.112 19.782 6.182 2.057-4.47 4.016-8.703 5.942-12.95.216-.475.314-1.029.35-1.554.551-7.986 1.098-15.972 1.616-23.96.5-7.72.983-15.441 1.44-23.164.292-4.916.525-9.835.769-14.473m-89.013-16.793c-1.182-.888-2.013-2.016-2.835-2.01-1.201.01-2.514.653-3.57 1.346-2.417 1.586-4.617 3.307-7.885 2.605a18428 18428 0 0 0-80.038-17.028c-3.508-.738-7.045-2.249-10.694.042-1.386.87-1.819 1.43-1.476 3.096 3.236 15.735 6.373 31.492 9.485 47.253.352 1.779 1.203 2.59 2.981 3.147 27.437 8.581 54.863 17.198 82.229 26.003 2.94.945 4.797.834 6.608-1.725 1.255-1.774 3.167-2.916 2.862-5.684-.609-5.54-.813-11.126-1.148-16.694-.6-9.972-1.054-19.954-1.826-29.912-.252-3.237.558-5.567 3.19-7.429.756-.534 1.144-1.586 2.117-3.01m110.65 106.603c2.287-7.643 5.062-15.117 6.673-22.834 1.465-7.016 1.66-14.297 2.423-21.461 2.09-19.61 4.19-39.219 6.278-58.829.472-4.434.916-8.871 1.359-13.168-.514-.251-.668-.374-.837-.402-24.877-4.02-49.753-8.05-74.642-11.997-1.015-.16-2.376.144-3.19.75-3.03 2.252-5.703 5.028-8.875 7.03-3.707 2.339-4.583 5.471-3.793 9.363.16.791 1.02 1.886 1.736 2.049 5.422 1.231 10.887 2.269 16.34 3.36 12.841 2.567 25.687 5.112 38.523 7.707 4.602.93 5.838 2.694 5.449 7.39-.186 2.242-.325 4.487-.47 6.732-.473 7.364-.957 14.727-1.404 22.092-.43 7.083-.819 14.17-1.231 21.352 3.529.983 6.971 1.913 10.396 2.905 2.361.684 3.576 2.316 3.59 4.775a44 44 0 0 1-.159 3.779c-.667 8.341-1.2 16.698-2.112 25.013-.34 3.086.692 4.291 3.946 4.394m140.215-109.727c-6.143-1.173-12.506-2.377-18.864-3.603-31.445-6.06-62.88-12.172-94.345-18.128-3.66-.693-5.832-2.212-7.198-5.812-5.35-14.099-5.483-8.596.05-22.772 6.871-17.609 13.95-35.137 20.94-52.7 1.436-3.606 3.115-4.588 6.876-3.786 24.007 5.119 48.008 10.27 72.01 15.41 15.738 3.37 31.477 6.738 47.21 10.128.869.187 1.784.433 2.524.896 5.495 3.435 10.998 6.86 16.396 10.443 2.43 1.612 2.684 4.448.838 7.155a9961 9961 0 0 1-21.216 30.95c-6.63 9.64-13.318 19.24-19.897 28.913-1.286 1.89-2.819 2.953-5.324 2.906m-92.023-98.037c-.399.842-.78 1.543-1.072 2.278-6.698 16.797-13.22 33.667-20.183 50.353-1.955 4.685-2.46 8.798.253 13.13.095.152.1.384.224.486.76.63 1.466 1.621 2.327 1.789 35.838 6.959 71.695 13.83 107.534 20.786 1.52.294 2.226-.044 3.051-1.26 6.317-9.308 12.706-18.567 19.076-27.839 6.057-8.815 12.118-17.627 18.312-26.639-3.846-2.445-7.532-4.837-11.277-7.133-.891-.547-1.95-.906-2.979-1.13-25.92-5.603-51.845-11.178-77.77-16.757-12.464-2.682-24.929-5.362-37.496-8.064" class="cls-1"/><path d="M376.539 49.511c0 9.272-.02 18.544.009 27.816.012 3.958-.664 5.136-4.265 6.565-31.778 12.61-63.568 25.194-95.338 37.827-2.617 1.04-4.942 1.041-7.396-.513-3.57-2.261-7.242-4.37-10.944-6.412-2.54-1.4-3.508-3.464-3.252-6.245 1.436-15.597 2.873-31.194 4.302-46.791.237-2.595 1.38-4.424 3.726-5.822 30.528-18.191 61.01-36.46 91.504-54.71 3.384-2.026 5.686-1.567 8.177 1.577 3.184 4.02 6.294 8.104 9.634 11.99 1.77 2.06 2.499 4.286 2.495 6.9-.013 9.273-.005 18.545-.005 27.818zM357.506 9.694c-29.482 17.643-58.613 35.061-87.699 52.553-.815.49-1.554 1.734-1.652 2.694-1.24 12.275-2.168 24.584-3.605 36.835-.53 4.522-.069 7.81 4.76 9.316 1.004.314 1.814 1.274 2.82 1.552 1.168.322 2.622.65 3.662.241 29.894-11.767 59.746-23.642 89.632-35.43 1.77-.697 2.479-1.484 2.42-3.476-.496-17.11-.87-34.225-1.311-51.337-.02-.77-.113-1.702-.549-2.27-2.728-3.557-5.564-7.033-8.478-10.678" class="cls-1"/></g></svg>