<svg xmlns="http://www.w3.org/2000/svg" viewBox="0 0 466 475.526"><path d="M124.289 336.196c-1.545 0-2.588.046-3.625-.008-4.75-.246-6.783-3.718-4.534-7.986 1.746-3.314 3.752-6.49 5.634-9.732.301-.518.562-1.06.956-1.81-6.6-2.725-5.747-8.386-5.038-13.593.749-5.508 2.334-10.897 3.402-16.368.206-1.058-.206-2.273-.474-3.382-.549-2.266-1.448-4.476-1.744-6.768-.6-4.668-.78-9.39-1.396-14.055-.167-1.265-.987-2.804-1.999-3.542-16.335-11.909-32.74-23.722-49.16-35.513-1.764-1.267-2.93-2.666-2.546-4.966.409-2.45 2.042-3.324 4.305-3.856 13.56-3.189 27.093-6.49 40.635-9.757.322-.078.638-.181 1.312-.375-3.589-4.72-7.031-9.28-10.51-13.814-4.35-5.67-8.797-11.27-13.046-17.015-.973-1.315-1.803-3.1-1.819-4.678-.026-2.665 2.177-4.023 5.741-3.895 7.756.278 15.508.653 23.262.98 11.495.484 22.99.962 34.826 1.457-.422-.878-.679-1.585-1.072-2.205-10.973-17.297-21.648-34.794-33.042-51.808-9.074-13.549-19.165-26.414-31.134-37.605-6.255-5.85-12.99-11.2-21.517-13.371-2.25-.573-4.841-.374-7.173.044-11.69 2.097-19.695 9.479-26.005 18.956-4.955 7.442-11.862 7.74-18.019 4.94C2.494 82.829-1.192 75.557.34 67.925 2.601 56.666 5.92 45.76 10.967 35.476c1.967-4.006 4.964-7.517 7.583-11.189 4.848-6.798 10.37-12.834 17.938-16.799C44.636 3.219 53.204.482 62.372.084c22.32-.97 42.228 6.515 61.077 17.721 12.726 7.567 24.168 16.728 35.121 26.66 13.47 12.213 25.97 25.34 37.78 39.11 8.279 9.654 15.924 19.851 23.85 29.807.218.273.406.568.625.84 5.05 6.274 5.062 6.318 12.753 4.11.825-.237 1.603-1.262 2.05-2.108 7.874-14.875 15.691-29.78 23.522-44.677 3.327-6.33 6.694-12.638 9.962-18.998 1.018-1.98 2.462-3.277 4.674-3.103 2.326.183 3.566 1.714 4.267 3.977 2.452 7.915 5.055 15.783 7.605 23.667.15.466.34.918.664 1.778 1.507-1.918 2.782-3.53 4.046-5.152 1.392-1.788 2.939-3.236 5.477-2.701 2.455.517 3.17 2.328 3.675 4.522 3.76 16.3 7.62 32.577 11.36 48.881.457 1.99 1.482 2.936 3.275 3.846 7.762 3.938 15.406 8.112 23.074 12.236.592.32 1.332.83 1.497 1.399.827 2.85 3.203 3.013 5.492 3.462 3.756.737 7.559 1.335 11.233 2.377 3.823 1.084 7.552 2.533 11.255 3.994 2.957 1.168 2.797 4.147 3.505 6.99 4.074-.43 8.194-.851 12.311-1.3 13.517-1.478 27.03-2.975 40.549-4.44 2.111-.229 4.322-.391 5.579 1.831 1.287 2.277.49 4.29-.96 6.28-8.318 11.408-16.578 22.859-24.854 34.298-.346.479-.645.991-1.194 1.839 5.267.977 10.26 1.92 15.26 2.828 14.823 2.694 29.647 5.374 44.47 8.063 2.14.388 4.057.985 4.528 3.587.46 2.54-.702 4.08-2.685 5.418-16.759 11.314-33.479 22.684-50.24 33.993-2.247 1.517-3.87 3.018-4.672 6.002-1.232 4.584-3.624 8.856-5.526 13.26-.276.64-.792 1.28-.785 1.915.01.964.075 2.207.655 2.83 1.715 1.847 3.738 3.401 5.558 5.156 2.891 2.787 2.214 6.388-1.484 7.9-2.581 1.056-5.182 2.08-7.83 2.946-1.49.487-2.081 1.394-2.689 2.801-2.01 4.655-.521 7.979 2.54 11.833 15.879 19.998 31.402 40.28 47.046 60.466.374.482.74.973 1.078 1.481 1.26 1.897 1.602 3.915.316 5.884-1.253 1.92-3.211 2.22-5.328 1.82q-13.858-2.611-27.714-5.236c-17.874-3.389-35.743-6.8-53.628-10.125-.973-.181-2.352-.009-3.072.577-5.133 4.18-10.089 8.575-15.229 12.745-1.317 1.068-1.865 2.101-1.734 3.734.14 1.737.146 3.492.093 5.235-.126 4.137-3.02 6.206-6.908 4.815-2.121-.76-4.108-1.89-6.17-2.824-2.679-1.214-5.712.504-6.096 3.375-3.432 25.677-6.88 51.351-10.318 77.027-.278 2.075-.489 4.16-.794 6.23-.327 2.222-1.232 3.928-3.728 4.43-2.373.478-4.084-.384-5.398-2.246-1.508-2.136-2.962-4.311-4.43-6.476-14.823-21.865-29.657-43.723-44.437-65.616-.915-1.356-1.848-2.058-3.543-2.096-2.781-.063-5.554-.483-8.336-.603-.645-.028-1.493.38-1.948.869-5.41 5.805-10.804 11.628-16.11 17.529-1.614 1.794-3.289 3.054-5.838 2.62-2.714-.464-3.473-2.436-4.079-4.786-1.783-6.922-3.774-13.789-5.56-20.71-.427-1.653-1.16-2.322-2.852-2.213-8.763.563-16.913-2.061-24.785-5.386-2.934-1.24-5.526-3.63-7.826-5.94-2.423-2.435-4.41-2.749-7.681-1.364-20.865 8.836-41.856 17.375-62.8 26.024-2.221.918-4.443 1.33-6.294-.571-1.908-1.961-1.172-4.173-.146-6.297 9.258-19.161 18.521-38.32 27.775-57.483.637-1.318 1.212-2.667 2.02-4.455m92.49-213.633c-3.346-4.22-6.465-8.086-9.512-12.007-14.949-19.23-30.657-37.754-48.475-54.452-13.66-12.801-27.803-24.846-44.337-33.867C99.247 13.94 83.403 8.134 65.783 8.436c-15.525.266-28.813 5.236-38.394 18.102-2.909 3.906-6.449 7.506-8.557 11.808-4.68 9.55-8.242 19.573-10.153 30.128-.86 4.749.51 8.176 4.948 10.272 3.602 1.7 5.782 1.409 7.885-1.787 4.454-6.773 10.011-12.5 16.732-17.051 1.283-.87 2.635-1.738 4.082-2.242 3.537-1.23 7.108-2.41 10.742-3.287 2.241-.54 4.666-.868 6.937-.625 5.896.63 11.238 2.989 16.23 6.136 9.778 6.166 17.75 14.346 25.217 23.028 13.624 15.84 25.161 33.204 36.377 50.777 5.766 9.035 11.206 18.279 16.802 27.442 2.735-2.262 2.657-2.25 1.802-7.69-3.09-19.648-6.133-39.303-9.168-58.96-.566-3.664 2.716-6.277 6.124-4.91.8.32 1.552.79 2.268 1.277 16.574 11.253 33.964 21.317 49.533 34.04.58.475 1.645.82 2.321.632 3.002-.83 5.944-1.877 9.269-2.963m-55.808 44.755.318.842c2.34 0 4.686-.119 7.016.029 3.379.214 6.888.125 10.088 1.05 6.42 1.854 10.617 6.68 14.08 12.153.4.632.605 1.482.637 2.241.225 5.459.603 10.926.478 16.38-.076 3.353-.313 6.966-1.61 9.973-2.573 5.963-5.807 11.657-9.011 17.324-1.746 3.088-3.412 6.687-6.126 8.663-6.023 4.388-12.66 7.939-19.113 11.718-.906.53-2.224.718-3.28.566-7.555-1.082-14.224-3.85-18.918-10.281-2.04-2.797-4.224-5.49-6.723-8.721-3.136 16.597-3.988 32.606-1.238 49.138 2.192-.315 4.268-.257 6.07-.933 7.148-2.68 14.452-5.105 21.267-8.493 50.82-25.26 98.37-55.807 143.626-89.963 8.819-6.656 17.057-14.105 25.321-21.46 2.74-2.438 4.774-5.688 7.024-8.647 1.015-1.334.423-2.328-1.004-3.1-4.828-2.612-9.538-5.453-14.438-7.917-3.662-1.841-7.549-3.235-11.828-5.035.74 2.372 1.416 3.998 1.737 5.69.548 2.896 1.127 5.825 1.227 8.755.112 3.305-2.617 4.949-4.885 6.668-4.688 3.552-9.072 7.975-15.181 8.698-8.374.991-16.826 1.326-25.246 1.918-.599.042-1.244-.011-1.813-.193a3853 3853 0 0 1-23.762-7.669 4.9 4.9 0 0 1-1.771-1.046c-3.939-3.713-7.755-7.471-9.275-12.987-.594-2.151-.766-4.006.317-6.013 1.504-2.783 2.845-5.653 4.276-8.526-27.016 5.977-50.104 18.343-68.26 39.178m-19.255 145.076c2.247-.219 4.531-.251 6.735-.688 13.123-2.6 25.56-7.4 37.66-12.87 24.753-11.186 48.495-24.29 71.428-38.89 30.644-19.51 60.184-40.449 85.842-66.36 8.058-8.137 15.613-16.78 18.005-28.736 1.306-6.525.028-7.214-5.49-8.65-3.867-1.005-7.873-1.473-11.75-2.452-3.255-.823-5.28-.823-7.907 2.461a113 113 0 0 1-17.297 17.358c-13.304 10.69-26.845 21.136-40.79 30.967-31.542 22.236-64.132 42.851-98.126 61.157-14.38 7.744-28.677 15.94-44.687 19.82-5.201 1.261-6.88 3.632-7.402 8.318-.49 4.391-1.58 8.714-2.128 13.1-.106.843.863 2.31 1.701 2.7 4.477 2.076 9.265 2.789 14.206 2.765m109.451-38.072c6.465-1.832 12.576-1.22 19.018.427 8.47 2.164 14.734 7.654 21.675 12.201.42.275.789.72 1.028 1.167 3.802 7.104 8.257 13.842 9.617 22.118.751 4.577 1.29 8.85-.453 13.27-1.978 5.015-3.73 10.12-5.421 14.752 28.394-16.28 54.348-36.526 75.752-61.918-3.367-.454-6.48-.87-9.59-1.294-1.207-.165-2.484-.155-3.6-.571-1.88-.7-3.959-1.326-5.421-2.597-5.92-5.145-10.722-11.382-13.83-18.485-2.607-5.963-4.975-12.485-5.305-18.87-.372-7.185-1.757-14.805 1.794-21.894-26.698 23.047-55.382 43.113-85.264 61.694m3.512 102.453c4.603-5.634 9.062-10.983 13.4-16.429 6.073-7.622 12.136-15.255 18.05-23.001 4.17-5.462 6.792-11.71 8.33-18.398.245-1.064.439-2.232.263-3.287-1.137-6.828-3.05-13.386-7.093-19.148-.841-1.198-1.355-2.798-2.461-3.61-6.3-4.628-12.49-9.585-20.636-10.6-2.267-.282-4.596-.496-6.858-.3-3.447.3-6.96.633-10.267 1.577-6.583 1.88-13.808 2.36-18.739 8.2-3.076 3.645-6.292 7.19-9.664 10.56-4.207 4.205-3.917 9.655-3.641 14.663.379 6.887 2.421 13.512 7.784 18.515.251.234.424.552.636.829zm196.898-161.87c-1.251-.294-1.916-.484-2.593-.605-18.936-3.383-37.878-6.728-56.807-10.15-9.74-1.76-19.443-3.727-29.188-5.46-4.272-.76-8.627-.444-11.428 3.3-5.335 7.132-9.385 14.823-8.372 24.253.22 2.048-.223 4.16-.258 6.244-.022 1.29.037 2.601.254 3.869 1.281 7.482 4.078 14.357 8.594 20.467 3.711 5.02 7.356 10.058 14.534 10.52 3.835.248 7.513.058 10.682-2.061 16.662-11.14 33.24-22.405 49.845-33.63 8.076-5.46 16.145-10.93 24.737-16.746M97.206 173.76c.747 1.074 1.106 1.639 1.513 2.167 14.46 18.793 28.882 37.615 43.447 56.325 1.72 2.21 4.003 4.229 6.447 5.557 2.657 1.443 5.684 2.455 8.826.345 4.33-2.906 8.858-5.516 13.271-8.301.564-.356 1.067-.93 1.394-1.518a2283 2283 0 0 0 11.823-21.466c.44-.813.675-1.832.697-2.763.125-5.208-.022-10.428.276-15.623.217-3.768-2.163-6.082-4.397-8.183-1.715-1.61-4.345-2.956-6.653-3.106-12.523-.812-25.072-1.218-37.612-1.76-12.8-.552-25.6-1.098-39.032-1.674M272.643 63.766c-4.819 9.174-9.327 17.724-13.806 26.29-8.393 16.053-16.793 32.103-25.095 48.204-.506.982-.607 2.586-.165 3.57 1.678 3.73 4.367 6.63 8.212 8.257 2.318.981 4.632 2.034 7.043 2.72 4.329 1.232 8.691 2.885 13.108 3.132 5.768.324 11.61-.458 17.404-.946 2.662-.224 5.544-.347 7.869-1.468 3.249-1.566 6.17-3.897 9.013-6.173.889-.71 1.664-2.412 1.47-3.473-.618-3.403-1.601-6.755-2.647-10.061-4.963-15.688-9.99-31.356-15.002-47.027-2.386-7.459-4.794-14.91-7.404-23.025M212.606 295.54c-19.76 9.778-39.327 19.19-61.131 24.083 2.089 1.51 3.725 2.647 5.311 3.85 3.036 2.304 6.445 4.278 8.978 7.05 4.816 5.267 9.313 10.86 13.596 16.577 4.82 6.434 7.716 13.738 8.733 22.244 15.652 3.209 31.191-.265 46.945-3.833-.325-.487-.496-.776-.699-1.042-7.039-9.215-13.892-18.581-21.187-27.589-5.141-6.348-5.954-13.872-6.295-21.335-.31-6.779.07-13.842 5.61-19.13.05-.047.03-.167.14-.875m-34.462 68.54c-1.41-5.617-4.235-10.048-7.526-14.412-7.299-9.68-15.602-18.16-25.978-24.534-2.647-1.627-4.924-1.192-6.257 1.504-1.618 3.273-3.292 6.52-4.88 9.807a47136 47136 0 0 0-24.97 51.791c-.802 1.665-1.531 3.364-2.591 5.702zm125.03 97.212 9.965-74.582-53.207 10.84zm93.9-198.321q-.405-.422-.814-.842c-2.704 2.37-5.78 4.433-8.038 7.172-5.146 6.247-9.367 13.325-14.916 19.158-9.416 9.895-19.01 19.629-29.856 28.11-18.359 14.355-37.543 27.316-58.431 37.698-1.113.553-2.06 1.57-2.889 2.539-2.151 2.512-4.196 5.116-6.28 7.687q-1.89 2.334-3.768 4.678c-1.192 1.486-2.376 2.977-3.563 4.466l.539.508c57.127-20.368 101.025-56.01 128.017-111.174m37.67 102.677-43.605-56.217-26.42 42.984zM238.84 389.332l-.033.666c5.027.235 10.1 1 15.066.555 4.947-.442 9.796-2.058 14.67-3.234 4.391-1.06 8.724-2.383 13.144-3.297 6.622-1.37 13.293-2.503 19.951-3.695 3.24-.58 6.52-.948 9.737-1.624 3.704-.78 7.466-1.504 10.998-2.807 2.386-.88 4.37-2.803 6.617-4.116 8.837-5.165 17.25-11.01 23.875-18.813 4.873-5.741 8.876-12.259 12.95-18.633 5.383-8.426 10.55-16.996 15.61-25.62 1.612-2.748 2.591-5.866 3.86-8.814-1.545 1.334-2.722 2.84-3.75 4.442-7.128 11.12-16.355 20.47-26.098 29.126-12.164 10.808-25.396 20.31-39.545 28.5-11.915 6.897-24.297 12.733-37.137 17.606-7.441 2.824-14.995 5.354-22.53 7.924-.926.316-2.049.1-3.077.052-.674-.031-1.37-.383-2.008-.283-4.108.641-8.202 1.367-12.3 2.065m177.51-226.894c-.816-.047-1.216-.127-1.604-.085-14.638 1.58-29.275 3.17-43.912 4.76-2.406.26-1.73 1.601-1.032 2.956 3.114 6.032 6.444 11.965 9.258 18.134 1.787 3.918 4.014 6.522 8.616 6.32a5.7 5.7 0 0 1 2.543.488c1.774.817 2.692-.071 3.638-1.4 3.692-5.18 7.448-10.316 11.173-15.473 3.704-5.129 7.401-10.264 11.32-15.7m-259.36-60.55 7.348 48.28 31.975-21.152c-11.886-9.959-25.874-17.646-39.324-27.128M77.154 220.939l40.077 28.875c1.099-7.445 1.411-14.705 3.39-21.476 1.85-6.326.248-10.775-3.96-15.096-.951-.977-1.63-1.465-3.05-1.115-11.905 2.927-23.83 5.772-36.457 8.812m102.132 154.553-.244.788c5.102 3.934 11.177 5.812 17.403 6.541 11.707 1.37 23.406.63 35.038-1.434 4.626-.822 9.36-1.039 14.565-1.586-1.893-2.5-3.35-4.53-4.947-6.444-.313-.374-1.21-.51-1.761-.393-4.145.887-8.302 1.749-12.396 2.837-10.944 2.91-22.103 3.427-33.335 3.173-1.283-.03-2.58-.329-3.832-.65-3.508-.903-6.996-1.883-10.491-2.832M292.979 83.959c-1.31 2.372-3.945 3.35-2.973 6.336 3.367 10.341 6.633 20.716 9.992 31.06.237.73.913 1.316 1.385 1.97q.352-.188.703-.373zm-78.02 308.276 4.214 15.61 10.176-11.229zM365.2 179.983l-6.788 9.733 12.72 1.68zM126.211 327.41l.472.781c.706-.51 1.663-.868 2.077-1.555 2.454-4.069 2.819-5.459 1.93-6.912z" style="fill:#fff;stroke-width:0"/></svg>