<svg xmlns="http://www.w3.org/2000/svg" viewBox="0 0 452.667 479.083">
    <path d="M45.518 126.89c52.053 7.155 103.797 15.017 155.795 22.392 5.535.039 16.515 4.061 20.705 1.369 26.696-18.502 51.87-38.885 75.696-60.962C326.457 63.056 353 34.37 377.794 4.049 381.77-.64 388.645.724 394.116.002c4.414-.065 8.605 1.564 12.58 3.35 19.742 7.07 35.289 22.82 44.873 40.957 1.728 4.555.942 10.106.78 14.915-37.926 48.984-91.942 87.02-143.171 122.376 17.334 37.072 35.222 73.734 52.357 110.869 2.317 6.986-1.677 14.267-2.477 21.276-.526 2.666-2.044 4.428-4.249 5.903-78.382 52.522-156.636 105.237-234.959 157.847-4.07 2.735-7.511 1.922-9.234-2.315C73.923 381.61 34.635 288.859.313 194.452c-2.424-5.703 9.933-17.107 12.71-22.982.979-1.47 1.729-3.457 1.684-5.184-.866-25.209 7.633-49.223 9.315-74.166.702-10.078-3.6-18.141-11.716-24.144-2.716-2.01-5.57-3.884-6.754-7.322-3.436-7.055 4.062-15.76 11.398-12.231 16.653 7.134 27.837 22.732 30.937 40.382 2.048 12.617-.992 25.59-2.369 38.084M30.802 73.14c0 1.068-.074 1.328.01 1.517 3.582 8.007 4.428 16.415 3.045 24.957-1.98 12.234-4.347 24.405-6.511 36.61-5.458 32.117-1.29 72.315 20.654 97.653 8.531 6.777 18.07 14.284 29.441 14.337 18.977 1.055 38.061.036 56.674-3.883 79.93-17.117 153.615-55.976 218.072-105.59 14.727-12.08 94.848-73.88 90.063-88.153-1.188-6.207-5.98-10.998-8.948-16.44-2.89-3.867-7.132-6.555-10.75-9.703-3.849-3.035-7.155-6.789-12-8.504-10.873-4.49-22.608-10.803-30.694 1.606-64.922 77.216-142.316 147.575-235.525 188.371-21.787 7.38-66.302 30.572-85.766 12.575-20.733-21.27-28.592-52.635-24.694-81.645 1.43-21.103 10.54-44.86-3.071-63.707M16.363 184.59c-1.817 3.385-5.585 5.673-5.147 9.277 33.757 80.862 66.792 161.852 100.59 242.718l132.98-218.341c-54.485 22.129-112.127 46.334-172.098 39.951-36.435-5.576-50.627-41.353-56.325-73.605m110.935 246.492.443.467 223.242-137.712-50.503-106.722c-12.74 7.713-27.201 13.772-38.664 23.076-44.844 73.628-89.746 147.22-134.518 220.891M206.31 160.82l-.262-.6c-49.958-7.15-99.95-14.221-149.854-21.68-5.206-.876-8.369-.191-10.822 4.587-8.246 15.752 9.834 72.724 30.92 71.627 46.89-5.711 90.309-29.478 130.018-53.934m-87.102 304.66c76.12-50.68 151.763-102.075 227.807-152.882 2.113-1.416 2.956-3.04 2.763-5.69-77.058 47.318-154.017 94.791-230.915 142.37-.897.564-2.107 1.804-2.008 2.581.564 4.432 1.482 8.818 2.353 13.622" style="fill:#fff;stroke-width:0"/>
</svg>
