<?xml version="1.0" encoding="UTF-8"?><svg id="Layer_2" xmlns="http://www.w3.org/2000/svg" viewBox="0 0 476.89722 360"><defs><style>.cls-1{fill:#fff;stroke-width:0px;}</style></defs><g id="Layer_1-2"><path class="cls-1" d="m152.86181,126.15923c-3.71373,2.96149-7.4039,6.37263-11.54496,9.09891-6.53444,4.30196-13.30303,8.26516-20.11346,12.12292-2.84289,1.61032-5.08029-.06661-6.86018-2.77851-1.22921,1.33147-2.33938,2.50873-3.42114,3.71153-1.76382,1.96114-3.72672,2.50472-6.26481,1.38459-9.7622-4.30828-19.30314-8.85634-27.6842-15.72807-8.17228-6.70056-16.85685-12.78202-25.41342-19.00195-1.27858-.9294-3.0497-1.35376-4.65825-1.62593-6.00223-1.01563-11.03668-3.62497-15.59088-7.75135-3.86758-3.50427-8.40137-6.27678-12.66381-9.3405-2.63921-1.89696-3.50514-3.85308-2.01391-6.61339,1.76977-3.27593,3.83872-6.45958,6.24424-9.28647.88422-1.03909,3.15276-1.42966,4.69459-1.25841,2.4493.2721,4.84173,1.19314,7.21664,1.96726,4.07277,1.32748,8.18503,2.0187,12.51064,1.97816,2.01812-.01891,4.18973.84438,6.03671,1.8005,2.57811,1.33463,4.89766,3.16188,7.3657,4.71831,1.70792,1.07709,3.37044,2.05455,3.82812,4.33583.13049.65038,1.26646,1.2173,2.04996,1.6003,8.91004,4.35546,18.01631,8.34835,26.70144,13.11056,5.27262,2.89106,9.90863,6.94563,14.8173,10.49593,1.00677.72814,1.9543,1.53819,3.22962,2.54855,9.36042-15.67183,24.63432-24.37774,39.3159-34.14014-.38954-1.00166-.74099-1.99359-1.15669-2.95781-1.268-2.94122-.48839-4.81737,1.66914-7.0825,5.3073-5.57195,12.68675-6.73139,19.288-9.52875,3.4414-1.45833,7.03739-2.55188,10.7656-3.88231-2.21801-3.4585-4.203-7.00891-6.62744-10.2284-3.72641-4.94842-5.15596-10.49275-6.25068-16.52207-1.5165-8.35225-.27207-16.26175,1.87325-24.1327.56647-2.0783,2.45543-4.2024,4.31389-5.43779,3.87215-2.57392,8.15237-4.52779,12.21908-6.81782,2.07336-1.16755,4.04101-1.23822,6.14386-.11318,4.18959,2.24149,8.44906,4.3539,12.6147,6.63812,2.64194,1.4487,4.55032,3.48135,5.12137,6.6824.58383,3.27256,1.99468,6.44912,2.21143,9.72279.2818,4.2561-.23279,8.56788-.45809,12.85288-.06977,1.32694-.47688,2.64816-.44909,3.96609.10708,5.07771-3.11588,8.64858-5.55643,12.5675-1.79822,2.88752-3.70044,5.7103-5.32636,8.20857,9.13968,1.59408,18.23,3.24082,27.34608,4.72986,2.53148.41348,4.36735,1.54519,4.78914,4.0265.82887,4.87607,3.27862,7.78012,7.99074,9.90698,6.34304,2.86295,12.10747,6.99754,18.16191,10.51463,2.76915,1.60864,2.45372,4.01646,1.91074,6.55468.29043.08806.54279.25642.75454.21536,5.03513-.97653,7.48827,1.67753,9.12606,6.04202,1.25401,3.3417,2.95758,6.52917,4.62953,9.69636,2.9016,5.49657,3.42674,11.6244,4.75664,17.52287,2.47156,10.96181,4.53111,22.01805,7.1021,32.95508.92434,3.93208,2.71091,7.68434,4.32071,11.42541,1.35518,3.14927,1.78109,6.34116,1.67247,9.7403-.22364,6.99873-.26092,14.00398-.3319,21.00696-.04363,4.30582-1.02432,5.42242-5.36852,5.77886-2.99022.24533-5.98327.46546-8.97847.63758-2.92782.16827-4.45787-.85538-5.5166-3.63785-.94857-2.49298-1.96739-4.96745-2.75225-7.51271-1.41916-4.60222-3.61038-8.72486-6.7083-12.4342-.83338-.9978-1.27555-2.53277-1.40468-3.86872-.38473-3.98074-.52464-7.98513-.76044-11.98027-.00492-.08326-.04452-.17962-.01558-.24759,2.26354-5.31762-1.38589-9.35571-3.1143-13.73536-2.60002-6.58825-5.94438-12.90398-8.22472-19.59053-1.86393-5.46563-2.63718-11.30349-3.88776-16.97771-.16118-.73132-.29395-1.4693-.42485-2.20686q-.91698-5.16641-6.55421-6.04219c-.45363,2.92131-1.07807,5.83522-1.33287,8.7811-.93829,10.84776-4.21708,21.18636-6.72955,31.69161-1.46911,6.14258-2.93352,12.28734-4.51004,18.40277-.99592,3.86327-1.83576,4.45404-5.87002,4.92945-1.89488.22332-3.78416.49413-5.28682.69215.25774,2.06737.64311,4.00461.71038,5.95287.11799,3.41699.04861,6.84067.04296,10.26157-.00354,2.14917-.11678,4.16689,1.74605,5.9434,1.4156,1.35001,1.09937,3.40565.20541,5.15341-3.48777,6.81891-6.89086,13.68415-10.52624,20.42386-4.96477,9.20431-10.11285,18.30977-15.2782,27.63053.57868.31463,1.02541.6732,1.53286.81593,6.49718,1.82751,12.21847,5.20969,17.92772,8.68773,12.53047,7.63335,25.15455,15.11284,37.70667,22.71093,1.50936.91368,2.81006,2.17209,4.51883,3.51547,2.05616-.83429,4.62064-1.80646,7.12655-2.91154,2.35197-1.03718,4.455-.89522,6.56649.66135,2.27821,1.67944,4.78191,3.06263,6.99146,4.82109.94436.75152,1.83252,2.06649,1.99007,3.22803.65991,4.86536,1.09933,9.76421,1.49907,14.66062,1.11926,13.70942,2.12066,27.42877,3.30668,41.13226.26247,3.0329-.55193,5.37916-2.83866,7.2983-1.64558,1.38109-3.4675,2.03235-5.53359,1.15727-3.06896-1.29987-6.20108-2.51168-9.09339-4.13936-1.25575-.70666-2.20344-2.23888-2.90982-3.59473-2.80951-5.39272-5.22354-11.00584-8.26774-16.25694-2.11437-3.64716-4.88327-6.95046-7.61419-10.19309-2.10477-2.49915-3.14183-5.21211-3.19732-8.42043-.01998-1.1551-.28832-2.30592-.50386-3.90909-3.33531,2.73022-6.49748,1.36746-9.7607.26434-13.19358-4.46019-26.43816-8.77017-39.61408-13.28115-2.39889-.82128-4.67181-2.15766-6.81685-3.54413-5.32075-3.43893-10.52377-7.0596-15.80324-10.56337-.65512-.43472-1.60871-1.00727-2.2154-.82427-2.4491.73865-4.32996-.43594-6.37978-1.37094-6.39407-2.9167-12.30977-6.57651-17.94826-10.7694-2.32173-1.72649-2.86184-3.76649-2.37342-6.30992,1.4748-7.67991,2.65225-15.44275,4.65251-22.98581,1.13015-4.26195,3.64591-8.15716,5.54497-12.21405.52221-1.11559,1.07116-2.21862,1.67979-3.47602-2.92943,0-5.6335-.01289-8.33743.00257-6.64786.03795-13.30905,1.13652-19.9476-.40541-.7275-.16897-2.02598.59021-2.54118,1.29688-2.50328,3.43358-5.00705,6.8902-7.1824,10.53461-4.60842,7.72052-10.43939,14.43389-16.5746,20.92849-8.877,9.39693-17.7401,18.80716-26.55985,28.25768-.44605.47795-.70723,1.4481-.57497,2.09035.55394,2.68994,1.29918,5.34014,1.95805,8.00891.54774,2.21868.20121,4.13682-1.8726,5.4736-.41789.26935-.8175.59131-1.15814.95258-4.69604,4.98068-10.222,6.33265-17.11289,5.5682-15.32217-1.69966-30.73409-2.58987-46.10885-3.81718-.83051-.06624-1.66305-.15773-2.48231-.30571-3.8245-.69087-5.6004-4.47446-3.53611-7.75456,1.59674-2.53717,3.28405-5.0376,5.16198-7.36834.83331-1.03422,2.1374-1.88477,3.4003-2.33776,2.8965-1.03893,5.87489-1.87866,8.86317-2.62691,7.4772-1.87221,14.61961-4.60808,21.36892-8.30389,2.91748-1.59758,5.9002-2.14605,9.14341-1.7099.70355.0946,1.43068.01381,2.5318.01381-.615-.74266-.98577-1.25126-1.41756-1.70134-1.88087-1.96067-2.196-4.08026-.7995-6.33155,8.43592-13.59957,16.51295-27.4449,25.51742-40.65776,3.87089-5.68004,9.61009-10.11126,14.63215-14.97385,3.4119-3.30357,7.09558-6.32528,10.55149-9.58561.6171-.58221,1.03998-1.7301.99973-2.59097-.26603-5.69034,2.34094-8.99555,7.79704-10.57177,4.314-1.24628,8.60083-2.74592,12.67903-4.61465,7.57978-3.47324,15.59002-3.89549,23.69264-4.1176,6.07807-.16662,12.15237-.47093,18.22356-.71375-2.13383-18.48045-1.82485-37.25055-10.35455-54.49404Zm39.61487-54.65521c-.09517-.24475-.19032-.48952-.28548-.73427-4.82729,1.03288-9.73975,1.77793-14.45929,3.17488-5.33895,1.58031-10.52685,3.68768-15.73893,5.67471-4.31368,1.64454-4.76694,2.62831-2.80523,6.61355,1.31173,2.66478,2.26531,5.32672,1.99063,8.3232-.56993,6.21712-1.24594,12.42652-1.68199,18.65285-.15941,2.27636-.0854,4.67083.45317,6.87168.92747,3.79,2.25865,7.48509,3.4983,11.19399,2.88109,8.61991,5.3642,17.2874,5.64061,26.49532.15619,5.20305.97693,10.38616,1.50814,15.67599,1.05005,0,1.87357.05204,2.68883-.00817,6.96992-.51462,13.93804-1.05364,20.9073-1.57739,7.71227-.57961,15.42268-1.18874,23.13984-1.69433,1.58395-.10378,2.2935-.68089,2.66127-2.24644,1.54117-6.56061,3.13933-13.10994,4.85367-19.62735,3.04531-11.57731,5.55604-23.2427,6.35541-35.3081-2.09139-.49233-4.24011-.80913-6.25687-1.50719-6.99039-2.41959-13.93631-4.95246-20.1293-9.16005-1.28878-.87559-2.80836-1.41626-4.234-2.08477-4.2183-1.97809-8.66592-3.6933-11.65702-7.45438-1.01876-1.28099-1.96379-3.42745-1.61194-4.84918,1.37689-5.56365,1.54974-11.54001,5.16288-16.42453Zm18.04859,132.82772c-3.12484-2.97857-5.81811-5.71231-8.71335-8.2121-.96854-.83622-2.44857-1.08598-3.70262-1.5841-1.57063-.62392-3.14944-1.22727-4.72458-1.83985-1.99356-.77526-3.96913-1.60531-5.99851-2.27145-.32884-.10792-1.0587.40269-1.32957.80957-6.72757,10.10515-14.61604,19.43715-20.07235,30.39399-1.85043,3.71582-4.15369,7.2034-6.14542,10.85239-2.10936,3.86454-4.78993,7.59781-5.97718,11.74456-1.9851,6.93359-3.0135,14.14416-4.34663,21.25654-.13729.73251.12953,1.98246.64971,2.32734,4.53088,3.00424,9.16239,5.85674,14.22349,9.04371.56687-5.28584,1.12071-9.65733,1.47462-14.04495.21508-2.66642,1.67704-4.06294,4.05493-4.74011,3.66946-1.04495,7.3962-1.91337,11.00496-3.1338,1.28692-.43521,2.65668-1.45369,3.37242-2.59308,2.07877-3.30913,3.86237-6.80516,5.73148-10.2443,6.83349-12.57339,13.65469-25.15346,20.4986-37.76434Zm34.6101,88.09207c-13.09418-7.85521-25.73647-15.28212-38.20446-22.99103-5.50697-3.40495-11.25116-6.11662-17.41803-7.97508-.799-.24075-1.78435-.27164-2.5797-.04143-2.7036.7825-5.33034,1.8357-8.0422,2.58334-4.95975,1.3674-4.98569,1.30617-5.51757,6.42875-.17197,1.65621-.26001,3.32104-.4243,4.9782-.19991,2.01656.49568,3.42848,2.28597,4.56958,4.70693,3.00012,9.20272,6.33986,13.9753,9.22564,3.0958,1.87191,6.45072,3.38952,9.83261,4.69541,4.26543,1.64705,8.67863,2.9105,13.02446,4.35037,8.27474,2.74161,16.5469,5.49099,25.05408,8.3148,2.68217-4.73202,5.29921-9.3492,8.01384-14.13854Zm-132.34487-78.38109c-6.81422,2.67183-8.12984,1.32028-9.29641-3.15904-.99595.85003-1.95628,1.61322-2.8537,2.44434-9.02094,8.35419-18.71922,15.95166-24.85472,27.11624-5.68727,10.34899-12.34104,20.16686-19.06286,31.01531,1.84303,1.54792,3.66398,3.28899,5.69936,4.72642,1.97719,1.39637,4.17433,2.48128,6.39611,3.77345,13.59608-11.48566,41.6297-45.3718,49.44848-59.92102-1.81391-1.986-3.65934-4.00647-5.47625-5.99571Zm-.94811-8.99372c1.37938.39032,3.17378.37058,4.11277,1.25697,3.67552,3.46954,7.68402,6.83777,10.36847,11.01498,1.70842,2.65844,3.35033,3.17373,5.85714,3.08876,7.91324-.26816,15.82362-.62927,23.73812-.84297,1.54673-.04177,2.31037-.6282,3.08477-1.91829,3.54832-5.91128,6.89156-11.99558,10.99611-17.50548,2.72958-3.66421,3.48227-7.11567,2.05214-11.65436-1.49735,0-3.15001-.0554-4.79791.00938-8.32727.32731-16.65521.64662-24.97888,1.05182-3.64923.17762-7.46669-.04883-10.89558.96452-7.015,2.07321-13.82316,4.84911-20.70702,7.36158-1.94626.71039-2.1905,1.91942-.97004,3.57655.81193,1.10248,1.41449,2.35915,2.13991,3.59653ZM190.36976,58.84739q2.8369-.00967,4.32538-2.27005c1.73037-2.64747,3.31727-5.40001,5.19804-7.93513,2.59556-3.4986,4.28686-7.23938,4.4064-11.66226.11578-4.28326.6282-8.57051.48773-12.84027-.08019-2.43761-.96422-4.89728-1.78834-7.24081-.39434-1.12133-1.29776-2.31996-2.30598-2.92092-2.99782-1.78691-6.12397-3.37607-9.28745-4.85546-.80887-.37827-2.10471-.39745-2.89684-.00967-3.211,1.57194-6.33734,3.32444-9.43494,5.11409-.6417.37074-1.299,1.1107-1.48892,1.80615-2.01809,7.39013-2.68434,14.84687-.82447,22.3916.51173,2.07591.51656,4.41385,1.51802,6.20418,2.26951,4.05727,5.01719,7.84682,7.56489,11.74886,1.11752,1.7116,2.53927,2.8235,4.52648,2.46968Zm62.47047,37.54257c-15.45476-11.20137-33.38546-16.69439-50.30202-23.47377-4.22449,3.24728-5.1425,7.62267-6.3981,11.98334-.83161,2.88827.17996,4.1446,2.43529,5.23912,3.58644,1.74052,7.37648,3.17748,10.69243,5.33823,11.07524,7.21686,23.45077,9.91749,36.14954,11.09262.80386-1.11658,1.33584-2.52581,2.34876-3.134,2.79124-1.67585,4.00726-4.2789,5.07409-7.04554Zm26.49116,67.42204c-.22287-1.34916-.33608-2.24751-.52278-3.13031-1.41174-6.676-2.84025-13.34848-4.25904-20.023-2.41934-11.38153-4.1513-22.9809-10.3969-33.15586-.47615-.7757-1.15235-1.80505-1.90179-1.97248-3.57429-.79845-7.55644,1.4119-8.5642,4.98228-.50787,1.79943-.36034,3.90111-.05271,5.79183.9883,6.0736,1.40514,12.39752,3.47856,18.10298,3.80706,10.47615,8.6386,20.58,13.22251,31.25702,2.88263-.59358,5.76508-1.18711,8.99635-1.85246Zm-5.85696,186.94816c.12235-.37086.22816-.52941.21633-.67861-1.27149-16.03199-2.69001-32.05442-3.72459-48.10159-.22944-3.55852-1.79885-5.47849-4.63852-6.81476-.78501-.36939-1.92617-.55071-2.70409-.26816-3.44351,1.25068-6.82395,2.67846-10.20813,4.08799-2.54319,1.05934-3.52519,2.66966-3.25688,5.47156.38916,4.06352.75619,8.13571,1.37177,12.16767.22345,1.46371.92229,2.96754,1.76933,4.2027,2.82051,4.11302,6.06776,7.95339,8.65476,12.20079,2.50527,4.11323,4.60643,8.51182,6.48194,12.95524,1.1932,2.82693,3.28474,3.93943,6.03806,4.77718ZM119.55346,138.86301c11.55663-5.55676,21.18096-12.82356,30.39851-20.6676.53919-.45883.87756-1.36431.96761-2.10356.38266-3.14136.65427-6.29684.93252-9.45014.30997-3.51283.58314-7.02892.87917-10.62634-.41194.09335-.5918.08889-.71698.16943-1.33053.85602-2.63615,1.75165-3.97918,2.58723-12.32764,7.66972-23.61897,16.47172-31.54783,28.92959-.58012.91148-1.52851,2.25434-1.23574,2.93942,1.21714,2.84813,2.84456,5.52097,4.30193,8.22199Zm-61.6201-29.27449c6.49744,4.88423,12.55323,9.4224,18.59387,13.98066,8.76011,6.61039,17.30228,13.56313,27.89227,17.22232,1.17924.40748,2.20486.86274,2.98226-.50949.72472-1.27925,2.7474-1.95092,1.32219-4.1814-1.17812-1.84378-2.13668-4.06697-2.35462-6.20737-.16614-1.63165-.74301-2.52635-1.8393-3.43914-6.78767-5.65155-13.72369-10.97453-22.03659-14.39799-6.65719-2.74158-13.01285-6.21531-19.81179-9.5143-1.62371,2.40967-3.13054,4.64589-4.74828,7.04671ZM10.52177,298.43386c.10639.2185.21278.43701.31917.65554,1.05624.12577,2.1095.29062,3.16917.37141,13.79402,1.05121,27.6049,1.92483,41.37242,3.24957,3.43169.33019,6.03572-.31185,8.25095-2.6827.59381-.63559,1.03455-1.86298.86859-2.68145-.6942-3.42359-1.72487-6.77794-2.4628-10.19425-.27977-1.29517-.81884-1.79148-2.10205-1.85623-4.07926-.20588-8.15227-.626-12.23195-.68934-1.6596-.02579-3.49059.33122-4.9683,1.06695-6.80627,3.38894-13.73917,6.38059-21.16465,8.15894-2.66966.63938-5.32964,1.38937-7.8996,2.34332-1.16871.43377-2.10774,1.48635-3.15096,2.25825Zm275.0799-94.67073c0-7.57422.38555-14.91753-.16647-22.18968-.2666-3.51269-2.29602-6.89159-3.47452-10.18373-4.36862,1.15056-8.11545,2.13736-11.96856,3.15215.12403,2.57959.16433,4.98786.38827,7.37897.10392,1.11009.23962,2.48272.91857,3.22898,3.52592,3.87539,5.29446,8.58879,6.90395,13.42045.60073,1.80334,1.34134,3.56011,2.05506,5.43495,1.55168-.07031,3.02664-.13713,5.34371-.24209ZM55.85671,95.53009c-3.03891-1.57662-5.89444-4.2296-8.84182-4.33591-5.61128-.2024-10.84707-1.48686-16.12032-2.99144-3.87239-1.10488-4.04611-1.04834-5.62884,2.64963,4.02789,3.08937,8.28485,5.91724,12.00146,9.33307,3.43533,3.15731,7.40082,4.64851,11.77622,5.42012.73112.12891,2.02619-.31194,2.33913-.88413,1.54747-2.82946,2.85251-5.79151,4.47416-9.19134Zm152.6272,95.12497c0-2.03535.07278-3.77611-.04278-5.50431-.03633-.54331-.45954-1.20616-.90778-1.55355-3.81705-2.95832-8.00471-4.63182-12.95229-3.55412-.88913.19366-1.84195.09946-2.72805.30165-1.19091.27173-2.34554.70245-3.96685,1.20463,6.99056,3.49873,14.5464,4.05863,20.59775,9.10571Z"/><path class="cls-1" d="m392.98441,187.35641h-3.38729c-23.77329-.00003-47.54655.00107-71.31984-.00083-5.31914-.00043-6.62012-1.31102-6.62048-6.65199-.00095-13.17957-.00193-26.35915.00052-39.53871.00092-4.97014,1.37495-6.32182,6.42242-6.32209,23.85671-.0013,47.71338-.00058,71.57009-.0006.98878,0,1.97757-.00002,3.33452-.00002,0-1.15134-.00003-2.11313,0-3.07493.00006-13.17957-.00409-26.35915.00947-39.5387.00095-.90873.0374-1.83756.22266-2.72244.79194-3.78248,3.9365-4.86214,6.88238-2.3063,2.20231,1.91071,4.27157,3.97504,6.39575,5.97553,18.21211,17.15163,36.41277,34.31548,54.64196,51.44893,4.67561,4.39459,9.42614,8.70999,14.17145,13.02971,2.00886,1.82864,2.16827,4.98493.16283,6.8689-16.89516,15.87183-33.81464,31.71777-50.71209,47.58717-7.90266,7.42184-15.81251,14.83692-23.62769,22.35016-1.79561,1.72622-3.65163,2.29492-5.84797,1.3274-2.06597-.91004-2.31289-2.83988-2.31029-4.85528.01736-13.4298.01057-26.85963.01158-40.28944.00009-.98677.00003-1.97353.00003-3.28648Zm-73.18398-8.013h3.06111c23.93514,0,47.87029-.00112,71.80543.00093,5.16799.00043,6.33372,1.16077,6.33601,6.32108.0051,11.50882-.0011,23.01762.00715,34.52644.00061.8683.07914,1.73654.1496,3.1822,22.28452-20.94627,44.14652-41.49538,66.08943-62.12056-22.09789-20.75104-43.90574-41.22971-66.24459-62.20701,0,1.76305-.00003,2.67056-.00003,3.57806.00015,11.34208.00626,22.68418-.0022,34.02626-.00373,5.00743-1.22529,6.23214-6.17138,6.23252-24.01853.00188-48.03709.00086-72.05562.00086h-2.97491v36.45923Z"/></g></svg>