<?xml version="1.0" encoding="UTF-8"?><svg id="Layer_2" xmlns="http://www.w3.org/2000/svg" viewBox="0 0 487.33333 317.17423"><defs><style>.cls-1{fill:#fff;stroke-width:0px;}</style></defs><g id="Layer_1-2"><path class="cls-1" d="m482.59074,139.83196c-23.85873-9.55897-47.71389-19.12682-71.57055-28.69101-16.435-6.58883-32.86513-13.18991-49.30927-19.75585-4.09776-1.63617-5.58241-1.3497-8.50794,1.93064-1.14596,1.28493-2.054.80745-3.18261.31004-24.75894-10.91211-50.70785-14.36944-77.46829-11.79659-32.4807,3.12284-62.67162,13.62402-91.0361,29.50967-8.62624,4.8312-16.96276,10.17975-25.61779,15.40349-6.40693-4.1389-13.08782-8.35598-19.66073-12.73511-4.47467-2.98116-8.80155-6.15657-14.04819-.79051-.14531-.20406-.29058-.40809-.43589-.61215.3901-11.59524.78022-23.19047,1.19446-35.50262,1.63598.87795,2.60918,1.38552,3.56882,1.91746,8.65688,4.79859,17.29573,9.63001,25.97556,14.38673,2.8106,1.54023,5.74243,2.52301,8.82431.5533,18.95066-12.11179,37.8916-24.23892,56.87098-36.30558,2.70115-1.71731,3.56643-4.10607,3.33005-7.0885-.61119-7.71074-1.27327-15.4176-1.85272-23.1307-.26835-3.57245-1.87978-5.92143-5.3432-7.21722-16.26365-6.08482-32.55334-12.11035-48.68741-18.52512-5.14455-2.04544-9.72513-2.59291-14.57748.38051-.92451.56651-2.54225.56196-3.6384.20371-15.05677-4.92119-29.04493-1.12246-38.01051,11.92709-4.61889,6.72286-9.91486,11.40242-17.51482,13.9118-2.79038.92136-4.10282,3.39963-3.31635,6.24023,1.2434,4.49104,3.04857,8.82384,4.40569,13.28752.47878,1.57487.65737,3.3818.42911,5.00638-.97836,6.96338-2.38331,13.87132-3.22404,20.84872-2.36675,19.64216-2.52932,39.36759-1.68314,59.10755.07385,1.72289-.43761,2.68064-1.85459,3.56853-4.41439,2.76614-8.74706,5.66276-13.11174,8.50826-23.28139,15.1781-46.55726,30.36473-69.84951,45.52617-4.27481,2.78261-4.88648,6.40094-1.55962,10.22267,2.16868,2.49126,4.41015,4.91903,6.61099,7.38239,22.58587,25.27995,45.16251,50.56815,67.76118,75.8367,4.63367,5.18108,8.99828,10.6741,14.11493,15.33366,6.21898,5.66336,13.09088,10.61178,19.70416,15.83932,4.20459,3.32355,6.70678,3.14822,10.34811-.68775,13.46655-14.18617,26.92689-28.37827,40.38146-42.57574,20.92766-22.08314,41.83443-44.18615,62.79553-66.23751,2.02095-2.12604,2.84521-4.40362,2.49967-7.31205-.94317-7.93799-1.76763-15.89014-2.61947-23.83879-.30558-2.85142-1.51956-4.95664-4.09537-6.51243-5.72103-3.45548-11.30007-7.14678-16.92251-10.76447-4.76936-3.06883-9.51833-6.16931-14.52083-9.41436,1.22127-.75306,2.05773-1.37193,2.97734-1.82007,10.45202-5.09334,20.69443-10.69875,31.42136-15.13001,27.83006-11.49652,56.70526-16.98031,86.87558-12.786,6.65618.92537,13.19335,2.70685,20.26501,4.19507-.9867,1.29974-1.43179,1.92252-1.91367,2.51537-9.209,11.32937-18.45834,22.62634-27.59616,34.01278-1.37966,1.71913-2.72682,3.7282-3.26085,5.81507-1.99996,7.81567-3.51366,15.75518-5.4849,23.57894-1.66563,6.61061.54352,7.83704,4.43973,10.14905,41.21875,24.45957,82.42655,48.93758,123.63469,73.41499,3.90803,2.32134,5.95235,2.21434,9.43853-.63488,7.94044-6.48963,15.83429-13.03687,23.82223-19.46733,2.12218-1.70846,3.49962-3.69327,4.2737-6.31697,2.43305-8.24681,5.02153-16.44787,7.55426-24.66529,7.36803-23.90557,14.74457-47.80853,22.10218-71.71732,1.4509-4.71465.33118-6.99844-4.14501-8.79183Zm-358.44798-16.22785c3.00912-2.70558,5.44774-2.23807,8.51959-.00545,4.73067,3.43822,9.79417,6.41843,14.96073,9.75045-8.14373,6.66309-15.95577,13.0548-24.14552,19.75553-.28042-4.04601-.58218-7.78211-.78777-11.52355-.25179-4.58278-.32077-9.17792-.67638-13.75156-.15562-2.00117.73246-2.96941,2.12935-4.22542Zm16.98432-48.01434c-4.11654-2.28313-8.1102-4.80127-12.30362-6.92864-4.21179-2.13671-4.49524-2.25428-3.86583-6.88613.25291-1.86115.78844-3.6839,1.27725-5.89468l19.4956,9.55529,3.67717,14.48292s-5.75966-2.93062-8.28057-4.32876Zm69.92259-26.42865c.02242.82328-1.26885,1.90427-2.19043,2.4976-11.34293,7.30291-22.72927,14.53844-34.10618,21.78861-4.58361,2.92097-9.17152,5.83519-14.24403,9.062-1.6997-6.29828-3.26053-12.08195-4.8605-18.01057,18.05519-10.13453,35.96456-20.18718,54.40007-30.53519.39825,5.4443.86821,10.31633,1.00107,15.19755Zm-47.44372-37.40855c12.81692,4.84789,25.63381,9.69577,39.10408,14.79077-7.52598,4.23809-14.51681,8.1737-21.50653,12.11128-9.34004,5.26161-18.71109,10.4695-27.99626,15.82626-2.30902,1.33212-4.22198,1.66515-6.71452.29284-5.30021-2.91811-10.76852-5.53605-16.21582-8.17835-1.49829-.72679-2.04073-1.38422-1.38403-3.14869,1.84546-4.95848,3.51927-9.98014,7.24489-13.93918,2.4663-2.62081,4.72847-3.31339,7.94142-1.6655,3.28276,1.68375,6.57386,3.61076,9.30673,6.05206,5.45863,4.87626,12.73365,3.44513,17.10953-.0656,3.89386-3.12398,4.71465-7.43519,1.78651-11.48687-2.06744-2.86082-4.67793-5.33922-7.13964-7.89824-.63501-.66011-1.62296-.98068-2.44878-1.45721.30415-.41118.60826-.82239.91241-1.23356Zm52.40813,185.55704c.05551,1.19853-1.05157,2.66074-1.9885,3.66257-8.1273,8.69038-16.33803,17.3027-24.52269,25.93939-21.98429,23.19837-43.96786,46.39744-65.95199,69.59596-2.4491,2.58431-4.86069,5.20646-7.38434,7.71581-.48264.4799-1.741.94597-2.08238.68555-4.39356-3.35199-8.68557-6.83699-13.25838-10.4922,37.89679-36.84178,75.53395-73.43119,113.73282-110.56665.59199,5.07478,1.26073,9.25619,1.45545,13.45957Zm-7.98779-25.07095c.70354.45414,1.36049.9804,2.36758,1.71164-39.01836,37.92357-77.87577,75.69072-116.88371,113.60414-27.07859-30.29738-54.04051-60.46419-81.26632-90.92627,25.68122-16.73714,51.15253-33.33751,77.0986-50.24728.38592,4.57195.6638,8.50641,1.0595,12.42902,1.12115,11.11394,2.26211,22.22609,3.46268,33.33168.2687,2.48531.69994,4.9667,1.25722,7.40395.78108,3.41577,2.76745,5.01071,6.29462,5.0073,9.95059-.00962,18.6773-3.18398,25.7958-10.30601,14.28253-14.28973,29.86763-26.99389,46.56344-38.35395,4.31943-2.939,4.29723-2.96183,8.71327-.11423,8.51138,5.48831,17.02862,10.96752,25.53732,16.46Zm87.67545-65.87983c-26.93724-.92582-52.52649,5.02727-77.27808,15.01308-34.65209,13.98014-65.11219,34.4921-92.18531,60.14157-2.64864,2.50932-5.16952,5.16283-7.92181,7.55107-3.96213,3.438-8.61978,5.25992-14.29072,5.51067-.89314-7.87898-1.92921-15.33815-2.54721-22.83181-1.16819-14.16579-2.47534-28.33725-3.0073-42.5332-.44843-11.96645-.07232-23.97671.28835-35.95708.40688-13.51438,1.70715-26.99354,4.86129-40.15017,2.69306-11.23329,5.83854-22.39983,12.80835-32.00208,8.54287-11.76949,21.24203-14.3124,33.45782-6.2815,5.00736,3.29196,9.47846,7.16177,13.33646,11.71462-.14951.28081-.29905.56158-.44859.84238-1.12803-.48614-2.4149-.7664-3.35708-1.49338-4.54823-3.50936-9.17241-6.81295-14.90175-8.173-7.1604-1.69973-12.55649,1.20688-16.85522,6.59118-5.07819,6.3606-7.47274,13.97632-9.58406,21.67808-2.6787,9.77147-4.21542,19.73744-4.71376,29.84678-.60221,12.21665-1.56452,24.44537-1.44756,36.66001.1411,14.73281,1.24277,29.45681,1.9528,44.18348.10012,2.0762.375,4.14355.5012,6.21908.15763,2.59183,1.28477,4.37983,3.81329,5.31237,2.48782.91763,4.1582-.40678,5.81236-1.85542,6.33464-5.54745,12.50761-11.29016,19.0068-16.63683,14.34291-11.79939,29.58279-22.29468,45.97543-31.10323,18.81204-10.10864,38.4606-18.01108,59.29849-22.77366,17.92857-4.09763,36.06869-5.55761,54.44541-3.99471,17.41938,1.4815,33.96698,5.8322,49.47219,14.03927,20.63819,10.92395,36.68176,26.57956,48.48418,46.66207.26323.44789.4933.91645.71899,1.38495.73106,1.51762,2.11037,3.02956.39003,4.69904-1.79119,1.7382-3.85793,3.37683-6.41843,1.91628-2.26227-1.2905-4.81076-2.71465-6.21516-4.77391-12.26346-17.98147-28.225-31.50123-48.31015-39.80539-14.38966-5.94936-29.49438-9.06286-45.14127-9.60062Zm128.94002,154.90941c-.56546.44722-2.05015.31991-2.77366-.10719-14.81536-8.74502-29.57416-17.5858-44.36037-26.38034-17.98628-10.69786-35.98647-21.37227-53.98265-32.05351-6.84081-4.06024-13.70796-8.07715-20.49849-12.21971-.67708-.41306-1.39556-1.66082-1.26018-2.35943,1.02842-5.30632,2.26482-10.57229,3.55589-16.38927,45.85223,24.98246,91.36604,49.78057,137.34342,74.83121-6.31652,5.18165-12.11245,10.00301-18.02395,14.67823Zm23.99821-22.84493c-46.46148-25.31396-92.50888-50.40233-138.91358-75.68537,2.81592-3.4887,5.35294-6.64188,7.9007-9.78637,6.77725-8.36464,13.58781-16.70259,20.31271-25.1091,1.20627-1.50793,2.26908-1.71289,3.98143-.84713,15.732,7.95394,28.79645,19.00845,38.55378,33.70704,4.01728,6.05177,9.57858,9.55218,16.39746,10.13797,5.35342.4598,10.06794-2.48875,13.26876-6.97268,2.81493-3.94341,3.25028-8.18507.84114-12.68314-8.59841-16.05417-19.88504-29.83108-34.28501-41.02265-.92543-.71921-1.81715-1.48173-2.72456-2.22412.13464-.23632.26931-.47264.40395-.70896,33.89142,13.58304,67.7828,27.16607,102.07332,40.90906-9.26144,30.06733-18.48452,60.00996-27.8101,90.28546Z"/></g></svg>