<?xml version="1.0" encoding="UTF-8"?><svg id="Layer_2" xmlns="http://www.w3.org/2000/svg" viewBox="0 0 469.33333 456.77795"><defs><style>.cls-1{fill:#fff;stroke-width:0px;}</style></defs><g id="Layer_1-2"><path class="cls-1" d="m362.93378,147.70236c5.06614-15.37702,10.77189-29.82423,18.11941-43.55458,8.86643-16.56876,19.76188-31.49155,35.74066-42.01161,12.81636-8.438,26.88041-12.57785,42.27144-11.85527,2.02454.09505,4.06035.34483,6.04817.73905,3.36884.66807,4.97101,3.0126,3.88053,6.25204-1.60503,4.76808-3.29729,9.55534-5.51356,14.05767-3.6647,7.44482-7.73398,14.69249-11.71974,21.97558-1.83838,3.35928-4.48595,5.28886-8.61807,4.33154-3.80617-.8818-6.35552,1.39941-8.69138,3.87449-4.90542,5.19785-8.66846,11.18529-11.91903,17.52518-7.83166,15.27477-13.61122,31.3513-17.98081,47.8933-5.67482,21.48312-10.83416,43.10237-16.28467,64.64543-1.27496,5.03918-2.61094,10.08541-4.35242,14.97363-.78638,2.20723-2.3432,4.3411-4.0557,5.97902-5.54114,5.29983-12.91556,3.08776-17.00016-3.26806-3.45917-5.38263-6.19227-11.25127-9.03032-17.01165-7.51821-15.25957-14.34987-30.9005-23.8179-45.09685-4.14104-6.20903-9.11035-11.86708-13.756-17.73366-.6822-.86151-1.65673-1.49105-2.45888-2.19526-.22454.15335-.31365.18463-.35604.24746-1.09263,1.6187-2.89811,3.1758-3.05215,4.8818-.13415,1.48622,1.54419,3.17378,2.51115,4.7162,6.92121,11.04025,11.56427,23.00685,13.59618,35.83725,3.31087,20.90648.05006,40.8664-9.72777,59.69181-4.00692,7.71458-9.20178,14.58578-14.94505,21.08275-2.32475,2.62983-5.28588,2.52967-8.28409,2.43343-5.3703-.17232-10.7364-.48192-16.10706-.63646-.9131-.02627-1.97056.22524-2.74094.70384-8.83452,5.48811-18.48978,8.70848-28.63067,10.69665-1.27063.24912-2.58297.9555-3.58336,1.7981-4.10967,3.46139-7.9359,7.28029-12.1939,10.53894-3.98608,3.05059-8.85625,3.98534-13.7064,2.87841-6.37427-1.45471-12.80723-2.99142-18.88487-5.34641-20.03505-7.76314-35.66172-20.99867-46.68163-39.48158-9.89221-16.59152-14.53146-34.62064-13.46079-53.94056.94194-16.99683,6.01669-32.75834,15.40384-47.01059,2.16846-3.29231,4.60368-6.47635,7.32424-9.31888,3.16963-3.31176,7.39854-4.6331,11.96864-4.67351,4.64516-.0411,9.29216.04658,13.93558-.05246,1.06054-.02262,2.25686-.35268,3.14128-.92642,8.64028-5.60493,17.9879-9.39032,28.08664-11.40971,1.33052-.26606,2.72557-1.06089,3.72181-2.0021,4.32373-4.08476,8.39754-8.44067,12.81684-12.41418,1.31162-1.17932,3.52953-2.15138,5.20427-1.97828,5.88339.60807,11.72675,1.67162,17.55023,2.7517,1.70059.31539,2.81504.11022,4.04964-1.1816,6.79369-7.10851,14.26309-13.3848,23.09767-17.84868,19.88836-10.0491,38.87421-8.89955,56.75472,4.78751,8.25895,6.32203,14.4965,14.48653,20.42372,22.91029.54452.7739,1.07985,1.55423,1.90668,2.74531Zm-58.28799,18.4794c.77011-1.09951,1.38553-2.0346,2.05952-2.92525.73513-.97136,1.4655-1.95771,2.30165-2.83894,2.44371-2.57553,4.5707-3.08659,7.27176-.82044,4.20857,3.53093,8.44929,7.1797,11.92458,11.39898,8.3043,10.082,14.65815,21.47833,20.53312,33.0982,6.01548,11.8978,11.68541,23.97028,17.57999,35.93005.96403,1.95596,2.14726,3.85345,3.51141,5.55068,2.19329,2.7288,4.19319,2.64785,5.93656-.3502,1.29174-2.22142,2.42022-4.657,3.022-7.14257,4.73121-19.54198,8.92028-39.22438,14.05962-58.65594,5.28481-19.98147,11.15897-39.83601,20.04762-58.6074,4.68136-9.8864,9.95828-19.38948,18.21801-26.88558,3.32872-3.02094,7.08181-4.58101,11.55499-4.157,1.39592.13232,2.29015-.19437,2.96492-1.4607,3.55309-6.66827,7.23919-13.26701,10.70105-19.98188,1.64673-3.1941,2.89787-6.59254,4.37627-10.00952-9.62717-1.15817-21.88922,1.01595-30.80959,5.39153-9.37528,4.59871-17.47629,10.80269-24.44087,18.65584-6.90572,7.78674-12.69672,16.2911-17.51429,25.45323-8.35275,15.88543-14.85839,32.53616-19.88725,49.76259-.55097,1.88736-1.76901,3.20396-3.57756,3.08671-1.34443-.08718-3.07307-.89337-3.84668-1.95283-2.82489-3.86853-5.16749-8.08863-7.9722-11.97345-6.4549-8.94065-13.48023-17.32968-23.31042-22.86239-10.08951-5.67864-20.72253-6.85539-31.79661-3.81508-7.46618,2.04977-14.06861,5.96209-20.2138,10.55806-3.53592,2.64448-6.70995,5.77375-10.32005,8.92311,14.88126,6.05217,27.30914,14.69835,37.62626,26.63019Zm-65.11845-25.35438c-.17669,2.01959-.55754,3.41812-.37213,4.73688,1.14066,8.11259,1.82516,16.34841,3.73981,24.28247,6.98542,28.94681,17.67976,56.5871,30.61212,83.36282,4.81339,9.96586,9.99055,19.7657,16.75937,28.59086,1.73309,2.25961,3.84889,4.22511,5.81028,6.34897,26.70151-28.75048,30.06477-68.13386,15.06595-97.79912-14.7069-29.08798-39.12374-44.82351-71.61541-49.52287Zm25.77363,151.56972c-3.12558-3.45305-6.23179-6.46888-8.85434-9.85948-8.05527-10.41446-14.21026-21.96142-19.70611-33.89116-7.65593-16.61857-13.95265-33.71727-18.40573-51.47676-2.69521-10.74879-4.94729-21.57008-4.61683-32.74561.05387-1.82169.31779-3.63714.50534-5.68129-8.09578,1.9565-15.09697,5.44947-21.63141,9.95916-5.26411,3.63299-8.05006,8.64992-8.7764,15.01872-1.20803,10.59265.06055,20.99992,2.30339,31.28686,4.23146,19.40802,11.31249,37.76045,21.40337,54.88573,5.51849,9.36546,11.68942,18.27342,20.3421,25.10467,2.73788,2.16151,5.59201,4.30465,9.29737,4.46359,10.11766.43405,19.30219-2.7966,28.13925-7.06444Zm-32.63224,14.47104c-6.21561-2.28761-10.95436-5.93214-15.23176-10.25161-8.63041-8.71535-15.16619-18.91846-20.80467-29.71195-10.31494-19.74553-17.41023-40.58475-20.41994-62.7079-1.10006-8.08606-1.45131-16.25066.32447-24.31438.71777-3.25927,1.84171-6.4289,2.80929-9.73667-2.37396,0-4.73387-.01791-7.0934.00381-4.66731.04294-7.83304,2.59262-9.86667,6.47677-3.62334,6.92052-4.80638,14.46191-4.93302,22.18672-.19759,12.05361,1.69915,23.82842,4.86685,35.42401,6.08517,22.27511,15.4319,42.95208,29.96212,61.0695,5.65006,7.04492,12.06124,13.22334,20.27377,17.27702,5.29543,2.61379,10.43822,3.09574,15.22721-1.07072,1.58925-1.38267,3.06037-2.90136,4.88574-4.6446Zm-2.0168-157.00312c-1.89668,1.88899-3.9828,3.94335-6.04192,6.0245-1.80395,1.82325-2.49503,4.04977-2.71124,6.6027-.7871,9.29314.7931,18.34012,2.82865,27.30501,5.28342,23.26899,13.76682,45.37638,24.7675,66.51324,4.62786,8.89203,9.71672,17.52533,16.48053,25.02528,2.87304,3.18571,5.93996,6.1107,10.60559,6.22616,2.49846.06182,4.99969.01097,7.04948.01097-26.23675-42.39588-43.88507-88.35716-52.97858-137.70786Zm-42.74377,153.32587c-23.28747-29.67565-35.98793-63.05313-38.68686-99.97638-11.76366,32.46403,1.56709,78.65488,38.68686,99.97638Z"/><path class="cls-1" d="m228.21471,448.42633c83.59201-.1956,159.73534-47.36723,196.76627-122.32282,4.49873-9.10595,7.83906-18.78531,11.71544-28.19927.4641-1.1271.78516-2.3414,1.41559-3.36535,1.04588-1.69875,2.6784-2.42037,4.63013-1.80029,1.93689.61536,2.88059,2.09279,2.78286,4.11646-.04248.8802-.25004,1.78203-.54557,2.61618-26.92736,76.00291-78.85389,125.87851-156.09665,148.92329-25.87674,7.72008-52.52663,9.81693-79.3906,7.48073-52.92928-4.60295-98.99007-25.06768-137.70147-61.50357-32.79085-30.86341-54.83947-68.31459-65.11089-112.20361-14.45569-61.76811-5.598-120.33871,28.02777-174.1894C69.54808,52.18263,119.82571,17.24941,184.39407,4.55976c60.52686-11.89537,117.0736-.39433,169.03603,33.07022.95507.61509,1.92889,1.2581,2.71858,2.06091,1.40073,1.42403,1.73611,3.15431.68527,4.92406-1.05269,1.77291-2.7519,2.32974-4.64676,1.72422-1.21481-.38821-2.35407-1.10102-3.43464-1.80972-23.72241-15.55882-49.40206-26.56677-77.29644-31.66963C200.39072-.14054,136.97941,16.54464,82.44406,64.13543,45.69319,96.20642,22.54154,136.78616,13.00042,184.65923c-10.24838,51.42178-3.34844,100.72504,21.38419,147.07504,24.33264,45.60035,60.58989,78.56103,107.97874,99.08928,23.23729,10.06608,47.5985,15.67989,72.911,17.01589,4.31176.2276,8.62681.39284,12.94035.58689Z"/><path class="cls-1" d="m17.82834,228.12654c3.22035-80.17907,37.98638-141.94584,107.70963-182.85346,27.8702-16.35184,58.38683-24.70863,90.65854-26.40088,45.89686-2.40672,88.11215,9.01875,126.66447,34.04289,3.43762,2.23136,4.42732,4.64898,2.88044,6.94946-1.48924,2.2147-4.03083,2.28139-7.3406.10674-23.97453-15.75217-50.07372-26.16737-78.42471-30.48892-51.42914-7.83934-99.2495,2.0474-142.85607,30.62604-33.25307,21.79322-57.85288,51.16123-73.83162,87.59479-14.3267,32.66672-19.48148,66.8579-15.60223,102.31152,5.23711,47.8634,25.16892,88.75912,59.42293,122.46143,29.15367,28.68411,63.94912,47.39409,104.30918,54.0038,74.4103,12.18603,137.43764-9.949,188.21082-65.8454,17.80388-19.6004,30.41024-42.47805,38.93141-67.57767.41837-1.23228.80128-2.4971,1.39834-3.64363,1.08421-2.08206,3.20027-2.95885,5.13056-2.14852,2.1023.88259,2.98322,2.63626,2.41687,4.771-.79202,2.98553-1.7642,5.9373-2.86725,8.8239-20.99143,54.93208-58.17834,94.78612-111.55532,119.30065-23.18427,10.64786-47.6901,16.42082-73.18784,17.75015-50.39991,2.62771-96.19214-10.73045-136.71714-40.81235-41.30947-30.66419-67.80658-71.39559-79.72161-121.52148-3.69236-15.53351-5.36429-31.325-5.6288-47.45009Z"/><path class="cls-1" d="m228.58948,391.92667c67.48792.09179,129.77805-44.12547,152.47801-109.49053.48118-1.3856.91337-2.796,1.50754-4.13287,1.02537-2.30688,3.06692-3.34802,5.09997-2.73014,2.13821.64982,3.42308,2.80517,2.60219,5.32212-1.64055,5.0301-3.2889,10.09497-5.45654,14.90978-23.41932,52.01901-62.45608,86.30325-117.95757,99.46109-58.14342,13.7842-110.44411-.01147-155.22166-39.73333-29.08415-25.80035-46.67793-58.49862-53.7143-96.77233-14.00291-76.16776,26.06956-153.48418,96.28015-186.06627,25.54773-11.85573,52.3918-17.24901,80.47354-15.96196,31.46057,1.44192,60.42784,10.88541,86.76898,28.24352.67611.44554,1.36855.92263,1.89958,1.5216,1.4018,1.58123,1.65945,3.38017.43267,5.15477-1.16973,1.69211-2.90486,2.06314-4.77431,1.39855-.982-.3491-1.89128-.94818-2.77399-1.5254-20.30282-13.27617-42.44709-21.85314-66.47452-24.96678-46.70646-6.05257-88.86192,5.30108-125.62475,34.91073-29.17996,23.50221-48.00308,53.85176-56.40996,90.4126-15.55958,67.66734,13.21688,137.40928,71.81765,174.62189,26.63494,16.9137,55.80587,25.14232,89.04733,25.42296Z"/></g></svg>