<?xml version="1.0" encoding="UTF-8"?><svg id="Layer_2" xmlns="http://www.w3.org/2000/svg" viewBox="0 0 485.33333 372.74823"><defs><style>.cls-1{fill:#fff;stroke-width:0px;}</style></defs><g id="Layer_1-2"><path class="cls-1" d="m69.81729,63.32715c-1.06717-6.06293-2.05202-11.81945-3.10022-17.56442-.91263-5.0019.73945-7.13323,5.81485-7.32128,29.25817-1.08402,58.51674-2.15687,87.77485-3.24265,13.77387-.51115,27.54528-1.35257,41.32121-1.42916,6.50923-.0362,13.03728,1.29397,19.53686,2.15545,5.52755.73262,11.02773,1.67306,16.53772,2.5363,4.63291.72584,5.66294,1.90564,5.6434,6.5604-.18379,43.79156-.37672,87.58305-.56612,131.37457-.00541,1.24829-.00069,2.49663-.00069,3.96089,6.18494,1.01439,12.20206,2.01907,18.22525,2.98584,19.28687,3.09554,38.5766,6.17286,57.8634,9.2685,3.0066.48256,4.64667,2.63866,4.31094,5.78634-2.55031,23.90879-5.1288,47.81457-7.69267,71.72187-.51856,4.83561-1.23369,9.663-1.47087,14.51313-.47658,9.7459-3.25698,18.93074-6.28946,28.08317-1.13221,3.41714-2.14603,6.87333-3.25184,10.29942-1.04128,3.22623-3.12283,4.40579-6.41259,3.56671-1.73568-.44263-3.42411-1.07056-4.7466-1.49153-5.04748,14.36723-10.02098,28.60655-15.06018,42.82256-1.77803,5.016-3.66222,5.79644-8.62241,3.85987-23.98189-9.36305-47.96264-18.729-71.94683-28.0861-46.46058-18.12601-92.9208-36.25295-139.39196-54.35184-2.29835-.89515-3.62585-2.3516-4.23637-4.78598C36.79191,215.70582,19.48501,146.87292,2.18236,78.03895c-.57024-2.26854-1.18197-4.52666-1.74945-6.79587-1.30967-5.23715.29488-7.34232,5.59769-7.37973,20.54332-.14493,41.08662-.29095,61.6299-.44061.62103-.00452,1.24176-.05376,2.15678-.09559Zm115.6863,218.56364c-2.41238,3.08498-4.70372,4.03019-7.80437,3.04442-30.5499-9.71251-61.11592-19.37432-91.68604-29.02304-2.21529-.69922-3.37687-2.07369-3.83217-4.34896-2.9936-14.96012-6.21305-29.87726-9.00165-44.87484-.93213-5.0132-3.42995-9.91639-1.87571-15.27466.084-.28959-.37049-.72153-.54229-1.10165-.6564-1.45239-1.5928-2.85086-1.9038-4.37573-4.52086-22.16629-8.95897-44.34943-13.4119-66.52954-.54766-2.72794.68476-4.8784,3.33571-5.58486,1.64255-.43771,3.33711-.72961,5.02688-.93234,7.70113-.92393,15.20248-3.72665,23.13966-2.47947.50526.07939,1.04555-.06411,1.86645-.12646-2.06489-12.72696-4.10439-25.29744-6.14575-37.87938H9.66725c.20049.99066.29833,1.59999.4481,2.19631,17.09015,68.04542,34.19331,136.08761,51.23367,204.14549.5099,2.0365,1.37091,3.13867,3.38295,3.92168,59.70886,23.23607,119.38865,46.54679,179.075,69.84075,8.94969,3.49285,17.90899,6.96121,26.98079,10.48637.25722-.54351.48101-.92515.62542-1.33477,3.94993-11.20255,7.90947-22.40184,11.80871-33.62205.40556-1.16702.53985-2.45355.64028-3.6975.86888-10.76356,1.59714-21.53966,2.5877-32.29174.50477-5.47915.65948-5.53479-4.65852-6.7471-.14108-.03218-.31141.06393-.4681.10016.22705.07373.45411.14742.68116.22111-1.0866,3.64724-1.9369,7.38704-3.32005,10.91811-1.70044,4.34107-3.85165,8.50519-5.79657,12.75102-1.61645,3.52879-3.86149,4.53123-7.65004,3.33335-24.78371-7.83623-49.54813-15.73422-74.3653-23.46293-3.46724-1.07983-5.57258-2.73529-5.36888-7.27176ZM78.48952,63.38708c2.58316,0,4.83167-.0517,7.07689.01236,3.20715.09148,4.7028,1.2093,5.26405,4.31193,1.18108,6.52915,2.20056,13.08754,3.2851,19.63415,1.23095,7.43032,2.41488,14.8692,3.76264,22.27827.13198.72555,1.21983,1.74862,1.94548,1.82144,6.79982.6823,13.6179,1.18138,20.42975,1.74522,9.50334.78662,19.0075,1.56422,28.50828,2.38066,11.46799.98548,22.92778,2.07077,34.40137,2.98416,4.9178.3915,6.68584,1.8104,6.97022,6.68045.66617,11.40788,1.19544,22.82366,1.83593,34.23314.42334,7.54177.97132,15.07651,1.41033,22.6175.29291,5.03138.81799,10.08213.60368,15.09704-.11683,2.73347-1.50427,5.405,1.1245,7.77719,5.92234-4.83706,12.15789.31847,18.50402-.03132,0-2.17481-.25842-4.28319.08001-6.29097.28164-1.67087.83616-3.7076,2.00977-4.74588,5.4511-4.82264,11.09119-9.44219,16.83388-13.91589,1.15255-.89789,1.60739-1.57354,1.6125-2.95162.159-42.71161.35332-85.42312.53602-128.13465.00304-.70895-.07053-1.4182-.11524-2.25639-3.01094-.45845-5.93211-.95548-8.86793-1.34073-10.05964-1.32004-19.99585-3.72402-30.28897-2.90095-6.73058.53821-13.49602.66084-20.24822.90461-31.96122,1.1539-63.92326,2.28383-95.8847,3.4313-1.13457.04072-2.26574.17572-3.64724.28681.9732,5.57526,1.89685,10.86669,2.85787,16.37218Zm-13.53143,58.31273c4.02194,20.02595,7.9675,39.5615,11.83372,59.11275.34135,1.72618.99076,2.65724,2.78722,2.96148,2.919.49431,5.80149,1.20342,8.70062,1.81604,25.01708,5.28642,50.04506,10.52208,75.04673,15.88041,10.54875,2.26085,10.43595,2.25702,19.18736-4.08369,2.20715-1.59915,2.59843-3.24038,2.45112-5.60628-.76068-12.21775-1.44205-24.44042-2.15126-36.66137-.40152-6.91891-.78022-13.83928-1.21839-20.75588-.1411-2.22737.33746-5.20487-.88395-6.45295-1.22088-1.24755-4.20842-.8268-6.43161-1.02292-13.53899-1.19425-27.08082-2.35622-40.62176-3.52831-12.01718-1.04018-24.02496-2.21265-36.05529-3.06765-6.86715-.48805-13.77813-.7321-20.6558-.55599-3.96544.10155-7.90386,1.25897-11.98871,1.96434Zm210.87564,105.61443c-.37619-.35131-.43157-.44936-.50378-.46391-24.09911-4.85756-48.19621-9.72554-72.31123-14.50297-.98104-.19438-2.32842.18666-3.16669.77875-2.78613,1.96785-5.48699,4.07458-8.06458,6.30804-.73988.6411-1.37784,1.90891-1.33776,2.85881.26931,6.38044.70866,12.75435,1.14098,19.12714.83401,12.2944,1.78433,24.58197,2.47223,36.88432.11948,2.13682.87378,2.88488,2.71636,3.45958,16.39799,5.11497,32.77134,10.30889,49.15542,15.46851,6.57258,2.06976,13.15381,4.11214,19.78203,6.18289,2.05712-4.47077,4.01623-8.7032,5.9426-12.95051.21521-.47454.31326-1.02868.34953-1.55394.55143-7.98567,1.09818-15.9718,1.61589-23.95974.50031-7.7201.98294-15.44145,1.44094-23.16416.29151-4.91587.52391-9.83527.76806-14.47281Zm-89.01229-16.79358c-1.18245-.88789-2.01338-2.01614-2.83548-2.00973-1.20118.00937-2.51397.65341-3.56973,1.34613-2.41749,1.58615-4.61733,3.30731-7.88549,2.60473-26.66704-5.7332-53.34562-11.41327-80.03786-17.028-3.50776-.73783-7.04464-2.2488-10.69434.04251-1.38543.86984-1.81843,1.42906-1.47571,3.09537,3.23643,15.7357,6.37282,31.49216,9.48565,47.25294.35139,1.77915,1.20272,2.59123,2.98095,3.14742,27.43665,8.58126,54.86276,17.19799,82.22825,26.00254,2.93987.94584,4.79705.83486,6.60832-1.72456,1.25519-1.77367,3.16695-2.91571,2.86244-5.68439-.60925-5.53988-.81347-11.12526-1.14857-16.69408-.60006-9.97147-1.05368-19.95377-1.82627-29.91159-.25113-3.23679.55793-5.56707,3.19103-7.42895.75492-.53384,1.14341-1.58582,2.11681-3.01033Zm110.64997,106.60342c2.28695-7.64344,5.06184-15.11704,6.67281-22.83364,1.4648-7.01663,1.65932-14.29789,2.42302-21.46154,2.09065-19.60979,4.18903-39.21879,6.27744-58.82882.47223-4.43407.91644-8.87115,1.35923-13.16787-.51427-.25121-.66767-.37444-.83651-.40174-24.87737-4.02108-49.75352-8.04979-74.64257-11.99731-1.01465-.16092-2.37622.14359-3.19075.74941-3.02851,2.25246-5.70248,5.02795-8.87404,7.02956-3.70722,2.33969-4.5829,5.47229-3.7932,9.3641.16054.79126,1.01954,1.88555,1.73639,2.04838,5.4213,1.23134,10.88666,2.2692,16.33984,3.35972,12.84111,2.56816,25.68698,5.11309,38.52274,7.70776,4.60189.93023,5.83789,2.69354,5.44922,7.38965-.18554,2.24177-.32487,4.4875-.46936,6.73248-.47385,7.36361-.95776,14.72663-1.40484,22.09185-.42992,7.08332-.81878,14.16915-1.23128,21.35148,3.52896.98304,6.97158,1.91383,10.39651,2.90584,2.36121.68394,3.57628,2.3157,3.58998,4.77466.007,1.25943-.05835,2.52269-.15884,3.77878-.66747,8.3415-1.20016,16.69834-2.11263,25.01334-.3387,3.0861.69209,4.29094,3.94683,4.39391Z"/><path class="cls-1" d="m437.68583,207.39657c-6.14306-1.1725-12.50571-2.37675-18.86427-3.60222-31.44483-6.06039-62.8799-12.17229-94.34444-18.12856-3.66024-.69291-5.83191-2.21177-7.19827-5.81205-5.35051-14.09843-5.48325-8.59527.0494-22.77185,6.87217-17.60885,13.95058-35.13723,20.94166-52.6997,1.4355-3.60616,3.11428-4.58846,6.87521-3.78652,24.0072,5.11903,48.00767,10.26945,72.01018,15.4103,15.73781,3.37073,31.47642,6.73759,47.20994,10.1283.86852.18716,1.7837.43266,2.52417.89561,5.4942,3.43516,10.99778,6.8599,16.39555,10.44283,2.42952,1.61267,2.6838,4.44866.83766,7.15497-7.04874,10.33291-14.12816,20.64496-21.21578,30.95125-6.62921,9.63967-13.31757,19.23895-19.89718,28.91228-1.28567,1.89013-2.81852,2.95234-5.32384,2.90535Zm-92.02234-98.03687c-.39933.84248-.77958,1.5429-1.0727,2.27806-6.69776,16.79707-13.21945,33.66741-20.18281,50.35348-1.95488,4.68438-2.46071,8.79732.25326,13.13053.09449.15082.10016.38339.22362.48568.75971.62943,1.46592,1.62097,2.32665,1.78811,35.83894,6.95914,71.69511,13.82969,107.53464,20.78596,1.51975.29497,2.22629-.04317,3.05108-1.2586,6.31652-9.30849,12.70594-18.56752,19.07618-27.83953,6.05653-8.81534,12.11724-17.62778,18.31195-26.63906-3.84594-2.44485-7.53258-4.83695-11.27773-7.13372-.89093-.54637-1.94884-.90609-2.97818-1.12866-25.91951-5.60426-51.84536-11.17929-77.77038-16.75809-12.46419-2.68219-24.92898-5.36157-37.49558-8.06415Z"/><path class="cls-1" d="m376.53858,49.51148c0,9.27173-.01937,18.54353.00911,27.81516.01214,3.95828-.66334,5.13649-4.26434,6.56544-31.77872,12.61051-63.56806,25.19429-95.3381,37.82671-2.61727,1.04069-4.94274,1.04137-7.39582-.51259-3.57014-2.26156-7.24236-4.37087-10.94441-6.41212-2.54014-1.40058-3.50816-3.46409-3.25217-6.24523,1.43569-15.59678,2.8732-31.19342,4.30173-46.79088.23765-2.59498,1.38012-4.42361,3.72614-5.82157,30.52846-18.19149,61.01049-36.46103,91.504-54.71122,3.38441-2.02555,5.68604-1.56646,8.17715,1.57831,3.18382,4.01923,6.2946,8.10304,9.63432,11.98933,1.76977,2.05947,2.49876,4.28666,2.49496,6.90006-.0135,9.27263-.00528,18.54528-.00528,27.81793.45091.00021.90178.00045,1.35269.00068Zm-19.03229-39.8177c-29.48262,17.64299-58.61325,35.06121-87.69918,52.55367-.81489.49008-1.55457,1.73316-1.65166,2.69359-1.24085,12.27483-2.16824,24.58444-3.60519,36.83477-.53048,4.52245-.06884,7.81051,4.75924,9.3164,1.00459.31331,1.81492,1.27378,2.82096,1.5516,1.16758.32241,2.62123.65062,3.66136.24121,29.89436-11.76683,59.74588-23.64231,89.63232-35.42927,1.76911-.69773,2.47866-1.48498,2.42078-3.47693-.49731-17.11046-.87103-34.22447-1.31233-51.33665-.01987-.76964-.11297-1.70177-.54836-2.26952-2.72839-3.55763-5.56377-7.03323-8.47793-10.67887Z"/></g></svg>