<?xml version="1.0" encoding="UTF-8"?><svg id="Layer_2" xmlns="http://www.w3.org/2000/svg" viewBox="0 0 315.41004 457.85892"><defs><style>.cls-1{fill:#fff;stroke-width:0px;}</style></defs><g id="Layer_1-2"><path class="cls-1" d="m252.36157,203.12649c4.37965.81502,7.93106,2.42164,11.26172,5.20331,7.44667,6.21925,8.6933,14.74989,9.52919,23.40693.78399,8.11956-.69961,16.14312-2.30565,24.08812-.33359,1.65019-.01903,2.56994,1.44075,3.49574,13.2333,8.39274,26.4192,16.86022,39.61208,25.31664,3.72799,2.38963,4.41351,4.73257,2.40399,8.71301-3.60483,7.14052-6.86956,14.50118-11.07177,21.2766-3.48496,5.61892-8.04176,10.58723-12.2479,15.74246-26.1664,32.07105-52.36747,64.11383-78.55776,96.16539-7.78965,9.53296-15.56811,19.07513-23.37899,28.59064-3.03999,3.70342-7.56958,3.62451-10.51561-.11904-21.11866-26.83552-42.24171-53.66761-63.35187-80.50984-15.11428-19.21827-30.35782-38.33811-45.20883-57.75792-3.58228-4.68434-6.05066-10.27886-8.66719-15.63275-8.87996-18.17009-17.59573-36.42048-26.37626-54.6392-11.15844-23.15261-22.3315-46.29826-33.44911-69.47048-.71691-1.49423-1.2465-3.16178-1.44779-4.79976-.27961-2.27517,1.38428-4.27645,3.96305-5.21403,15.58672-5.66679,31.17828-11.32027,46.76719-16.98104,5.77579-2.09734,11.52798-4.26264,17.33631-6.26537,1.63578-.56404,2.10013-1.29889,2.03177-3.0663-.56007-14.4849-1.53399-28.98364-1.31157-43.46171.30439-19.81423,3.27647-39.30612,10.63316-57.8856,4.20978-10.63191,9.92642-20.3663,19.01408-27.58816C106.28397,5.52014,114.95217.9136,125.19304.12539c10.75288-.82763,20.41726,2.52179,29.63605,7.68414,17.61279,9.86282,31.11225,24.0672,42.50093,40.42836,2.51649,3.6152,5.24514,5.84634,9.76641,6.87862,21.51358,4.91193,42.92461,10.27295,64.37259,15.47224,5.03143,1.2197,6.43232,3.53531,5.42051,8.63283-6.49075,32.69978-12.95236,65.40534-19.42355,98.10901-1.6822,8.50133-3.36443,17.00267-5.10441,25.79591Zm3.29689,73.30303c.35503-1.18783.61625-1.90064.78013-2.63516,1.61089-7.22054,3.56303-14.38893,4.70183-21.68397,1.08464-6.9481,1.87283-14.03962,1.74538-21.04905-.10174-5.59652-1.14322-11.32364-6.39043-15.19517-3.8178-2.81683-7.92834-4.32828-12.42768-3.16409-7.3419,1.89968-13.83064,5.58659-19.56786,10.63334-8.51506,7.49027-16.1332,15.79906-23.18626,24.65577-1.61278,2.02521-3.46367,3.80072-6.40591,3.15106-2.94171-.64959-3.7342-2.92076-4.37384-5.54245-3.14785-12.90122-5.9842-25.90206-9.76913-38.61812-4.63284-15.56485-11.7929-30.11108-20.80273-43.61807-8.03144-12.04026-17.52137-22.67524-31.65252-27.90386-6.91632-2.55908-13.87654-4.82642-21.42682-3.07506-5.11425,1.18629-7.8114-.91389-7.77046-6.13989.03423-4.37025.1393-8.74714.43089-13.10653.44866-6.70795.72407-13.45753,1.72226-20.09176,1.58736-10.5499,3.43378-21.0893,7.42804-31.08153,2.73208-6.83466,5.92238-13.4635,11.53271-18.42588,2.26967-2.00755,5.02564-3.97944,7.88279-4.71498,9.62883-2.47885,18.24515,1.35954,26.10858,6.13473,10.07354,6.11729,18.03626,14.82779,25.67293,23.73553,3.32859,3.88262,4.43062,4.34212,8.2128,1.16056,4.19952-3.53263,7.01184-8.59113,2.66025-13.71401-2.60167-3.06275-4.74221-6.52587-7.41954-9.51378-5.76656-6.43553-11.40298-13.05408-17.75139-18.87992-4.71906-4.33059-10.26861-7.88563-15.83453-11.12176-4.22779-2.45811-8.91845-4.47542-13.66121-5.61245-7.85991-1.88434-15.64786-1.09616-22.87538,3.07889-5.43061,3.13706-10.58355,6.57124-14.51511,11.57382-5.24869,6.67851-9.31721,14.06941-11.66944,22.17025-2.38215,8.20398-4.48468,16.57213-5.68842,25.014-1.45471,10.2021-2.41153,20.55064-2.53,30.84793-.1354,11.76618.74954,23.55409,1.45993,35.31632.43509,7.20398,1.02612,14.43534,2.2051,21.54529.85561,5.15983,1.90207,6.72491,6.85643,4.23312,3.27177-1.64554,6.2336-3.93437,9.24974-6.05528,5.66449-3.98323,11.86942-5.68079,18.29453-2.76207,4.21829,1.91624,8.17063,4.73073,11.71225,7.76197,8.71971,7.46314,14.60952,17.13739,19.85963,27.18361,9.6863,18.53499,16.55317,38.17173,21.27314,58.46425,3.53614,15.20286,5.86807,30.68496,8.78766,46.03291.58299,3.06471,1.39893,6.08514,2.2476,9.72742,1.66311-1.47031,2.93046-2.24513,3.73024-3.35649,3.84011-5.33625,7.50148-10.80088,11.32194-16.15165,13.42405-18.80099,26.87355-37.59073,44.33613-53.00647,1.84824-1.63162,4.11073-2.76376,6.73245-1.72372,2.5307,1.00394,3.32559,3.16036,3.49033,5.66171.03324.50466.02345,1.01203.0405,1.51786.34576,10.25256-1.09511,20.34104-2.73987,30.41564-.13159.80614-.13069,2.08101.34801,2.46403,2.3464,1.87749,4.87547,3.5267,7.63433,5.46314Zm-32.51274-10.06543c-.81763.9761-1.51045,1.70812-2.0967,2.51735-8.25269,11.39152-16.55589,22.74744-24.69884,34.21703-3.03906,4.28062-5.98717,8.47625-10.77758,11.09427-3.53831,1.93373-5.97293,1.89198-9.39387-.21241-4.41629-2.71654-5.88901-7.02018-6.7263-11.61928-1.98438-10.90021-3.72043-21.84543-5.65295-32.7554-.75295-4.25084-1.76401-8.45592-2.69045-12.83761-20.9453,14.23992-41.53873,28.24061-62.19052,42.28101,28.914,33.09418,57.59503,65.92178,86.47007,98.97137,29.28969-32.49179,58.26795-64.63808,87.3549-96.90495-16.59346-11.62645-32.98539-23.11168-49.59776-34.75138Zm42.57601-181.93779c-1.37055.39986-2.40653.63743-3.39632,1.00073-11.58993,4.25407-23.17402,8.52413-34.75747,12.79586-11.03139,4.06812-22.0486,8.17511-33.10502,12.17395-1.34766.48742-1.80792,1.078-1.82698,2.4891-.29886,22.08475-.66936,44.1685-.98219,66.2531-.1171,8.26522-.17558,16.53206-.15161,24.79785.00525,1.80807.30874,3.65821.76375,5.41409,1.41269,5.45148,2.99331,10.85919,4.45043,16.29949.76573,2.85888,1.40985,5.75031,2.15256,8.80689,4.3722-4.5746,8.42185-8.96974,12.64238-13.19413,8.37652-8.38411,17.73798-15.2201,29.40917-18.40608.79128-.21599,1.62841-1.55636,1.8174-2.49942,6.76495-33.75404,13.45791-67.52249,20.15239-101.29064.94493-4.76649,1.84651-9.5416,2.8315-14.64078ZM14.41398,174.02901c.33036.56832.41436.81349.57814.9803,17.66479,17.98977,35.34469,35.96472,52.98191,53.98146.99138,1.01273,1.76953.94794,2.85179.34282,2.48621-1.39009,5.00505-2.72226,7.51937-4.06156,3.92591-2.09117,7.87264-4.14363,11.78515-6.25946,3.68331-1.99193,7.3088-4.09152,11.0059-6.05689,3.47561-1.84762,7.03064-3.54536,10.51632-5.37456,4.81845-2.52861,9.60033-5.12679,14.40613-7.67964,3.40651-1.80955,6.83274-3.58199,10.23781-5.3942,1.363-.72543,1.62852-1.59665.65725-3.0048-1.42884-2.07158-2.52117-4.37324-3.92002-6.46793-5.04231-7.55037-10.62284-14.57799-18.88606-18.93423-2.96871-1.56506-5.77473-1.42939-8.49989.52766-2.25786,1.62146-4.37724,3.51215-6.81832,4.78375-3.46704,1.80606-7.05092,3.68924-10.81121,4.5457-3.71794.84682-8.14848.96818-10.85289-2.35121-2.73006-3.3509-4.67867-7.35431-4.99074-11.91933-.18363-2.68626-.64352-5.35363-1.01074-8.28135-19.15886,6.96251-37.8362,13.75003-56.7499,20.62346Zm128.35902,28.49838c-22.81103,12.13055-45.44995,24.16957-68.24906,36.29379,6.41686,17.12108,12.76791,34.06657,19.19944,51.22676.96867-.62555,1.74177-1.10182,2.49145-1.61247,9.87696-6.72763,19.75401-13.45513,29.62417-20.1927,10.35855-7.07098,20.72546-14.13012,31.02866-21.28093.68803-.47753,1.40049-1.83415,1.2064-2.53342-3.95404-14.24536-8.58855-28.25236-15.30106-41.90103Zm-29.96866-117.891c-.55991,3.93367-1.84771,7.67037-1.44632,11.21581.97341,8.59781,2.73308,17.10658,4.08799,25.13048,6.98289,2.2229,13.80461,3.84406,20.17193,6.5389,12.29938,5.20541,21.6483,14.30944,29.03529,25.14549,4.23618,6.21412,10.76,8.13046,16.72289,11.95891.08583-.85491.1526-1.24349.15998-1.63321.31854-16.77173.61168-33.54402.97987-50.31465.03321-1.51261-.42658-2.14989-1.85497-2.67795-15.82421-5.85004-31.61788-11.7827-47.41834-17.69697-6.74459-2.52457-13.48569-5.05841-20.43831-7.66681Zm141.89774-7.29191c-.01035-.16013-.0207-.32026-.03105-.4804-1.20031-.23449-2.41336-.4177-3.59906-.71124-15.19971-3.76291-30.40152-7.51783-45.58386-11.3498-1.68368-.42495-2.63942-.33691-3.13765,1.56306-1.75338,6.68617-6.01458,11.44337-12.11322,14.37238-4.5847,2.2019-9.55981,2.99164-13.70346-.87398-3.92099-3.65788-7.44213-7.75293-11.03476-11.74953-1.23506-1.37392-2.29574-1.94058-4.28433-1.43524-8.48234,2.15551-17.02822,4.06026-25.54587,6.07773-4.75578,1.12644-9.50166,2.29451-14.96946,3.61741,1.16685.52808,1.58795.74851,2.0296.91425,21.23659,7.96963,42.46812,15.95298,63.73346,23.84518,1.05547.39173,2.51914.29654,3.60332-.09564,12.9691-4.69112,25.90048-9.48635,38.84549-14.24412,8.59381-3.15855,17.19371-6.30062,25.79086-9.45008Zm-147.59157,246.83874c-.13862.12108-.27723.24219-.41585.36328.09726.30275.18219.61007.29357.90754,4.06222,10.84969,8.05264,21.72716,12.22681,32.53363,1.73951,4.50339,2.92949,9.19635,6.09335,13.16699,14.49483,18.19101,28.79489,36.53718,43.16972,54.82387,3.35238,4.26465,6.72356,8.51456,10.52389,13.32546.34276-8.46844.47432-16.20287,1.03154-23.90651.3702-5.11785-.739-9.0985-4.4309-13.11527-11.38407-12.38563-22.21889-25.27576-33.28162-37.95719-9.23304-10.58402-18.48194-21.15425-27.73421-31.72146-2.47252-2.8239-4.98317-5.61447-7.4763-8.42033ZM23.6319,198.77725c-.11823.08092-.23647.16182-.3547.24272,1.6436,3.45323,3.27221,6.91367,4.93315,10.35852,13.60322,28.21355,27.20069,56.42985,40.83078,84.63036,2.45125,5.07169,4.43716,10.51407,7.6965,15.01952,7.20649,9.96168,15.09078,19.43275,22.67908,29.11924.36783.46953.54896,1.08535.81705,1.63308.25078-.2333.50157-.46656.75237-.69986-.16812-.54668-.30793-1.10401-.50843-1.63857-12.08563-32.22121-24.16825-64.4435-36.2994-96.64755-.42603-1.13092-1.19444-2.22022-2.04705-3.08995-12.39288-12.64196-24.82656-25.24396-37.25608-37.84998-.38385-.38932-.8275-.71966-1.24327-1.07752Zm166.31429,239.44349c.41768-.59769.55054-.81705.71126-1.01367,18.19997-22.26472,36.40355-44.52654,54.5944-66.79871.41824-.5121.76839-1.10942,1.02498-1.71965,5.40327-12.85145,10.79139-25.70927,16.16725-38.57221.2231-.53395.29827-1.12978.44234-1.69675-.27646-.20907-.55292-.41815-.82941-.62722-.62719.88866-1.17192,1.85148-1.8939,2.65493-11.04048,12.28642-22.10941,24.54726-33.16082,36.82383-11.78452,13.0908-23.5677,26.18284-35.30655,39.31455-.60909.68138-1.09765,1.7279-1.13345,2.62472-.36976,9.26509-.63609,18.53439-.92077,27.80279-.00677.22081.1073.44534.30467,1.20739Zm78.259-169.63188c-1.23819,4.51562-2.46801,8.78182-3.51264,13.09287-.12742.52594.58984,1.50328,1.16898,1.91525,5.41621,3.85278,10.87719,7.64311,16.34731,11.41945,3.16796,2.18707,3.97321,4.26641,2.64322,7.99381-1.09931,3.08099-2.45253,6.07149-3.69616,9.10082-1.05241,2.56364-2.109,5.12557-3.16376,7.68825.16906.08564.33816.17126.50722.2569,8.11675-9.68747,16.23346-19.37495,24.47861-29.21563-11.65957-7.46116-23.12768-14.79982-34.77279-22.25171ZM154.89139,57.83389c-5.75162-4.55585-11.4591-7.83777-18.05537-9.35393-4.45794-1.02465-8.16167.06736-11.20001,3.78886-3.4531,4.22953-5.83958,8.94699-7.87488,14.35655,12.39074-2.9338,24.46659-5.79305,37.13026-8.79148Zm74.80931,200.43052c2.89296,2.01835,5.54641,3.86961,8.49751,5.92853.60575-4.7872,1.15842-9.15489,1.71109-13.52258-.18562-.09884-.37125-.19764-.55687-.29648-3.14609,2.57201-6.29221,5.14402-9.65173,7.89053Z"/></g></svg>