<?xml version="1.0" encoding="UTF-8"?><svg id="Layer_2" xmlns="http://www.w3.org/2000/svg" viewBox="0 0 472 381.44605"><defs><style>.cls-1{fill:#fff;stroke-width:0px;}</style></defs><g id="Layer_1-2"><path class="cls-1" d="m300.74398,272.75243c-6.89927,0-13.46403-.17029-20.01753.02989-26.49563.80929-52.49007,5.07924-78.04323,11.96877-22.28705,6.00899-43.98813,13.74934-65.02814,23.26956-28.34667,12.82641-55.09463,28.35684-79.54004,47.68192-6.55688,5.18349-12.913,10.63451-19.17874,16.16937-8.48735,7.49733-19.6211,8.89203-29.41246,3.40411-7.94157-4.45113-11.67215-15.64389-8.25552-24.10379,1.71597-4.24892,4.48637-7.58161,7.73002-10.67347,18.17309-17.32277,37.94113-32.65706,59.30022-45.76302,12.92416-7.93023,26.43903-14.9919,40.07945-21.64186,31.53906-15.37586,64.70473-26.00379,99.20184-32.45206.7115-.13301,1.41004-.33544,2.53286-.60638-1.73877-1.12022-3.30747-1.78257-4.38268-2.91387-1.27441-1.34093-2.82904-2.99731-3.03937-4.67068-1.12359-8.93926-1.82714-17.93044-2.75084-26.89592-.76663-7.44084-1.67635-14.86685-2.45023-22.30699-.7655-7.35951-1.40445-14.73218-2.16485-22.09227-.76877-7.44127-1.64369-14.87152-2.42433-22.31162-.59468-5.66766-1.09107-11.34558-1.67448-17.01449-.59178-5.75039-1.25106-11.4938-1.8543-17.24305-.5946-5.66697-1.14423-11.33865-1.73484-17.00605-.78423-7.52557-1.62499-15.04542-2.37398-22.57444-.62288-6.2615-1.26903-12.52499-1.66905-18.80264-.21925-3.44114,1.41644-5.41035,4.71553-6.40019,34.86967-10.46219,69.72496-20.9735,104.64991-31.24795,2.76656-.81389,6.0247.00804,9.05127.14085.65934.02893,1.29721.39797,1.95868.55129,5.28793,1.22566,5.65298,1.86497,4.90047,7.31198-1.636,11.84217-3.19041,23.69563-4.77277,35.5452-.05518.41333-.05274.83435-.10923,1.80059,3.73605-2.73884,7.17559-5.15585,10.50378-7.71754,18.06986-13.90841,37.36524-25.84264,58.24791-34.98543,12.37116-5.41632,25.34173-9.33118,38.84716-10.78791,9.67853-1.04394,19.36088-.15468,28.54338,3.11775,9.38074,3.34306,16.94901,9.33392,22.62988,17.6632,4.60261,6.74832,7.38607,14.20928,9.10585,22.09465.87748,4.02346-2.65248,8.48019-7.32795,9.72048-4.77218,1.26595-8.03467-.31577-9.74688-4.8798-2.16878-5.78104-4.6633-11.31847-8.90427-15.98485-5.7571-6.33452-12.92675-9.49284-21.30093-10.42542-8.73235-.97247-17.24471.30064-25.50776,2.84366-6.91485,2.12812-13.80645,4.56564-20.33979,7.64746-11.03761,5.20648-21.63769,11.25748-31.78415,18.11095-15.09011,10.19267-29.391,21.35799-43.1537,33.2764-3.31116,2.86747-5.01414,5.82544-5.34692,10.08658-.39832,5.10017-1.35304,10.15483-1.92265,15.24533-.11927,1.06605.02078,2.52801.66469,3.25678,7.96003,9.00968,13.70292,19.29174,18.02201,30.4534,4.38478,11.33165,7.66624,22.96606,9.95654,34.88995.12788.66585.34803,1.314.70228,2.62642,1.70689-6.27667,3.37291-11.94417,4.7637-17.67841.93134-3.83983,2.64978-7.00543,5.40949-9.92016,24.02605-25.37565,47.93527-50.86194,71.87262-76.32155,7.43332-7.90601,14.88784-15.79282,22.24242-23.77158,2.08503-2.26196,4.36957-2.93648,7.34369-2.3422,4.51542.90226,9.07302,1.60268,13.62462,2.3125,5.9329.92525,7.38798,3.41773,4.85731,9.05452-3.88136,8.64533-7.93718,17.2124-11.92589,25.80946-18.61359,40.11851-37.22731,80.23698-55.84588,120.35319-7.22476,15.56664-14.1316,31.29284-21.80748,46.63402-5.33954,10.67181-11.72415,20.82209-17.67524,31.18618-16.87631,29.39103-33.76542,58.77468-50.6659,88.15182-1.18006,2.05119-2.44748,4.05635-3.75952,6.02614-1.27274,1.91079-3.80102,2.42864-5.87769.90427-3.84935-2.82558-7.59651-5.8023-11.25031-8.87754-1.95267-1.64358-2.10321-3.88102-1.43655-6.33175,8.02284-29.4924,15.99848-58.99761,23.98145-88.50084.32937-1.21731.6097-2.44789,1.01707-4.09293ZM462.43034,44.94866c.2956-.00453.59117-.00906.88678-.0136,0-.88546.24033-1.85684-.04037-2.64194-1.43301-4.00812-2.65254-8.14655-4.58343-11.91299-7.03854-13.72956-18.84961-20.5122-33.84007-21.84983-7.116-.63498-14.29832-.10672-21.3389,1.47224-2.66158.59691-5.45415.8036-7.99117,1.7265-7.99539,2.90849-15.97667,5.88463-23.81986,9.17662-15.74031,6.60661-29.94797,15.90274-43.8961,25.6103-2.37046,1.64981-4.63666,3.44919-6.95441,5.17494-4.77997,3.55909-9.68886,6.95932-14.30965,10.71417-5.08653,4.13331-9.885,8.61936-14.85153,12.90236-10.60837,9.14837-21.05948,18.45363-30.17171,29.1528-1.09609,1.28696-2.61592,2.23865-3.59036,3.59623-.93288,1.29968-1.72896,2.86913-2.00578,4.42318-.32045,1.79923.48151,2.76128,2.73012,2.31561,5.31807-1.05398,10.3061-.13711,14.82368,3.08361,4.33586,3.09122,7.49169,7.14523,10.1806,11.66342,6.26728,10.5309,9.69659,22.10028,12.50114,33.89869,5.88721,24.76656,8.13329,49.95884,8.70406,75.3396.09718,4.3209-2.13657,6.21877-6.40784,5.93625-10.03285-.66375-20.06914-1.64796-30.10959-1.71872-9.95683-.07023-19.95509.44755-29.87335,1.3712-16.65485,1.55097-33.11208,4.4686-49.37022,8.46839-28.69927,7.06057-56.28279,17.12819-82.81736,30.16373-16.86649,8.28589-33.08331,17.66003-48.42758,28.46798-9.54581,6.72372-18.83104,13.85027-27.9001,21.2067-6.28012,5.09417-12.20455,10.67813-17.90275,16.42513-6.72001,6.77765-4.37379,16.53383,3.30119,20.0897,5.13915,2.38104,12.72048,1.3153,17.46984-2.89159,3.95862-3.50642,7.67025-7.34253,11.89931-10.48321,12.38591-9.1984,24.6909-18.55266,37.54772-27.05979,22.99502-15.2154,47.67504-27.33608,73.46171-37.021,14.43231-5.42044,29.19804-9.99419,43.9467-14.51506,8.29475-2.54259,16.79355-4.55529,25.32137-6.16647,10.03134-1.8953,20.15965-3.41115,30.30876-4.51197,10.34397-1.12198,20.75711-1.68342,31.15435-2.20208,4.75869-.23736,9.55306.18515,14.32849.37698,1.27536.05126,1.97821-.1521,2.32038-1.61782.8526-3.65249,1.96118-7.2447,2.94457-10.8672,4.37999-16.13482,8.77801-32.26481,13.09766-48.41578.60989-2.28026,1.42684-4.74786,1.12404-6.99053-2.14684-15.89869-5.58672-31.49908-10.97596-46.66668-3.68385-10.36795-8.39838-20.13497-15.14826-28.83177-4.61453-5.94555-10.22949-10.7211-17.3792-13.45139-4.80426-1.8346-5.57965-5.36612-1.78598-8.93498,6.21276-5.84455,12.454-11.665,18.84798-17.30901,6.81192-6.01293,13.64969-12.01824,20.77245-17.65234,11.49947-9.09609,23.14716-17.996,35.75865-25.57692,17.11007-10.28509,34.63242-19.49387,54.43252-23.55562,11.52873-2.36498,22.83866-2.49174,33.88194,2.24675,8.83632,3.79149,15.19208,10.18425,19.58925,18.59288,1.56533,2.99337,2.78098,6.16959,4.15628,9.26235Zm-259.6668,5.11265c4.80837,59.68057,9.58907,119.01758,14.40788,178.8275,2.26617-2.01235,4.17365-3.67308,6.04524-5.37334,18.45851-16.76868,36.91959-33.53454,55.33389-50.35162.73279-.66921,1.29577-1.79909,1.44428-2.78845.92512-6.1619,1.73572-12.34163,2.52137-18.52342.1901-1.49578.69392-3.28755.11326-4.48877-2.91738-6.03556-5.69529-12.22237-9.40493-17.76531-3.12676-4.67203-7.47248-7.79382-14.11104-6.53107-5.91165,1.1245-8.93168-.96715-10.73675-5.4931-2.34802-5.88733-.48141-12.61364,4.55-16.49583.53168-.41024.95482-.96028,1.43263-1.44121,7.8175-7.8689,15.50646-15.87153,23.50104-23.55626,4.97624-4.78335,10.44109-9.05605,15.6139-13.64003.67114-.59474,1.17071-1.64334,1.30187-2.54672,1.22645-8.44814,2.36886-16.90862,3.50689-25.36939.67821-5.04216,1.3051-10.09122,1.98966-15.40575-32.67959,10.37027-65.01788,20.63224-97.5092,30.94278Zm110.3886,279.88519c.13746.05515.27492.11026.41234.16537.4042-.6353.8337-1.25609,1.20889-1.9081,8.51609-14.80033,17.06813-29.58019,25.52435-44.41467,6.89004-12.08704,14.2653-23.94665,20.35904-36.42773,11.19779-22.93531,21.60549-46.2562,32.35213-69.41194,12.65143-27.26011,25.31406-54.51506,37.96668-81.77463.46145-.99424.86809-2.01395,1.30031-3.02177-.58003.00335-.79533.14746-.94314.34269-18.07681,23.87847-36.17813,47.73855-54.18781,71.66758-2.59192,3.44383-5.5004,6.93651-6.97998,10.88687-18.58042,49.60888-36.92579,99.30584-55.32428,148.98284-.60131,1.62358-1.12739,3.27504-1.68852,4.91349Zm-24.07387,40.29689c24.33815-65.75663,48.60869-131.33065,72.95085-197.09816-7.8339-2.89049-15.47579-5.71014-23.32221-8.60525-1.77759,6.69447-3.44981,13.11313-5.18712,19.51412-7.82069,28.81497-15.68138,57.61909-23.48655,86.43826-8.24943,30.45974-16.44209,60.93485-24.68549,91.39622-1.37104,5.06644-1.43216,5.04991,3.73051,8.35481Zm7.20839-134.12096c1.34938-10.2811-4.10401-58.61606-7.66946-67.90455-.22825,1.68879-.44273,3.0256-.58313,4.37015-.24969,2.39092-1.2107,4.28915-3.07155,5.9457-8.54297,7.60508-16.98638,15.32201-25.45897,23.00601-10.55986,9.57703-21.11825,19.15563-31.66624,28.74568-2.85331,2.59417-5.6667,5.23228-8.49842,7.85024,25.67041-3.4766,51.17707-4.76936,76.94776-2.01323Zm47.20266-78.96467c7.27277,2.6693,14.36765,5.32232,21.52105,7.80703.58175.20206,1.82638-.54576,2.32013-1.19105,8.60419-11.24596,17.14462-22.54074,25.68784-33.83331,14.46047-19.1141,28.91494-38.23278,43.36774-57.35269,3.07158-4.06341,6.12522-8.14035,9.49691-12.62289-3.27176-.53105-6.08435-1.03164-8.91387-1.40318-.46827-.06148-1.11684.33131-1.50089.70193-1.96356,1.89494-3.91661,3.80554-5.78405,5.79451-7.16724,7.63374-14.27541,15.32299-21.45373,22.94622-6.19054,6.57418-12.48762,13.04823-18.66217,19.63723-6.63797,7.08355-13.13741,14.29709-19.79043,21.36625-6.83073,7.25797-13.79722,14.388-20.65311,21.62256-1.90945,2.01492-3.63737,4.20186-5.63542,6.52738Zm-53.56449-60.80137c-2.18205,2.06892-3.80124,3.60416-5.61198,5.32102,1.55641,1.0478,2.85006,1.91873,4.53926,3.05591.3659-2.85738.67007-5.23278,1.07271-8.37694Z"/></g></svg>