<?xml version="1.0" encoding="UTF-8"?><svg id="Layer_2" xmlns="http://www.w3.org/2000/svg" viewBox="0 0 466 459.43992"><defs><style>.cls-1{fill:#fff;stroke-width:0px;}</style></defs><g id="Layer_1-2"><path class="cls-1" d="m161.43182,201.89875c-1.54641-2.88294-1.71805-9.31411-5.10687-9.61987-5.39199-.63587-9.72062-3.08326-13.48122-7.05258-6.19424-6.538-12.78508-12.69892-19.02998-19.19078-3.60597-4.38736-8.56484-8.53746-10.77937-13.77735-.24619-2.86894-2.03862-4.62077-3.90474-6.47277-18.34031-16.56048-34.04628-37.23389-53.91895-51.53084-21.5395-.33366-33.93085-18.55419-47.20168-32.87373C-14.56317,28.17948,13.86009-11.50436,52.38184,3.12293c5.71962,2.09513,10.02117,5.688,14.4188,9.4057,8.47276,7.27807,17.65905,13.85061,23.07295,23.89808,3.28956,4.72383,4.23745,10.14089,4.88999,15.70129.14886,1.26852.9241,2.733,1.87464,3.59769,18.93407,16.58492,37.17568,34.75272,56.5296,50.54107,9.1905.61108,19.06419,13.24007,26.72501,19.20692-.62227-5.03794-7.09579-18.02124-2.45708-20.05606,1.9757-1.27475,4.32406-.70548,6.53187,1.51935,11.52339,12.0075,23.9042,23.31139,34.92586,35.74272.19921-.11296.39842-.2259.59764-.33885-.03438-26.69371-.79641-53.41143-1.0702-80.11305-.7672-6.2318,7.02985-7.71983,8.80117-1.83288,14.20839,36.31796,28.08643,72.70322,42.44956,108.96544,26.0859-27.79514,51.56888-55.74298,77.5471-83.58682,1.90772-2.66025,5.48764-4.19545,8.26299-2.21273.93507.75885,1.45159,2.94625,1.10868,4.22217-9.64116,35.13821-20.70444,69.81864-30.41046,104.93905,16.1188-4.74124,31.59622-9.4301,47.59356-14.20525,3.18903-.95087,5.2051-.44919,6.26029,1.45628,2.65941,3.78809-3.12488,7.91997-5.56213,10.50273,3.39182,2.11997,5.86283,5.63184,2.02639,8.75821-9.04173,8.25196-17.90527,16.19703-26.83947,24.63582,37.49419,9.65807,74.3545,19.15629,111.75848,28.8043,6.1246.99436,5.88824,8.13611.61554,8.9201-42.21431,7.33187-84.00684,14.56492-126.28214,21.95008,16.93173,21.46048,33.66444,42.49691,50.60026,63.87321,14.42286,18.28319,29.03528,36.43031,43.36259,54.78275,3.0564,4.34924-1.9186,9.48192-6.04252,6.24145-29.6088-20.07452-58.27148-39.89162-87.95815-60.15021,5.05408,18.58012,9.91757,36.18865,14.96601,54.60818,2.2833,4.49396-3.50592,9.89511-7.1605,5.38146-21.19272-23.19942-42.12095-46.57893-63.10713-69.97101-4.35184,10.1535-11.15773-1.65906-14.44804-6.39229-18.02664,39.32964-35.79498,78.09188-53.78423,117.33991-2.19976,3.6731-3.1511,11.66216-8.91436,9.94306-2.32702-.65898-3.27096-2.1663-3.01947-5.05407,2.61048-31.24719,5.69484-62.43176,8.12166-93.68872-6.19131,5.47396-11.73337,10.41084-17.68404,15.93289-1.88938,1.76519-3.94004,2.27802-6.17539,1.00133-2.24356-1.28135-2.08734-3.41056-1.56021-5.57881,5.06383-21.22582,10.46202-42.27782,15.32185-63.56024-35.06333,13.05035-69.71303,26.73703-104.78069,39.70258-2.08674.56593-3.96008.1648-4.94971-1.86863-.95995-1.97247-.75643-4.03436,1.04765-5.49009,30.31564-23.83208,60.70782-47.22709,91.18882-70.89208-20.41701-7.47338-40.78746-14.43375-61.27318-21.63908-5.10562-1.2741-4.78166-8.06144.44369-8.8102,5.0363-1.25001,9.99994-2.79412,15.60843-4.39228-20.30335-11.11727-42.78153-18.94038-62.19454-31.16827-1.98897-3.46558.48905-6.87604,4.7832-6.6427,9.1624.4979,18.31936,1.09538,27.47895,1.64527,18.634,1.00091,37.15773,2.46183,55.81037,3.20107Zm111.60038,125.93454c6.48031-7.99508,12.10908,5.38142,16.82799,9.07863,16.51014,18.21918,32.4755,36.15065,49.16104,54.32151-2.98443-12.14544-6.53174-23.89023-9.7362-35.95413-.53321-4.87154-6.85852-16.4614-2.5443-19.628,2.18602-1.72359,4.53575-.28647,6.41413,1.11234,24.58968,16.81323,49.1887,33.61279,73.77052,50.43755l.32259-.3533c-27.63107-34.86729-55.26215-69.73454-82.84101-104.53593-8.96161,11.46523-19.76559,21.04706-30.54544,30.72396-2.65627,2.3808-5.80736,2.60092-9.14542.90737-9.69418-4.54402-19.46111-8.76109-27.34863-16.23207-.99252-1.26832-1.54175-3.63798-3.10213-4.44523-11.69243-5.71122-23.42677-11.33703-35.16675-16.9505-2.64888-.97483-5.27527.46936-7.31105-2.22549-4.18761-4.26616-8.51656-8.40516-12.51004-12.84602-3.91975-3.67428-3.99544-11.19729-10.05947-12.17512-6.65215-2.70092-10.92276-9.67471-15.98701-14.57604-2.81171-3.27044-6.47183-6.44294-4.90239-11.7034-.58825-3.41149-2.50572-6.83935-3.30098-10.27907-.52995-1.9029-1.55977-2.38723-3.42253-2.4359-22.03419-1.14022-43.5689-2.59933-65.94164-3.86118,17.13222,8.91852,34.71844,16.79811,52.03847,25.35334,4.05621,1.19866,4.46035,7.32825-.04893,8.27174-4.85954,1.31471-9.69481,2.72026-14.99288,4.21636,18.82972,6.87566,37.67072,13.2778,56.55454,19.95748,4.64376,1.06671,4.71216,6.52363.92606,8.70937-24.77734,19.24641-49.62307,38.40549-74.3527,57.71368,28.6606-9.45235,57.03639-21.64252,85.59925-32.0143,4.13075-2.11292,7.15436,1.57475,6.13635,5.54413-4.61127,19.83319-9.42358,39.07682-14.10318,58.97049,6.09657-5.27821,10.81237-10.03879,16.83748-14.98291,3.5366-2.39409,5.75573-.82763,7.00683,3.0101-2.07317,27.33082-4.88164,54.77641-7.06206,82.15304,17.85069-35.93151,33.56519-73.16789,50.69062-109.54308,3.96484-8.06521,9.22766-.34762,12.1389,4.26058Zm-48.19398-171.29972c.06346.25993.12693.51987.19039.77979,3.88289.5266,8.76075.13073,12.17127,2.0258,6.02081,4.85793,11.86439,9.94512,17.59483,15.14476,1.82718,3.12675,3.50172,6.81137,6.95313,8.68489,8.23819,2.44131,13.55636,9.93735,20.27609,15.00845,4.67861,3.66499,2.22769,4.76199,4.02075,8.70872,5.84737,10.68144,11.71774,21.35009,17.5752,32.02591.96363,1.75639,1.73413,3.55019,4.25081,3.73207,8.3934,5.52184,12.43659,15.63773,17.22968,24.06462,1.72366,3.08327,4.00533,6.01625,2.79433,10.05764,38.61801-6.72423,76.87581-13.38573,115.13358-20.04723-33.68251-9.60136-67.33248-17.72955-101.13015-26.56166-1.87521-.48418-3.82911-.98374-4.3621-3.29582-.8366-4.82291,8.65711-9.81345,11.59652-13.487,4.31829-3.96644,8.61473-7.95642,13.00132-12.01156-8.31068-2.2743-3.11067-6.91521-.14416-10.93553-13.29347,3.89204-26.22834,8.02809-39.5262,11.72003-1.54879.4223-3.86808.03435-5.06725-.93002-.9175-.73784-1.19318-3.13797-.79366-4.5213,9.18086-31.80471,18.5932-63.5425,27.86636-95.32059-.23334-.18364-.46672-.36729-.7001-.55092-23.16398,26.64954-48.01877,52.05076-71.92214,78.11847-2.92641,3.12467-6.23351,2.37195-7.78603-1.61852-12.3302-31.56443-24.47085-63.20381-36.89819-94.7298-.73807,22.5583.65358,45.20717.66284,67.80793.04054,2.5124-.00886,4.96688-2.98711,6.13086Zm-83.31609-49.3558c-22.72846-19.83018-44.31511-41.02987-67.65654-60.17508-5.05612-4.08724-11.23064-4.2927-16.92074-1.9748-11.37785,3.85636-15.79254,20.12785-7.49372,29.12741,20.38622,21.90426,42.0356,42.60242,63.27874,63.66853,4.61979-15.01063,14.14808-24.97746,28.79226-30.64607Zm80.62243,161.09507c11.69692,6.197,24.02192,11.61844,35.97334,17.45938,3.17185.98048,10.85287-10.02614,13.85754-12.34169,8.12812-8.51654,16.23178-17.05633,24.39866-25.53525,1.22683-1.2737,1.45582-2.29021.54045-3.90923-6.43173-11.42368-12.68778-23.03395-19.06214-34.47319-12.6062,4.79783-53.04756,47.69144-55.70785,58.79997ZM47.24088,84.86341c-29.13154-27.20963,7.86426-67.65563,37.63488-40.70555-4.30209-9.15679-11.1391-15.54839-18.88116-21.66718-6.48708-5.72758-12.75928-11.82471-21.75718-13.45425-15.19748-3.8783-30.31727,4.30804-35.2512,19.15925-1.80599,10.19212-.27877,20.84521,6.39899,29.19268,5.28451,5.9911,11.13364,11.49637,16.25799,17.61398,4.20694,5.02238,10.04593,7.00252,15.59768,9.86106Zm124.95794,123.43176c.24923.07137.49845.14276.74768.21415,8.89712-19.10764,24.28102-34.90211,42.51715-45.37206-6.31486-2.07751-12.5119-3.82475-18.70128-5.59864-4.83232-1.38496-5.92598-2.69842-6.48499-7.66664-.38119-3.38788-2.09956-6.32892-4.26243-6.37785-16.37434.26326-32.58427,17.89594-34.70961,33.61673-.83659,11.42007,11.73645,3.02172,14.26089,12.15584,2.209,6.34344,4.42155,12.68568,6.63259,19.02847Zm6.50161-72.95283c-18.59487-15.23081-26.09974-32.9542-49.09082-10.7903-6.26706,6.78504-13.33472,18.63308-7.27889,27.55483,6.74629,7.47967,13.29634,14.36354,20.31501,21.74387,6.00281-18.77415,17.71576-31.48553,36.0547-38.5084Zm94.57802,66.3277c-3.1053-1.8745-10.06132-11.25565-13.48712-9.23697-16.96196,7.19023-29.6974,21.55971-41.4439,35.29645-4.05285,5.59886-16.89629,20.53063-13.64939,27.21804,3.26542,3.14991,6.57207,6.25576,9.51097,9.04539,15.55389-24.26816,35.31663-45.01189,59.06944-62.32291Zm31.9273,49.18792c-13.69663,14.41748-26.92987,28.34717-40.37295,42.49779,6.66324,5.59294,14.22576,8.50885,21.86368,12.26076,1.35185.67801,2.36285.83673,3.55184-.26964,4.67541-4.35051,9.65079-8.40787,14.05224-13.0159,4.92553-5.15665,9.34384-10.7972,13.99652-16.21544,1.10597-1.28798,1.2028-2.47854.30217-4.02486-4.13987-7.4828-7.68831-14.61559-13.3935-21.2327Zm-119.21446-15.23115c9.76175-26.60426,32.03642-47.86227,56.80152-60.883-3.3141-2.42138-6.72341-6.62564-10.71786-8.58537-14.2146,1.9228-25.45043,12.72341-35.21844,22.41978-6.57894,7.09184-26.61643,31.07383-17.94424,40.19059,2.44274,2.17403,4.7075,4.54679,7.07903,6.858Zm66.03614-49.25131c-4.14968-3.88417-7.26323-3.82117-11.78082-.94899-6.00439,3.70089-11.74733,7.73569-16.99854,12.5572-6.74292,6.47132-39.18764,38.4448-25.39085,45.56568,13.21333-23.29182,31.11118-42.14128,54.1702-57.1739Zm-31.65062-30.77515c-11.18536-11.13166-22.1021-21.996-32.8457-32.68803,2.58808,15.79678,8.7774,12.90213,10.91234,25.41569.23262.53754.66624,1.23638,1.15232,1.37802,6.83892,1.99276,13.70212,3.90226,20.78103,5.89432Z"/></g></svg>