<?xml version="1.0" encoding="UTF-8"?><svg id="Layer_2" xmlns="http://www.w3.org/2000/svg" viewBox="0 0 466 475.52591"><defs><style>.cls-1{fill:#fff;stroke-width:0px;}</style></defs><g id="Layer_1-2"><path class="cls-1" d="m124.28885,336.196c-1.54519,0-2.58777.04582-3.62522-.00787-4.74985-.24575-6.78299-3.71796-4.53345-7.98635,1.74622-3.31337,3.7516-6.48974,5.63403-9.73152.30106-.51845.56156-1.06049.95542-1.80963-6.59987-2.72528-5.74616-8.3863-5.03781-13.59384.74914-5.50735,2.33383-10.89714,3.40175-16.36795.20659-1.05829-.20582-2.27302-.47391-3.38138-.54818-2.26618-1.44807-4.47612-1.74328-6.76851-.60106-4.66754-.77982-9.38995-1.39643-14.0548-.16715-1.26471-.98701-2.80407-1.99888-3.54182-16.33481-11.90884-32.73938-23.72209-49.15936-35.5134-1.76473-1.26728-2.93123-2.66565-2.54711-4.96574.40912-2.44982,2.04193-3.3237,4.30552-3.85607,13.55976-3.18912,27.09306-6.49098,40.63468-9.75726.32207-.07768.63793-.18119,1.31235-.37468-3.58885-4.72018-7.03139-9.28069-10.50934-13.81398-4.3507-5.67088-8.79806-11.26934-13.04679-17.01532-.97256-1.31529-1.80319-3.10056-1.81888-4.6783-.0265-2.66479,2.17674-4.02269,5.74132-3.89481,7.75566.27826,15.50784.65288,23.2618.97986,11.49461.4847,22.98951.96227,34.82529,1.45716-.42192-.87778-.67858-1.58484-1.07198-2.20498-10.97259-17.29663-21.64757-34.79345-33.04193-51.80747-9.07389-13.54913-19.16508-26.41393-31.13342-37.60554-6.25536-5.84941-12.99002-11.1995-21.51683-13.37124-2.24992-.57304-4.84153-.37387-7.17352.04444-11.69038,2.097-19.6944,9.47871-26.00444,18.95571-4.9555,7.44262-11.86195,7.73977-18.01908,4.94082-8.0149-3.64346-11.70162-10.91569-10.1689-18.54771,2.26081-11.25746,5.57875-22.16346,10.62659-32.44767,1.96651-4.00647,4.96431-7.5172,7.58281-11.1891,4.84766-6.79781,10.36963-12.83372,17.93834-16.79905C44.63567,3.21945,53.20376.48246,62.37159.08429c22.31978-.96939,42.2289,6.51455,61.07713,17.72119,12.7259,7.56646,24.16829,16.72742,35.12141,26.65892,13.47004,12.21365,25.97013,25.34081,37.77951,39.1108,8.27891,9.65339,15.92431,19.85118,23.85102,29.80713.21697.27251.40575.56759.62409.83892,5.04949,6.27452,5.06274,6.3189,12.75285,4.11055.82583-.23715,1.60334-1.26148,2.05107-2.10743,7.87283-14.87508,15.69036-29.7795,23.52096-44.67696,3.327-6.32951,6.69457-12.63808,9.96239-18.99802,1.01777-1.98085,2.46163-3.27712,4.67423-3.10307,2.32552.18293,3.56555,1.71393,4.26674,3.9768,2.45243,7.9147,5.05463,15.78294,7.60454,23.66732.15048.46524.34121.91744.66414,1.77794,1.50691-1.91804,2.78249-3.53073,4.04602-5.15286,1.39239-1.78755,2.93903-3.23594,5.47777-2.70083,2.45441.51734,3.16873,2.32794,3.6747,4.52181,3.75937,16.30024,7.61991,32.57714,11.3604,48.88166.45633,1.98913,1.48126,2.93631,3.27404,3.84587,7.76275,3.93836,15.40659,8.11224,23.07431,12.23646.59243.31865,1.33256.82945,1.49758,1.39818.82679,2.84965,3.20237,3.01301,5.49109,3.46218,3.75682.73726,7.55899,1.33538,11.23308,2.37721,3.82284,1.08403,7.55267,2.53264,11.25522,3.99439,2.95721,1.16749,2.7968,4.14677,3.50521,6.98919,4.07423-.42958,8.19413-.85059,12.31088-1.30047,13.51654-1.47717,27.03096-2.97375,40.54878-4.43909,2.1116-.22891,4.32258-.39147,5.57903,1.83129,1.28695,2.27673.49102,4.28958-.95961,6.27919-8.31785,11.40859-16.57845,22.85898-24.85381,34.29858-.34622.47856-.64574.99102-1.19394,1.83855,5.26685.97719,10.26047,1.91951,15.26013,2.82832,14.82214,2.69427,29.64687,5.37414,44.46997,8.06283,2.14.38814,4.05672.98497,4.52739,3.58719.45939,2.54006-.70174,4.07933-2.68529,5.41839-16.75832,11.3132-33.47824,22.68338-50.23895,33.99305-2.2478,1.51675-3.87111,3.01791-4.6727,6.00137-1.23169,4.58431-3.62429,8.85622-5.52552,13.2601-.2764.6402-.79245,1.2797-.78594,1.9153.00987.96329.07596,2.20664.65571,2.8307,1.71488,1.84618,3.73826,3.40027,5.55814,5.15469,2.89106,2.78703,2.21366,6.38854-1.48448,7.90101-2.5809,1.05557-5.18227,2.07859-7.83034,2.94513-1.48892.48721-2.08072,1.39404-2.68851,2.80135-2.01047,4.65533-.52117,7.9789,2.53925,11.83307,15.87975,19.99818,31.40238,40.28047,47.04719,60.46553.37388.48238.73988.97305,1.07738,1.48123,1.25958,1.89669,1.60235,3.91514.31655,5.88432-1.25325,1.91936-3.21157,2.21994-5.32882,1.8205-9.23852-1.74297-18.47697-3.48619-27.71398-5.23718-17.87348-3.38813-35.74272-6.79918-53.62777-10.12486-.97296-.18091-2.3521-.00863-3.07211.5776-5.13238,4.17905-10.08853,8.57517-15.22851,12.74444-1.31695,1.06826-1.86562,2.10155-1.73424,3.73452.13965,1.73667.14646,3.49153.09324,5.23481-.12633,4.13659-3.02001,6.20543-6.90785,4.81468-2.12163-.75898-4.10869-1.89049-6.16992-2.82424-2.67941-1.21377-5.71283.50467-6.09652,3.37524-3.43203,25.67688-6.87955,51.35167-10.31826,77.02769-.27787,2.07479-.48865,4.159-.79344,6.2296-.32712,2.22218-1.23268,3.92761-3.72823,4.43007-2.3726.47778-4.08378-.38451-5.39759-2.24572-1.50818-2.13672-2.96277-4.31155-4.43061-6.47666-14.82323-21.86469-29.65642-43.72263-44.43704-65.61613-.91498-1.35529-1.84754-2.0573-3.54233-2.0957-2.78172-.06299-5.55408-.48296-8.33685-.60311-.64469-.02785-1.49244.381-1.9471.86878-5.41107,5.80522-10.80461,11.62818-16.1109,17.52922-1.6135,1.79438-3.28816,3.054-5.83717,2.61936-2.71432-.46285-3.47357-2.43468-4.07918-4.78546-1.78298-6.92122-3.77471-13.78853-5.56048-20.70904-.42662-1.65334-1.15998-2.32252-2.85158-2.21381-8.7627.56305-16.91335-2.06101-24.7852-5.38598-2.93407-1.23935-5.52554-3.62946-7.82619-5.94072-2.42299-2.4341-4.41016-2.7477-7.68092-1.36267-20.86514,8.83511-41.85539,17.37412-62.79912,26.02347-2.22188.91757-4.44413,1.33054-6.29455-.57133-1.90794-1.96106-1.17229-4.17301-.14609-6.29687,9.25808-19.16083,18.52087-38.31935,27.77461-57.48229.63691-1.31897,1.21225-2.6677,2.02114-4.45549Zm92.49081-213.63346c-3.34689-4.22028-6.46521-8.08602-9.513-12.00671-14.94844-19.22978-30.6569-37.75432-48.47431-54.45146-13.66074-12.80181-27.80372-24.8466-44.33749-33.86733-15.20802-8.29742-31.05155-14.10345-48.67145-13.80144-15.52576.26612-28.8135,5.23675-38.39467,18.10272-2.90825,3.90532-6.4486,7.50601-8.55657,11.8074-4.68027,9.55026-8.24202,19.57318-10.15364,30.12798-.8601,4.74894.51028,8.17656,4.94843,10.27244,3.60156,1.7008,5.78242,1.40883,7.88459-1.78762,4.45415-6.77274,10.01167-12.49907,16.73211-17.05062,1.28314-.86902,2.6354-1.73817,4.08272-2.24161,3.53623-1.23009,7.10716-2.41071,10.74205-3.28757,2.24067-.54053,4.66515-.86731,6.93623-.62483,5.89675.62958,11.23843,2.98915,16.22971,6.13613,9.779,6.16565,17.75103,14.34647,25.21779,23.0282,13.62386,15.84067,25.16083,33.20426,36.37639,50.77652,5.76662,9.03499,11.20627,18.27911,16.80205,27.44243,2.7351-2.26209,2.6577-2.24989,1.8021-7.69085-3.08964-19.64751-6.133-39.30232-9.16749-58.95846-.56584-3.66525,2.71619-6.27807,6.12423-4.91116.79878.32037,1.55126.79119,2.26762,1.27754,16.57438,11.25254,33.9641,21.31713,49.53308,34.04056.58026.47421,1.64533.81828,2.32103.6313,3.00172-.83064,5.94382-1.87714,9.26849-2.96355Zm-55.80859,44.75577c.10605.28065.21208.56128.31813.84192,2.33906,0,4.68567-.11924,7.0154.02834,3.37915.21408,6.88888.12574,10.08823,1.04988,6.42051,1.8546,10.61679,6.68081,14.08065,12.15331.40046.63264.60494,1.48187.63627,2.24157.22511,5.45871.60353,10.92531.47867,16.37898-.07677,3.35353-.31359,6.96638-1.61089,9.9733-2.57278,5.96325-5.80693,11.65704-9.01082,17.3245-1.7454,3.0875-3.41189,6.68671-6.12573,8.66337-6.02336,4.38729-12.66037,7.93855-19.11326,11.71764-.90529.53018-2.22417.71752-3.28045.56615-7.55422-1.08236-14.22294-3.85078-18.91691-10.28172-2.04127-2.79662-4.22461-5.48937-6.72367-8.721-3.13594,16.59758-3.98816,32.60628-1.23813,49.13809,2.19239-.31433,4.26805-.2571,6.06951-.9326,7.14883-2.68084,14.45275-5.10529,21.26843-8.493,50.81891-25.25956,98.36982-55.8067,143.6256-89.96323,8.81848-6.65569,17.05675-14.10484,25.32116-21.45991,2.73904-2.43768,4.77376-5.68773,7.02419-8.64735,1.01423-1.33379.4226-2.32784-1.00449-3.09971-4.82806-2.6114-9.53746-5.45317-14.43768-7.917-3.66214-1.84128-7.54884-3.23502-11.82807-5.03525.73956,2.37235,1.41555,3.99799,1.73638,5.69104.54864,2.89516,1.12782,5.82392,1.22738,8.75446.11228,3.30464-2.61671,4.94889-4.88534,6.66791-4.68781,3.55215-9.07187,7.97548-15.18088,8.69844-8.37397.99102-16.82578,1.32552-25.2459,1.91728-.59888.04209-1.24431-.01097-1.81301-.19261-7.92825-2.53237-15.85014-5.08499-23.76184-7.66869-.63907-.20869-1.28229-.58538-1.77104-1.04612-3.93871-3.71302-7.75475-7.47126-9.27544-12.98687-.59315-2.15139-.76583-4.00603.31798-6.01301,1.50301-2.78324,2.84484-5.65366,4.27518-8.52593-27.01574,5.97628-50.10374,18.34215-68.25961,39.17779Zm-19.2546,145.07576c2.24702-.21908,4.53095-.25141,6.73498-.68794,13.12277-2.59928,25.55962-7.40104,37.66-12.86955,24.75216-11.18621,48.49459-24.28971,71.42711-38.88992,30.64417-19.50988,60.18464-40.44932,85.84221-66.36,8.05787-8.13734,15.61277-16.78034,18.00525-28.7363,1.3057-6.52508.02814-7.21456-5.48981-8.64964-3.86759-1.00585-7.87359-1.4741-11.74959-2.45306-3.25545-.82224-5.27982-.82309-7.90774,2.46139-5.08009,6.3492-10.95356,12.2606-17.29664,17.35785-13.30406,10.69098-26.84477,21.13579-40.79093,30.96731-31.54111,22.23542-64.1318,42.85126-98.12492,61.15715-14.38033,7.74399-28.67734,15.93941-44.68705,19.81999-5.20152,1.26081-6.87942,3.63215-7.402,8.31804-.48971,4.39091-1.58009,8.7132-2.12852,13.10043-.10533.84259.86298,2.30973,1.70166,2.69868,4.47636,2.07606,9.26495,2.7892,14.20598,2.76557Zm109.45071-38.07242c6.46446-1.83188,12.57622-1.21876,19.01769.4271,8.46941,2.16409,14.73401,7.65437,21.6755,12.20137.41994.27504.78837.71902,1.02784,1.16642,3.80221,7.10401,8.25706,13.84234,9.61639,22.11891.7517,4.57677,1.29011,8.84896-.45297,13.26989-1.97735,5.01503-3.72922,10.11913-5.42098,14.7515,28.39397-16.27932,54.34787-36.52606,75.75241-61.9177-3.36728-.45383-6.47912-.86945-9.58972-1.29432-1.20722-.16495-2.48427-.15523-3.60094-.57098-1.87878-.69958-3.95837-1.32559-5.42085-2.59659-5.91991-5.14478-10.72175-11.38256-13.82877-18.48568-2.60802-5.96218-4.97541-12.48427-5.30566-18.86953-.37165-7.18538-1.75762-14.80538,1.79362-21.89362-26.69758,23.04682-55.38168,43.11218-85.26355,61.69323Zm3.51189,102.45297c4.60281-5.63371,9.06213-10.9827,13.40052-16.42819,6.07279-7.62249,12.13548-15.25576,18.04949-23.00147,4.17028-5.46186,6.792-11.70904,8.32973-18.39781.24471-1.06455.43873-2.23257.26314-3.28722-1.13689-6.82805-3.05042-13.38637-7.09331-19.14778-.84088-1.1983-1.3547-2.79774-2.46073-3.61018-6.30073-4.62821-12.49042-9.58451-20.63562-10.59909-2.26742-.28245-4.59581-.4969-6.85799-.30071-3.44685.29892-6.9603.63247-10.26702,1.57712-6.5831,1.88061-13.80861,2.35999-18.7392,8.20041-3.07639,3.6441-6.29198,7.18941-9.664,10.55963-4.20738,4.20508-3.9168,9.6543-3.6413,14.66226.3789,6.88771,2.42144,13.51212,7.78422,18.51512.25107.23421.42408.55183.63576.82881,10.2592,13.42489,20.51862,26.84963,30.89632,40.42908Zm196.89762-161.86907c-1.25118-.29465-1.91589-.48478-2.59294-.60577-18.93563-3.3832-37.87822-6.72787-56.80685-10.14978-9.73988-1.76074-19.44287-3.72688-29.18744-5.45981-4.27259-.7598-8.62711-.44467-11.42844,3.30029-5.3346,7.13152-9.38513,14.82204-8.37218,24.25245.21992,2.04777-.22292,4.16015-.25797,6.24452-.02169,1.28888.03664,2.60054.25378,3.86854,1.28136,7.48222,4.0779,14.35737,8.59427,20.46694,3.71156,5.02088,7.35607,10.05762,14.53437,10.52094,3.83453.24751,7.51226.05678,10.68173-2.06225,16.66188-11.13998,33.24072-22.40437,49.84539-33.6301,8.07556-5.45957,16.14445-10.92902,24.73627-16.74597Zm-354.37119-41.14644c.74742,1.07359,1.10689,1.6386,1.51365,2.1672,14.46035,18.7922,28.88152,37.61501,43.44732,56.32499,1.71985,2.20919,4.00237,4.22839,6.44664,5.55639,2.65726,1.44371,5.68384,2.45484,8.82592.34576,4.33012-2.90654,8.85818-5.51664,13.27133-8.30154.56328-.35545,1.06658-.93073,1.39346-1.51805,3.97259-7.13766,7.92721-14.2856,11.82293-21.46545.44106-.81291.67513-1.83233.69741-2.76338.12467-5.20759-.02198-10.42761.27619-15.62311.21626-3.76835-2.16289-6.08155-4.39783-8.18249-1.7141-1.61132-4.34454-2.95631-6.65251-3.10601-12.52262-.81222-25.07158-1.21887-37.61167-1.75993-12.79972-.55226-25.59968-1.09841-39.03283-1.67438Zm175.43748-109.99286c-4.81861,9.17327-9.32732,17.72359-13.80596,26.28963-8.39333,16.05334-16.79282,32.10362-25.09459,48.20432-.50603.98139-.6078,2.58537-.16521,3.56959,1.67789,3.73102,4.36631,6.63002,8.21145,8.25718,2.31824.98101,4.63232,2.03373,7.04322,2.72009,4.32871,1.23235,8.69138,2.88445,13.1086,3.13211,5.7672.32339,11.60879-.45855,17.40317-.9462,2.66232-.22409,5.54446-.34744,7.86906-1.46807,3.24881-1.5662,6.17005-3.89645,9.01355-6.17253.8886-.71128,1.66377-2.41188,1.47056-3.47359-.6191-3.40267-1.6019-6.75443-2.64807-10.06124-4.96305-15.68751-9.98897-31.35512-15.0022-47.0267-2.38589-7.45836-4.79347-14.90979-7.40356-23.02458Zm-60.03651,231.77336c-19.76136,9.77855-39.32726,19.19043-61.13158,24.08332,2.08876,1.5103,3.72513,2.64695,5.31114,3.8502,3.03646,2.30349,6.4446,4.2781,8.97804,7.04918,4.81626,5.26797,9.31249,10.86002,13.59556,16.57725,4.82038,6.43442,7.71649,13.73871,8.73381,22.24492,15.652,3.20808,31.19104-.26548,46.94503-3.8338-.32511-.48648-.49645-.77599-.69918-1.04144-7.03918-9.21515-13.89216-18.5815-21.18733-27.58901-5.14121-6.348-5.95358-13.87204-6.29488-21.3354-.30998-6.77839.07062-13.84164,5.60947-19.12898.05002-.0477.0311-.16776.13992-.87623Zm-34.46257,68.54073c-1.41047-5.61702-4.23445-10.04799-7.52542-14.41242-7.2991-9.68004-15.60231-18.16054-25.97812-24.53428-2.64774-1.62652-4.92413-1.1919-6.25727,1.504-1.61858,3.27315-3.29185,6.5196-4.87992,9.80739-8.33585,17.25771-16.65551,34.52324-24.97031,51.79112-.80159,1.66466-1.53131,3.36399-2.59101,5.70146,24.551-10.15245,48.39231-20.01138,72.20205-29.85727Zm125.02988,97.21205c3.36262-25.16604,6.62667-49.59407,9.96562-74.58278-18.037,3.67496-35.44863,7.22247-53.20757,10.84077,14.48007,21.34477,28.64507,42.22506,43.24195,63.74201Zm93.90091-198.32168c-.27154-.28069-.54308-.56136-.81465-.84205-2.70426,2.37022-5.78058,4.43337-8.03758,7.17282-5.14653,6.2468-9.36753,13.32459-14.91675,19.15709-9.41522,9.89583-19.01047,19.62911-29.85587,28.10992-18.3584,14.35583-37.54247,27.31666-58.43114,37.6982-1.11258.55292-2.05909,1.57092-2.88844,2.53933-2.15147,2.51231-4.19647,5.116-6.27968,7.68672-1.26082,1.55589-2.51641,3.11603-3.76908,4.67844-1.19116,1.48564-2.37551,2.97672-3.56287,4.4654.17971.1693.35938.33863.53909.50793,57.12742-20.36725,101.02549-56.00985,128.01698-111.17381Zm37.67014,102.67732c-14.84105-19.13339-29.29851-37.77219-43.60542-56.21697-8.85447,14.4051-17.61843,28.663-26.42115,42.98398,23.13788,4.37236,46.22213,8.73462,70.02658,13.23299Zm-195.90668,23.68445c-.01096.22183-.02194.44366-.0329.66549,5.02627.23481,10.09987.99942,15.06551.55519,4.94734-.44264,9.796-2.05794,14.66997-3.23379,4.39132-1.05944,8.72453-2.38374,13.14399-3.29761,6.6221-1.36942,13.29348-2.50285,19.95139-3.69485,3.2392-.57993,6.52007-.9475,9.73733-1.62425,3.70399-.7791,7.46531-1.50377,10.99738-2.80704,2.38573-.88029,4.37001-2.80234,6.61712-4.11571,8.83716-5.16527,17.25061-11.01039,23.87459-18.81337,4.87323-5.74066,8.87664-12.25825,12.95001-18.63301,5.38386-8.42563,10.54955-16.99578,15.61063-25.62044,1.6118-2.74664,2.59115-5.8651,3.85993-8.81344-1.5446,1.3346-2.72227,2.84007-3.74938,4.44229-7.12848,11.11939-16.35537,20.46956-26.09835,29.12639-12.16394,10.80787-25.39632,20.31001-39.54582,28.50016-11.91457,6.89641-24.29607,12.7327-37.13665,17.60574-7.44122,2.82395-14.99501,5.35407-22.52964,7.92384-.92594.3158-2.0489.09969-3.07696.05189-.6744-.03133-1.37029-.38285-2.00859-.28322-4.10722.64126-8.20122,1.36744-12.29957,2.06574Zm177.51171-226.89482c-.81587-.04706-1.2162-.12617-1.6035-.08438-14.63822,1.57925-29.27535,3.16903-43.91242,4.75902-2.4063.26138-1.73079,1.60188-1.03145,2.95656,3.11382,6.03178,6.44306,11.96526,9.25746,18.13402,1.78739,3.91767,4.01427,6.52208,8.61651,6.31962.84423-.03714,1.77778.1356,2.54286.48817,1.77417.81761,2.69145-.07089,3.63796-1.39927,3.69156-5.18095,7.44739-10.31598,11.17239-15.47311,3.70482-5.12924,7.4013-10.26455,11.32019-15.70063Zm-259.3607-60.55008c2.54781,16.73973,4.98262,32.73695,7.34838,48.28061,10.65656-7.04937,21.27046-14.0705,31.97531-21.15181-11.88609-9.95888-25.87341-17.64633-39.3237-27.1288Zm-79.8346,119.05168c13.70893,9.87692,26.91598,19.39223,40.07756,28.87481,1.09873-7.44539,1.41098-14.70465,3.3902-21.47568,1.84934-6.32674.24726-10.77494-3.95951-15.0959-.95189-.97771-1.62998-1.4651-3.05037-1.11581-11.90521,2.92764-23.83072,5.77245-36.45788,8.81259Zm102.13232,154.55274c-.08134.26282-.1627.52564-.24404.78843,5.102,3.93378,11.17739,5.8119,17.40352,6.54083,11.70682,1.37054,23.40562.62978,35.03768-1.43474,4.62619-.82111,9.35942-1.0383,14.56529-1.58518-1.8929-2.49984-3.35064-4.53009-4.94775-6.44385-.31217-.37409-1.21042-.51074-1.76065-.39299-4.14504.88688-8.30168,1.74805-12.3964,2.83684-10.94385,2.91006-22.10223,3.42656-33.33474,3.17224-1.28285-.02903-2.5797-.32808-3.83199-.65021-3.50764-.90226-6.99534-1.88211-10.49091-2.83137Zm113.6921-291.53291c-1.30906,2.37176-3.94477,3.34972-2.97273,6.33562,3.36661,10.34175,6.63309,20.71615,9.99181,31.06052.23688.72957.91316,1.31623,1.38514,1.96935.23433-.12434.46862-.24867.70292-.37302-2.9935-12.81671-5.98699-25.63342-9.10714-38.99247Zm-78.02035,308.2761c1.44788,5.36325,2.76348,10.23657,4.21396,15.60954,3.56828-3.93714,6.77582-7.47624,10.17669-11.22867-4.90786-1.49405-9.37743-2.85471-14.39065-4.38087Zm150.24286-212.25201c-2.39551,3.43461-4.66519,6.68882-6.78829,9.73289,4.07321.53787,8.2522,1.0897,12.71958,1.67963-2.08397-4.00983-4.00629-7.70855-5.93128-11.41252Zm-238.99133,147.42604c.15752.26033.31505.52065.47257.78101.70632-.50994,1.66365-.86817,2.0777-1.55474,2.4539-4.069,2.81856-5.45907,1.92875-6.91271-1.52963,2.62502-3.00432,5.15571-4.47902,7.68644Z"/></g></svg>