<?xml version="1.0" encoding="UTF-8"?><svg id="Layer_2" xmlns="http://www.w3.org/2000/svg" viewBox="0 0 452.66667 479.08326"><defs><style>.cls-1{fill:#fff;stroke-width:0px;}</style></defs><g id="Layer_1-2"><path class="cls-1" d="m45.51831,126.88929c52.05293,7.15603,103.79656,15.01783,155.79469,22.393,5.53533.03831,16.51482,4.0607,20.70525,1.3684,26.69593-18.50174,51.86936-38.88465,75.69598-60.96193,28.74292-26.63258,55.28462-55.31788,80.08028-85.63962C381.76912-.64081,388.64345.72385,394.11497.00188c4.4143-.06493,8.6047,1.56462,12.58039,3.351,19.74148,7.06875,35.2882,22.81941,44.87217,40.95648,1.72888,4.55447.94202,10.10531.7803,14.91462-37.92619,48.98362-91.94164,87.02047-143.17093,122.37611,17.33435,37.07212,35.22225,73.73389,52.35697,110.86865,2.31666,6.98627-1.67717,14.26676-2.47665,21.27636-.52597,2.66582-2.04467,4.42824-4.24917,5.90326-78.38227,52.52213-156.63598,105.23615-234.95861,157.84712-4.07094,2.73421-7.51174,1.92125-9.23426-2.31586C73.92276,381.61107,34.63534,288.85889.31312,194.45235c-2.42382-5.70328,9.93265-17.10773,12.71043-22.98214.97796-1.46977,1.72809-3.45748,1.68388-5.18453-.86658-25.20825,7.63286-49.22267,9.31498-74.16616.70155-10.07777-3.60028-18.14071-11.71623-24.14394-2.7165-2.00935-5.56951-3.88364-6.75381-7.32181-3.43686-7.05526,4.06163-15.76022,11.39764-12.23079,16.65258,7.13403,27.83662,22.73232,30.93661,40.38227,2.04885,12.61646-.99156,25.58923-2.36831,38.08405Zm-14.71639-53.74853c0,1.06689-.07392,1.32697.01064,1.51602,3.58144,8.0069,4.42741,16.41484,3.04461,24.95761-1.98028,12.23394-4.34673,24.40495-6.5115,36.60937-5.45721,32.117-1.28997,72.31504,20.6547,97.65317,8.53108,6.77743,18.06875,14.28368,29.44111,14.33691,18.97702,1.05555,38.06091.03588,56.67378-3.88284,79.93063-17.11737,153.61453-55.97582,218.07183-105.59049,14.72642-12.08008,94.84762-73.8788,90.06287-88.15235-1.18841-6.20731-5.97964-10.99821-8.94782-16.44076-2.89075-3.86596-7.13225-6.55431-10.75006-9.70256-3.84864-3.03532-7.15547-6.78888-11.99945-8.50354-10.87337-4.48989-22.6087-10.80359-30.69429,1.60563-64.92278,77.21608-142.31591,147.57466-235.52518,188.37143-21.78718,7.38007-66.30175,30.57125-85.76584,12.57446-20.73302-21.26959-28.59196-52.63495-24.69429-81.64451,1.4304-21.10341,10.53997-44.86059-3.07112-63.70754Zm-14.43845,111.4492c-1.81779,3.38526-5.58548,5.67306-5.14756,9.27752,33.75701,80.86126,66.79228,161.85187,100.58915,242.71727,44.52861-73.11107,88.75506-145.72605,132.98151-218.341-54.48555,22.12927-112.1271,46.33391-172.09892,39.95142-36.43506-5.57635-50.62663-41.35325-56.32418-73.60521Zm110.93448,246.49253c.14784.1556.2957.3112.44355.4668,74.35107-45.86557,148.70214-91.73114,223.24115-137.71268-16.87879-35.6684-33.68812-71.19004-50.50233-106.72199-12.74059,7.71338-27.2018,13.77225-38.66439,23.07592-44.8441,73.62831-89.74631,147.22062-134.51798,220.89195Zm79.01293-270.26286c-.08715-.19998-.17431-.39996-.26148-.59993-49.95882-7.14972-99.94949-14.22101-149.85454-21.6798-5.2059-.8758-8.36845-.19091-10.82193,4.58753-8.24569,15.75159,9.83433,72.72337,30.92071,71.62643,46.88865-5.71088,90.30811-29.47827,130.01723-53.93423Zm-87.10196,304.66091c76.12007-50.68138,151.76301-102.07574,227.80681-152.88238,2.11368-1.41628,2.95613-3.04032,2.76376-5.68994-77.05839,47.31737-154.01739,94.79079-230.91574,142.37012-.89631.56323-2.1072,1.80368-2.00812,2.58104.56472,4.43139,1.48262,8.81771,2.3533,13.62116Z"/></g></svg>