<?xml version="1.0" encoding="utf-8"?>
<!-- Generator: Adobe Illustrator 27.3.1, SVG Export Plug-In . SVG Version: 6.00 Build 0)  -->
<svg version="1.1" id="Layer_1" xmlns="http://www.w3.org/2000/svg" xmlns:xlink="http://www.w3.org/1999/xlink" x="0px" y="0px"
	 viewBox="0 0 1096.42041 1080" style="enable-background:new 0 0 1096.42041 1080;" xml:space="preserve">
<style type="text/css">
	.st0{clip-path:url(#SVGID_00000065032982332559446860000011143070387321718699_);fill:#202020;}
	.st1{clip-path:url(#SVGID_00000065032982332559446860000011143070387321718699_);fill:#1795D2;}
	.st2{clip-path:url(#SVGID_00000065032982332559446860000011143070387321718699_);fill:#FFFFFF;}
	.st3{fill:#202020;}
	.st4{clip-path:url(#SVGID_00000132779998824284818420000003317099811304934045_);fill:#202020;}
	.st5{clip-path:url(#SVGID_00000132779998824284818420000003317099811304934045_);fill:#1795D2;}
	.st6{clip-path:url(#SVGID_00000132779998824284818420000003317099811304934045_);fill:#FFFFFF;}
	.st7{clip-path:url(#SVGID_00000113349771906124344450000006532059258898384001_);fill:#202020;}
	.st8{clip-path:url(#SVGID_00000113349771906124344450000006532059258898384001_);fill:#FFFFFF;}
	.st9{fill:#1795D2;}
	.st10{fill:#FFFFFF;}
	.st11{fill:none;stroke:#4F4F4F;stroke-width:3;}
</style>
<g>
	<g>
		<defs>
			<rect id="SVGID_1_" x="481.10214" y="65.65783" width="134.26404" height="148.81897"/>
		</defs>
		<clipPath id="SVGID_00000116225158900521564870000006883394199931846295_">
			<use xlink:href="#SVGID_1_"  style="overflow:visible;"/>
		</clipPath>
		<path style="clip-path:url(#SVGID_00000116225158900521564870000006883394199931846295_);fill:#202020;" d="M489.67984,136.84496
			l30.655-30.6549c1.77899-1.77905,4.66498-1.77905,6.44403,0l30.65497,30.6549c1.78003,1.78003,1.78003,4.66504,0,6.44507
			l-30.65497,30.65393c-1.77905,1.78003-4.66504,1.78003-6.44403,0l-30.655-30.65393
			C487.89981,141.50999,487.89981,138.62498,489.67984,136.84496"/>
		<path style="clip-path:url(#SVGID_00000116225158900521564870000006883394199931846295_);fill:#202020;" d="M483.97244,206.69749
			l63.40799-63.40796c1.77899-1.77893,1.77899-4.66504,0-6.44495l-63.40799-63.40697
			c-2.871-2.87012-0.83801-7.77905,3.22299-7.77905h53.315c1.20898,0,2.36798,0.47998,3.22302,1.33496l69.85199,69.85107
			c1.78003,1.77991,1.78003,4.66602,0,6.44495l-69.85199,69.85303c-0.85504,0.85498-2.01404,1.33496-3.22302,1.33496h-53.31601
			C483.13443,214.47752,481.10144,209.56859,483.97244,206.69749"/>
		
			<rect x="504.43375" y="120.94365" transform="matrix(0.70711 -0.70711 0.70711 0.70711 54.30431 411.23657)" style="clip-path:url(#SVGID_00000116225158900521564870000006883394199931846295_);fill:#1795D2;" width="38.24739" height="38.24739"/>
		<polygon style="clip-path:url(#SVGID_00000116225158900521564870000006883394199931846295_);fill:#FFFFFF;" points="
			539.45374,72.76757 493.35672,72.76757 560.65674,140.06761 493.35672,207.36766 539.45374,207.36766 606.75372,140.06761 		"/>
	</g>
	<g>
		<path class="st3" d="M504.47046,235.0929h6.6001v36h10.85986v6h-17.45996V235.0929z"/>
		<path class="st3" d="M527.03003,274.93274c-1.72021-1.83936-2.58008-4.43994-2.58008-7.7998v-22.08008
			c0-3.35986,0.85986-5.95947,2.58008-7.7998c1.71973-1.83936,4.2002-2.76025,7.44043-2.76025s5.71973,0.9209,7.43945,2.76025
			c1.71973,1.84033,2.58008,4.43994,2.58008,7.7998v22.08008c0,3.35986-0.86035,5.96045-2.58008,7.7998
			c-1.71973,1.84033-4.19922,2.76025-7.43945,2.76025S528.74976,276.77307,527.03003,274.93274z M537.89038,267.55286v-22.91992
			c0-2.76025-1.14062-4.14014-3.41992-4.14014c-2.28027,0-3.41992,1.37988-3.41992,4.14014v22.91992
			c0,2.76025,1.13965,4.14014,3.41992,4.14014C536.74976,271.69299,537.89038,270.31311,537.89038,267.55286z"/>
		<path class="st3" d="M550.97046,274.96301c-1.68066-1.81982-2.52051-4.42969-2.52051-7.83008v-22.08008
			c0-3.39941,0.83984-6.00928,2.52051-7.83008c1.67969-1.81934,4.11914-2.72998,7.31934-2.72998s5.64062,0.91064,7.32031,2.72998
			c1.67969,1.8208,2.52051,4.43066,2.52051,7.83008v3.6001h-6.24023v-4.02002c0-2.76025-1.14062-4.14014-3.41992-4.14014
			c-2.28027,0-3.41992,1.37988-3.41992,4.14014v22.97998c0,2.7207,1.13965,4.08008,3.41992,4.08008
			c2.2793,0,3.41992-1.35938,3.41992-4.08008v-8.22021h-3.2998v-6h9.54004v13.74023c0,3.40039-0.84082,6.01025-2.52051,7.83008
			c-1.67969,1.82031-4.12012,2.72998-7.32031,2.72998S552.65015,276.78333,550.97046,274.96301z"/>
		<path class="st3" d="M574.48999,274.93274c-1.7207-1.83936-2.58008-4.43994-2.58008-7.7998v-22.08008
			c0-3.35986,0.85938-5.95947,2.58008-7.7998c1.71875-1.83936,4.19922-2.76025,7.43945-2.76025s5.71973,0.9209,7.44043,2.76025
			c1.71875,1.84033,2.58008,4.43994,2.58008,7.7998v22.08008c0,3.35986-0.86133,5.96045-2.58008,7.7998
			c-1.7207,1.84033-4.2002,2.76025-7.44043,2.76025S576.20874,276.77307,574.48999,274.93274z M585.34937,267.55286v-22.91992
			c0-2.76025-1.13965-4.14014-3.41992-4.14014c-2.2793,0-3.41992,1.37988-3.41992,4.14014v22.91992
			c0,2.76025,1.14062,4.14014,3.41992,4.14014C584.20972,271.69299,585.34937,270.31311,585.34937,267.55286z"/>
	</g>
	<polygon class="st3" points="836.45233,321.65918 825.53333,373.42725 814.6153,321.65918 781.86829,321.65918 
		781.86829,470.47717 814.2373,470.47717 813.71832,446.10718 837.3493,446.10718 836.83032,470.47717 869.19928,470.47717 
		869.19928,321.65918 	"/>
	<g>
		<defs>
			
				<rect id="SVGID_00000160896200560079388910000007800439869764479873_" x="91.48814" y="321.65784" width="913.49103" height="148.81897"/>
		</defs>
		<clipPath id="SVGID_00000122718163575998705230000009062992377858561941_">
			<use xlink:href="#SVGID_00000160896200560079388910000007800439869764479873_"  style="overflow:visible;"/>
		</clipPath>
		<path style="clip-path:url(#SVGID_00000122718163575998705230000009062992377858561941_);fill:#202020;" d="M934.2193,470.47705
			V321.65906h38.41602c20.90399,0,32.41797,11.71204,32.41797,32.979v89.23297c0,16.90802-10.44897,26.60602-28.66699,26.60602
			H934.2193z M972.83734,439.948v-85.12195c0-1.479-0.19604-2.25696-0.31805-2.59705c-0.138-0.02197-0.34497-0.04199-0.633-0.04199
			h-5.45099V439.948H972.83734z"/>
		<path style="clip-path:url(#SVGID_00000122718163575998705230000009062992377858561941_);fill:#202020;" d="M893.27301,470.47687
			c-18.33801,0-28.85498-10.927-28.85498-29.98004V351.8269c0-19.172,10.45001-30.16797,28.66901-30.16797h17.24597
			c18.21899,0,28.66803,10.99597,28.66803,30.16797v88.66992c0,19.05304-10.51703,29.98004-28.85504,29.98004H893.27301z
			 M896.67004,439.89282c0.21497,0.03101,0.51398,0.05505,0.91498,0.05505h9.16699c0.02002-0.20105,0.03302-0.45404,0.03302-0.76404
			v-86.23291c0-0.29907-0.01599-0.53101-0.03601-0.70801c-0.21503-0.03003-0.51404-0.05603-0.91602-0.05603h-8.435
			c-0.30499,0-0.54401,0.01599-0.72797,0.03699c-0.02106,0.18298-0.03601,0.42297-0.03601,0.72705v86.23291
			C896.63403,439.48285,896.64899,439.71686,896.67004,439.89282"/>
		<polygon style="clip-path:url(#SVGID_00000122718163575998705230000009062992377858561941_);fill:#1795D2;" points="
			825.53394,407.87762 842.21893,328.76868 862.0899,328.76868 862.0899,463.36768 844.0929,463.36768 845.9679,375.25867 
			832.46991,438.99664 818.59692,438.99664 805.09991,375.25867 806.97388,463.36768 788.97791,463.36768 788.97791,328.76868 
			808.84888,328.76868 		"/>
		<path style="clip-path:url(#SVGID_00000122718163575998705230000009062992377858561941_);fill:#1795D2;" d="M893.27325,463.367
			c-14.49902,0-21.745-7.62097-21.745-22.87v-88.67096c0-15.37195,7.185-23.05798,21.55896-23.05798h17.24603
			c14.36896,0,21.55798,7.68604,21.55798,23.05798v88.67096c0,15.24902-7.24902,22.87-21.74597,22.87H893.27325z
			 M897.58527,447.05798h9.185c4.74799,0,7.12396-2.62396,7.12396-7.87396v-86.23297c0-5.24902-2.68799-7.87402-8.06097-7.87402
			h-8.435c-5.24902,0-7.87402,2.625-7.87402,7.87402v86.23297C889.52423,444.43402,892.20923,447.05798,897.58527,447.05798"/>
		<path style="clip-path:url(#SVGID_00000122718163575998705230000009062992377858561941_);fill:#1795D2;" d="M941.32965,463.367
			V328.76807h31.30603c16.87195,0,25.30798,8.62402,25.30798,25.87v89.23297c0,13-7.18903,19.49597-21.55798,19.49597H941.32965z
			 M959.32568,447.05798h13.49695c4.74805,0,7.12402-1.99799,7.12402-5.99896v-86.23297c0-6.49695-2.68903-9.74902-8.06097-9.74902
			h-12.56V447.05798z"/>
		<path style="clip-path:url(#SVGID_00000122718163575998705230000009062992377858561941_);fill:#202020;" d="M662.24133,392.8446
			l30.65399-30.65491c1.77997-1.77905,4.66595-1.77905,6.44501,0l30.65497,30.65491c1.77899,1.78003,1.77899,4.66504,0,6.44501
			l-30.65497,30.65399c-1.77905,1.78003-4.66504,1.78003-6.44501,0l-30.65399-30.65399
			C660.4613,397.50964,660.4613,394.62463,662.24133,392.8446"/>
		<path style="clip-path:url(#SVGID_00000122718163575998705230000009062992377858561941_);fill:#202020;" d="M656.53406,462.69702
			l63.40698-63.40698c1.77997-1.77997,1.77997-4.66602,0-6.44501l-63.40698-63.40692
			c-2.87103-2.87109-0.83801-7.78003,3.22198-7.78003h53.31598c1.20898,0,2.36798,0.47998,3.22198,1.33496l69.85205,69.85199
			c1.78101,1.77899,1.78101,4.66504,0.00098,6.44501l-69.85303,69.85199c-0.854,0.854-2.013,1.33502-3.22198,1.33502h-53.31598
			C655.69604,470.47705,653.66302,465.56805,656.53406,462.69702"/>
		
			<rect x="676.99524" y="376.94312" transform="matrix(0.70711 -0.70711 0.70711 0.70711 -76.17279 608.23657)" style="clip-path:url(#SVGID_00000122718163575998705230000009062992377858561941_);fill:#1795D2;" width="38.2474" height="38.2474"/>
		<polygon style="clip-path:url(#SVGID_00000122718163575998705230000009062992377858561941_);fill:#FFFFFF;" points="
			712.01495,328.76746 665.91791,328.76746 733.2179,396.0675 665.91791,463.36646 712.01495,463.36646 779.3139,396.0675 		"/>
	</g>
	<polygon class="st3" points="145.99664,321.65918 135.07863,373.42529 124.16064,321.65918 91.48864,321.65918 91.48864,470.47717 
		123.78264,470.47717 123.26364,446.10718 146.89363,446.10718 146.37463,470.47717 178.74364,470.47717 178.74364,321.65918 	"/>
	<polygon class="st3" points="629.54596,321.65918 618.62695,373.42725 607.70892,321.65918 574.96191,321.65918 
		574.96191,470.47717 607.33093,470.47717 606.81195,446.10718 630.44293,446.10718 629.92395,470.47717 662.29193,470.47717 
		662.29193,321.65918 	"/>
	<g>
		<defs>
			
				<rect id="SVGID_00000117637022419723982320000012166839019087973761_" x="91.48814" y="321.65784" width="913.49103" height="148.81897"/>
		</defs>
		<clipPath id="SVGID_00000014614059236479737190000010470121298018197635_">
			<use xlink:href="#SVGID_00000117637022419723982320000012166839019087973761_"  style="overflow:visible;"/>
		</clipPath>
		<path style="clip-path:url(#SVGID_00000014614059236479737190000010470121298018197635_);fill:#202020;" d="M202.81894,470.47687
			c-18.339,0-28.856-10.927-28.856-29.98004V351.8269c0-19.172,10.44901-30.16797,28.668-30.16797h17.246
			c18.21899,0,28.668,10.99597,28.668,30.16797v88.66992c0,19.05304-10.517,29.98004-28.855,29.98004H202.81894z
			 M206.21594,439.89282c0.215,0.03101,0.51399,0.05505,0.91399,0.05505h9.16701c0.019-0.20105,0.033-0.45404,0.033-0.76404
			v-86.23291c0-0.29907-0.01601-0.53101-0.037-0.70801c-0.215-0.03003-0.51401-0.05603-0.914-0.05603h-8.436
			c-0.30499,0-0.54399,0.01599-0.72699,0.03699c-0.02101,0.18298-0.037,0.42297-0.037,0.72705v86.23291
			C206.17894,439.48285,206.19493,439.71686,206.21594,439.89282"/>
		<polygon style="clip-path:url(#SVGID_00000014614059236479737190000010470121298018197635_);fill:#202020;" points="
			298.72565,470.47723 299.24463,446.10626 275.61462,446.10626 276.13263,470.47723 243.76465,470.47723 243.76465,321.6593 
			276.51163,321.6593 287.42862,373.42529 298.34662,321.6593 331.09363,321.6593 331.09363,470.47723 		"/>
		<polygon style="clip-path:url(#SVGID_00000014614059236479737190000010470121298018197635_);fill:#202020;" points="
			326.31363,470.47723 326.31363,321.6593 385.14862,321.6593 385.14862,352.18726 358.5296,352.18726 358.5296,378.83527 
			382.14862,378.83527 382.14862,409.36328 358.5296,409.36328 358.5296,439.94824 385.14862,439.94824 385.14862,470.47723 		"/>
		<polygon style="clip-path:url(#SVGID_00000014614059236479737190000010470121298018197635_);fill:#202020;" points="
			417.67334,470.47723 417.67334,437.65326 412.58432,421.49524 412.58432,470.47723 380.36832,470.47723 380.36832,321.6593 
			410.78033,321.6593 417.67334,344.88135 417.67334,321.6593 449.88834,321.6593 449.88834,470.47723 		"/>
		<path style="clip-path:url(#SVGID_00000014614059236479737190000010470121298018197635_);fill:#202020;" d="M535.70496,470.47723
			c-10.70703,0-28.66904-4.26099-28.66904-32.79199V321.6593h32.215v116.58795c0,0.83502,0.08099,1.36401,0.15399,1.66901
			c0.14905,0.01801,0.35004,0.03198,0.61005,0.03198h7.37598c0.06897-0.34601,0.13702-0.89301,0.13702-1.70099V321.6593h32.21497
			v116.21295c0,28.36902-18.078,32.60498-28.854,32.60498H535.70496z"/>
		<polygon style="clip-path:url(#SVGID_00000014614059236479737190000010470121298018197635_);fill:#202020;" points="
			462.35504,470.47723 462.35504,352.18726 445.10803,352.18726 445.10803,321.6593 511.81702,321.6593 511.81702,352.18726 
			494.57004,352.18726 494.57004,470.47723 		"/>
		<polygon style="clip-path:url(#SVGID_00000014614059236479737190000010470121298018197635_);fill:#FFFFFF;" points="
			135.07854,407.87762 151.76254,328.76868 171.63454,328.76868 171.63454,463.36768 153.63754,463.36768 155.51154,375.25867 
			142.01454,438.99664 128.14154,438.99664 114.64554,375.25867 116.51954,463.36768 98.52254,463.36768 98.52254,328.76868 
			118.39454,328.76868 		"/>
		<path style="clip-path:url(#SVGID_00000014614059236479737190000010470121298018197635_);fill:#FFFFFF;" d="M202.81773,463.367
			c-14.49899,0-21.746-7.62097-21.746-22.87v-88.67096c0-15.37195,7.186-23.05798,21.55901-23.05798h17.246
			c14.371,0,21.558,7.68604,21.558,23.05798v88.67096c0,15.24902-7.24899,22.87-21.745,22.87H202.81773z M207.12975,447.05798
			h9.18599c4.748,0,7.123-2.62396,7.123-7.87396v-86.23297c0-5.24902-2.689-7.87402-8.061-7.87402h-8.43599
			c-5.24901,0-7.873,2.625-7.873,7.87402v86.23297C199.06874,444.43402,201.75475,447.05798,207.12975,447.05798"/>
		<polygon style="clip-path:url(#SVGID_00000014614059236479737190000010470121298018197635_);fill:#FFFFFF;" points="
			287.42905,407.87762 304.11304,328.76868 323.98505,328.76868 323.98505,463.36768 305.98804,463.36768 307.86203,375.25867 
			294.36502,438.99664 280.49203,438.99664 266.99603,375.25867 268.87003,463.36768 250.87305,463.36768 250.87305,328.76868 
			270.74503,328.76868 		"/>
		<polygon style="clip-path:url(#SVGID_00000014614059236479737190000010470121298018197635_);fill:#FFFFFF;" points="
			333.42273,463.36719 333.42273,328.76819 378.03873,328.76819 378.03873,345.07727 351.41971,345.07727 351.41971,385.94519 
			375.0397,385.94519 375.0397,402.25421 351.41971,402.25421 351.41971,447.05823 378.03873,447.05823 378.03873,463.36719 		"/>
		<polygon style="clip-path:url(#SVGID_00000014614059236479737190000010470121298018197635_);fill:#FFFFFF;" points="
			424.78232,393.81769 424.78232,328.7688 442.7793,328.7688 442.7793,463.3667 424.78232,463.3667 424.78232,436.55969 
			405.4743,375.25879 405.4743,463.3667 387.47729,463.3667 387.47729,328.7688 405.4743,328.7688 		"/>
		<polygon style="clip-path:url(#SVGID_00000014614059236479737190000010470121298018197635_);fill:#FFFFFF;" points="
			487.46024,345.07751 487.46024,463.36755 469.46423,463.36755 469.46423,345.07751 452.21722,345.07751 452.21722,328.76855 
			504.70721,328.76855 504.70721,345.07751 		"/>
		<path style="clip-path:url(#SVGID_00000014614059236479737190000010470121298018197635_);fill:#FFFFFF;" d="M572.63306,328.76819
			v109.104c0,16.99805-7.24902,25.495-21.74402,25.495h-15.185c-14.37402,0-21.55902-8.55896-21.55902-25.68195V328.76819h17.99603
			v109.479c0,5.875,2.625,8.81104,7.87299,8.81104h7.31299c4.87299,0,7.31097-2.93604,7.31097-8.81104v-109.479H572.63306z"/>
		<polygon style="clip-path:url(#SVGID_00000014614059236479737190000010470121298018197635_);fill:#FFFFFF;" points="
			618.62744,407.87762 635.31244,328.76868 655.18341,328.76868 655.18341,463.36768 637.1864,463.36768 639.0614,375.25867 
			625.56342,438.99664 611.69043,438.99664 598.19342,375.25867 600.06738,463.36768 582.07141,463.36768 582.07141,328.76868 
			601.94238,328.76868 		"/>
	</g>
	<g>
		<path class="st3" d="M459.86206,497.0929h-6.8999v-6h20.3999v6h-6.8999v36h-6.6001V497.0929z"/>
		<path class="st3" d="M476.54175,491.0929h6.6001v42h-6.6001V491.0929z"/>
		<path class="st3" d="M493.22095,497.0929h-6.8999v-6h20.3999v6h-6.8999v36h-6.6001V497.0929z"/>
		<path class="st3" d="M509.90112,491.0929h6.6001v36h10.85986v6h-17.45996V491.0929z"/>
		<path class="st3" d="M530.54077,491.0929h18v6h-11.3999v11.1001h9.06006v6h-9.06006v12.8999h11.3999v6h-18V491.0929z"/>
		<path class="st3" d="M554.38989,530.9928c-1.66016-1.7998-2.49023-4.33936-2.49023-7.62012v-22.55957
			c0-3.27979,0.83008-5.82031,2.49023-7.62012c1.65918-1.80029,4.06934-2.7002,7.22949-2.7002s5.57031,0.8999,7.23047,2.7002
			c1.65918,1.7998,2.49023,4.34033,2.49023,7.62012v4.43994h-6.24023v-4.86035c0-2.59961-1.10059-3.8999-3.2998-3.8999
			c-2.2002,0-3.2998,1.30029-3.2998,3.8999v23.45996c0,2.56055,1.09961,3.84033,3.2998,3.84033
			c2.19922,0,3.2998-1.27979,3.2998-3.84033v-6.41992h6.24023v5.93994c0,3.28076-0.83105,5.82031-2.49023,7.62012
			c-1.66016,1.80029-4.07031,2.7002-7.23047,2.7002S556.04907,532.79309,554.38989,530.9928z"/>
		<path class="st3" d="M580.39966,491.0929h8.93945l6.83984,42h-6.59961l-1.2002-8.33984v0.11963h-7.5l-1.2002,8.22021h-6.11914
			L580.39966,491.0929z M587.59888,519.17297l-2.93945-20.76025h-0.12012l-2.87988,20.76025H587.59888z"/>
		<path class="st3" d="M599.35864,491.0929h9.78027c3.39941,0,5.87988,0.79053,7.44043,2.37012
			c1.55957,1.58057,2.33984,4.01074,2.33984,7.29004v2.58008c0,4.35986-1.44043,7.12012-4.32031,8.27979v0.12012
			c1.59961,0.47998,2.73047,1.46045,3.38965,2.93994c0.66016,1.48047,0.99023,3.46045,0.99023,5.93994v7.37988
			c0,1.2002,0.03906,2.17041,0.12012,2.91016c0.08008,0.74072,0.2793,1.46973,0.59961,2.18994h-6.71973
			c-0.24023-0.67969-0.40039-1.31982-0.47949-1.91992c-0.08105-0.6001-0.12012-1.68018-0.12012-3.24023v-7.67969
			c0-1.91992-0.31055-3.25977-0.93066-4.02002c-0.62012-0.75928-1.68945-1.14014-3.20996-1.14014h-2.2793v18h-6.60059V491.0929z
			 M608.35864,509.0929c1.32031,0,2.31055-0.33936,2.9707-1.02002c0.65918-0.67969,0.98926-1.81982,0.98926-3.41992v-3.24023
			c0-1.51953-0.26953-2.61914-0.80957-3.2998c-0.54004-0.67969-1.39062-1.02002-2.5498-1.02002h-3v12H608.35864z"/>
		<path class="st3" d="M623.53833,491.0929h10.08008c3.2793,0,5.73926,0.88037,7.37988,2.64014
			c1.63965,1.76025,2.45996,4.34033,2.45996,7.73975v21.24023c0,3.40039-0.82031,5.97998-2.45996,7.73975
			c-1.64062,1.76074-4.10059,2.64014-7.37988,2.64014h-10.08008V491.0929z M633.49829,527.0929
			c1.08008,0,1.91016-0.31982,2.49023-0.95996c0.5791-0.63965,0.87012-1.68018,0.87012-3.12012v-21.83984
			c0-1.43994-0.29102-2.47998-0.87012-3.12012c-0.58008-0.63916-1.41016-0.95996-2.49023-0.95996h-3.35938v30H633.49829z"/>
	</g>
	<g>
		<path class="st3" d="M703.17017,1033.37L656.54028,1080H400.9502l-46.63-46.63c-9.16998-9.17004-9.16998-24.02002,0-33.19
			l148.54004-148.53998l9.28998-9.29004c9.14001-9.13,23.92999-9.15997,33.09998-0.08002l158.08002,158.08002
			C712.3302,1009.52997,712.27026,1024.26001,703.17017,1033.37z"/>
		<path class="st3" d="M992.29028,1033.37L945.66016,1080H604.78021l46.62994-46.63
			c9.11011-9.10999,9.16003-23.85004,0.15002-33.03003l-122.81-122.82001l-25.88995-25.87994L324.93018,673.70996
			c-14.77997-14.77997-4.31-40.04999,16.59003-40.04999h274.52008c6.21997,0,12.18994,2.47003,16.58984,6.87l359.66016,359.65002
			C1001.4502,1009.34998,1001.4502,1024.20996,992.29028,1033.37z"/>
		<polygon class="st9" points="668.00024,1016.77997 651.41016,1033.37 604.78021,1080 452.72021,1080 389.50018,1016.77997 
			528.75018,877.51996 651.56018,1000.33997 		"/>
		<polygon class="st10" points="957.11023,1016.77997 893.89014,1080 656.54028,1080 703.17017,1033.37 719.76025,1016.77997 
			545.25018,842.26996 373.25018,670.26001 610.59021,670.26001 		"/>
		<g>
			<path class="st3" d="M29.05022,858.89001l0.48999-4.76001h-3.11005L27.4702,844.31h-5.31L21.13017,854.13h-4.32996
				l1.02997-9.82001H12.5302L11.49022,854.13H8.44017l-0.48999,4.76001h3.04999l-1.14996,11.15997H6.86022L6.37016,874.81h2.99005
				L8.08019,887h5.29999l1.28003-12.19h4.33002L17.71019,887h5.31l1.28003-12.19h3.10999l0.48999-4.76001h-3.10999l1.14996-11.15997
				H29.05022z M19.48021,870.04999h-4.33002l1.15997-11.15997h4.33002L19.48021,870.04999z"/>
			<path class="st3" d="M50.76018,850.40997V844.31H33.02019V887h6.70001v-18.60004h8.65997v-6.09998H39.7202v-11.89001H50.76018z"
				/>
			<path class="st3" d="M71.74022,850.40997V844.31h-17.75V887h6.70996v-18.60004h8.66003v-6.09998h-8.66003v-11.89001H71.74022z"/>
			<path class="st3" d="M92.7202,850.40997V844.31h-17.75V887h6.70996v-18.60004h8.66003v-6.09998h-8.66003v-11.89001H92.7202z"/>
			<path class="st3" d="M113.69017,850.40997V844.31H95.95018V887h6.71002v-18.60004h8.65997v-6.09998h-8.65997v-11.89001H113.69017
				z"/>
			<path class="st3" d="M134.67021,850.40997V844.31h-17.75V887h6.70996v-18.60004h8.66003v-6.09998h-8.66003v-11.89001H134.67021z"
				/>
			<path class="st3" d="M155.65019,850.40997V844.31h-17.75V887h6.71002v-18.60004h8.65997v-6.09998h-8.65997v-11.89001H155.65019z"
				/>
		</g>
		<g>
			<path class="st3" d="M29.05022,929.39001l0.48999-4.76001h-3.11005L27.4702,914.81h-5.31L21.13017,924.63h-4.32996
				l1.02997-9.82001H12.5302L11.49022,924.63H8.44017l-0.48999,4.76001h3.04999l-1.14996,11.15997H6.86022L6.37016,945.31h2.99005
				L8.08019,957.5h5.29999l1.28003-12.19h4.33002l-1.28003,12.19h5.31l1.28003-12.19h3.10999l0.48999-4.76001h-3.10999
				l1.14996-11.15997H29.05022z M19.48021,940.54999h-4.33002l1.15997-11.15997h4.33002L19.48021,940.54999z"/>
			<path class="st3" d="M39.54021,950.48999c0-1.5,0.34998-2.91998,1.03998-4.23999s2.03003-3.04004,4.02002-5.15002
				c3.04999-3.20996,5.20001-6.06,6.44-8.53998c1.23999-2.48004,1.85999-5.02002,1.85999-7.62
				c0-3.46002-0.85999-6.11005-2.56-7.96002c-1.71002-1.84998-4.19-2.77002-7.44-2.77002c-3.26001,0-5.73999,0.92004-7.44,2.77002
				c-1.71002,1.84998-2.57001,4.5-2.57001,7.96002v4.13995h6.35004v-4.56995c0-2.81,1.15997-4.21002,3.46997-4.21002
				c1.14001,0,2,0.35999,2.59003,1.07001c0.58997,0.70996,0.88995,1.97998,0.88995,3.81c0,2.03998-0.47998,3.98999-1.42999,5.85999
				c-0.95996,1.87-2.67999,4.12-5.15997,6.76001c-2.52002,2.65002-4.27002,5.06-5.23999,7.22998
				c-0.98004,2.17999-1.47003,4.79004-1.47003,7.84003v4.63h19.40002v-6.10004h-12.75V950.48999z"/>
			<path class="st3" d="M74.67021,917.01001c-1.75-1.87-4.27002-2.80005-7.57001-2.80005c-3.29004,0-5.81,0.93005-7.56,2.80005
				s-2.62,4.50995-2.62,7.92999v22.44c0,3.40997,0.87,6.06,2.62,7.92999s4.26996,2.79999,7.56,2.79999
				c3.29999,0,5.82001-0.92999,7.57001-2.79999c1.73999-1.87,2.62-4.52002,2.62-7.92999v-22.44
				C77.29021,921.51996,76.4102,918.88,74.67021,917.01001z M70.58018,947.81c0,2.79999-1.15997,4.20001-3.47998,4.20001
				c-2.31,0-3.47003-1.40002-3.47003-4.20001v-23.29999c0-2.81,1.16003-4.21002,3.47003-4.21002
				c2.32001,0,3.47998,1.40002,3.47998,4.21002V947.81z"/>
			<path class="st3" d="M88.33018,950.48999c0-1.5,0.34003-2.91998,1.03003-4.23999s2.02997-3.04004,4.02997-5.15002
				c3.04999-3.20996,5.19-6.06,6.42999-8.53998c1.23999-2.48004,1.85999-5.02002,1.85999-7.62
				c0-3.46002-0.84998-6.11005-2.56-7.96002c-1.70996-1.84998-4.19-2.77002-7.44-2.77002s-5.72998,0.92004-7.43994,2.77002
				c-1.71002,1.84998-2.56006,4.5-2.56006,7.96002v4.13995h6.34003v-4.56995c0-2.81,1.15997-4.21002,3.47998-4.21002
				c1.13,0,2,0.35999,2.59003,1.07001c0.58997,0.70996,0.88,1.97998,0.88,3.81c0,2.03998-0.47998,3.98999-1.42999,5.85999
				c-0.96002,1.87-2.67004,4.12-5.15002,6.76001c-2.52002,2.65002-4.27002,5.06-5.25,7.22998
				c-0.96997,2.17999-1.46002,4.79004-1.46002,7.84003v4.63h19.39001v-6.10004H88.33018V950.48999z"/>
			<path class="st3" d="M123.45018,917.01001c-1.75-1.87-4.27002-2.80005-7.56-2.80005s-5.82001,0.93005-7.56,2.80005
				c-1.75,1.87-2.62,4.50995-2.62,7.92999v22.44c0,3.40997,0.87,6.06,2.62,7.92999c1.73999,1.87,4.27002,2.79999,7.56,2.79999
				s5.81-0.92999,7.56-2.79999s2.62-4.52002,2.62-7.92999v-22.44C126.07018,921.51996,125.20018,918.88,123.45018,917.01001z
				 M119.36021,947.81c0,2.79999-1.15002,4.20001-3.47003,4.20001s-3.47998-1.40002-3.47998-4.20001v-23.29999
				c0-2.81,1.15997-4.21002,3.47998-4.21002s3.47003,1.40002,3.47003,4.21002V947.81z"/>
			<path class="st3" d="M137.11021,950.48999c0-1.5,0.34998-2.91998,1.03998-4.23999s2.02997-3.04004,4.02002-5.15002
				c3.04999-3.20996,5.19-6.06,6.44-8.53998c1.22998-2.48004,1.84998-5.02002,1.84998-7.62c0-3.46002-0.84998-6.11005-2.56-7.96002
				c-1.70001-1.84998-4.17999-2.77002-7.44-2.77002c-3.25,0-5.72998,0.92004-7.44,2.77002c-1.70001,1.84998-2.56,4.5-2.56,7.96002
				v4.13995h6.34998v-4.56995c0-2.81,1.15002-4.21002,3.47003-4.21002c1.14001,0,2,0.35999,2.58997,1.07001
				c0.59003,0.70996,0.89001,1.97998,0.89001,3.81c0,2.03998-0.47998,3.98999-1.44,5.85999
				c-0.95001,1.87-2.66998,4.12-5.14996,6.76001c-2.52002,2.65002-4.27002,5.06-5.24005,7.22998
				c-0.97998,2.17999-1.46997,4.79004-1.46997,7.84003v4.63h19.39001v-6.10004h-12.73999V950.48999z"/>
			<path class="st3" d="M172.24022,917.01001c-1.75-1.87-4.27002-2.80005-7.57001-2.80005c-3.29004,0-5.81,0.93005-7.56,2.80005
				s-2.62,4.50995-2.62,7.92999v22.44c0,3.40997,0.87,6.06,2.62,7.92999s4.26996,2.79999,7.56,2.79999
				c3.29999,0,5.82001-0.92999,7.57001-2.79999c1.73999-1.87,2.62-4.52002,2.62-7.92999v-22.44
				C174.86021,921.51996,173.98021,918.88,172.24022,917.01001z M168.15019,947.81c0,2.79999-1.15997,4.20001-3.47998,4.20001
				c-2.31,0-3.47003-1.40002-3.47003-4.20001v-23.29999c0-2.81,1.16003-4.21002,3.47003-4.21002
				c2.32001,0,3.47998,1.40002,3.47998,4.21002V947.81z"/>
		</g>
		<g>
			<path class="st3" d="M29.05022,999.89001l0.48999-4.76001h-3.11005L27.4702,985.31h-5.31L21.13017,995.13h-4.32996
				l1.02997-9.82001H12.5302L11.49022,995.13H8.44017l-0.48999,4.76001h3.04999l-1.14996,11.15997H6.86022L6.37016,1015.81h2.99005
				L8.08019,1028h5.29999l1.28003-12.19h4.33002L17.71019,1028h5.31l1.28003-12.19h3.10999l0.48999-4.76001h-3.10999
				l1.14996-11.15997H29.05022z M19.48021,1011.04999h-4.33002l1.15997-11.15997h4.33002L19.48021,1011.04999z"/>
			<path class="st3" d="M44.6002,985.31c-0.53003,1.42999-1.14001,2.51996-1.83002,3.26996S41.1602,989.87,40.00017,990.19
				c-1.15997,0.32996-2.69,0.48999-4.60999,0.48999V995.44h7.02002V1028h6.70996v-42.69H44.6002z"/>
			<path class="st3" d="M76.56017,1008.94c-0.69995-1.44-1.81-2.57001-3.35999-3.38v-0.12
				c2.77002-1.54999,4.15002-4.35004,4.15002-8.42004V995.25c0-3.41003-0.88-6.02002-2.65002-7.83002
				s-4.29999-2.71002-7.59998-2.71002c-3.29004,0-5.82001,0.90002-7.59003,2.71002c-1.76996,1.81-2.64996,4.41998-2.64996,7.83002
				v1.76996c0,2.12006,0.33997,3.86005,1.00995,5.22003c0.67004,1.35999,1.71002,2.42999,3.14001,3.20001v0.12
				c-1.54999,0.81-2.66998,1.94-3.35999,3.38c-0.69,1.45001-1.03003,3.22998-1.03003,5.33997v3.78003
				c0,3.41998,0.90002,6.02997,2.71002,7.8399c1.81,1.81006,4.40002,2.71008,7.77002,2.71008
				c3.38,0,5.96997-0.90002,7.77997-2.71008c1.81-1.80994,2.71002-4.41992,2.71002-7.8399v-3.78003
				C77.59019,1012.16998,77.25017,1010.39001,76.56017,1008.94z M63.57018,995.07001c0-2.84003,1.17999-4.27002,3.53003-4.27002
				c2.35999,0,3.53998,1.42999,3.53998,4.27002v3.35999c0,2.83997-1.17999,4.26001-3.53998,4.26001
				c-2.35004,0-3.53003-1.42004-3.53003-4.26001V995.07001z M70.89018,1017.69c0,3.21997-1.27002,4.82001-3.78998,4.82001
				c-2.52002,0-3.78003-1.60004-3.78003-4.82001v-4.08002c0-3.21002,1.26001-4.82001,3.78003-4.82001
				c2.51996,0,3.78998,1.60999,3.78998,4.82001V1017.69z"/>
			<path class="st3" d="M98.88017,987.51001c-1.75-1.87-4.26996-2.80005-7.57001-2.80005c-3.28998,0-5.81,0.93005-7.56,2.80005
				s-2.62,4.50995-2.62,7.92999v7.62c0,3.16998,0.63,5.58997,1.89001,7.26001c1.26001,1.65997,3.10999,2.5,5.54999,2.5
				c2.89001,0,4.92004-1.24005,6.10004-3.72003h0.12v8.16998c0,1.95001-0.29999,3.31-0.91003,4.09003
				c-0.60999,0.77002-1.54999,1.15002-2.81,1.15002c-2.32001,0-3.47998-1.40002-3.47998-4.20001v-1.22003h-6.34003v0.79004
				c0,3.44995,0.86005,6.10999,2.56,7.95996c1.71002,1.84998,4.19,2.77002,7.44,2.77002c6.83002,0,10.25-3.70007,10.25-11.09998
				V995.44C101.50017,992.01996,100.62016,989.38,98.88017,987.51001z M94.79021,1002.51001c0,2.81-1.16003,4.20996-3.48004,4.20996
				c-2.31,0-3.46997-1.39996-3.46997-4.20996v-7.56c0-2.76001,1.15997-4.15002,3.46997-4.15002
				c2.32001,0,3.48004,1.39001,3.48004,4.15002V1002.51001z"/>
			<path class="st3" d="M124.36021,1003c-1.26001-1.67004-3.10004-2.5-5.54004-2.5c-2.89001,0-4.91998,1.23999-6.09998,3.71997
				h-0.12v-8.16998c0-1.95001,0.29999-3.32001,0.90997-4.09003c0.60999-0.76996,1.54004-1.15997,2.81-1.15997
				c2.31,0,3.47003,1.40002,3.47003,4.21002v1.21997h6.33997V995.44c0-3.46002-0.84998-6.11005-2.56-7.96002
				c-1.70996-1.84998-4.19-2.77002-7.44-2.77002c-6.82996,0-10.23999,3.70001-10.23999,11.09003V1017.88
				c0,3.40997,0.87,6.06,2.62,7.93005c1.75,1.86987,4.27002,2.79993,7.56,2.79993c3.29004,0,5.81-0.93005,7.56-2.79993
				c1.75-1.87006,2.63-4.52008,2.63-7.93005v-7.62C126.26018,1007.07996,125.62016,1004.66998,124.36021,1003z M119.55022,1018.37
				c0,2.76001-1.16003,4.14001-3.48004,4.14001s-3.46997-1.38-3.46997-4.14001v-7.57001c0-2.79999,1.14996-4.20001,3.46997-4.20001
				s3.48004,1.40002,3.48004,4.20001V1018.37z"/>
			<path class="st3" d="M148.33018,988c-1.66998-1.79004-4.16998-2.69-7.5-2.69h-10.25V1028h10.25
				c3.33002,0,5.83002-0.89001,7.5-2.67993c1.66998-1.7901,2.5-4.4101,2.5-7.87006V995.87
				C150.83018,992.40997,150.00017,989.78998,148.33018,988z M144.12016,1017.76001c0,1.45996-0.28998,2.51996-0.87994,3.16998
				c-0.59003,0.64996-1.43005,0.96997-2.53003,0.96997h-3.41998v-30.48999h3.41998c1.09998,0,1.94,0.33002,2.53003,0.98004
				c0.58997,0.64996,0.87994,1.70996,0.87994,3.16998V1017.76001z"/>
			<path class="st3" d="M173.70018,1008.66998c-0.77002-1.46002-2.03998-2.52002-3.77997-3.16998v-0.12
				c1.62-0.61005,2.82001-1.62,3.58997-3.02002c0.78003-1.40002,1.16003-3.26001,1.16003-5.58002V995.25
				c0-3.41003-0.83002-6.02002-2.5-7.83002c-1.66003-1.81-4.10004-2.71002-7.31-2.71002c-3.18005,0-5.61005,0.91003-7.29004,2.74005
				c-1.69,1.82996-2.52997,4.44995-2.52997,7.87v2.25h6.33997v-2.80005c0-2.63995,1.08002-3.96997,3.23004-3.96997
				c1.01996,0,1.82996,0.34998,2.44,1.03998c0.60999,0.69,0.91998,1.77002,0.91998,3.23004v3.10999
				c0,1.63-0.34003,2.78998-1.01001,3.47998s-1.67999,1.03003-3.02002,1.03003h-2.44v6.09998h2.26001
				c1.54004,0,2.66003,0.41998,3.35004,1.25c0.69,0.84003,1.03998,2.22998,1.03998,4.17999v3.47003
				c0,1.79999-0.29999,3.04999-0.89001,3.76001c-0.58997,0.70996-1.45001,1.06-2.58997,1.06
				c-2.31,0-3.47003-1.40002-3.47003-4.20001v-3.79004h-6.33997V1018c0,3.40997,0.83997,6.04004,2.52997,7.87
				c1.67999,1.82996,4.16998,2.73999,7.47003,2.73999c3.28998,0,5.77997-0.90002,7.46997-2.71008
				c1.67999-1.80994,2.53003-4.41992,2.53003-7.8399v-3.78003C174.86021,1012,174.4702,1010.13,173.70018,1008.66998z"/>
		</g>
	</g>
	<line class="st11" x1="189.62994" y1="865.65808" x2="620.23291" y2="865.65808"/>
	<line class="st11" x1="189.63004" y1="936.15808" x2="439.233" y2="936.15808"/>
	<line class="st11" x1="189.63004" y1="1006.65808" x2="525.23303" y2="1006.65808"/>
</g>
</svg>
