<?xml version="1.0" encoding="utf-8"?>
<!-- Generator: Adobe Illustrator 27.3.1, SVG Export Plug-In . SVG Version: 6.00 Build 0)  -->
<svg version="1.1" id="Layer_1" xmlns="http://www.w3.org/2000/svg" xmlns:xlink="http://www.w3.org/1999/xlink" x="0px" y="0px"
	 viewBox="0 0 1920 1080" style="enable-background:new 0 0 1920 1080;" xml:space="preserve">
<style type="text/css">
	.st0{fill:#FFFFFF;}
	.st1{fill:#202020;}
	.st2{clip-path:url(#SVGID_00000128453114435029274910000000352229975196146054_);fill:#202020;}
	.st3{clip-path:url(#SVGID_00000128453114435029274910000000352229975196146054_);fill:#1795D2;}
	.st4{clip-path:url(#SVGID_00000128453114435029274910000000352229975196146054_);fill:#FFFFFF;}
	.st5{clip-path:url(#SVGID_00000178895905099880137150000005674537272411615894_);fill:#202020;}
	.st6{clip-path:url(#SVGID_00000178895905099880137150000005674537272411615894_);fill:#FFFFFF;}
	.st7{clip-path:url(#SVGID_00000129169035078218686200000015541013172272470149_);fill:#202020;}
	.st8{clip-path:url(#SVGID_00000129169035078218686200000015541013172272470149_);fill:#1795D2;}
	.st9{clip-path:url(#SVGID_00000129169035078218686200000015541013172272470149_);fill:#FFFFFF;}
	.st10{clip-path:url(#SVGID_00000042007811180979512710000007412629219404382628_);}
	.st11{opacity:0.19;clip-path:url(#SVGID_00000098927812237011845020000005446838879309972868_);}
	.st12{clip-path:url(#SVGID_00000140723580095566344500000010143001480344686768_);}
	.st13{clip-path:url(#SVGID_00000080197599690399985850000016123558979629485466_);fill:#202020;}
	.st14{clip-path:url(#SVGID_00000080197599690399985850000016123558979629485466_);fill:#1795D2;}
	.st15{clip-path:url(#SVGID_00000080197599690399985850000016123558979629485466_);fill:#FFFFFF;}
	
		.st16{clip-path:url(#SVGID_00000101103431977297620300000007544718459226923168_);fill:none;stroke:#202020;stroke-dasharray:12.402,12.402;}
	.st17{fill:none;stroke:#202020;stroke-dasharray:12.206,12.206;}
	.st18{fill:none;stroke:#202020;stroke-dasharray:12.402,12.402;}
	
		.st19{clip-path:url(#SVGID_00000142887057731810730510000005120790728222060704_);fill:none;stroke:#202020;stroke-dasharray:12.206,12.206;}
	.st20{clip-path:url(#SVGID_00000009571204626566007450000009595170615758582436_);fill:none;stroke:#202020;}
	.st21{fill:none;stroke:#202020;stroke-dasharray:12.36,12.36;}
	.st22{fill:none;stroke:#202020;stroke-dasharray:11.105,11.105;}
	.st23{fill:none;stroke:#202020;}
	.st24{fill:none;stroke:#202020;stroke-dasharray:12.318,12.318;}
	.st25{fill:none;stroke:#202020;stroke-dasharray:12.006,12.006;}
	
		.st26{clip-path:url(#SVGID_00000041254638879870728590000006569305941402072449_);fill:none;stroke:#202020;stroke-dasharray:12.36,12.36;}
	
		.st27{clip-path:url(#SVGID_00000158007641986523660510000012927123977712037252_);fill:none;stroke:#202020;stroke-dasharray:11.895,11.895;}
	
		.st28{clip-path:url(#SVGID_00000059309435993067137080000016283313330215018656_);fill:none;stroke:#202020;stroke-dasharray:12.36,12.36;}
	.st29{fill:none;stroke:#202020;stroke-dasharray:11.895,11.895;}
	.st30{clip-path:url(#SVGID_00000101799845801045894590000013533291236599180436_);fill:none;stroke:#202020;}
	.st31{clip-path:url(#SVGID_00000114073728300131845540000010067391202654443950_);}
	.st32{opacity:0.19;clip-path:url(#SVGID_00000085935027391294332750000011596125277840692399_);}
	.st33{clip-path:url(#SVGID_00000083782523762763532570000017138378827676397466_);}
	.st34{clip-path:url(#SVGID_00000098221516756645803800000010744955287351986613_);fill:#202020;}
	.st35{clip-path:url(#SVGID_00000098221516756645803800000010744955287351986613_);fill:#1795D2;}
	.st36{clip-path:url(#SVGID_00000098221516756645803800000010744955287351986613_);fill:#FFFFFF;}
	.st37{clip-path:url(#SVGID_00000116232193419239847740000002123929459697718459_);}
	.st38{opacity:0.19;clip-path:url(#SVGID_00000162318034989835304800000011594355171139822782_);}
	.st39{clip-path:url(#SVGID_00000120525271333740961260000011996920510644600230_);}
	.st40{clip-path:url(#SVGID_00000150784904364941206760000001652639207183562935_);fill:#202020;}
	.st41{clip-path:url(#SVGID_00000150784904364941206760000001652639207183562935_);fill:#1795D2;}
	.st42{clip-path:url(#SVGID_00000150784904364941206760000001652639207183562935_);fill:#FFFFFF;}
</style>
<rect class="st0" width="1920" height="1080"/>
<g>
	<g>
		<path class="st1" d="M589.29492,416.29288c-1.34863-1.46094-2.02295-3.55664-2.02295-6.28662v-17.72705
			c0-2.72949,0.67432-4.82471,2.02295-6.28662c1.34912-1.46094,3.30762-2.19189,5.87695-2.19189
			c2.56885,0,4.52832,0.73096,5.87695,2.19189c1.34912,1.46191,2.02344,3.55713,2.02344,6.28662v2.89014h-5.00977v-3.22754
			c0-2.21582-0.91553-3.32373-2.74609-3.32373s-2.74561,1.10791-2.74561,3.32373v18.44971
			c0,2.18457,0.91504,3.27588,2.74561,3.27588s2.74609-1.09131,2.74609-3.27588v-6.59912h-2.6499v-4.81738h7.65967v11.03125
			c0,2.72998-0.67432,4.82568-2.02344,6.28662c-1.34863,1.46143-3.30811,2.19189-5.87695,2.19189
			C592.60254,418.48477,590.64404,417.7543,589.29492,416.29288z"/>
		<path class="st1" d="M606.49219,384.28262h5.29883v33.72021h-5.29883V384.28262z"/>
		<path class="st1" d="M614.34326,384.28262h5.34717l3.46826,26.15723h0.09619l3.46826-26.15723h4.86572l-5.10645,33.72021h-7.0332
			L614.34326,384.28262z"/>
		<path class="st1" d="M634.1416,384.28262h14.45166v4.81689h-9.15283v8.91211h7.27393v4.81689h-7.27393v10.35693h9.15283v4.81738
			H634.1416V384.28262z"/>
		<path class="st1" d="M663.47656,389.09952h-5.53955v-4.81689h16.37842v4.81689h-5.54004v28.90332h-5.29883V389.09952z"/>
		<path class="st1" d="M676.86865,384.28262h5.29883v13.729h5.68408v-13.729h5.29932v33.72021h-5.29932v-15.17432h-5.68408v15.17432
			h-5.29883V384.28262z"/>
		<path class="st1" d="M697.10059,384.28262h14.45166v4.81689h-9.15283v8.91211h7.27393v4.81689h-7.27393v10.35693h9.15283v4.81738
			h-14.45166V384.28262z"/>
		<path class="st1" d="M722.29346,384.28262h5.29883v28.90283h8.71924v4.81738h-14.01807V384.28262z"/>
		<path class="st1" d="M740.35791,416.26846c-1.38135-1.47656-2.07129-3.56445-2.07129-6.26221v-17.72705
			c0-2.69775,0.68994-4.78516,2.07129-6.2627c1.38037-1.47656,3.37207-2.21582,5.97314-2.21582
			c2.60156,0,4.59229,0.73926,5.97363,2.21582c1.38037,1.47754,2.07129,3.56494,2.07129,6.2627v17.72705
			c0,2.69775-0.69092,4.78564-2.07129,6.26221c-1.38135,1.47754-3.37207,2.21631-5.97363,2.21631
			C743.72998,418.48477,741.73828,417.746,740.35791,416.26846z M749.07715,410.34366V391.9418
			c0-2.21582-0.91553-3.32373-2.74609-3.32373s-2.74561,1.10791-2.74561,3.32373v18.40186
			c0,2.21582,0.91504,3.32373,2.74561,3.32373S749.07715,412.55948,749.07715,410.34366z"/>
		<path class="st1" d="M759.57764,416.29288c-1.34863-1.46094-2.02295-3.55664-2.02295-6.28662v-17.72705
			c0-2.72949,0.67432-4.82471,2.02295-6.28662c1.34912-1.46094,3.30762-2.19189,5.87695-2.19189
			c2.56885,0,4.52832,0.73096,5.87695,2.19189c1.34912,1.46191,2.02344,3.55713,2.02344,6.28662v2.89014h-5.00977v-3.22754
			c0-2.21582-0.91553-3.32373-2.74609-3.32373s-2.74561,1.10791-2.74561,3.32373v18.44971
			c0,2.18457,0.91504,3.27588,2.74561,3.27588s2.74609-1.09131,2.74609-3.27588v-6.59912h-2.6499v-4.81738h7.65967v11.03125
			c0,2.72998-0.67432,4.82568-2.02344,6.28662c-1.34863,1.46143-3.30811,2.19189-5.87695,2.19189
			C762.88525,418.48477,760.92676,417.7543,759.57764,416.29288z"/>
		<path class="st1" d="M778.46094,416.26846c-1.38135-1.47656-2.07129-3.56445-2.07129-6.26221v-17.72705
			c0-2.69775,0.68994-4.78516,2.07129-6.2627c1.38037-1.47656,3.37207-2.21582,5.97314-2.21582
			c2.60156,0,4.59229,0.73926,5.97363,2.21582c1.38037,1.47754,2.07129,3.56494,2.07129,6.2627v17.72705
			c0,2.69775-0.69092,4.78564-2.07129,6.26221c-1.38135,1.47754-3.37207,2.21631-5.97363,2.21631
			C781.83301,418.48477,779.84131,417.746,778.46094,416.26846z M787.18018,410.34366V391.9418
			c0-2.21582-0.91553-3.32373-2.74609-3.32373s-2.74561,1.10791-2.74561,3.32373v18.40186
			c0,2.21582,0.91504,3.32373,2.74561,3.32373S787.18018,412.55948,787.18018,410.34366z"/>
		<path class="st1" d="M807.84521,384.28262h7.17725l5.4917,33.72021h-5.29883l-0.96338-6.6958v0.09619h-6.02148l-0.96338,6.59961
			h-4.91357L807.84521,384.28262z M813.62549,406.82706l-2.36035-16.66748h-0.09619l-2.3125,16.66748H813.62549z"/>
		<path class="st1" d="M823.06641,384.28262h6.64746l5.15479,20.18408h0.09619v-20.18408h4.7207v33.72021h-5.44336
			l-6.35889-24.61572h-0.09619v24.61572h-4.7207V384.28262z"/>
		<path class="st1" d="M843.63525,384.28262h8.09277c2.63281,0,4.60791,0.70654,5.92529,2.11963
			c1.31641,1.41357,1.9751,3.48486,1.9751,6.21387v17.05322c0,2.72998-0.65869,4.80127-1.9751,6.21387
			c-1.31738,1.41357-3.29248,2.11963-5.92529,2.11963h-8.09277V384.28262z M851.63184,413.18546
			c0.86719,0,1.5332-0.25635,1.99902-0.77051c0.46533-0.51318,0.69824-1.34863,0.69824-2.50488V392.3754
			c0-1.15625-0.23291-1.99072-0.69824-2.50488c-0.46582-0.51318-1.13184-0.771-1.99902-0.771h-2.69775v24.08594H851.63184z"/>
		<path class="st1" d="M875.04199,389.09952h-5.53955v-4.81689h16.37842v4.81689h-5.54004v28.90332h-5.29883V389.09952z"/>
		<path class="st1" d="M888.43408,384.28262h5.29883v33.72021h-5.29883V384.28262z"/>
		<path class="st1" d="M901.82471,389.09952h-5.53955v-4.81689h16.37842v4.81689h-5.54004v28.90332h-5.29883V389.09952z"/>
		<path class="st1" d="M915.2168,384.28262h5.29883v28.90283h8.71924v4.81738H915.2168V384.28262z"/>
		<path class="st1" d="M931.7876,384.28262h14.45166v4.81689h-9.15283v8.91211h7.27393v4.81689h-7.27393v10.35693h9.15283v4.81738
			H931.7876V384.28262z"/>
		<path class="st1" d="M950.93555,416.3168c-1.33301-1.44531-1.99951-3.48438-1.99951-6.11768v-18.11279
			c0-2.63281,0.6665-4.67236,1.99951-6.11768c1.33203-1.44531,3.26709-2.16797,5.80469-2.16797
			c2.53613,0,4.47168,0.72266,5.8042,2.16797c1.33301,1.44531,1.99902,3.48486,1.99902,6.11768v3.56494h-5.00928v-3.90186
			c0-2.0874-0.88379-3.13135-2.64941-3.13135c-1.7666,0-2.6499,1.04395-2.6499,3.13135v18.83496
			c0,2.05566,0.8833,3.08301,2.6499,3.08301c1.76562,0,2.64941-1.02734,2.64941-3.08301v-5.1543h5.00928v4.76904
			c0,2.6333-0.66602,4.67236-1.99902,6.11768c-1.33252,1.44531-3.26807,2.16797-5.8042,2.16797
			C954.20264,418.48477,952.26758,417.76212,950.93555,416.3168z"/>
		<path class="st1" d="M971.81689,384.28262h7.17773l5.49219,33.72021h-5.2998l-0.96289-6.6958v0.09619h-6.02148l-0.96387,6.59961
			h-4.91309L971.81689,384.28262z M977.59814,406.82706l-2.36035-16.66748h-0.09668l-2.3125,16.66748H977.59814z"/>
		<path class="st1" d="M987.03857,384.28262h7.85254c2.72949,0,4.7207,0.63428,5.97363,1.90283
			c1.25195,1.26904,1.87793,3.21973,1.87793,5.85254v2.07178c0,3.50049-1.15625,5.71631-3.46777,6.64746v0.09668
			c1.28418,0.38525,2.19141,1.17236,2.72168,2.36035c0.5293,1.18848,0.79492,2.77783,0.79492,4.76904v5.9248
			c0,0.96338,0.03125,1.74268,0.0957,2.33643c0.06445,0.59473,0.22461,1.18018,0.48242,1.7583h-5.39551
			c-0.19238-0.5459-0.32129-1.05957-0.38574-1.5415s-0.0957-1.34863-0.0957-2.60107v-6.16602c0-1.5415-0.25-2.61719-0.74707-3.22754
			c-0.49805-0.60986-1.35742-0.91553-2.57715-0.91553h-1.83008v14.45166h-5.2998V384.28262z M994.26514,398.73428
			c1.05957,0,1.85449-0.27246,2.38379-0.81934c0.53027-0.54541,0.79492-1.46094,0.79492-2.74561v-2.60107
			c0-1.22021-0.2168-2.10303-0.65039-2.64941c-0.43359-0.5459-1.11621-0.81934-2.04688-0.81934h-2.4082v9.63477H994.26514z"/>
		<path class="st1" d="M1006.45166,384.28262h8.09375c2.63281,0,4.60742,0.70654,5.9248,2.11963
			c1.31641,1.41357,1.97461,3.48486,1.97461,6.21387v17.05322c0,2.72998-0.6582,4.80127-1.97461,6.21387
			c-1.31738,1.41357-3.29199,2.11963-5.9248,2.11963h-8.09375V384.28262z M1014.44873,413.18546
			c0.86719,0,1.5332-0.25635,1.99902-0.77051c0.46484-0.51318,0.69824-1.34863,0.69824-2.50488V392.3754
			c0-1.15625-0.2334-1.99072-0.69824-2.50488c-0.46582-0.51318-1.13184-0.771-1.99902-0.771h-2.69727v24.08594H1014.44873z"/>
		<path class="st1" d="M1037.81104,384.28262h7.17773l5.49219,33.72021h-5.2998l-0.96289-6.6958v0.09619h-6.02148l-0.96387,6.59961
			h-4.91309L1037.81104,384.28262z M1043.59229,406.82706l-2.36035-16.66748h-0.09668l-2.3125,16.66748H1043.59229z"/>
		<path class="st1" d="M1054.96045,389.09952h-5.54004v-4.81689h16.37793v4.81689h-5.53906v28.90332h-5.29883V389.09952z"/>
		<path class="st1" d="M1076.05811,384.28262h5.2998v28.90283h8.71875v4.81738h-14.01855V384.28262z"/>
		<path class="st1" d="M1092.62842,384.28262h14.45215v4.81689h-9.15234v8.91211h7.27344v4.81689h-7.27344v10.35693h9.15234v4.81738
			h-14.45215V384.28262z"/>
		<path class="st1" d="M1114.20947,384.28262h7.17773l5.49219,33.72021h-5.2998l-0.96289-6.6958v0.09619h-6.02148l-0.96387,6.59961
			h-4.91309L1114.20947,384.28262z M1119.99072,406.82706l-2.36035-16.66748h-0.09668l-2.3125,16.66748H1119.99072z"/>
		<path class="st1" d="M1130.34717,416.29288c-1.31738-1.46094-1.97559-3.55664-1.97559-6.28662v-1.92676h5.00977v2.31201
			c0,2.18457,0.91602,3.27588,2.74609,3.27588c0.89844,0,1.58105-0.26514,2.04688-0.79492s0.69922-1.38867,0.69922-2.57715
			c0-1.4126-0.32129-2.65674-0.96387-3.7334c-0.64258-1.07568-1.83008-2.36768-3.56445-3.87793
			c-2.18457-1.92676-3.70898-3.66846-4.57617-5.22656c-0.86719-1.55713-1.30078-3.31543-1.30078-5.2749
			c0-2.66504,0.67383-4.72803,2.02344-6.18994c1.34863-1.46094,3.30664-2.19189,5.87695-2.19189
			c2.53613,0,4.45508,0.73096,5.75586,2.19189c1.30078,1.46191,1.95117,3.55713,1.95117,6.28662v1.39697h-5.00977v-1.73438
			c0-1.15625-0.22461-1.99902-0.6748-2.52881c-0.44922-0.52979-1.10742-0.79492-1.97461-0.79492
			c-1.7666,0-2.64941,1.07617-2.64941,3.22754c0,1.2207,0.3291,2.36035,0.9873,3.41992
			c0.6582,1.06006,1.85449,2.34473,3.58887,3.854c2.21582,1.92676,3.74121,3.67773,4.57617,5.25049
			c0.83496,1.57422,1.25293,3.42041,1.25293,5.54004c0,2.76221-0.68262,4.88184-2.04785,6.3584
			c-1.36523,1.47754-3.34766,2.21631-5.94922,2.21631C1133.60596,418.48477,1131.66357,417.7543,1130.34717,416.29288z"/>
		<path class="st1" d="M1151.34912,389.09952h-5.54004v-4.81689h16.37793v4.81689h-5.53906v28.90332h-5.29883V389.09952z"/>
		<path class="st1" d="M1174.32666,416.29288c-1.34863-1.46094-2.02344-3.55664-2.02344-6.28662v-2.64941h5.01074v3.03467
			c0,2.18457,0.91504,3.27588,2.74512,3.27588c1.83105,0,2.74609-1.09131,2.74609-3.27588v-7.56299
			c0-2.21582-0.91504-3.32373-2.74609-3.32373c-1.83008,0-2.74512,1.10791-2.74512,3.32373v0.28906h-5.01074l0.96387-18.83496
			h13.96973v4.81689h-9.24902l-0.43359,8.04492h0.09668c0.99512-1.6377,2.52051-2.45654,4.57617-2.45654
			c1.92676,0,3.3877,0.6582,4.38379,1.97461c0.99512,1.31738,1.49316,3.22754,1.49316,5.73242v7.61133
			c0,2.72998-0.6748,4.82568-2.02344,6.28662c-1.34863,1.46143-3.30762,2.19189-5.87695,2.19189
			S1175.67529,417.7543,1174.32666,416.29288z"/>
		<path class="st1" d="M1193.40283,416.26846c-1.38086-1.47656-2.07129-3.56445-2.07129-6.26221v-17.72705
			c0-2.69775,0.69043-4.78516,2.07129-6.2627c1.37988-1.47656,3.37207-2.21582,5.97363-2.21582
			c2.60059,0,4.5918,0.73926,5.97266,2.21582c1.38086,1.47754,2.07129,3.56494,2.07129,6.2627v17.72705
			c0,2.69775-0.69043,4.78564-2.07129,6.26221c-1.38086,1.47754-3.37207,2.21631-5.97266,2.21631
			C1196.7749,418.48477,1194.78271,417.746,1193.40283,416.26846z M1202.12158,410.34366V391.9418
			c0-2.21582-0.91504-3.32373-2.74512-3.32373c-1.83105,0-2.74609,1.10791-2.74609,3.32373v18.40186
			c0,2.21582,0.91504,3.32373,2.74609,3.32373C1201.20654,413.66739,1202.12158,412.55948,1202.12158,410.34366z"/>
		<path class="st1" d="M1211.99561,401.62442c-0.86719-0.93115-1.30078-2.26416-1.30078-3.99805v-8.43018
			c0-1.73438,0.43359-3.06641,1.30078-3.99854c0.86719-0.93066,2.13574-1.39697,3.80566-1.39697s2.93848,0.46631,3.80566,1.39697
			c0.86719,0.93213,1.30078,2.26416,1.30078,3.99854v8.43018c0,1.73389-0.43359,3.06689-1.30078,3.99805
			c-0.86719,0.93164-2.13574,1.39697-3.80566,1.39697S1212.86279,402.55606,1211.99561,401.62442z M1217.53564,397.8671v-8.91162
			c0-1.41309-0.57812-2.11963-1.73438-2.11963s-1.73438,0.70654-1.73438,2.11963v8.91162c0,1.41357,0.57812,2.11963,1.73438,2.11963
			S1217.53564,399.28067,1217.53564,397.8671z M1228.0376,384.28262h3.37109l-13.05371,33.72021h-3.37207L1228.0376,384.28262z
			 M1226.78467,417.0878c-0.86719-0.93115-1.30078-2.26416-1.30078-3.99854v-8.43018c0-1.73389,0.43359-3.06641,1.30078-3.99805
			c0.86719-0.93115,2.13574-1.39697,3.80566-1.39697c1.66895,0,2.93848,0.46582,3.80566,1.39697
			c0.86719,0.93164,1.30078,2.26416,1.30078,3.99805v8.43018c0,1.73438-0.43359,3.06738-1.30078,3.99854
			c-0.86719,0.93066-2.13672,1.39697-3.80566,1.39697C1228.92041,418.48477,1227.65186,418.01846,1226.78467,417.0878z
			 M1232.32471,413.32999v-8.91162c0-1.4126-0.57812-2.11963-1.73438-2.11963s-1.73438,0.70703-1.73438,2.11963v8.91162
			c0,1.41357,0.57812,2.11963,1.73438,2.11963S1232.32471,414.74356,1232.32471,413.32999z"/>
	</g>
	<g>
		<path class="st1" d="M589.34326,462.85147c-1.38135-1.47656-2.07129-3.56445-2.07129-6.26221v-17.72705
			c0-2.69775,0.68994-4.78516,2.07129-6.2627c1.38037-1.47656,3.37207-2.21582,5.97314-2.21582
			c2.60156,0,4.59229,0.73926,5.97363,2.21582c1.38037,1.47754,2.07129,3.56494,2.07129,6.2627v17.72705
			c0,2.69775-0.69092,4.78564-2.07129,6.26221c-1.38135,1.47754-3.37207,2.21631-5.97363,2.21631
			C592.71533,465.06778,590.72363,464.32901,589.34326,462.85147z M598.0625,456.92667v-18.40186
			c0-2.21582-0.91553-3.32373-2.74609-3.32373s-2.74561,1.10791-2.74561,3.32373v18.40186
			c0,2.21582,0.91504,3.32373,2.74561,3.32373S598.0625,459.14249,598.0625,456.92667z"/>
		<path class="st1" d="M606.92578,430.86563h14.01807v4.81689h-8.71924v9.39355h6.84033v4.81738h-6.84033v14.69238h-5.29883
			V430.86563z"/>
		<path class="st1" d="M635.34619,435.68253h-5.53955v-4.81689h16.37842v4.81689h-5.54004v28.90332h-5.29883V435.68253z"/>
		<path class="st1" d="M648.73779,430.86563h5.29883v13.729h5.68408v-13.729h5.29932v33.72021h-5.29932v-15.17432h-5.68408v15.17432
			h-5.29883V430.86563z"/>
		<path class="st1" d="M668.96973,430.86563h14.45166v4.81689h-9.15283v8.91211h7.27393v4.81689h-7.27393v10.35693h9.15283v4.81738
			h-14.45166V430.86563z"/>
		<path class="st1" d="M694.1626,430.86563h5.29883v28.90283h8.71924v4.81738H694.1626V430.86563z"/>
		<path class="st1" d="M712.22705,462.85147c-1.38135-1.47656-2.07129-3.56445-2.07129-6.26221v-17.72705
			c0-2.69775,0.68994-4.78516,2.07129-6.2627c1.38037-1.47656,3.37207-2.21582,5.97314-2.21582
			c2.60156,0,4.59229,0.73926,5.97363,2.21582c1.38037,1.47754,2.07129,3.56494,2.07129,6.2627v17.72705
			c0,2.69775-0.69092,4.78564-2.07129,6.26221c-1.38135,1.47754-3.37207,2.21631-5.97363,2.21631
			C715.59912,465.06778,713.60742,464.32901,712.22705,462.85147z M720.94629,456.92667v-18.40186
			c0-2.21582-0.91553-3.32373-2.74609-3.32373s-2.74561,1.10791-2.74561,3.32373v18.40186
			c0,2.21582,0.91504,3.32373,2.74561,3.32373S720.94629,459.14249,720.94629,456.92667z"/>
		<path class="st1" d="M731.44727,462.87589c-1.34863-1.46094-2.02295-3.55664-2.02295-6.28662v-17.72705
			c0-2.72949,0.67432-4.82471,2.02295-6.28662c1.34912-1.46094,3.30762-2.19189,5.87695-2.19189
			c2.56885,0,4.52832,0.73096,5.87695,2.19189c1.34912,1.46191,2.02344,3.55713,2.02344,6.28662v2.89014h-5.00977v-3.22754
			c0-2.21582-0.91553-3.32373-2.74609-3.32373s-2.74561,1.10791-2.74561,3.32373v18.44971
			c0,2.18457,0.91504,3.27588,2.74561,3.27588s2.74609-1.09131,2.74609-3.27588v-6.59912h-2.6499v-4.81738h7.65967v11.03125
			c0,2.72998-0.67432,4.82568-2.02344,6.28662c-1.34863,1.46143-3.30811,2.19189-5.87695,2.19189
			C734.75488,465.06778,732.79639,464.33731,731.44727,462.87589z"/>
		<path class="st1" d="M750.33008,462.85147c-1.38135-1.47656-2.07129-3.56445-2.07129-6.26221v-17.72705
			c0-2.69775,0.68994-4.78516,2.07129-6.2627c1.38037-1.47656,3.37207-2.21582,5.97314-2.21582
			c2.60156,0,4.59229,0.73926,5.97363,2.21582c1.38037,1.47754,2.07129,3.56494,2.07129,6.2627v17.72705
			c0,2.69775-0.69092,4.78564-2.07129,6.26221c-1.38135,1.47754-3.37207,2.21631-5.97363,2.21631
			C753.70215,465.06778,751.71045,464.32901,750.33008,462.85147z M759.04932,456.92667v-18.40186
			c0-2.21582-0.91553-3.32373-2.74609-3.32373s-2.74561,1.10791-2.74561,3.32373v18.40186
			c0,2.21582,0.91504,3.32373,2.74561,3.32373S759.04932,459.14249,759.04932,456.92667z"/>
		<path class="st1" d="M769.64697,435.97159h-1.73438v-5.10596h5.10596v4.57617l-2.93848,6.31055h-2.45654L769.64697,435.97159z"/>
		<path class="st1" d="M778.02783,462.87589c-1.31689-1.46094-1.9751-3.55664-1.9751-6.28662v-1.92676h5.01025v2.31201
			c0,2.18457,0.91504,3.27588,2.74561,3.27588c0.89893,0,1.58154-0.26514,2.04736-0.79492
			c0.46533-0.52979,0.69824-1.38867,0.69824-2.57715c0-1.4126-0.32129-2.65674-0.96338-3.7334
			c-0.64258-1.07568-1.83057-2.36768-3.56445-3.87793c-2.18457-1.92676-3.70947-3.66846-4.57666-5.22656
			c-0.8667-1.55713-1.30029-3.31543-1.30029-5.2749c0-2.66504,0.67432-4.72803,2.02295-6.18994
			c1.34912-1.46094,3.30762-2.19189,5.87695-2.19189c2.53662,0,4.45605,0.73096,5.75684,2.19189
			c1.30029,1.46191,1.95068,3.55713,1.95068,6.28662v1.39697h-5.00977v-1.73438c0-1.15625-0.2251-1.99902-0.67432-2.52881
			c-0.4502-0.52979-1.10791-0.79492-1.9751-0.79492c-1.7666,0-2.64941,1.07617-2.64941,3.22754
			c0,1.2207,0.3291,2.36035,0.9873,3.41992c0.6582,1.06006,1.85498,2.34473,3.58887,3.854
			c2.21582,1.92676,3.74072,3.67773,4.57666,5.25049c0.83447,1.57422,1.25244,3.42041,1.25244,5.54004
			c0,2.76221-0.68311,4.88184-2.04736,6.3584c-1.36572,1.47754-3.34814,2.21631-5.94922,2.21631
			C781.28711,465.06778,779.34424,464.33731,778.02783,462.87589z"/>
		<path class="st1" d="M801.34229,430.86563h5.10596l2.36035,25.9165h0.09668l2.50488-25.9165h5.78076l2.50488,25.9165h0.09619
			l2.36035-25.9165h4.57617l-3.41992,33.72021h-6.59961l-2.40869-22.7373h-0.09619l-2.40869,22.7373h-7.0332L801.34229,430.86563z"
			/>
		<path class="st1" d="M829.42627,430.86563h5.29883v33.72021h-5.29883V430.86563z"/>
		<path class="st1" d="M838.67432,430.86563h8.09277c2.63281,0,4.60791,0.70654,5.92529,2.11963
			c1.31641,1.41357,1.9751,3.48486,1.9751,6.21387v17.05322c0,2.72998-0.65869,4.80127-1.9751,6.21387
			c-1.31738,1.41357-3.29248,2.11963-5.92529,2.11963h-8.09277V430.86563z M846.6709,459.76846
			c0.86719,0,1.5332-0.25635,1.99902-0.77051c0.46533-0.51318,0.69824-1.34863,0.69824-2.50488V438.9584
			c0-1.15625-0.23291-1.99072-0.69824-2.50488c-0.46582-0.51318-1.13184-0.771-1.99902-0.771h-2.69775v24.08594H846.6709z"/>
		<path class="st1" d="M862.22949,435.68253h-5.53955v-4.81689h16.37842v4.81689h-5.54004v28.90332h-5.29883V435.68253z"/>
		<path class="st1" d="M875.62158,430.86563h5.29883v13.729h5.68408v-13.729h5.29932v33.72021h-5.29932v-15.17432h-5.68408v15.17432
			h-5.29883V430.86563z"/>
		<path class="st1" d="M907.65527,430.86563h7.17725l5.4917,33.72021h-5.29883l-0.96338-6.6958v0.09619h-6.02148l-0.96338,6.59961
			h-4.91357L907.65527,430.86563z M913.43555,453.41006l-2.36035-16.66748H910.979l-2.3125,16.66748H913.43555z"/>
		<path class="st1" d="M922.87695,430.86563h7.85205c2.729,0,4.7207,0.63428,5.97314,1.90283
			c1.25244,1.26904,1.87891,3.21973,1.87891,5.85254v2.07178c0,3.50049-1.15625,5.71631-3.46875,6.64746v0.09668
			c1.28418,0.38525,2.19189,1.17236,2.72217,2.36035c0.52979,1.18848,0.79443,2.77783,0.79443,4.76904v5.9248
			c0,0.96338,0.03174,1.74268,0.09668,2.33643c0.06396,0.59473,0.22412,1.18018,0.48145,1.7583h-5.39502
			c-0.19287-0.5459-0.32129-1.05957-0.38525-1.5415c-0.06494-0.48193-0.09668-1.34863-0.09668-2.60107v-6.16602
			c0-1.5415-0.24902-2.61719-0.74658-3.22754c-0.49805-0.60986-1.35693-0.91553-2.57715-0.91553h-1.83057v14.45166h-5.29883
			V430.86563z M930.10254,445.31729c1.06006,0,1.85498-0.27246,2.38477-0.81934c0.52979-0.54541,0.79492-1.46094,0.79492-2.74561
			v-2.60107c0-1.22021-0.2168-2.10303-0.65039-2.64941c-0.43359-0.5459-1.11621-0.81934-2.04736-0.81934h-2.40869v9.63477H930.10254
			z"/>
		<path class="st1" d="M943.97607,462.85147c-1.38135-1.47656-2.07129-3.56445-2.07129-6.26221v-17.72705
			c0-2.69775,0.68994-4.78516,2.07129-6.2627c1.38037-1.47656,3.37207-2.21582,5.97314-2.21582
			c2.60156,0,4.59229,0.73926,5.97363,2.21582c1.38037,1.47754,2.07129,3.56494,2.07129,6.2627v17.72705
			c0,2.69775-0.69092,4.78564-2.07129,6.26221c-1.38135,1.47754-3.37207,2.21631-5.97363,2.21631
			C947.34814,465.06778,945.35645,464.32901,943.97607,462.85147z M952.69531,456.92667v-18.40186
			c0-2.21582-0.91553-3.32373-2.74609-3.32373s-2.74561,1.10791-2.74561,3.32373v18.40186
			c0,2.21582,0.91504,3.32373,2.74561,3.32373S952.69531,459.14249,952.69531,456.92667z"/>
		<path class="st1" d="M963.38916,462.87589c-1.34863-1.46094-2.02344-3.55664-2.02344-6.28662v-25.72363h5.29883v26.10889
			c0,1.15625,0.23242,1.9917,0.69824,2.50488c0.46582,0.51416,1.13281,0.771,2,0.771c0.86621,0,1.5332-0.25684,1.99902-0.771
			c0.46484-0.51318,0.69824-1.34863,0.69824-2.50488v-26.10889h5.10645v25.72363c0,2.72998-0.6748,4.82568-2.02344,6.28662
			c-1.34863,1.46143-3.30859,2.19189-5.87695,2.19189C966.69678,465.06778,964.73779,464.33731,963.38916,462.87589z"/>
		<path class="st1" d="M980.92236,430.86563h6.64844l5.1543,20.18408h0.0957v-20.18408h4.72168v33.72021h-5.44336l-6.35938-24.61572
			h-0.0957v24.61572h-4.72168V430.86563z"/>
		<path class="st1" d="M1001.4917,430.86563h8.09375c2.63281,0,4.60742,0.70654,5.9248,2.11963
			c1.31641,1.41357,1.97461,3.48486,1.97461,6.21387v17.05322c0,2.72998-0.6582,4.80127-1.97461,6.21387
			c-1.31738,1.41357-3.29199,2.11963-5.9248,2.11963h-8.09375V430.86563z M1009.48877,459.76846
			c0.86719,0,1.5332-0.25635,1.99902-0.77051c0.46484-0.51318,0.69824-1.34863,0.69824-2.50488V438.9584
			c0-1.15625-0.2334-1.99072-0.69824-2.50488c-0.46582-0.51318-1.13184-0.771-1.99902-0.771h-2.69727v24.08594H1009.48877z"/>
		<path class="st1" d="M1028.75537,430.86563h14.45215v4.81689h-9.15234v8.91211h7.27344v4.81689h-7.27344v10.35693h9.15234v4.81738
			h-14.45215V430.86563z"/>
		<path class="st1" d="M1044.84521,430.86563h5.34668l3.46875,26.15723h0.09668l3.46777-26.15723h4.86523l-5.10547,33.72021h-7.0332
			L1044.84521,430.86563z"/>
		<path class="st1" d="M1064.64209,430.86563h14.45215v4.81689h-9.15234v8.91211h7.27344v4.81689h-7.27344v10.35693h9.15234v4.81738
			h-14.45215V430.86563z"/>
		<path class="st1" d="M1082.12842,430.86563h7.85254c2.72949,0,4.7207,0.63428,5.97363,1.90283
			c1.25195,1.26904,1.87793,3.21973,1.87793,5.85254v2.07178c0,3.50049-1.15625,5.71631-3.46777,6.64746v0.09668
			c1.28418,0.38525,2.19141,1.17236,2.72168,2.36035c0.5293,1.18848,0.79492,2.77783,0.79492,4.76904v5.9248
			c0,0.96338,0.03125,1.74268,0.0957,2.33643c0.06445,0.59473,0.22461,1.18018,0.48242,1.7583h-5.39551
			c-0.19238-0.5459-0.32129-1.05957-0.38574-1.5415s-0.0957-1.34863-0.0957-2.60107v-6.16602c0-1.5415-0.25-2.61719-0.74707-3.22754
			c-0.49805-0.60986-1.35742-0.91553-2.57715-0.91553h-1.83008v14.45166h-5.2998V430.86563z M1089.35498,445.31729
			c1.05957,0,1.85449-0.27246,2.38379-0.81934c0.53027-0.54541,0.79492-1.46094,0.79492-2.74561v-2.60107
			c0-1.22021-0.2168-2.10303-0.65039-2.64941c-0.43359-0.5459-1.11621-0.81934-2.04688-0.81934h-2.4082v9.63477H1089.35498z"/>
		<path class="st1" d="M1105.63721,450.23087l-6.40723-19.36523h5.63574l3.61328,12.37988h0.09668l3.6123-12.37988h5.1543
			l-6.40625,19.36523v14.35498h-5.29883V450.23087z"/>
		<path class="st1" d="M1128.51807,462.87589c-1.31738-1.46094-1.97559-3.55664-1.97559-6.28662v-1.92676h5.00977v2.31201
			c0,2.18457,0.91602,3.27588,2.74609,3.27588c0.89844,0,1.58105-0.26514,2.04688-0.79492s0.69922-1.38867,0.69922-2.57715
			c0-1.4126-0.32129-2.65674-0.96387-3.7334c-0.64258-1.07568-1.83008-2.36768-3.56445-3.87793
			c-2.18457-1.92676-3.70898-3.66846-4.57617-5.22656c-0.86719-1.55713-1.30078-3.31543-1.30078-5.2749
			c0-2.66504,0.67383-4.72803,2.02344-6.18994c1.34863-1.46094,3.30664-2.19189,5.87695-2.19189
			c2.53613,0,4.45508,0.73096,5.75586,2.19189c1.30078,1.46191,1.95117,3.55713,1.95117,6.28662v1.39697h-5.00977v-1.73438
			c0-1.15625-0.22461-1.99902-0.6748-2.52881c-0.44922-0.52979-1.10742-0.79492-1.97461-0.79492
			c-1.7666,0-2.64941,1.07617-2.64941,3.22754c0,1.2207,0.3291,2.36035,0.9873,3.41992
			c0.6582,1.06006,1.85449,2.34473,3.58887,3.854c2.21582,1.92676,3.74121,3.67773,4.57617,5.25049
			c0.83496,1.57422,1.25293,3.42041,1.25293,5.54004c0,2.76221-0.68262,4.88184-2.04785,6.3584
			c-1.36523,1.47754-3.34766,2.21631-5.94922,2.21631C1131.77686,465.06778,1129.83447,464.33731,1128.51807,462.87589z"/>
		<path class="st1" d="M1145.37744,430.86563h5.2998v33.72021h-5.2998V430.86563z"/>
		<path class="st1" d="M1154.62549,430.86563h8.09375c2.63281,0,4.60742,0.70654,5.9248,2.11963
			c1.31641,1.41357,1.97461,3.48486,1.97461,6.21387v17.05322c0,2.72998-0.6582,4.80127-1.97461,6.21387
			c-1.31738,1.41357-3.29199,2.11963-5.9248,2.11963h-8.09375V430.86563z M1162.62256,459.76846
			c0.86719,0,1.5332-0.25635,1.99902-0.77051c0.46484-0.51318,0.69824-1.34863,0.69824-2.50488V438.9584
			c0-1.15625-0.2334-1.99072-0.69824-2.50488c-0.46582-0.51318-1.13184-0.771-1.99902-0.771h-2.69727v24.08594H1162.62256z"/>
		<path class="st1" d="M1174.18311,430.86563h14.45215v4.81689h-9.15234v8.91211h7.27344v4.81689h-7.27344v10.35693h9.15234v4.81738
			h-14.45215V430.86563z"/>
		<path class="st1" d="M1199.37549,430.86563h5.2998v33.72021h-5.2998V430.86563z"/>
		<path class="st1" d="M1208.62354,430.86563h6.64844l5.1543,20.18408h0.0957v-20.18408h4.72168v33.72021h-5.44336
			l-6.35938-24.61572h-0.0957v24.61572h-4.72168V430.86563z"/>
	</g>
	<g>
		<path class="st1" d="M589.34326,509.4335c-1.38135-1.47656-2.07129-3.56445-2.07129-6.26221v-17.72705
			c0-2.69775,0.68994-4.78516,2.07129-6.2627c1.38037-1.47656,3.37207-2.21582,5.97314-2.21582
			c2.60156,0,4.59229,0.73926,5.97363,2.21582c1.38037,1.47754,2.07129,3.56494,2.07129,6.2627v17.72705
			c0,2.69775-0.69092,4.78564-2.07129,6.26221c-1.38135,1.47754-3.37207,2.21631-5.97363,2.21631
			C592.71533,511.64981,590.72363,510.91104,589.34326,509.4335z M598.0625,503.5087v-18.40186
			c0-2.21582-0.91553-3.32373-2.74609-3.32373s-2.74561,1.10791-2.74561,3.32373v18.40186
			c0,2.21582,0.91504,3.32373,2.74561,3.32373S598.0625,505.72452,598.0625,503.5087z"/>
		<path class="st1" d="M606.92578,477.44766h7.85205c2.729,0,4.7207,0.63428,5.97314,1.90283
			c1.25244,1.26904,1.87891,3.21973,1.87891,5.85254v2.07178c0,3.50049-1.15625,5.71631-3.46875,6.64746v0.09668
			c1.28418,0.38525,2.19189,1.17236,2.72217,2.36035c0.52979,1.18848,0.79443,2.77783,0.79443,4.76904v5.9248
			c0,0.96338,0.03174,1.74268,0.09668,2.33643c0.06396,0.59473,0.22412,1.18018,0.48145,1.7583h-5.39502
			c-0.19287-0.5459-0.32129-1.05957-0.38525-1.5415c-0.06494-0.48193-0.09668-1.34863-0.09668-2.60107v-6.16602
			c0-1.5415-0.24902-2.61719-0.74658-3.22754c-0.49805-0.60986-1.35693-0.91553-2.57715-0.91553h-1.83057v14.45166h-5.29883
			V477.44766z M614.15137,491.89932c1.06006,0,1.85498-0.27246,2.38477-0.81934c0.52979-0.54541,0.79492-1.46094,0.79492-2.74561
			v-2.60107c0-1.22021-0.2168-2.10303-0.65039-2.64941c-0.43359-0.5459-1.11621-0.81934-2.04736-0.81934h-2.40869v9.63477H614.15137
			z"/>
		<path class="st1" d="M626.33887,477.44766h8.09277c2.63281,0,4.60791,0.70654,5.92529,2.11963
			c1.31641,1.41357,1.9751,3.48486,1.9751,6.21387v17.05322c0,2.72998-0.65869,4.80127-1.9751,6.21387
			c-1.31738,1.41357-3.29248,2.11963-5.92529,2.11963h-8.09277V477.44766z M634.33545,506.35049
			c0.86719,0,1.5332-0.25635,1.99902-0.77051c0.46533-0.51318,0.69824-1.34863,0.69824-2.50488v-17.53467
			c0-1.15625-0.23291-1.99072-0.69824-2.50488c-0.46582-0.51318-1.13184-0.771-1.99902-0.771h-2.69775v24.08594H634.33545z"/>
		<path class="st1" d="M645.896,477.44766h14.45166v4.81689h-9.15283v8.91211h7.27393v4.81689h-7.27393v10.35693h9.15283v4.81738
			H645.896V477.44766z"/>
		<path class="st1" d="M663.38232,477.44766h7.85205c2.729,0,4.7207,0.63428,5.97314,1.90283
			c1.25244,1.26904,1.87891,3.21973,1.87891,5.85254v2.07178c0,3.50049-1.15625,5.71631-3.46875,6.64746v0.09668
			c1.28418,0.38525,2.19189,1.17236,2.72217,2.36035c0.52979,1.18848,0.79443,2.77783,0.79443,4.76904v5.9248
			c0,0.96338,0.03174,1.74268,0.09668,2.33643c0.06396,0.59473,0.22412,1.18018,0.48145,1.7583h-5.39502
			c-0.19287-0.5459-0.32129-1.05957-0.38525-1.5415c-0.06494-0.48193-0.09668-1.34863-0.09668-2.60107v-6.16602
			c0-1.5415-0.24902-2.61719-0.74658-3.22754c-0.49805-0.60986-1.35693-0.91553-2.57715-0.91553h-1.83057v14.45166h-5.29883
			V477.44766z M670.60791,491.89932c1.06006,0,1.85498-0.27246,2.38477-0.81934c0.52979-0.54541,0.79492-1.46094,0.79492-2.74561
			v-2.60107c0-1.22021-0.2168-2.10303-0.65039-2.64941c-0.43359-0.5459-1.11621-0.81934-2.04736-0.81934h-2.40869v9.63477H670.60791
			z"/>
		<path class="st1" d="M694.64502,482.26456h-5.53955v-4.81689h16.37842v4.81689h-5.54004v28.90332h-5.29883V482.26456z"/>
		<path class="st1" d="M709.57812,509.4335c-1.38135-1.47656-2.07129-3.56445-2.07129-6.26221v-17.72705
			c0-2.69775,0.68994-4.78516,2.07129-6.2627c1.38037-1.47656,3.37207-2.21582,5.97314-2.21582
			c2.60156,0,4.59229,0.73926,5.97363,2.21582c1.38037,1.47754,2.07129,3.56494,2.07129,6.2627v17.72705
			c0,2.69775-0.69092,4.78564-2.07129,6.26221c-1.38135,1.47754-3.37207,2.21631-5.97363,2.21631
			C712.9502,511.64981,710.9585,510.91104,709.57812,509.4335z M718.29736,503.5087v-18.40186
			c0-2.21582-0.91553-3.32373-2.74609-3.32373s-2.74561,1.10791-2.74561,3.32373v18.40186
			c0,2.21582,0.91504,3.32373,2.74561,3.32373S718.29736,505.72452,718.29736,503.5087z"/>
		<path class="st1" d="M734.86768,477.44766h14.45166v4.81689h-9.15283v8.91211h7.27393v4.81689h-7.27393v10.35693h9.15283v4.81738
			h-14.45166V477.44766z"/>
		<path class="st1" d="M752.35352,477.44766h6.64746l5.15479,20.18408h0.09619v-20.18408h4.7207v33.72021h-5.44336
			l-6.35889-24.61572h-0.09619v24.61572h-4.7207V477.44766z"/>
		<path class="st1" d="M773.98193,509.45792c-1.31689-1.46094-1.9751-3.55664-1.9751-6.28662v-1.92676h5.01025v2.31201
			c0,2.18457,0.91504,3.27588,2.74561,3.27588c0.89893,0,1.58154-0.26514,2.04736-0.79492
			c0.46533-0.52979,0.69824-1.38867,0.69824-2.57715c0-1.4126-0.32129-2.65674-0.96338-3.7334
			c-0.64258-1.07568-1.83057-2.36768-3.56445-3.87793c-2.18457-1.92676-3.70947-3.66846-4.57666-5.22656
			c-0.8667-1.55713-1.30029-3.31543-1.30029-5.2749c0-2.66504,0.67432-4.72803,2.02295-6.18994
			c1.34912-1.46094,3.30762-2.19189,5.87695-2.19189c2.53662,0,4.45605,0.73096,5.75684,2.19189
			c1.30029,1.46191,1.95068,3.55713,1.95068,6.28662v1.39697h-5.00977v-1.73438c0-1.15625-0.2251-1.99902-0.67432-2.52881
			c-0.4502-0.52979-1.10791-0.79492-1.9751-0.79492c-1.7666,0-2.64941,1.07617-2.64941,3.22754
			c0,1.2207,0.3291,2.36035,0.9873,3.41992c0.6582,1.06006,1.85498,2.34473,3.58887,3.854
			c2.21582,1.92676,3.74072,3.67773,4.57666,5.25049c0.83447,1.57422,1.25244,3.42041,1.25244,5.54004
			c0,2.76221-0.68311,4.88184-2.04736,6.3584c-1.36572,1.47754-3.34814,2.21631-5.94922,2.21631
			C777.24121,511.64981,775.29834,510.91934,773.98193,509.45792z"/>
		<path class="st1" d="M792.67236,509.45792c-1.34912-1.46094-2.02344-3.55664-2.02344-6.28662v-25.72363h5.29883v26.10889
			c0,1.15625,0.23291,1.9917,0.69873,2.50488c0.46533,0.51416,1.13184,0.771,1.99902,0.771s1.5332-0.25684,1.99902-0.771
			c0.46533-0.51318,0.69873-1.34863,0.69873-2.50488v-26.10889h5.10596v25.72363c0,2.72998-0.67432,4.82568-2.02295,6.28662
			c-1.34912,1.46143-3.30811,2.19189-5.87695,2.19189C795.97949,511.64981,794.021,510.91934,792.67236,509.45792z"/>
		<path class="st1" d="M810.20654,477.44766h7.85205c2.729,0,4.7207,0.63428,5.97314,1.90283
			c1.25244,1.26904,1.87891,3.21973,1.87891,5.85254v2.07178c0,3.50049-1.15625,5.71631-3.46875,6.64746v0.09668
			c1.28418,0.38525,2.19189,1.17236,2.72217,2.36035c0.52979,1.18848,0.79443,2.77783,0.79443,4.76904v5.9248
			c0,0.96338,0.03174,1.74268,0.09668,2.33643c0.06396,0.59473,0.22412,1.18018,0.48145,1.7583h-5.39502
			c-0.19287-0.5459-0.32129-1.05957-0.38525-1.5415c-0.06494-0.48193-0.09668-1.34863-0.09668-2.60107v-6.16602
			c0-1.5415-0.24902-2.61719-0.74658-3.22754c-0.49805-0.60986-1.35693-0.91553-2.57715-0.91553h-1.83057v14.45166h-5.29883
			V477.44766z M817.43213,491.89932c1.06006,0,1.85498-0.27246,2.38477-0.81934c0.52979-0.54541,0.79492-1.46094,0.79492-2.74561
			v-2.60107c0-1.22021-0.2168-2.10303-0.65039-2.64941c-0.43359-0.5459-1.11621-0.81934-2.04736-0.81934h-2.40869v9.63477H817.43213
			z"/>
		<path class="st1" d="M829.61963,477.44766h14.45166v4.81689h-9.15283v8.91211h7.27393v4.81689h-7.27393v10.35693h9.15283v4.81738
			h-14.45166V477.44766z"/>
		<path class="st1" d="M856.4502,509.45792c-1.34863-1.46094-2.02295-3.55664-2.02295-6.28662v-17.72705
			c0-2.72949,0.67432-4.82471,2.02295-6.28662c1.34912-1.46094,3.30762-2.19189,5.87695-2.19189
			c2.56885,0,4.52832,0.73096,5.87695,2.19189c1.34912,1.46191,2.02344,3.55713,2.02344,6.28662v2.89014h-5.00977v-3.22754
			c0-2.21582-0.91553-3.32373-2.74609-3.32373s-2.74561,1.10791-2.74561,3.32373v18.44971
			c0,2.18457,0.91504,3.27588,2.74561,3.27588s2.74609-1.09131,2.74609-3.27588v-6.59912h-2.6499v-4.81738h7.65967v11.03125
			c0,2.72998-0.67432,4.82568-2.02344,6.28662c-1.34863,1.46143-3.30811,2.19189-5.87695,2.19189
			C859.75781,511.64981,857.79932,510.91934,856.4502,509.45792z"/>
		<path class="st1" d="M875.3335,509.4335c-1.38135-1.47656-2.07129-3.56445-2.07129-6.26221v-17.72705
			c0-2.69775,0.68994-4.78516,2.07129-6.2627c1.38037-1.47656,3.37207-2.21582,5.97314-2.21582
			c2.60156,0,4.59229,0.73926,5.97363,2.21582c1.38037,1.47754,2.07129,3.56494,2.07129,6.2627v17.72705
			c0,2.69775-0.69092,4.78564-2.07129,6.26221c-1.38135,1.47754-3.37207,2.21631-5.97363,2.21631
			C878.70557,511.64981,876.71387,510.91104,875.3335,509.4335z M884.05273,503.5087v-18.40186
			c0-2.21582-0.91553-3.32373-2.74609-3.32373s-2.74561,1.10791-2.74561,3.32373v18.40186
			c0,2.21582,0.91504,3.32373,2.74561,3.32373S884.05273,505.72452,884.05273,503.5087z"/>
		<path class="st1" d="M894.60205,509.4335c-1.38135-1.47656-2.07129-3.56445-2.07129-6.26221v-17.72705
			c0-2.69775,0.68994-4.78516,2.07129-6.2627c1.38037-1.47656,3.37207-2.21582,5.97314-2.21582
			c2.60156,0,4.59229,0.73926,5.97363,2.21582c1.38037,1.47754,2.07129,3.56494,2.07129,6.2627v17.72705
			c0,2.69775-0.69092,4.78564-2.07129,6.26221c-1.38135,1.47754-3.37207,2.21631-5.97363,2.21631
			C897.97412,511.64981,895.98242,510.91104,894.60205,509.4335z M903.32129,503.5087v-18.40186
			c0-2.21582-0.91553-3.32373-2.74609-3.32373s-2.74561,1.10791-2.74561,3.32373v18.40186
			c0,2.21582,0.91504,3.32373,2.74561,3.32373S903.32129,505.72452,903.32129,503.5087z"/>
		<path class="st1" d="M912.18408,477.44766h8.09277c2.63281,0,4.60791,0.70654,5.92529,2.11963
			c1.31641,1.41357,1.9751,3.48486,1.9751,6.21387v17.05322c0,2.72998-0.65869,4.80127-1.9751,6.21387
			c-1.31738,1.41357-3.29248,2.11963-5.92529,2.11963h-8.09277V477.44766z M920.18066,506.35049
			c0.86719,0,1.5332-0.25635,1.99902-0.77051c0.46533-0.51318,0.69824-1.34863,0.69824-2.50488v-17.53467
			c0-1.15625-0.23291-1.99072-0.69824-2.50488c-0.46582-0.51318-1.13184-0.771-1.99902-0.771h-2.69775v24.08594H920.18066z"/>
		<path class="st1" d="M939.44824,477.44766h7.85205c2.729,0,4.7207,0.63428,5.97314,1.90283
			c1.25244,1.26904,1.87891,3.21973,1.87891,5.85254v2.07178c0,3.50049-1.15625,5.71631-3.46875,6.64746v0.09668
			c1.28418,0.38525,2.19189,1.17236,2.72217,2.36035c0.52979,1.18848,0.79443,2.77783,0.79443,4.76904v5.9248
			c0,0.96338,0.03174,1.74268,0.09668,2.33643c0.06396,0.59473,0.22412,1.18018,0.48145,1.7583h-5.39502
			c-0.19287-0.5459-0.32129-1.05957-0.38525-1.5415c-0.06494-0.48193-0.09668-1.34863-0.09668-2.60107v-6.16602
			c0-1.5415-0.24902-2.61719-0.74658-3.22754c-0.49805-0.60986-1.35693-0.91553-2.57715-0.91553h-1.83057v14.45166h-5.29883
			V477.44766z M946.67383,491.89932c1.06006,0,1.85498-0.27246,2.38477-0.81934c0.52979-0.54541,0.79492-1.46094,0.79492-2.74561
			v-2.60107c0-1.22021-0.2168-2.10303-0.65039-2.64941c-0.43359-0.5459-1.11621-0.81934-2.04736-0.81934h-2.40869v9.63477H946.67383
			z"/>
		<path class="st1" d="M958.86182,477.44766h14.45215v4.81689h-9.15234v8.91211h7.27344v4.81689h-7.27344v10.35693h9.15234v4.81738
			h-14.45215V477.44766z"/>
		<path class="st1" d="M980.44189,477.44766h7.17773l5.49219,33.72021h-5.2998l-0.96289-6.6958v0.09619h-6.02148l-0.96387,6.59961
			h-4.91309L980.44189,477.44766z M986.22314,499.9921l-2.36035-16.66748h-0.09668l-2.3125,16.66748H986.22314z"/>
		<path class="st1" d="M995.66357,477.44766h8.09375c2.63281,0,4.60742,0.70654,5.9248,2.11963
			c1.31641,1.41357,1.97461,3.48486,1.97461,6.21387v17.05322c0,2.72998-0.6582,4.80127-1.97461,6.21387
			c-1.31738,1.41357-3.29199,2.11963-5.9248,2.11963h-8.09375V477.44766z M1003.66064,506.35049
			c0.86719,0,1.5332-0.25635,1.99902-0.77051c0.46484-0.51318,0.69824-1.34863,0.69824-2.50488v-17.53467
			c0-1.15625-0.2334-1.99072-0.69824-2.50488c-0.46582-0.51318-1.13184-0.771-1.99902-0.771h-2.69727v24.08594H1003.66064z"/>
		<path class="st1" d="M1019.21924,477.44766h7.17773l5.49219,33.72021h-5.2998l-0.96289-6.6958v0.09619h-6.02148l-0.96387,6.59961
			h-4.91309L1019.21924,477.44766z M1025.00049,499.9921l-2.36035-16.66748h-0.09668l-2.3125,16.66748H1025.00049z"/>
		<path class="st1" d="M1034.44092,477.44766h7.99707c2.72949,0,4.7207,0.63428,5.97363,1.90283
			c1.25195,1.26904,1.87793,3.21973,1.87793,5.85254v1.34912c0,1.73389-0.28125,3.14746-0.84277,4.23926
			c-0.5625,1.0918-1.4209,1.87842-2.57715,2.36035v0.09619c2.63281,0.89941,3.9502,3.24414,3.9502,7.0332v2.89014
			c0,2.60156-0.68262,4.58447-2.04688,5.94922c-1.36621,1.36523-3.36523,2.04736-5.99805,2.04736h-8.33398V477.44766z
			 M1041.81201,491.17667c1.05957,0,1.85449-0.27246,2.38379-0.81885c0.53027-0.5459,0.79492-1.46094,0.79492-2.74609v-1.87842
			c0-1.22021-0.2168-2.10303-0.65039-2.64941c-0.43359-0.5459-1.11621-0.81934-2.04688-0.81934h-2.55273v8.91211H1041.81201z
			 M1042.7749,506.35049c0.93164,0,1.62109-0.24805,2.07129-0.74658c0.44922-0.49756,0.6748-1.35645,0.6748-2.57715v-2.93848
			c0-1.5415-0.26465-2.60889-0.79492-3.20312s-1.40527-0.8916-2.625-0.8916h-2.36035v10.35693H1042.7749z"/>
		<path class="st1" d="M1053.90186,477.44766h5.2998v33.72021h-5.2998V477.44766z"/>
		<path class="st1" d="M1063.1499,477.44766h5.2998v28.90283h8.71875v4.81738h-14.01855V477.44766z"/>
		<path class="st1" d="M1079.72021,477.44766h5.2998v33.72021h-5.2998V477.44766z"/>
		<path class="st1" d="M1093.11279,482.26456h-5.54004v-4.81689h16.37793v4.81689h-5.53906v28.90332h-5.29883V482.26456z"/>
		<path class="st1" d="M1111.56201,496.8129l-6.40723-19.36523h5.63574l3.61328,12.37988h0.09668l3.6123-12.37988h5.1543
			l-6.40625,19.36523v14.35498h-5.29883V496.8129z"/>
	</g>
	<polygon class="st1" points="1422.80054,689.95343 1405.26758,773.07867 1387.73621,689.95343 1335.15344,689.95343 
		1335.15344,928.91614 1387.12927,928.91614 1386.29419,889.78296 1424.24084,889.78296 1423.40747,928.91614 1475.38318,928.91614 
		1475.38318,689.95343 	"/>
	<g>
		<defs>
			<rect id="SVGID_1_" x="226.59131" y="689.95325" width="1466.81738" height="238.96272"/>
		</defs>
		<clipPath id="SVGID_00000127043786837890513090000000722892956774863237_">
			<use xlink:href="#SVGID_1_"  style="overflow:visible;"/>
		</clipPath>
		<path style="clip-path:url(#SVGID_00000127043786837890513090000000722892956774863237_);fill:#202020;" d="M1579.78748,928.91449
			V689.95343h61.68567c33.56604,0,52.05444,18.80627,52.05444,52.95526v143.28387c0,27.1496-16.7782,42.72192-46.03137,42.72192
			H1579.78748z M1641.79749,879.89325V743.21057c0-2.37488-0.3147-3.62415-0.51062-4.1701
			c-0.22168-0.03528-0.55396-0.06744-1.01648-0.06744h-8.75281v140.92023H1641.79749z"/>
		<path style="clip-path:url(#SVGID_00000127043786837890513090000000722892956774863237_);fill:#202020;" d="M1514.03894,928.91418
			c-29.44592,0-46.33325-17.54578-46.33325-48.13971V738.39465c0-30.78497,16.77991-48.44159,46.03455-48.44159h27.69238
			c29.25476,0,46.03308,17.65662,46.03308,48.44159v142.37982c0,30.59393-16.88757,48.13971-46.33337,48.13971H1514.03894z
			 M1519.49365,879.80463c0.34509,0.0498,0.82532,0.08832,1.46912,0.08832h14.71973c0.03223-0.32275,0.0531-0.729,0.0531-1.22675
			V740.19952c0-0.4801-0.02576-0.85266-0.05786-1.1369c-0.34534-0.04816-0.82544-0.0899-1.47095-0.0899h-13.54431
			c-0.48962,0-0.87341,0.0257-1.16882,0.06104c-0.03381,0.29224-0.05786,0.67761-0.05786,1.16577V878.6662
			C1519.43579,879.1463,1519.45984,879.52203,1519.49365,879.80463"/>
		<polygon style="clip-path:url(#SVGID_00000127043786837890513090000000722892956774863237_);fill:#1795D2;" points="
			1405.26843,828.39709 1432.05994,701.36963 1463.96741,701.36963 1463.96741,917.49896 1435.06909,917.49896 1438.07983,776.0199 
			1416.40576,878.36572 1394.12952,878.36572 1372.45703,776.0199 1375.46606,917.49896 1346.56946,917.49896 1346.56946,701.36963 
			1378.47681,701.36963 		"/>
		<path style="clip-path:url(#SVGID_00000127043786837890513090000000722892956774863237_);fill:#1795D2;" d="M1514.03906,917.49799
			c-23.28137,0-34.9165-12.23889-34.9165-36.72302V738.39355c0-24.68323,11.53711-37.02484,34.6178-37.02484h27.6925
			c23.07263,0,34.61621,12.34161,34.61621,37.02484v142.38141c0,24.48413-11.64001,36.72302-34.91809,36.72302H1514.03906z
			 M1520.96301,891.31018h14.74866c7.6239,0,11.43909-4.21344,11.43909-12.64349V740.20001
			c0-8.42847-4.31616-12.64349-12.94373-12.64349h-13.54431c-8.42847,0-12.64355,4.21503-12.64355,12.64349v138.46667
			C1508.01917,887.09674,1512.33057,891.31018,1520.96301,891.31018"/>
		<path style="clip-path:url(#SVGID_00000127043786837890513090000000722892956774863237_);fill:#1795D2;" d="M1591.20459,917.49799
			V701.36871h50.26892c27.0918,0,40.6377,13.84778,40.6377,41.54016v143.28381c0,20.87451-11.54358,31.3053-34.61621,31.3053
			H1591.20459z M1620.10132,891.31018h21.67236c7.62415,0,11.43921-3.20825,11.43921-9.63275V743.21075
			c0-10.43243-4.31775-15.65424-12.94373-15.65424h-20.16785V891.31018z"/>
		<path style="clip-path:url(#SVGID_00000127043786837890513090000000722892956774863237_);fill:#202020;" d="M1143.06494,804.25824
			l49.22192-49.22198c2.85815-2.85815,7.49231-2.85815,10.349,0l49.22351,49.22198c2.85657,2.85822,2.85657,7.49072,0,10.34888
			l-49.22351,49.22357c-2.85669,2.85663-7.49084,2.85663-10.349,0l-49.22192-49.22357
			C1140.20667,811.74896,1140.20667,807.11646,1143.06494,804.25824"/>
		<path style="clip-path:url(#SVGID_00000127043786837890513090000000722892956774863237_);fill:#202020;" d="M1133.90051,916.42212
			l101.81433-101.81433c2.85815-2.85815,2.85815-7.49231,0-10.34894l-101.81433-101.81433
			c-4.61011-4.61005-1.34558-12.49255,5.17371-12.49255h85.61084c1.94128,0,3.80237,0.77075,5.17371,2.14368l112.16333,112.16321
			c2.85974,2.85663,2.85974,7.49078,0.00146,10.34894l-112.16479,112.16327c-1.37134,1.37128-3.23242,2.14362-5.17371,2.14362
			h-85.61084C1132.55493,928.91467,1129.29041,921.03217,1133.90051,916.42212"/>
		
			<rect x="1166.75562" y="778.72473" transform="matrix(0.70711 -0.70711 0.70711 0.70711 -221.62593 1083.81287)" style="clip-path:url(#SVGID_00000127043786837890513090000000722892956774863237_);fill:#1795D2;" width="61.41491" height="61.41491"/>
		<polygon style="clip-path:url(#SVGID_00000127043786837890513090000000722892956774863237_);fill:#FFFFFF;" points="
			1222.98779,701.36792 1148.96851,701.36792 1257.03394,809.43335 1148.96851,917.49719 1222.98779,917.49719 
			1331.05151,809.43335 		"/>
	</g>
	<polygon class="st1" points="314.11694,689.95343 296.5856,773.07709 279.05426,689.95343 226.59195,689.95343 
		226.59195,928.91614 278.4473,928.91614 277.61395,889.78296 315.55728,889.78296 314.72391,928.91614 366.69968,928.91614 
		366.69968,689.95343 	"/>
	<polygon class="st1" points="1090.56519,689.95343 1073.03223,773.07867 1055.50085,689.95343 1002.91809,689.95343 
		1002.91809,928.91614 1054.89392,928.91614 1054.06055,889.78296 1092.00549,889.78296 1091.17212,928.91614 1143.14636,928.91614 
		1143.14636,689.95343 	"/>
	<g>
		<defs>
			
				<rect id="SVGID_00000010277728699083043580000015813416276209001911_" x="226.59131" y="689.95325" width="1466.81738" height="238.96272"/>
		</defs>
		<clipPath id="SVGID_00000049910064213288304240000001474408689486886276_">
			<use xlink:href="#SVGID_00000010277728699083043580000015813416276209001911_"  style="overflow:visible;"/>
		</clipPath>
		<path style="clip-path:url(#SVGID_00000049910064213288304240000001474408689486886276_);fill:#202020;" d="M405.35788,928.91418
			c-29.44742,0-46.33487-17.54578-46.33487-48.13971V738.39465c0-30.78497,16.77826-48.44159,46.03299-48.44159h27.69238
			c29.25473,0,46.03299,17.65662,46.03299,48.44159v142.37982c0,30.59393-16.88742,48.13971-46.33325,48.13971H405.35788z
			 M410.81256,879.80463c0.34521,0.0498,0.82532,0.08832,1.46759,0.08832h14.71973c0.03049-0.32275,0.05298-0.729,0.05298-1.22675
			V740.19952c0-0.4801-0.0257-0.85266-0.05939-1.1369c-0.34525-0.04816-0.82538-0.0899-1.46765-0.0899h-13.54593
			c-0.48972,0-0.8735,0.0257-1.16733,0.06104c-0.03375,0.29224-0.05942,0.67761-0.05942,1.16577V878.6662
			C410.75314,879.1463,410.77881,879.52203,410.81256,879.80463"/>
		<polygon style="clip-path:url(#SVGID_00000049910064213288304240000001474408689486886276_);fill:#202020;" points="
			559.35785,928.91498 560.19122,889.78186 522.24792,889.78186 523.07965,928.91498 471.1055,928.91498 471.1055,689.95392 
			523.68823,689.95392 541.21796,773.07599 558.74927,689.95392 611.33203,689.95392 611.33203,928.91498 		"/>
		<polygon style="clip-path:url(#SVGID_00000049910064213288304240000001474408689486886276_);fill:#202020;" points="
			603.65668,928.91498 603.65668,689.95392 698.12964,689.95392 698.12964,738.97351 655.38678,738.97351 655.38678,781.76294 
			693.31244,781.76294 693.31244,830.78259 655.38678,830.78259 655.38678,879.89374 698.12964,879.89374 698.12964,928.91498 		"/>
		<polygon style="clip-path:url(#SVGID_00000049910064213288304240000001474408689486886276_);fill:#202020;" points="
			750.35541,928.91498 750.35541,876.20862 742.18384,850.26331 742.18384,928.91498 690.45374,928.91498 690.45374,689.95392 
			739.28711,689.95392 750.35541,727.24207 750.35541,689.95392 802.08392,689.95392 802.08392,928.91498 		"/>
		<path style="clip-path:url(#SVGID_00000049910064213288304240000001474408689486886276_);fill:#202020;" d="M939.88202,928.91498
			c-17.19257,0-46.03461-6.84198-46.03461-52.65497V689.95392h51.72845v187.2085c0,1.34082,0.13007,2.19025,0.24731,2.67999
			c0.2392,0.02887,0.56195,0.05133,0.97943,0.05133h11.84381c0.11084-0.55554,0.22003-1.4339,0.22003-2.73132v-187.2085h51.72858
			V876.5603c0,45.55286-29.02838,52.35468-46.33167,52.35468H939.88202z"/>
		<polygon style="clip-path:url(#SVGID_00000049910064213288304240000001474408689486886276_);fill:#202020;" points="
			822.10205,928.91498 822.10205,738.97351 794.40808,738.97351 794.40808,689.95392 901.52448,689.95392 901.52448,738.97351 
			873.83057,738.97351 873.83057,928.91498 		"/>
		<polygon style="clip-path:url(#SVGID_00000049910064213288304240000001474408689486886276_);fill:#FFFFFF;" points="
			296.58527,828.39709 323.37521,701.36963 355.28424,701.36963 355.28424,917.49896 326.38596,917.49896 329.39511,776.0199 
			307.7226,878.36572 285.44635,878.36572 263.77545,776.0199 266.78458,917.49896 237.88632,917.49896 237.88632,701.36963 
			269.79532,701.36963 		"/>
		<path style="clip-path:url(#SVGID_00000049910064213288304240000001474408689486886276_);fill:#FFFFFF;" d="M405.35611,917.49799
			c-23.28143,0-34.91815-12.23889-34.91815-36.72302V738.39355c0-24.68323,11.53876-37.02484,34.61789-37.02484h27.69235
			c23.07593,0,34.61627,12.34161,34.61627,37.02484v142.38141c0,24.48413-11.63989,36.72302-34.91653,36.72302H405.35611z
			 M412.28,891.31018h14.75021c7.62399,0,11.43759-4.21344,11.43759-12.64349V740.20001
			c0-8.42847-4.31778-12.64349-12.94379-12.64349h-13.5459c-8.42847,0-12.64188,4.21503-12.64188,12.64349v138.46667
			C399.33624,887.09674,403.64923,891.31018,412.28,891.31018"/>
		<polygon style="clip-path:url(#SVGID_00000049910064213288304240000001474408689486886276_);fill:#FFFFFF;" points="
			541.21881,828.39709 568.00873,701.36963 599.91779,701.36963 599.91779,917.49896 571.01947,917.49896 574.02863,776.0199 
			552.35608,878.36572 530.07983,878.36572 508.40897,776.0199 511.41812,917.49896 482.51984,917.49896 482.51984,701.36963 
			514.42883,701.36963 		"/>
		<polygon style="clip-path:url(#SVGID_00000049910064213288304240000001474408689486886276_);fill:#FFFFFF;" points="
			615.07196,917.49829 615.07196,701.36902 686.71307,701.36902 686.71307,727.55682 643.97021,727.55682 643.97021,793.17969 
			681.89746,793.17969 681.89746,819.36749 643.97021,819.36749 643.97021,891.31049 686.71307,891.31049 686.71307,917.49829 		"/>
		<polygon style="clip-path:url(#SVGID_00000049910064213288304240000001474408689486886276_);fill:#FFFFFF;" points="
			761.77057,805.82074 761.77057,701.36981 790.66876,701.36981 790.66876,917.4975 761.77057,917.4975 761.77057,874.45276 
			730.76715,776.02008 730.76715,917.4975 701.86884,917.4975 701.86884,701.36981 730.76715,701.36981 		"/>
		<polygon style="clip-path:url(#SVGID_00000049910064213288304240000001474408689486886276_);fill:#FFFFFF;" points="
			862.41418,727.55731 862.41418,917.49878 833.51752,917.49878 833.51752,727.55731 805.82355,727.55731 805.82355,701.36951 
			890.10815,701.36951 890.10815,727.55731 		"/>
		<path style="clip-path:url(#SVGID_00000049910064213288304240000001474408689486886276_);fill:#FFFFFF;" d="M999.17841,701.36884
			v175.19287c0,27.29254-11.63995,40.9364-34.91498,40.9364h-24.38293c-23.08075,0-34.61786-13.74341-34.61786-41.23828V701.36884
			h28.89667v175.7934c0,9.43365,4.21503,14.14807,12.64185,14.14807h11.74268c7.82471,0,11.73944-4.71442,11.73944-14.14807
			v-175.7934H999.17841z"/>
		<polygon style="clip-path:url(#SVGID_00000049910064213288304240000001474408689486886276_);fill:#FFFFFF;" points="
			1073.03308,828.39709 1099.82458,701.36963 1131.73193,701.36963 1131.73193,917.49896 1102.83362,917.49896 1105.84436,776.0199 
			1084.17029,878.36572 1061.89404,878.36572 1040.22156,776.0199 1043.23071,917.49896 1014.33405,917.49896 1014.33405,701.36963 
			1046.24133,701.36963 		"/>
	</g>
	<g>
		<defs>
			
				<rect id="SVGID_00000163758360182957903410000013236292545202296733_" x="226.59131" y="689.95325" width="1466.81738" height="238.96272"/>
		</defs>
		<clipPath id="SVGID_00000170966651772185628150000008734942105810271623_">
			<use xlink:href="#SVGID_00000163758360182957903410000013236292545202296733_"  style="overflow:visible;"/>
		</clipPath>
	</g>
	<g>
		<defs>
			
				<rect id="SVGID_00000054268173642805164020000004320348523261724050_" x="227.39418" y="151.88855" width="215.59137" height="238.96268"/>
		</defs>
		<clipPath id="SVGID_00000007391239374802604820000000486493642347255464_">
			<use xlink:href="#SVGID_00000054268173642805164020000004320348523261724050_"  style="overflow:visible;"/>
		</clipPath>
		<path style="clip-path:url(#SVGID_00000007391239374802604820000000486493642347255464_);fill:#202020;" d="M241.16843,266.19495
			l49.22357-49.22357c2.85657-2.85658,7.49069-2.85658,10.34891,0l49.22195,49.22357c2.85818,2.85825,2.85818,7.49072,0,10.34891
			l-49.22195,49.22195c-2.85822,2.85825-7.49234,2.85825-10.34891,0l-49.22357-49.22195
			C238.31021,273.68567,238.31021,269.05319,241.16843,266.19495"/>
		<path style="clip-path:url(#SVGID_00000007391239374802604820000000486493642347255464_);fill:#202020;" d="M232.00406,378.35901
			l101.81592-101.81592c2.8566-2.8566,2.8566-7.49075,0-10.34894L232.00406,164.37988
			c-4.61005-4.60852-1.34561-12.49103,5.17525-12.49103h85.60936c1.94131,0,3.80234,0.77081,5.17526,2.14211L440.1272,266.19415
			c2.85818,2.85818,2.85818,7.49234,0,10.34894L327.96393,388.70795c-1.37292,1.37289-3.23395,2.14368-5.17526,2.14368h-85.61098
			C230.65845,390.85162,227.39401,382.96906,232.00406,378.35901"/>
		
			<rect x="264.85931" y="240.66165" transform="matrix(0.70711 -0.70711 0.70711 0.70711 -105.31742 288.47958)" style="clip-path:url(#SVGID_00000007391239374802604820000000486493642347255464_);fill:#1795D2;" width="61.4149" height="61.4149"/>
		<polygon style="clip-path:url(#SVGID_00000007391239374802604820000000486493642347255464_);fill:#FFFFFF;" points="
			321.09174,163.30397 247.07253,163.30397 355.13794,271.36945 247.07253,379.43488 321.09174,379.43488 429.15717,271.36945 		"/>
	</g>
	<g>
		<defs>
			
				<rect id="SVGID_00000062159510071408045090000004212337131427567795_" x="118.79563" y="31.60347" width="1682.40076" height="1016.79303"/>
		</defs>
		<clipPath id="SVGID_00000145038131277827623750000015353896154233840824_">
			<use xlink:href="#SVGID_00000062159510071408045090000004212337131427567795_"  style="overflow:visible;"/>
		</clipPath>
		<g style="clip-path:url(#SVGID_00000145038131277827623750000015353896154233840824_);">
			<defs>
				
					<rect id="SVGID_00000030488050484654200320000006761979162723329182_" x="118.79563" y="31.60347" width="1682.40869" height="1016.79303"/>
			</defs>
			<clipPath id="SVGID_00000168104166636196351220000009840694504915756981_">
				<use xlink:href="#SVGID_00000030488050484654200320000006761979162723329182_"  style="overflow:visible;"/>
			</clipPath>
			<g style="opacity:0.19;clip-path:url(#SVGID_00000168104166636196351220000009840694504915756981_);">
				<g>
					<defs>
						
							<rect id="SVGID_00000085930759772686157820000015681706593816659645_" x="320.73831" y="21.16625" width="244.49448" height="251.80853"/>
					</defs>
					<clipPath id="SVGID_00000162347457832732321280000010147064804388107945_">
						<use xlink:href="#SVGID_00000085930759772686157820000015681706593816659645_"  style="overflow:visible;"/>
					</clipPath>
					<g style="clip-path:url(#SVGID_00000162347457832732321280000010147064804388107945_);">
						<defs>
							
								<rect id="SVGID_00000103979773681913592830000012259001762033410488_" x="335.18988" y="32.40791" width="215.59137" height="238.96277"/>
						</defs>
						<clipPath id="SVGID_00000065783298267178731810000003074305247857215930_">
							<use xlink:href="#SVGID_00000103979773681913592830000012259001762033410488_"  style="overflow:visible;"/>
						</clipPath>
						<path style="clip-path:url(#SVGID_00000065783298267178731810000003074305247857215930_);fill:#202020;" d="
							M348.96408,146.71346l49.22357-49.22352c2.85657-2.85658,7.49072-2.85658,10.34891,0l49.22198,49.22352
							c2.85818,2.85825,2.85818,7.49078,0,10.34892l-49.22198,49.22195c-2.85818,2.85823-7.49234,2.85823-10.34891,0
							l-49.22357-49.22195C346.10587,154.20424,346.10587,149.5717,348.96408,146.71346"/>
						<path style="clip-path:url(#SVGID_00000065783298267178731810000003074305247857215930_);fill:#202020;" d="
							M339.79974,258.87762l101.81592-101.81593c2.85663-2.85657,2.85663-7.49068,0-10.34892L339.79974,44.89845
							c-4.61005-4.60843-1.34561-12.49094,5.17523-12.49094h85.60938c1.94131,0,3.80234,0.77072,5.17526,2.14201
							l112.16324,112.16324c2.85822,2.85825,2.85822,7.49236,0,10.34892L435.75961,269.22656
							c-1.37292,1.37289-3.23395,2.14368-5.17526,2.14368h-85.61099C338.45413,271.37024,335.1897,263.48767,339.79974,258.87762"/>
						
							<rect x="372.65485" y="121.18033" transform="matrix(0.70711 -0.70711 0.70711 0.70711 10.74131 329.70734)" style="clip-path:url(#SVGID_00000065783298267178731810000003074305247857215930_);fill:#1795D2;" width="61.41489" height="61.41489"/>
						<polygon style="clip-path:url(#SVGID_00000065783298267178731810000003074305247857215930_);fill:#FFFFFF;" points="
							428.88742,43.82254 354.86819,43.82254 462.93362,151.88806 354.86819,259.95343 428.88742,259.95343 536.95288,151.88806 
													"/>
					</g>
				</g>
			</g>
		</g>
	</g>
	<g>
		<defs>
			
				<rect id="SVGID_00000061467779105730317560000001732187092629985687_" x="118.79563" y="31.60347" width="1682.40869" height="1016.79303"/>
		</defs>
		<clipPath id="SVGID_00000176723756423369053010000017606696881868956562_">
			<use xlink:href="#SVGID_00000061467779105730317560000001732187092629985687_"  style="overflow:visible;"/>
		</clipPath>
		
			<line style="clip-path:url(#SVGID_00000176723756423369053010000017606696881868956562_);fill:none;stroke:#202020;stroke-dasharray:12.402,12.402;" x1="119.5985" y1="62.27684" x2="119.5985" y2="490.41833"/>
	</g>
	<line class="st17" x1="148.99727" y1="510.33212" x2="531.18121" y2="510.33212"/>
	<line class="st18" x1="550.78088" y1="480.46222" x2="550.78088" y2="52.32072"/>
	<g>
		<defs>
			
				<rect id="SVGID_00000165226529124898947210000012678522099229662356_" x="118.79563" y="31.60347" width="1682.40869" height="1016.79303"/>
		</defs>
		<clipPath id="SVGID_00000036931773457209500680000012173543995801901727_">
			<use xlink:href="#SVGID_00000165226529124898947210000012678522099229662356_"  style="overflow:visible;"/>
		</clipPath>
		
			<line style="clip-path:url(#SVGID_00000036931773457209500680000012173543995801901727_);fill:none;stroke:#202020;stroke-dasharray:12.206,12.206;" x1="521.38214" y1="32.40634" x2="139.19817" y2="32.40634"/>
	</g>
	<g>
		<defs>
			
				<rect id="SVGID_00000018197306834310083900000004290383210332773289_" x="118.79563" y="31.60347" width="1682.40869" height="1016.79303"/>
		</defs>
		<clipPath id="SVGID_00000165945173294748105000000006671615760989919644_">
			<use xlink:href="#SVGID_00000018197306834310083900000004290383210332773289_"  style="overflow:visible;"/>
		</clipPath>
		<path style="clip-path:url(#SVGID_00000165945173294748105000000006671615760989919644_);fill:none;stroke:#202020;" d="
			M129.39825,32.40712h-9.79976v9.95553 M550.78125,42.36265v-9.95553h-9.7998 M540.98145,510.33261h9.7998v-9.95715
			 M119.5985,500.37546v9.95715h9.79976"/>
	</g>
	<line class="st21" x1="228.19704" y1="181.659" x2="228.19704" y2="370.2019"/>
	<line class="st22" x1="254.94508" y1="390.04913" x2="424.35089" y2="390.04913"/>
	<line class="st21" x1="442.18253" y1="360.27881" x2="442.18253" y2="171.73601"/>
	<line class="st22" x1="415.4343" y1="151.88885" x2="246.02847" y2="151.88885"/>
	<path class="st23" d="M237.11363,151.88904h-8.9166v9.92339 M442.18268,161.81242v-9.92339h-8.9166 M433.26608,390.04889h8.9166
		v-9.92343 M228.19704,380.12546v9.92343h8.9166"/>
	<line class="st24" x1="227.39418" y1="720.42511" x2="227.39418" y2="908.33215"/>
	<line class="st25" x1="256.31284" y1="928.11279" x2="1673.32532" y2="928.11279"/>
	<line class="st24" x1="1692.60522" y1="898.44293" x2="1692.60522" y2="710.53595"/>
	<line class="st25" x1="1663.68628" y1="690.75531" x2="246.67381" y2="690.75531"/>
	<path class="st23" d="M237.03336,690.75549h-9.63918v9.88965 M1692.60583,700.64514v-9.88965h-9.64087 M1682.96497,928.11249
		h9.64087v-9.88971 M227.39418,918.22278v9.88971h9.63918"/>
	<g>
		<defs>
			
				<rect id="SVGID_00000137824296986580170920000009142738039282044294_" x="118.79563" y="31.60347" width="1682.40869" height="1016.79303"/>
		</defs>
		<clipPath id="SVGID_00000081621003164885296770000012616922345501066665_">
			<use xlink:href="#SVGID_00000137824296986580170920000009142738039282044294_"  style="overflow:visible;"/>
		</clipPath>
		
			<line style="clip-path:url(#SVGID_00000081621003164885296770000012616922345501066665_);fill:none;stroke:#202020;stroke-dasharray:12.36,12.36;" x1="119.5985" y1="601.04395" x2="119.5985" y2="1027.7467"/>
	</g>
	<g>
		<defs>
			
				<rect id="SVGID_00000138568998358260540210000001397284904922711446_" x="118.79563" y="31.60347" width="1682.40869" height="1016.79303"/>
		</defs>
		<clipPath id="SVGID_00000183238387188180393660000016819545660874296228_">
			<use xlink:href="#SVGID_00000138568998358260540210000001397284904922711446_"  style="overflow:visible;"/>
		</clipPath>
		
			<line style="clip-path:url(#SVGID_00000183238387188180393660000016819545660874296228_);fill:none;stroke:#202020;stroke-dasharray:11.895,11.895;" x1="148.24852" y1="1047.59363" x2="1781.30042" y2="1047.59363"/>
	</g>
	<g>
		<defs>
			
				<rect id="SVGID_00000037665457824404979660000018178741131796928683_" x="118.79563" y="31.60347" width="1682.40869" height="1016.79303"/>
		</defs>
		<clipPath id="SVGID_00000023973326104214436230000002439791913070524063_">
			<use xlink:href="#SVGID_00000037665457824404979660000018178741131796928683_"  style="overflow:visible;"/>
		</clipPath>
		
			<line style="clip-path:url(#SVGID_00000023973326104214436230000002439791913070524063_);fill:none;stroke:#202020;stroke-dasharray:12.36,12.36;" x1="1800.40076" y1="1017.8241" x2="1800.40076" y2="591.11981"/>
	</g>
	<line class="st29" x1="1771.75073" y1="571.27362" x2="138.69875" y2="571.27362"/>
	<g>
		<defs>
			
				<rect id="SVGID_00000013896133386861680030000016983646257974735239_" x="118.79563" y="31.60347" width="1682.40869" height="1016.79303"/>
		</defs>
		<clipPath id="SVGID_00000000924415552765004560000014770316541614423217_">
			<use xlink:href="#SVGID_00000013896133386861680030000016983646257974735239_"  style="overflow:visible;"/>
		</clipPath>
		<path style="clip-path:url(#SVGID_00000000924415552765004560000014770316541614423217_);fill:none;stroke:#202020;" d="
			M129.14775,571.27441h-9.54926v9.9234 M1800.40149,581.19781v-9.9234h-9.5509 M1790.85059,1047.59412h9.5509v-9.92334
			 M119.5985,1037.67078v9.92334h9.54926"/>
	</g>
	<g>
		<defs>
			
				<rect id="SVGID_00000083056455651415643400000006381810595574604932_" x="118.79563" y="31.60347" width="1682.40076" height="1016.79303"/>
		</defs>
		<clipPath id="SVGID_00000166646607432906907140000001332121015495032987_">
			<use xlink:href="#SVGID_00000083056455651415643400000006381810595574604932_"  style="overflow:visible;"/>
		</clipPath>
		<g style="clip-path:url(#SVGID_00000166646607432906907140000001332121015495032987_);">
			<defs>
				
					<rect id="SVGID_00000037672241042813780950000012369740616110993027_" x="118.79563" y="31.60347" width="1682.40869" height="1016.79303"/>
			</defs>
			<clipPath id="SVGID_00000083807992868681985650000010337156217184702356_">
				<use xlink:href="#SVGID_00000037672241042813780950000012369740616110993027_"  style="overflow:visible;"/>
			</clipPath>
			<g style="opacity:0.19;clip-path:url(#SVGID_00000083807992868681985650000010337156217184702356_);">
				<g>
					<defs>
						
							<rect id="SVGID_00000176026078806940346470000014816849438570654596_" x="1571.1615" y="559.23102" width="244.48637" height="251.80853"/>
					</defs>
					<clipPath id="SVGID_00000145060857556709818710000007904903190222936459_">
						<use xlink:href="#SVGID_00000176026078806940346470000014816849438570654596_"  style="overflow:visible;"/>
					</clipPath>
					<g style="clip-path:url(#SVGID_00000145060857556709818710000007904903190222936459_);">
						<defs>
							
								<rect id="SVGID_00000116922975292117394940000008507980901179422638_" x="1585.61304" y="570.47107" width="215.59132" height="238.96272"/>
						</defs>
						<clipPath id="SVGID_00000005243439163788361540000014821677126670659007_">
							<use xlink:href="#SVGID_00000116922975292117394940000008507980901179422638_"  style="overflow:visible;"/>
						</clipPath>
						<path style="clip-path:url(#SVGID_00000005243439163788361540000014821677126670659007_);fill:#202020;" d="
							M1599.3866,684.77734l49.22351-49.22351c2.85657-2.85663,7.49072-2.85663,10.34741,0l49.22351,49.22351
							c2.85815,2.85822,2.85815,7.49072,0,10.34894l-49.22351,49.22192c-2.85669,2.85822-7.49084,2.85822-10.34741,0
							l-49.22351-49.22192C1596.52832,692.26807,1596.52832,687.63556,1599.3866,684.77734"/>
						<path style="clip-path:url(#SVGID_00000005243439163788361540000014821677126670659007_);fill:#202020;" d="
							M1590.22229,796.94159l101.8158-101.81598c2.85669-2.85657,2.85669-7.49072,0-10.34888l-101.8158-101.81439
							c-4.61011-4.6084-1.3457-12.49091,5.17517-12.49091h85.60938c1.94128,0,3.80225,0.77069,5.17529,2.14203l112.16321,112.16327
							c2.85828,2.85815,2.85828,7.49231,0,10.34888l-112.16321,112.16486c-1.37305,1.37292-3.23401,2.14368-5.17529,2.14368
							h-85.61096C1588.87659,809.43414,1585.61218,801.55164,1590.22229,796.94159"/>
						
							<rect x="1623.07739" y="659.24402" transform="matrix(0.70711 -0.70711 0.70711 0.70711 -3.48642 1371.48596)" style="clip-path:url(#SVGID_00000005243439163788361540000014821677126670659007_);fill:#1795D2;" width="61.41491" height="61.41491"/>
						<polygon style="clip-path:url(#SVGID_00000005243439163788361540000014821677126670659007_);fill:#FFFFFF;" points="
							1679.31006,581.88654 1605.29077,581.88654 1713.3562,689.95197 1605.29077,798.0174 1679.31006,798.0174 
							1787.37537,689.95197 						"/>
					</g>
				</g>
			</g>
		</g>
	</g>
	<g>
		<defs>
			
				<rect id="SVGID_00000027592476489408910940000013619749904440476325_" x="118.79563" y="31.60347" width="1682.40076" height="1016.79303"/>
		</defs>
		<clipPath id="SVGID_00000129904441416624075880000018377956223802448784_">
			<use xlink:href="#SVGID_00000027592476489408910940000013619749904440476325_"  style="overflow:visible;"/>
		</clipPath>
		<g style="clip-path:url(#SVGID_00000129904441416624075880000018377956223802448784_);">
			<defs>
				
					<rect id="SVGID_00000062908016195856469640000010098697374653745562_" x="118.79563" y="31.60347" width="1682.40869" height="1016.79303"/>
			</defs>
			<clipPath id="SVGID_00000054962238422619273620000011830015196035646849_">
				<use xlink:href="#SVGID_00000062908016195856469640000010098697374653745562_"  style="overflow:visible;"/>
			</clipPath>
			<g style="opacity:0.19;clip-path:url(#SVGID_00000054962238422619273620000011830015196035646849_);">
				<g>
					<defs>
						
							<rect id="SVGID_00000120547448062243234980000013520173281140713144_" x="104.34409" y="798.19373" width="244.49446" height="251.80864"/>
					</defs>
					<clipPath id="SVGID_00000109732712170164590040000001866341451873475721_">
						<use xlink:href="#SVGID_00000120547448062243234980000013520173281140713144_"  style="overflow:visible;"/>
					</clipPath>
					<g style="clip-path:url(#SVGID_00000109732712170164590040000001866341451873475721_);">
						<defs>
							
								<rect id="SVGID_00000047762015109090765250000000121804962549497495_" x="118.79563" y="809.43378" width="215.59137" height="238.96272"/>
						</defs>
						<clipPath id="SVGID_00000096021092609444622320000014840679845857854876_">
							<use xlink:href="#SVGID_00000047762015109090765250000000121804962549497495_"  style="overflow:visible;"/>
						</clipPath>
						<path style="clip-path:url(#SVGID_00000096021092609444622320000014840679845857854876_);fill:#202020;" d="
							M132.57004,923.74023l49.22357-49.22357c2.85658-2.85657,7.49072-2.85657,10.34891,0l49.22197,49.22357
							c2.85818,2.85822,2.85818,7.49072,0,10.34894l-49.22197,49.22192c-2.85818,2.85822-7.49232,2.85822-10.34891,0
							l-49.22357-49.22192C129.71185,931.23096,129.71185,926.59845,132.57004,923.74023"/>
						<path style="clip-path:url(#SVGID_00000096021092609444622320000014840679845857854876_);fill:#202020;" d="
							M123.40551,1035.90442L225.22147,934.0885c2.85657-2.85657,2.85657-7.49072,0-10.34888L123.40551,821.92523
							c-4.61004-4.6084-1.3456-12.49091,5.17525-12.49091h85.60934c1.94133,0,3.80237,0.77069,5.17526,2.14203l112.16325,112.16327
							c2.85822,2.85815,2.85822,7.49231,0,10.34888l-112.16325,112.16492c-1.37289,1.3728-3.23393,2.14355-5.17526,2.14355
							h-85.61095C122.05991,1048.39697,118.79547,1040.51453,123.40551,1035.90442"/>
						
							<rect x="156.26077" y="898.20709" transform="matrix(0.70711 -0.70711 0.70711 0.70711 -602.08008 404.2793)" style="clip-path:url(#SVGID_00000096021092609444622320000014840679845857854876_);fill:#1795D2;" width="61.41489" height="61.41489"/>
						<polygon style="clip-path:url(#SVGID_00000096021092609444622320000014840679845857854876_);fill:#FFFFFF;" points="
							212.49335,820.84943 138.47414,820.84943 246.53958,928.91486 138.47414,1036.98035 212.49335,1036.98035 
							320.55878,928.91486 						"/>
					</g>
				</g>
			</g>
		</g>
	</g>
</g>
</svg>
