<?xml version="1.0" encoding="utf-8"?>
<!-- Generator: Adobe Illustrator 25.2.1, SVG Export Plug-In . SVG Version: 6.00 Build 0)  -->
<svg version="1.1" xmlns="http://www.w3.org/2000/svg" xmlns:xlink="http://www.w3.org/1999/xlink" x="0px" y="0px"
	 viewBox="0 0 2746 448" style="enable-background:new 0 0 2746 448;" xml:space="preserve">
<style type="text/css">
	.st0{fill:#202020;}
	.st1{fill:#1795D2;}
	.st2{fill:#FFFFFF;}
</style>
<g id="Layer_1">
	<g>
		<g>
			<polygon class="st0" points="2240.54,447.68 2242.1,374.42 2171.06,374.42 2172.62,447.68 2075.32,447.68 2075.32,0.32 
				2173.76,0.32 2206.58,155.94 2239.4,0.32 2337.84,0.32 2337.84,447.68 			"/>
			<path class="st0" d="M2533.29,447.68V0.32h115.48c62.84,0,97.45,35.21,97.45,99.14V367.7c0,50.83-31.41,79.98-86.18,79.98
				H2533.29z M2649.35,359.9 M2649.38,355.91V100.02c0-4.45-0.59-6.78-0.95-7.81c-0.42-0.07-1.04-0.13-1.91-0.13h-16.38v263.81
				C2630.14,355.91,2649.37,355.91,2649.38,355.91z"/>
			<path class="st0" d="M2410.21,447.68c-55.13,0-86.74-32.85-86.74-90.12V91.01c0-57.63,31.41-90.68,86.18-90.68h51.84
				c54.77,0,86.18,33.05,86.18,90.68v266.55c0,57.27-31.61,90.12-86.74,90.12H2410.21z M2420.42,355.74
				c0.65,0.09,1.55,0.17,2.75,0.17h27.55c0.06-0.61,0.1-1.36,0.1-2.3V94.39c0-0.9-0.05-1.6-0.11-2.13
				c-0.65-0.09-1.55-0.17-2.75-0.17h-25.36c-0.92,0-1.64,0.05-2.19,0.11c-0.06,0.55-0.11,1.27-0.11,2.19v259.22
				C2420.31,354.51,2420.36,355.21,2420.42,355.74z"/>
			<path class="st1" d="M2206.58,259.5l50.16-237.81h59.73v404.61h-54.1l5.64-264.86l-40.57,191.6h-41.7l-40.57-191.6l5.64,264.86
				h-54.1V21.69h59.73L2206.58,259.5z"/>
			<path class="st1" d="M2410.21,426.31c-43.58,0-65.37-22.91-65.37-68.75V91.01c0-46.21,21.6-69.31,64.81-69.31h51.84
				c43.19,0,64.8,23.1,64.8,69.31v266.55c0,45.84-21.79,68.75-65.37,68.75H2410.21z M2423.17,377.28h27.61
				c14.27,0,21.42-7.89,21.42-23.67V94.39c0-15.78-8.08-23.67-24.23-23.67h-25.36c-15.78,0-23.67,7.89-23.67,23.67v259.22
				C2398.94,369.39,2407.01,377.28,2423.17,377.28z"/>
			<path class="st1" d="M2554.67,426.31V21.69h94.11c50.72,0,76.08,25.92,76.08,77.77V367.7c0,39.08-21.61,58.61-64.8,58.61H2554.67
				z M2608.76,377.28h40.57c14.27,0,21.42-6.01,21.42-18.03V100.02c0-19.53-8.09-29.3-24.23-29.3h-37.76V377.28z"/>
		</g>
	</g>
</g>
<g id="Layer_2">
	<g>
		<g>
			<g>
				<g>
					<path class="st0" d="M1715.71,214.31l92.15-92.15c5.35-5.35,14.02-5.35,19.37,0l92.15,92.15c5.35,5.35,5.35,14.02,0,19.37
						l-92.15,92.15c-5.35,5.35-14.02,5.35-19.37,0l-92.15-92.15C1710.36,228.34,1710.36,219.66,1715.71,214.31z"/>
				</g>
				<g>
					<path class="st0" d="M1698.56,424.29l190.61-190.61c5.35-5.35,5.35-14.02,0-19.37l-190.61-190.6
						c-8.63-8.63-2.52-23.39,9.69-23.39h160.27c3.63,0,7.12,1.44,9.69,4.01l209.98,209.98c5.35,5.35,5.35,14.02,0,19.37
						L1878.2,443.66c-2.57,2.57-6.05,4.01-9.69,4.01h-160.27C1696.04,447.68,1689.93,432.92,1698.56,424.29z"/>
				</g>
			</g>
			
				<rect x="1760.06" y="166.51" transform="matrix(0.7071 -0.7071 0.7071 0.7071 373.9582 1350.8096)" class="st1" width="114.97" height="114.97"/>
			<polygon class="st2" points="1865.34,21.69 1726.77,21.69 1929.07,224 1726.77,426.3 1865.34,426.3 2067.64,224 			"/>
		</g>
	</g>
</g>
<g id="Layer_3">
	<g>
		<polygon class="st0" points="164.99,447.68 166.55,374.42 95.52,374.42 97.08,447.68 -0.22,447.68 -0.22,0.32 98.22,0.32 
			131.03,155.94 163.85,0.32 262.29,0.32 262.29,447.68 		"/>
		<polygon class="st0" points="1618.57,447.68 1620.13,374.42 1549.09,374.42 1550.65,447.68 1453.35,447.68 1453.35,0.32 
			1551.79,0.32 1584.61,155.94 1617.43,0.32 1715.87,0.32 1715.87,447.68 		"/>
		<path class="st0" d="M334.66,447.68c-55.13,0-86.74-32.85-86.74-90.12V91.01c0-57.63,31.41-90.68,86.18-90.68h51.84
			c54.77,0,86.18,33.05,86.18,90.68v266.55c0,57.27-31.62,90.12-86.74,90.12H334.66z M344.88,355.74c0.65,0.09,1.54,0.17,2.75,0.17
			h27.56c0.06-0.61,0.1-1.36,0.1-2.3V94.39c0-0.9-0.05-1.6-0.11-2.13c-0.65-0.09-1.54-0.17-2.75-0.17h-25.36
			c-0.92,0-1.63,0.05-2.18,0.11c-0.06,0.55-0.11,1.27-0.11,2.19v259.22C344.76,354.51,344.81,355.21,344.88,355.74z"/>
		<polygon class="st0" points="622.97,447.68 624.53,374.42 553.49,374.42 555.05,447.68 457.75,447.68 457.75,0.32 556.19,0.32 
			589.01,155.94 621.83,0.32 720.27,0.32 720.27,447.68 		"/>
		<polygon class="st0" points="705.9,447.68 705.9,0.32 882.76,0.32 882.76,92.09 802.74,92.09 802.74,172.2 873.74,172.2 
			873.74,263.97 802.74,263.97 802.74,355.91 882.76,355.91 882.76,447.68 		"/>
		<polygon class="st0" points="980.53,447.68 980.53,349.01 965.23,300.44 965.23,447.68 868.39,447.68 868.39,0.32 959.81,0.32 
			980.53,70.13 980.53,0.32 1077.37,0.32 1077.37,447.68 		"/>
		<path class="st0" d="M1335.34,447.68c-32.19,0-86.18-12.81-86.18-98.58V0.32H1346v350.47c0,2.51,0.24,4.1,0.46,5.02
			c0.45,0.05,1.05,0.1,1.83,0.1c0,0,22.11,0,22.17,0c0.21-1.04,0.41-2.68,0.41-5.11V0.32h96.84v349.35
			c0,85.28-54.34,98.01-86.74,98.01H1335.34z"/>
		<polygon class="st0" points="1114.84,447.68 1114.84,92.09 1063,92.09 1063,0.32 1263.53,0.32 1263.53,92.09 1211.68,92.09 
			1211.68,447.68 		"/>
		<path class="st2" d="M131.03,259.5l50.15-237.81h59.73v404.61h-54.1l5.64-264.86l-40.57,191.6h-41.7l-40.57-191.6l5.64,264.86
			h-54.1V21.69h59.73L131.03,259.5z"/>
		<path class="st2" d="M334.66,426.31c-43.58,0-65.37-22.91-65.37-68.75V91.01c0-46.21,21.6-69.31,64.81-69.31h51.84
			c43.2,0,64.81,23.1,64.81,69.31v266.55c0,45.84-21.79,68.75-65.37,68.75H334.66z M347.62,377.28h27.61
			c14.27,0,21.41-7.89,21.41-23.67V94.39c0-15.78-8.08-23.67-24.23-23.67h-25.36c-15.78,0-23.67,7.89-23.67,23.67v259.22
			C323.39,369.39,331.47,377.28,347.62,377.28z"/>
		<path class="st2" d="M589.01,259.5l50.15-237.81h59.73v404.61h-54.1l5.64-264.86l-40.57,191.6h-41.7l-40.57-191.6l5.64,264.86
			h-54.1V21.69h59.73L589.01,259.5z"/>
		<path class="st2" d="M727.27,426.31V21.69h134.12v49.03h-80.02v122.85h71v49.03h-71v134.68h80.02v49.03H727.27z"/>
		<path class="st2" d="M1001.9,217.24V21.69h54.1v404.61h-54.1v-80.58l-58.04-184.27v264.86h-54.1V21.69h54.1L1001.9,217.24z"/>
		<path class="st2" d="M1190.31,70.72v355.59h-54.1V70.72h-51.84V21.69h157.79v49.03H1190.31z"/>
		<path class="st2" d="M1446.35,21.69v327.97c0,51.09-21.79,76.64-65.36,76.64h-45.64c-43.21,0-64.81-25.73-64.81-77.2V21.69h54.1
			v329.1c0,17.66,7.89,26.49,23.67,26.49h21.98c14.65,0,21.98-8.82,21.98-26.49V21.69H1446.35z"/>
		<path class="st2" d="M1584.61,259.5l50.16-237.81h59.73v404.61h-54.1l5.64-264.86l-40.57,191.6h-41.7l-40.57-191.6l5.64,264.86
			h-54.1V21.69h59.73L1584.61,259.5z"/>
	</g>
</g>
</svg>
