<svg xmlns="http://www.w3.org/2000/svg" viewBox="0 0 487.333 317.174">
    <path d="M482.59 139.832c-23.858-9.559-47.713-19.127-71.57-28.691-16.435-6.589-32.865-13.19-49.31-19.756-4.097-1.636-5.581-1.35-8.507 1.93-1.146 1.286-2.054.808-3.183.31-24.759-10.911-50.707-14.369-77.468-11.796-32.48 3.123-62.672 13.624-91.036 29.51-8.626 4.831-16.963 10.18-25.618 15.403-6.407-4.139-13.088-8.356-19.66-12.735-4.475-2.98-8.802-6.156-14.049-.79l-.436-.612 1.195-35.503c1.636.878 2.609 1.385 3.569 1.917 8.657 4.799 17.295 9.63 25.975 14.387 2.81 1.54 5.743 2.523 8.825.553 18.95-12.111 37.891-24.238 56.87-36.305 2.702-1.717 3.567-4.106 3.33-7.089-.61-7.71-1.273-15.417-1.852-23.13-.269-3.573-1.88-5.922-5.343-7.218-16.264-6.084-32.554-12.11-48.688-18.525-5.144-2.045-9.725-2.593-14.577.38-.925.567-2.543.563-3.639.205-15.056-4.922-29.045-1.123-38.01 11.927-4.62 6.723-9.915 11.402-17.515 13.911-2.79.922-4.103 3.4-3.316 6.24 1.243 4.492 3.048 8.825 4.405 13.288.48 1.575.658 3.382.43 5.007-.979 6.963-2.384 13.87-3.225 20.848-2.366 19.642-2.529 39.368-1.683 59.108.074 1.723-.437 2.68-1.854 3.568-4.415 2.767-8.747 5.663-13.112 8.509-23.281 15.178-46.557 30.364-69.85 45.526-4.274 2.782-4.886 6.4-1.56 10.222 2.17 2.492 4.411 4.92 6.612 7.383 22.586 25.28 45.162 50.568 67.761 75.837 4.634 5.18 8.998 10.674 14.115 15.333 6.219 5.664 13.09 10.612 19.704 15.84 4.205 3.323 6.707 3.148 10.348-.688a69696 69696 0 0 0 40.382-42.576c20.927-22.083 41.834-44.186 62.795-66.237 2.021-2.126 2.845-4.404 2.5-7.313-.943-7.937-1.768-15.89-2.62-23.838-.305-2.852-1.52-4.957-4.095-6.513-5.721-3.455-11.3-7.147-16.922-10.764-4.77-3.069-9.519-6.17-14.521-9.415 1.22-.753 2.057-1.371 2.977-1.82 10.452-5.093 20.694-10.698 31.421-15.13 27.83-11.496 56.706-16.98 86.876-12.786 6.656.926 13.193 2.707 20.265 4.195-.987 1.3-1.432 1.923-1.914 2.516-9.209 11.33-18.458 22.626-27.596 34.013-1.38 1.719-2.727 3.728-3.26 5.815-2 7.815-3.514 15.755-5.486 23.579-1.665 6.61.544 7.837 4.44 10.149 41.219 24.46 82.427 48.937 123.635 73.415 3.908 2.321 5.952 2.214 9.438-.635 7.94-6.49 15.835-13.037 23.823-19.468 2.122-1.708 3.5-3.693 4.273-6.317 2.433-8.246 5.022-16.447 7.555-24.665 7.368-23.905 14.744-47.808 22.102-71.717 1.45-4.715.33-6.999-4.145-8.792m-358.447-16.228c3.009-2.705 5.448-2.238 8.52-.005 4.73 3.438 9.794 6.418 14.96 9.75l-24.145 19.756c-.28-4.046-.583-7.782-.788-11.524-.252-4.583-.321-9.178-.677-13.751-.155-2.002.733-2.97 2.13-4.226m16.984-48.014c-4.116-2.283-8.11-4.801-12.304-6.929-4.211-2.137-4.495-2.254-3.865-6.886.253-1.861.788-3.684 1.277-5.895l19.495 9.556 3.678 14.483s-5.76-2.931-8.28-4.33M211.05 49.16c.022.823-1.27 1.904-2.19 2.498-11.344 7.303-22.73 14.538-34.107 21.788-4.584 2.921-9.171 5.836-14.244 9.062l-4.86-18.01 54.4-30.535c.398 5.444.868 10.316 1 15.197m-47.444-37.408 39.104 14.79c-7.526 4.238-14.517 8.174-21.506 12.112-9.34 5.261-18.712 10.47-27.997 15.826-2.309 1.332-4.222 1.665-6.714.293-5.3-2.918-10.769-5.536-16.216-8.179-1.498-.726-2.04-1.384-1.384-3.148 1.845-4.959 3.52-9.98 7.245-13.94 2.466-2.62 4.728-3.313 7.941-1.665 3.283 1.684 6.574 3.61 9.307 6.052 5.459 4.876 12.734 3.445 17.11-.066 3.893-3.124 4.714-7.435 1.786-11.486-2.067-2.861-4.678-5.34-7.14-7.899-.635-.66-1.623-.98-2.448-1.457zm52.408 185.557c.056 1.198-1.051 2.66-1.988 3.662-8.128 8.69-16.338 17.303-24.523 25.94l-65.952 69.596c-2.45 2.584-4.86 5.206-7.384 7.715-.483.48-1.741.946-2.083.686-4.393-3.352-8.685-6.837-13.258-10.492L214.559 183.85c.592 5.075 1.26 9.256 1.455 13.46m-7.988-25.071c.704.454 1.36.98 2.368 1.711L93.51 287.554l-81.266-90.926 77.098-50.247c.386 4.572.664 8.506 1.06 12.429a4688 4688 0 0 0 3.463 33.332c.268 2.485.7 4.966 1.257 7.404.78 3.415 2.767 5.01 6.294 5.007 9.951-.01 18.678-3.184 25.796-10.306 14.283-14.29 29.868-26.994 46.564-38.354 4.32-2.94 4.297-2.962 8.713-.114 8.511 5.488 17.029 10.967 25.537 16.46m87.676-65.88c-26.937-.926-52.527 5.027-77.278 15.013-34.652 13.98-65.113 34.492-92.186 60.141-2.648 2.51-5.17 5.163-7.921 7.552-3.963 3.438-8.62 5.26-14.291 5.51-.893-7.879-1.93-15.338-2.547-22.832-1.169-14.165-2.476-28.337-3.008-42.533-.448-11.966-.072-23.976.289-35.957.407-13.514 1.707-26.993 4.861-40.15 2.693-11.233 5.838-22.4 12.808-32.002 8.543-11.77 21.242-14.313 33.458-6.282 5.007 3.292 9.479 7.162 13.337 11.715l-.449.842c-1.128-.486-2.415-.766-3.357-1.493-4.548-3.51-9.172-6.813-14.902-8.173-7.16-1.7-12.556 1.207-16.855 6.591-5.078 6.36-7.473 13.977-9.584 21.678-2.679 9.772-4.216 19.738-4.714 29.847-.602 12.217-1.564 24.445-1.447 36.66.14 14.733 1.242 29.457 1.952 44.184.1 2.076.375 4.143.502 6.219.157 2.591 1.284 4.38 3.813 5.312 2.488.918 4.158-.407 5.812-1.855 6.335-5.548 12.508-11.29 19.007-16.637 14.343-11.8 29.583-22.295 45.975-31.103 18.812-10.11 38.461-18.012 59.299-22.774 17.929-4.098 36.069-5.558 54.445-3.995 17.42 1.482 33.967 5.832 49.473 14.04 20.638 10.923 36.681 26.579 48.484 46.661.263.448.493.917.719 1.385.73 1.518 2.11 3.03.39 4.7-1.791 1.738-3.858 3.376-6.419 1.916-2.262-1.29-4.81-2.715-6.215-4.774-12.263-17.982-28.225-31.501-48.31-39.806-14.39-5.949-29.494-9.062-45.141-9.6m128.94 154.91c-.566.446-2.05.32-2.774-.108-14.815-8.745-29.574-17.586-44.36-26.38-17.987-10.698-35.987-21.373-53.983-32.054-6.84-4.06-13.708-8.077-20.498-12.22-.677-.413-1.396-1.66-1.26-2.359 1.028-5.306 2.264-10.572 3.555-16.39l137.344 74.832c-6.317 5.182-12.113 10.003-18.024 14.678m23.998-22.846-138.914-75.685c2.816-3.489 5.353-6.642 7.901-9.786 6.777-8.365 13.588-16.703 20.313-25.11 1.206-1.507 2.269-1.712 3.981-.847 15.732 7.954 28.797 19.009 38.554 33.707 4.017 6.052 9.579 9.553 16.397 10.138 5.354.46 10.068-2.488 13.27-6.972 2.814-3.944 3.25-8.185.84-12.683-8.598-16.055-19.885-29.832-34.285-41.023-.925-.72-1.817-1.482-2.724-2.224l.404-.71 102.073 40.91z" style="fill:#fff;stroke-width:0"/>
</svg>
