<svg xmlns="http://www.w3.org/2000/svg" viewBox="0 0 466 459.44">
    <path d="M161.432 201.899c-1.547-2.883-1.718-9.314-5.107-9.62-5.392-.636-9.72-3.083-13.481-7.053-6.195-6.538-12.785-12.699-19.03-19.19-3.606-4.388-8.565-8.538-10.78-13.778-.246-2.869-2.038-4.62-3.904-6.473-18.34-16.56-34.047-37.233-53.92-51.53C33.672 93.92 21.28 75.7 8.01 61.38c-22.573-33.201 5.85-72.884 44.372-58.257 5.72 2.095 10.021 5.688 14.419 9.406 8.472 7.278 17.659 13.85 23.073 23.898 3.29 4.724 4.237 10.14 4.89 15.701.148 1.269.924 2.733 1.874 3.598 18.934 16.585 37.176 34.752 56.53 50.54 9.19.612 19.064 13.24 26.725 19.208-.622-5.038-7.096-18.022-2.457-20.056 1.975-1.275 4.324-.706 6.532 1.519 11.523 12.007 23.904 23.311 34.925 35.743l.598-.34c-.034-26.693-.796-53.41-1.07-80.112-.767-6.232 7.03-7.72 8.801-1.833 14.208 36.318 28.087 72.703 42.45 108.965 26.086-27.795 51.569-55.743 77.547-83.586 1.907-2.66 5.487-4.196 8.263-2.213.935.759 1.451 2.946 1.108 4.222-9.64 35.138-20.704 69.819-30.41 104.939 16.119-4.741 31.596-9.43 47.594-14.205 3.189-.951 5.205-.45 6.26 1.456 2.66 3.788-3.125 7.92-5.562 10.503 3.392 2.12 5.863 5.632 2.026 8.758-9.042 8.252-17.905 16.197-26.84 24.636 37.495 9.658 74.355 19.156 111.76 28.804 6.124.994 5.887 8.136.615 8.92-42.215 7.332-84.007 14.565-126.283 21.95 16.932 21.46 33.665 42.497 50.6 63.874 14.424 18.283 29.036 36.43 43.363 54.782 3.057 4.35-1.918 9.482-6.042 6.242-29.609-20.075-58.272-39.892-87.958-60.15 5.054 18.58 9.917 36.188 14.966 54.608 2.283 4.494-3.506 9.895-7.16 5.381-21.194-23.2-42.122-46.579-63.108-69.97-4.352 10.153-11.158-1.66-14.448-6.393l-53.784 117.34c-2.2 3.673-3.151 11.662-8.915 9.943-2.327-.66-3.27-2.167-3.02-5.054 2.611-31.247 5.696-62.432 8.123-93.689-6.192 5.474-11.734 10.41-17.684 15.933-1.89 1.765-3.94 2.278-6.176 1.001-2.243-1.281-2.087-3.41-1.56-5.579 5.064-21.225 10.462-42.277 15.322-63.56-35.064 13.05-69.713 26.737-104.78 39.703-2.088.566-3.961.165-4.95-1.869-.96-1.972-.757-4.034 1.047-5.49 30.316-23.832 60.708-47.227 91.189-70.892-20.417-7.473-40.788-14.434-61.273-21.64-5.106-1.273-4.782-8.06.443-8.81 5.037-1.25 10-2.793 15.609-4.392-20.304-11.117-42.782-18.94-62.195-31.168-1.989-3.465.49-6.876 4.783-6.643 9.163.498 18.32 1.096 27.48 1.646 18.633 1 37.157 2.462 55.81 3.2m111.6 125.934c6.48-7.995 12.11 5.382 16.828 9.079 16.51 18.22 32.476 36.15 49.161 54.321-2.984-12.145-6.532-23.89-9.736-35.954-.533-4.871-6.858-16.461-2.544-19.628 2.186-1.723 4.535-.286 6.414 1.113 24.59 16.813 49.189 33.612 73.77 50.437l.323-.353-82.841-104.536c-8.962 11.465-19.766 21.047-30.545 30.724-2.657 2.38-5.808 2.6-9.146.907-9.694-4.544-19.461-8.76-27.349-16.232-.992-1.268-1.541-3.638-3.102-4.445-11.692-5.711-23.426-11.337-35.166-16.95-2.65-.975-5.276.469-7.311-2.226-4.188-4.266-8.517-8.405-12.51-12.846-3.92-3.674-3.996-11.197-10.06-12.175-6.652-2.701-10.923-9.675-15.987-14.576-2.812-3.27-6.472-6.443-4.902-11.704-.589-3.411-2.506-6.839-3.301-10.279-.53-1.903-1.56-2.387-3.423-2.436-22.034-1.14-43.569-2.599-65.942-3.86 17.133 8.918 34.719 16.797 52.039 25.353 4.056 1.198 4.46 7.328-.049 8.271-4.86 1.315-9.695 2.72-14.993 4.217 18.83 6.875 37.67 13.278 56.555 19.957 4.643 1.067 4.712 6.524.926 8.71-24.778 19.246-49.623 38.405-74.353 57.713 28.66-9.452 57.036-21.642 85.6-32.014 4.13-2.113 7.154 1.575 6.136 5.544-4.612 19.833-9.424 39.077-14.104 58.97 6.097-5.278 10.813-10.038 16.838-14.982 3.537-2.394 5.756-.828 7.007 3.01-2.073 27.33-4.882 54.776-7.062 82.153 17.85-35.932 33.565-73.168 50.69-109.543 3.965-8.065 9.228-.348 12.14 4.26m-48.194-171.3.19.78c3.883.527 8.761.131 12.172 2.026 6.02 4.858 11.864 9.945 17.595 15.145 1.827 3.127 3.501 6.811 6.953 8.685 8.238 2.441 13.556 9.937 20.276 15.008 4.679 3.665 2.228 4.762 4.02 8.709 5.848 10.681 11.718 21.35 17.576 32.026.964 1.756 1.734 3.55 4.25 3.732 8.394 5.522 12.437 15.638 17.23 24.065 1.724 3.083 4.006 6.016 2.795 10.057l115.133-20.047c-33.682-9.601-67.332-17.73-101.13-26.562-1.875-.484-3.829-.983-4.362-3.295-.837-4.823 8.657-9.814 11.597-13.487 4.318-3.967 8.614-7.957 13-12.012-8.31-2.274-3.11-6.915-.143-10.936-13.294 3.892-26.229 8.029-39.526 11.72-1.55.423-3.869.035-5.068-.93-.917-.737-1.193-3.138-.793-4.52 9.18-31.806 18.593-63.543 27.866-95.321l-.7-.551c-23.164 26.65-48.019 52.05-71.922 78.118-2.927 3.125-6.234 2.372-7.786-1.618-12.33-31.565-24.471-63.204-36.899-94.73-.738 22.558.654 45.207.663 67.808.04 2.512-.009 4.967-2.987 6.13m-83.316-49.355c-22.728-19.83-44.315-41.03-67.656-60.175-5.057-4.088-11.231-4.293-16.921-1.975-11.378 3.856-15.793 20.128-7.494 29.127 20.386 21.905 42.036 42.603 63.279 63.669 4.62-15.01 14.148-24.978 28.792-30.646m80.623 161.095c11.696 6.197 24.021 11.618 35.973 17.46 3.172.98 10.853-10.027 13.857-12.342 8.129-8.517 16.232-17.057 24.4-25.536 1.226-1.273 1.455-2.29.54-3.909-6.432-11.424-12.688-23.034-19.063-34.473-12.606 4.798-53.047 47.691-55.707 58.8M47.24 84.863c-29.132-27.21 7.864-67.655 37.635-40.705C80.574 35 73.736 28.609 65.995 22.49c-6.487-5.728-12.76-11.825-21.758-13.455-15.197-3.878-30.317 4.308-35.25 19.16-1.807 10.192-.28 20.845 6.398 29.192C20.67 63.38 26.52 68.885 31.643 75.002c4.207 5.023 10.046 7.003 15.598 9.861m124.958 123.432.747.214c8.898-19.107 24.282-34.902 42.518-45.372-6.315-2.077-12.512-3.824-18.702-5.598-4.832-1.385-5.926-2.699-6.485-7.667-.38-3.388-2.1-6.329-4.262-6.378-16.374.263-32.584 17.896-34.71 33.617-.836 11.42 11.737 3.022 14.261 12.156zm6.501-72.953c-18.594-15.23-26.1-32.954-49.09-10.79-6.267 6.785-13.335 18.633-7.28 27.555 6.747 7.48 13.297 14.363 20.316 21.744 6.003-18.774 17.715-31.486 36.054-38.509m94.578 66.328c-3.105-1.874-10.06-11.256-13.487-9.237-16.962 7.19-29.697 21.56-41.444 35.297-4.052 5.598-16.896 20.53-13.649 27.218 3.265 3.15 6.572 6.255 9.511 9.045 15.554-24.268 35.317-45.012 59.07-62.323m31.928 49.188-40.373 42.498c6.663 5.593 14.226 8.509 21.863 12.26 1.352.679 2.363.837 3.552-.27 4.676-4.35 9.651-8.407 14.053-13.015 4.925-5.157 9.343-10.797 13.996-16.215 1.106-1.288 1.203-2.479.302-4.025-4.14-7.483-7.688-14.616-13.393-21.233M185.99 235.627c9.762-26.604 32.037-47.862 56.802-60.883-3.314-2.422-6.724-6.626-10.718-8.586-14.215 1.923-25.45 12.724-35.218 22.42-6.58 7.092-26.617 31.074-17.945 40.19 2.443 2.175 4.708 4.548 7.08 6.859m66.036-49.252c-4.15-3.884-7.263-3.82-11.78-.948-6.005 3.7-11.748 7.735-16.999 12.557-6.743 6.471-39.188 38.445-25.39 45.565 13.213-23.291 31.11-42.14 54.17-57.174m-31.65-30.775-32.846-32.688c2.588 15.797 8.778 12.902 10.912 25.416.233.538.667 1.236 1.153 1.378 6.839 1.993 13.702 3.902 20.78 5.894" style="fill:#fff;stroke-width:0"/>
</svg>
