<?xml version="1.0" encoding="UTF-8"?>
<svg id="Layer_2"
	xmlns="http://www.w3.org/2000/svg" viewBox="0 0 2453.48723 2759.99805">
	<defs>
		<style>.cls-1{fill:#fff;stroke-width:0px;}</style>
	</defs>
	<g id="Layer_1-2">
		<path class="cls-1" d="m2428.73188,1320.229L1133.24653,24.75476c-15.85034-15.85022-37.34814-24.75476-59.76367-24.75476H84.68989C9.39106,0-28.31841,91.03943,24.92622,144.28339l640.89844,640.89301L130.77241,1320.22876c-33.00684,33.00684-33.00684,86.52136,0,119.52808l535.05493,535.05518L24.92427,2615.71484c-53.24365,53.24414-15.53418,144.2832,59.76416,144.2832h988.79395c22.41602,0,43.91382-8.90479,59.76416-24.75513l1295.4856-1295.4856c33.00684-33.00684,33.00684-86.52161-.00024-119.52832Zm-1374.85303,1307.90527H198.96138l1025.50122-1025.50146,162.87598-162.87598c.00024-.00024.00073-.00061.00098-.00098l59.76294-59.76294-59.76221-59.76245c-.00073-.00049-.00122-.0011-.00171-.00171l-50.36621-50.36621L198.96138,131.84973h854.91748l1248.14111,1248.14319-1248.14111,1248.14136Z"/>
	</g>
</svg>