<svg xmlns="http://www.w3.org/2000/svg" viewBox="0 0 2746 448" xml:space="preserve"><style>.st0{fill:#202020}.st1{fill:#1795d2}.st2{fill:#fff}</style><g id="Layer_1"><path d="m2240.54 447.68 1.56-73.26h-71.04l1.56 73.26h-97.3V.32h98.44l32.82 155.62L2239.4.32h98.44v447.36zm292.75 0V.32h115.48c62.84 0 97.45 35.21 97.45 99.14V367.7c0 50.83-31.41 79.98-86.18 79.98zm116.09-91.77V100.02c0-4.45-.59-6.78-.95-7.81-.42-.07-1.04-.13-1.91-.13h-16.38v263.81c0 .02 19.23.02 19.24.02" class="st0"/><path d="M2410.21 447.68c-55.13 0-86.74-32.85-86.74-90.12V91.01c0-57.63 31.41-90.68 86.18-90.68h51.84c54.77 0 86.18 33.05 86.18 90.68v266.55c0 57.27-31.61 90.12-86.74 90.12zm10.21-91.94c.65.09 1.55.17 2.75.17h27.55c.06-.61.1-1.36.1-2.3V94.39c0-.9-.05-1.6-.11-2.13-.65-.09-1.55-.17-2.75-.17h-25.36c-.92 0-1.64.05-2.19.11-.06.55-.11 1.27-.11 2.19v259.22c.01.9.06 1.6.12 2.13" class="st0"/><path d="m2206.58 259.5 50.16-237.81h59.73V426.3h-54.1l5.64-264.86-40.57 191.6h-41.7l-40.57-191.6 5.64 264.86h-54.1V21.69h59.73zm203.63 166.81c-43.58 0-65.37-22.91-65.37-68.75V91.01c0-46.21 21.6-69.31 64.81-69.31h51.84c43.19 0 64.8 23.1 64.8 69.31v266.55c0 45.84-21.79 68.75-65.37 68.75zm12.96-49.03h27.61c14.27 0 21.42-7.89 21.42-23.67V94.39c0-15.78-8.08-23.67-24.23-23.67h-25.36q-23.67 0-23.67 23.67v259.22c0 15.78 8.07 23.67 24.23 23.67m131.5 49.03V21.69h94.11c50.72 0 76.08 25.92 76.08 77.77V367.7c0 39.08-21.61 58.61-64.8 58.61zm54.09-49.03h40.57c14.27 0 21.42-6.01 21.42-18.03V100.02c0-19.53-8.09-29.3-24.23-29.3h-37.76z" class="st1"/></g><g id="Layer_2"><path d="m1715.71 214.31 92.15-92.15c5.35-5.35 14.02-5.35 19.37 0l92.15 92.15c5.35 5.35 5.35 14.02 0 19.37l-92.15 92.15c-5.35 5.35-14.02 5.35-19.37 0l-92.15-92.15c-5.35-5.34-5.35-14.02 0-19.37" class="st0"/><path d="m1698.56 424.29 190.61-190.61c5.35-5.35 5.35-14.02 0-19.37l-190.61-190.6c-8.63-8.63-2.52-23.39 9.69-23.39h160.27c3.63 0 7.12 1.44 9.69 4.01l209.98 209.98c5.35 5.35 5.35 14.02 0 19.37L1878.2 443.66a13.7 13.7 0 0 1-9.69 4.01h-160.27c-12.2.01-18.31-14.75-9.68-23.38" class="st0"/><path d="m1736.236 224.01 81.295-81.295 81.295 81.295-81.295 81.296z" class="st1"/><path d="M1865.34 21.69h-138.57L1929.07 224l-202.3 202.3h138.57l202.3-202.3z" class="st2"/></g><g id="Layer_3"><path d="m164.99 447.68 1.56-73.26H95.52l1.56 73.26H-.22V.32h98.44l32.81 155.62L163.85.32h98.44v447.36zm1453.58 0 1.56-73.26h-71.04l1.56 73.26h-97.3V.32h98.44l32.82 155.62L1617.43.32h98.44v447.36z" class="st0"/><path d="M334.66 447.68c-55.13 0-86.74-32.85-86.74-90.12V91.01c0-57.63 31.41-90.68 86.18-90.68h51.84c54.77 0 86.18 33.05 86.18 90.68v266.55c0 57.27-31.62 90.12-86.74 90.12zm10.22-91.94c.65.09 1.54.17 2.75.17h27.56c.06-.61.1-1.36.1-2.3V94.39c0-.9-.05-1.6-.11-2.13-.65-.09-1.54-.17-2.75-.17h-25.36c-.92 0-1.63.05-2.18.11-.06.55-.11 1.27-.11 2.19v259.22c-.02.9.03 1.6.1 2.13" class="st0"/><path d="m622.97 447.68 1.56-73.26h-71.04l1.56 73.26h-97.3V.32h98.44l32.82 155.62L621.83.32h98.44v447.36z" class="st0"/><path d="M705.9 447.68V.32h176.86v91.77h-80.02v80.11h71v91.77h-71v91.94h80.02v91.77z" class="st0"/><path d="M980.53 447.68v-98.67l-15.3-48.57v147.24h-96.84V.32h91.42l20.72 69.81V.32h96.84v447.36zm354.81 0c-32.19 0-86.18-12.81-86.18-98.58V.32H1346v350.47c0 2.51.24 4.1.46 5.02.45.05 1.05.1 1.83.1h22.17c.21-1.04.41-2.68.41-5.11V.32h96.84v349.35c0 85.28-54.34 98.01-86.74 98.01z" class="st0"/><path d="M1114.84 447.68V92.09H1063V.32h200.53v91.77h-51.85v355.59z" class="st0"/><path d="m131.03 259.5 50.15-237.81h59.73V426.3h-54.1l5.64-264.86-40.57 191.6h-41.7l-40.57-191.6 5.64 264.86h-54.1V21.69h59.73zm203.63 166.81c-43.58 0-65.37-22.91-65.37-68.75V91.01c0-46.21 21.6-69.31 64.81-69.31h51.84c43.2 0 64.81 23.1 64.81 69.31v266.55c0 45.84-21.79 68.75-65.37 68.75zm12.96-49.03h27.61c14.27 0 21.41-7.89 21.41-23.67V94.39c0-15.78-8.08-23.67-24.23-23.67h-25.36q-23.67 0-23.67 23.67v259.22q.015 23.67 24.24 23.67M589.01 259.5l50.15-237.81h59.73V426.3h-54.1l5.64-264.86-40.57 191.6h-41.7l-40.57-191.6 5.64 264.86h-54.1V21.69h59.73zm138.26 166.81V21.69h134.12v49.03h-80.02v122.85h71v49.03h-71v134.68h80.02v49.03zm274.63-209.07V21.69h54.1V426.3h-54.1v-80.58l-58.04-184.27v264.86h-54.1V21.69h54.1zm188.41-146.52v355.59h-54.1V70.72h-51.84V21.69h157.79v49.03zm256.04-49.03v327.97c0 51.09-21.79 76.64-65.36 76.64h-45.64c-43.21 0-64.81-25.73-64.81-77.2V21.69h54.1v329.1q0 26.49 23.67 26.49h21.98c14.65 0 21.98-8.82 21.98-26.49V21.69zm138.26 237.81 50.16-237.81h59.73V426.3h-54.1l5.64-264.86-40.57 191.6h-41.7l-40.57-191.6 5.64 264.86h-54.1V21.69h59.73z" class="st2"/></g></svg>